0
SECTION
2
ENTITIES
0
CIRCLE
8
1
10
20
20
0
30
0
40
1.5
0
CIRCLE
8
1
10
30
20
0
30
0
40
1.5
0
CIRCLE
8
1
10
40
20
0
30
0
40
1.5
0
CIRCLE
8
1
10
50
20
0
30
0
40
1.5
0
ARC
8
1
10
45
20
9
30
0
40
4
50
-90
51
90
0
LINE
8
1
10
45
20
13
30
0
11
27
21
13
31
0
0
ARC
8
1
10
27
20
9
30
0
40
4
50
90
51
-90
0
LINE
8
1
10
27
20
5
30
0
11
45
21
5
31
0
0
CIRCLE
8
1
10
25
20
28
30
0
40
4
0
CIRCLE
8
1
10
36
20
21
30
0
40
3
0
CIRCLE
8
1
10
36
20
28
30
0
40
2
0
CIRCLE
8
1
10
47
20
28
30
0
40
4
0
ARC
8
1
10
57
20
0
30
0
40
3
50
-90
51
0
0
LINE
8
1
10
57
20
-3
30
0
11
15
21
-3
31
0
0
ARC
8
1
10
15
20
0
30
0
40
3
50
180
51
-90
0
LINE
8
1
10
12
20
0
30
0
11
12
21
35
31
0
0
ARC
8
1
10
16
20
35
30
0
40
4
50
90
51
180
0
LINE
8
1
10
16
20
39
30
0
11
56
21
39
31
0
0
ARC
8
1
10
56
20
35
30
0
40
4
50
0
51
90
0
LINE
8
1
10
60
20
35
30
0
11
60
21
0
31
0
0
CIRCLE
8
ENTITIES 5
10
20
20
0
30
0
40
1.5
0
CIRCLE
8
ENTITIES 6
10
30
20
0
30
0
40
1.5
0
CIRCLE
8
ENTITIES 7
10
40
20
0
30
0
40
1.5
0
CIRCLE
8
ENTITIES 8
10
50
20
0
30
0
40
1.5
0
ARC
8
ENTITIES 12
10
45
20
9
30
0
40
4
50
-90
51
90
0
LINE
8
ENTITIES 12
10
45
20
13
30
0
11
27
21
13
31
0
0
ARC
8
ENTITIES 12
10
27
20
9
30
0
40
4
50
90
51
-90
0
LINE
8
ENTITIES 12
10
27
20
5
30
0
11
45
21
5
31
0
0
CIRCLE
8
ENTITIES 13
10
25
20
28
30
0
40
4
0
CIRCLE
8
ENTITIES 14
10
36
20
21
30
0
40
3
0
CIRCLE
8
ENTITIES 15
10
36
20
28
30
0
40
2
0
CIRCLE
8
ENTITIES 16
10
47
20
28
30
0
40
4
0
ARC
8
ENTITIES 4
10
57
20
0
30
0
40
3
50
-90
51
0
0
LINE
8
ENTITIES 4
10
57
20
-3
30
0
11
15
21
-3
31
0
0
ARC
8
ENTITIES 4
10
15
20
0
30
0
40
3
50
180
51
-90
0
LINE
8
ENTITIES 4
10
12
20
0
30
0
11
12
21
35
31
0
0
ARC
8
ENTITIES 4
10
16
20
35
30
0
40
4
50
90
51
180
0
LINE
8
ENTITIES 4
10
16
20
39
30
0
11
56
21
39
31
0
0
ARC
8
ENTITIES 4
10
56
20
35
30
0
40
4
50
0
51
90
0
LINE
8
ENTITIES 4
10
60
20
35
30
0
11
60
21
0
31
0
0
ENDSEC
0
EOF