0
SECTION
2
ENTITIES
0
CIRCLE
8
1
10
5
20
5
30
0
40
2
0
ARC
8
1
10
45
20
9
30
0
40
4
50
-90
51
90
0
LINE
8
1
10
45
20
13
30
0
11
27
21
13
31
0
0
ARC
8
1
10
27
20
9
30
0
40
4
50
90
51
-90
0
LINE
8
1
10
27
20
5
30
0
11
46
21
5
31
0
0
CIRCLE
8
1
10
67
20
5
30
0
40
2
0
CIRCLE
8
1
10
25
20
28
30
0
40
4
0
CIRCLE
8
1
10
36
20
21
30
0
40
3
0
CIRCLE
8
1
10
36
20
28
30
0
40
2
0
CIRCLE
8
1
10
47
20
28
30
0
40
4
0
LINE
8
1
10
15
20
16
30
0
11
15
21
17
31
0
0
LINE
8
1
10
17
20
17
30
0
11
17
21
12
31
0
0
LINE
8
1
10
15
20
10
30
0
11
5
21
10
31
0
0
LINE
8
1
10
5
20
0
30
0
11
67
21
0
31
0
0
LINE
8
1
10
67
20
10
30
0
11
57
21
10
31
0
0
LINE
8
1
10
55
20
12
30
0
11
55
21
17
31
0
0
LINE
8
1
10
57
20
17
30
0
11
57
21
16
31
0
0
LINE
8
1
10
58
20
15
30
0
11
59
21
15
31
0
0
LINE
8
1
10
60
20
16
30
0
11
60
21
28
31
0
0
LINE
8
1
10
59
20
29
30
0
11
58
21
29
31
0
0
LINE
8
1
10
57
20
28
30
0
11
57
21
27
31
0
0
LINE
8
1
10
55
20
27
30
0
11
55
21
30
31
0
0
LINE
8
1
10
58
20
33
30
0
11
58
21
36
31
0
0
LINE
8
1
10
55
20
39
30
0
11
17
21
39
31
0
0
LINE
8
1
10
14
20
36
30
0
11
14
21
33
31
0
0
LINE
8
1
10
17
20
30
30
0
11
17
21
27
31
0
0
LINE
8
1
10
15
20
27
30
0
11
15
21
28
31
0
0
LINE
8
1
10
14
20
29
30
0
11
13
21
29
31
0
0
LINE
8
1
10
12
20
28
30
0
11
12
21
16
31
0
0
LINE
8
1
10
13
20
15
30
0
11
14
21
15
31
0
0
ARC
8
1
10
14
20
16
30
0
40
1
50
-90
51
0
0
ARC
8
1
10
16
20
17
30
0
40
1
50
0
51
180
0
ARC
8
1
10
15
20
12
30
0
40
2
50
-90
51
0
0
ARC
8
1
10
5
20
5
30
0
40
5
50
90
51
-90
0
ARC
8
1
10
67
20
5
30
0
40
5
50
-90
51
90
0
ARC
8
1
10
57
20
12
30
0
40
2
50
180
51
-90
0
ARC
8
1
10
56
20
17
30
0
40
1
50
0
51
180
0
ARC
8
1
10
58
20
16
30
0
40
1
50
180
51
-90
0
ARC
8
1
10
59
20
16
30
0
40
1
50
-90
51
0
0
ARC
8
1
10
59
20
28
30
0
40
1
50
0
51
90
0
ARC
8
1
10
58
20
28
30
0
40
1
50
90
51
180
0
ARC
8
1
10
56
20
27
30
0
40
1
50
180
51
0
0
ARC
8
1
10
57
20
30
30
0
40
2
50
90
51
180
0
ARC
8
1
10
57
20
33
30
0
40
1
50
-90
51
0
0
ARC
8
1
10
55
20
36
30
0
40
3
50
0
51
90
0
ARC
8
1
10
17
20
36
30
0
40
3
50
90
51
180
0
ARC
8
1
10
15
20
33
30
0
40
1
50
180
51
-90
0
ARC
8
1
10
15
20
30
30
0
40
2
50
0
51
90
0
ARC
8
1
10
16
20
27
30
0
40
1
50
180
51
0
0
ARC
8
1
10
14
20
28
30
0
40
1
50
0
51
90
0
ARC
8
1
10
13
20
28
30
0
40
1
50
90
51
180
0
ARC
8
1
10
13
20
16
30
0
40
1
50
180
51
-90
0
CIRCLE
8
3
10
5
20
5
30
0
40
2
0
ARC
8
50
10
45
20
9
30
0
40
4
50
-90
51
90
0
LINE
8
50
10
45
20
13
30
0
11
27
21
13
31
0
0
ARC
8
50
10
27
20
9
30
0
40
4
50
90
51
-90
0
LINE
8
50
10
27
20
5
30
0
11
46
21
5
31
0
0
CIRCLE
8
27
10
67
20
5
30
0
40
2
0
CIRCLE
8
2
10
25
20
28
30
0
40
4
0
CIRCLE
8
25
10
36
20
21
30
0
40
3
0
CIRCLE
8
26
10
36
20
28
30
0
40
2
0
CIRCLE
8
24
10
47
20
28
30
0
40
4
0
LINE
8
4
10
15
20
16
30
0
11
15
21
17
31
0
0
LINE
8
4
10
17
20
17
30
0
11
17
21
12
31
0
0
LINE
8
4
10
15
20
10
30
0
11
5
21
10
31
0
0
LINE
8
4
10
5
20
0
30
0
11
67
21
0
31
0
0
LINE
8
4
10
67
20
10
30
0
11
57
21
10
31
0
0
LINE
8
4
10
55
20
12
30
0
11
55
21
17
31
0
0
LINE
8
4
10
57
20
17
30
0
11
57
21
16
31
0
0
LINE
8
4
10
58
20
15
30
0
11
59
21
15
31
0
0
LINE
8
4
10
60
20
16
30
0
11
60
21
28
31
0
0
LINE
8
4
10
59
20
29
30
0
11
58
21
29
31
0
0
LINE
8
4
10
57
20
28
30
0
11
57
21
27
31
0
0
LINE
8
4
10
55
20
27
30
0
11
55
21
30
31
0
0
LINE
8
4
10
58
20
33
30
0
11
58
21
36
31
0
0
LINE
8
4
10
55
20
39
30
0
11
17
21
39
31
0
0
LINE
8
4
10
14
20
36
30
0
11
14
21
33
31
0
0
LINE
8
4
10
17
20
30
30
0
11
17
21
27
31
0
0
LINE
8
4
10
15
20
27
30
0
11
15
21
28
31
0
0
LINE
8
4
10
14
20
29
30
0
11
13
21
29
31
0
0
LINE
8
4
10
12
20
28
30
0
11
12
21
16
31
0
0
LINE
8
4
10
13
20
15
30
0
11
14
21
15
31
0
0
ARC
8
4
10
14
20
16
30
0
40
1
50
-90
51
0
0
ARC
8
4
10
16
20
17
30
0
40
1
50
0
51
180
0
ARC
8
4
10
15
20
12
30
0
40
2
50
-90
51
0
0
ARC
8
4
10
5
20
5
30
0
40
5
50
90
51
-90
0
ARC
8
4
10
67
20
5
30
0
40
5
50
-90
51
90
0
ARC
8
4
10
57
20
12
30
0
40
2
50
180
51
-90
0
ARC
8
4
10
56
20
17
30
0
40
1
50
0
51
180
0
ARC
8
4
10
58
20
16
30
0
40
1
50
180
51
-90
0
ARC
8
4
10
59
20
16
30
0
40
1
50
-90
51
0
0
ARC
8
4
10
59
20
28
30
0
40
1
50
0
51
90
0
ARC
8
4
10
58
20
28
30
0
40
1
50
90
51
180
0
ARC
8
4
10
56
20
27
30
0
40
1
50
180
51
0
0
ARC
8
4
10
57
20
30
30
0
40
2
50
90
51
180
0
ARC
8
4
10
57
20
33
30
0
40
1
50
-90
51
0
0
ARC
8
4
10
55
20
36
30
0
40
3
50
0
51
90
0
ARC
8
4
10
17
20
36
30
0
40
3
50
90
51
180
0
ARC
8
4
10
15
20
33
30
0
40
1
50
180
51
-90
0
ARC
8
4
10
15
20
30
30
0
40
2
50
0
51
90
0
ARC
8
4
10
16
20
27
30
0
40
1
50
180
51
0
0
ARC
8
4
10
14
20
28
30
0
40
1
50
0
51
90
0
ARC
8
4
10
13
20
28
30
0
40
1
50
90
51
180
0
ARC
8
4
10
13
20
16
30
0
40
1
50
180
51
-90
0
ENDSEC
0
EOF