999
dxflib 3.7.5.0
  0
SECTION
  2
HEADER
  9
$ACADVER
  1
AC1015
  9
$HANDSEED
  5
FFFF
  9
$DIMADEC
 70
0
  9
$DIMASZ
 40
2.5
  9
$DIMAUNIT
 70
0
  9
$DIMAZIN
 70
2
  9
$DIMDEC
 70
4
  9
$DIMEXE
 40
1.25
  9
$DIMEXO
 40
0.625
  9
$DIMGAP
 40
0.625
  9
$DIMLUNIT
 70
2
  9
$DIMSCALE
 40
1.0
  9
$DIMTSZ
 40
0.0
  9
$DIMTXT
 40
2.5
  9
$DIMZIN
 70
8
  9
$DWGCODEPAGE
  3
ANSI_1252
  9
$INSUNITS
 70
4
  9
$LTSCALE
 40
1
  0
ENDSEC
  0
SECTION
  2
TABLES
  0
TABLE
  2
VPORT
  5
8
100
AcDbSymbolTable
 70
1
  0
VPORT
  5
30
100
AcDbSymbolTableRecord
100
AcDbViewportTableRecord
  2
*Active
 70
0
 10
0.0
 20
0.0
 11
1.0
 21
1.0
 12
286.30555555555549
 22
148.5
 13
0.0
 23
0.0
 14
10.0
 24
10.0
 15
10.0
 25
10.0
 16
0.0
 26
0.0
 36
1.0
 17
0.0
 27
0.0
 37
0.0
 40
297.0
 41
1.92798353909465
 42
50.0
 43
0.0
 44
0.0
 50
0.0
 51
0.0
 71
0
 72
100
 73
1
 74
3
 75
1
 76
1
 77
0
 78
0
281
0
 65
1
110
0.0
120
0.0
130
0.0
111
1.0
121
0.0
131
0.0
112
0.0
122
1.0
132
0.0
 79
0
146
0.0
  0
ENDTAB
  0
TABLE
  2
LTYPE
  5
5
100
AcDbSymbolTable
 70
41
  0
LTYPE
  5
16
100
AcDbSymbolTableRecord
100
AcDbLinetypeTableRecord
  2
Continuous
 70
0
  3
Solid line
 72
65
 73
0
 40
0.0
  0
LTYPE
  5
31
100
AcDbSymbolTableRecord
100
AcDbLinetypeTableRecord
  2
ACAD_ISO15W100
 70
0
  3
ISO double-dash triple-dot __ __ . . . __ __ . .
 72
65
 73
10
 40
39.000000000000007
 49
12.0
 74
0
 49
-3.0
 74
0
 49
12.0
 74
0
 49
-2.9500000000000002
 74
0
 49
0.1
 74
0
 49
-2.9000000000000004
 74
0
 49
0.1
 74
0
 49
-2.9000000000000004
 74
0
 49
0.1
 74
0
 49
-2.9500000000000002
 74
0
  0
LTYPE
  5
32
100
AcDbSymbolTableRecord
100
AcDbLinetypeTableRecord
  2
DIVIDE
 70
0
  3
Divide ____ . . ____ . . ____ . . ____ . . ____
 72
65
 73
6
 40
31.750000000000004
 49
12.699999999999999
 74
0
 49
-6.2999999999999998
 74
0
 49
0.1
 74
0
 49
-6.25
 74
0
 49
0.1
 74
0
 49
-6.2999999999999998
 74
0
  0
LTYPE
  5
33
100
AcDbSymbolTableRecord
100
AcDbLinetypeTableRecord
  2
ACAD_ISO10W100
 70
0
  3
ISO dash dot __ . __ . __ . __ . __ . __ . __ . 
 72
65
 73
4
 40
18.0
 49
12.0
 74
0
 49
-2.9500000000000002
 74
0
 49
0.1
 74
0
 49
-2.9500000000000002
 74
0
  0
LTYPE
  5
34
100
AcDbSymbolTableRecord
100
AcDbLinetypeTableRecord
  2
ACAD_ISO04W100
 70
0
  3
ISO long-dash dot ____ . ____ . ____ . ____ . _
 72
65
 73
4
 40
30.0
 49
24.0
 74
0
 49
-2.9500000000000002
 74
0
 49
0.1
 74
0
 49
-2.9500000000000002
 74
0
  0
LTYPE
  5
35
100
AcDbSymbolTableRecord
100
AcDbLinetypeTableRecord
  2
CENTER2
 70
0
  3
Center (.5x) ___ _ ___ _ ___ _ ___ _ ___ _ ___
 72
65
 73
4
 40
28.575000000000003
 49
19.050000000000001
 74
0
 49
-3.1749999999999998
 74
0
 49
3.1749999999999998
 74
0
 49
-3.1749999999999998
 74
0
  0
LTYPE
  5
36
100
AcDbSymbolTableRecord
100
AcDbLinetypeTableRecord
  2
ACAD_ISO11W100
 70
0
  3
ISO double-dash dot __ __ . __ __ . __ __ . __ _
 72
65
 73
6
 40
33.0
 49
12.0
 74
0
 49
-3.0
 74
0
 49
12.0
 74
0
 49
-2.9500000000000002
 74
0
 49
0.1
 74
0
 49
-2.9500000000000002
 74
0
  0
LTYPE
  5
37
100
AcDbSymbolTableRecord
100
AcDbLinetypeTableRecord
  2
HIDDEN2
 70
0
  3
Hidden (.5x) _ _ _ _ _ _ _ _ _ _ _ _ _ _ _ _ _ 
 72
65
 73
2
 40
4.7624999999999993
 49
3.1749999999999998
 74
0
 49
-1.5874999999999999
 74
0
  0
LTYPE
  5
38
100
AcDbSymbolTableRecord
100
AcDbLinetypeTableRecord
  2
BORDERX2
 70
0
  3
Border (2x) ____  ____  .  ____  ____  .  ___
 72
65
 73
6
 40
88.899999999999977
 49
25.399999999999999
 74
0
 49
-12.699999999999999
 74
0
 49
25.399999999999999
 74
0
 49
-12.649999999999999
 74
0
 49
0.1
 74
0
 49
-12.649999999999999
 74
0
  0
LTYPE
  5
39
100
AcDbSymbolTableRecord
100
AcDbLinetypeTableRecord
  2
ACAD_ISO05W100
 70
0
  3
ISO long-dash double-dot ____ .. ____ .. ____ . 
 72
65
 73
6
 40
33.000000000000007
 49
24.0
 74
0
 49
-2.9500000000000002
 74
0
 49
0.1
 74
0
 49
-2.9000000000000004
 74
0
 49
0.1
 74
0
 49
-2.9500000000000002
 74
0
  0
LTYPE
  5
3A
100
AcDbSymbolTableRecord
100
AcDbLinetypeTableRecord
  2
DASHDOTX2
 70
0
  3
Dash dot (2x) ____  .  ____  .  ____  .  ___
 72
65
 73
4
 40
50.799999999999997
 49
25.399999999999999
 74
0
 49
-12.649999999999999
 74
0
 49
0.1
 74
0
 49
-12.649999999999999
 74
0
  0
LTYPE
  5
3B
100
AcDbSymbolTableRecord
100
AcDbLinetypeTableRecord
  2
HIDDENX2
 70
0
  3
Hidden (2x) ____ ____ ____ ____ ____ ____ ____ 
 72
65
 73
2
 40
19.049999999999997
 49
12.699999999999999
 74
0
 49
-6.3499999999999996
 74
0
  0
LTYPE
  5
3C
100
AcDbSymbolTableRecord
100
AcDbLinetypeTableRecord
  2
CENTERX2
 70
0
  3
Center (2x) ________  __  ________  __  _____
 72
65
 73
4
 40
101.60000000000001
 49
63.5
 74
0
 49
-12.699999999999999
 74
0
 49
12.699999999999999
 74
0
 49
-12.699999999999999
 74
0
  0
LTYPE
  5
3D
100
AcDbSymbolTableRecord
100
AcDbLinetypeTableRecord
  2
BORDER2
 70
0
  3
Border (.5x) __.__.__.__.__.__.__.__.__.__.__.
 72
65
 73
6
 40
22.225000000000001
 49
6.3499999999999996
 74
0
 49
-3.1749999999999998
 74
0
 49
6.3499999999999996
 74
0
 49
-3.125
 74
0
 49
0.1
 74
0
 49
-3.125
 74
0
  0
LTYPE
  5
3E
100
AcDbSymbolTableRecord
100
AcDbLinetypeTableRecord
  2
DASHDOT2
 70
0
  3
Dash dot (.5x) _._._._._._._._._._._._._._._.
 72
65
 73
4
 40
12.699999999999999
 49
6.3499999999999996
 74
0
 49
-3.125
 74
0
 49
0.1
 74
0
 49
-3.125
 74
0
  0
LTYPE
  5
3F
100
AcDbSymbolTableRecord
100
AcDbLinetypeTableRecord
  2
ACAD_ISO12W100
 70
0
  3
ISO dash double-dot __ . . __ . . __ . . __ . . 
 72
65
 73
6
 40
21.0
 49
12.0
 74
0
 49
-2.9500000000000002
 74
0
 49
0.1
 74
0
 49
-2.9000000000000004
 74
0
 49
0.1
 74
0
 49
-2.9500000000000002
 74
0
  0
LTYPE
  5
40
100
AcDbSymbolTableRecord
100
AcDbLinetypeTableRecord
  2
ACAD_ISO07W100
 70
0
  3
ISO dot . . . . . . . . . . . . . . . . . . . . 
 72
65
 73
2
 40
3.0
 49
0.1
 74
0
 49
-2.8999999999999999
 74
0
  0
LTYPE
  5
41
100
AcDbSymbolTableRecord
100
AcDbLinetypeTableRecord
  2
HIDDEN
 70
0
  3
Hidden __ __ __ __ __ __ __ __ __ __ __ __ __ __
 72
65
 73
2
 40
9.5249999999999986
 49
6.3499999999999996
 74
0
 49
-3.1749999999999998
 74
0
  0
LTYPE
  5
42
100
AcDbSymbolTableRecord
100
AcDbLinetypeTableRecord
  2
ACAD_ISO06W100
 70
0
  3
ISO long-dash triple-dot ____ ... ____ ... ____
 72
65
 73
8
 40
36.000000000000007
 49
24.0
 74
0
 49
-2.9500000000000002
 74
0
 49
0.1
 74
0
 49
-2.9000000000000004
 74
0
 49
0.1
 74
0
 49
-2.9000000000000004
 74
0
 49
0.1
 74
0
 49
-2.9500000000000002
 74
0
  0
LTYPE
  5
43
100
AcDbSymbolTableRecord
100
AcDbLinetypeTableRecord
  2
CENTER
 70
0
  3
Center ____ _ ____ _ ____ _ ____ _ ____ _ ____
 72
65
 73
4
 40
50.800000000000004
 49
31.75
 74
0
 49
-6.3499999999999996
 74
0
 49
6.3499999999999996
 74
0
 49
-6.3499999999999996
 74
0
  0
LTYPE
  5
44
100
AcDbSymbolTableRecord
100
AcDbLinetypeTableRecord
  2
DOTX2
 70
0
  3
Dot (2x) .  .  .  .  .  .  .  .  .  .  .  .  .  .
 72
65
 73
2
 40
12.699999999999999
 49
0.1
 74
0
 49
-12.6
 74
0
  0
LTYPE
  5
45
100
AcDbSymbolTableRecord
100
AcDbLinetypeTableRecord
  2
PHANTOM
 70
0
  3
Phantom ______  __  __  ______  __  __  ______ 
 72
65
 73
6
 40
63.500000000000007
 49
31.75
 74
0
 49
-6.3499999999999996
 74
0
 49
6.3499999999999996
 74
0
 49
-6.3499999999999996
 74
0
 49
6.3499999999999996
 74
0
 49
-6.3499999999999996
 74
0
  0
LTYPE
  5
46
100
AcDbSymbolTableRecord
100
AcDbLinetypeTableRecord
  2
ACAD_ISO08W100
 70
0
  3
ISO long-dash short-dash ____ __ ____ __ ____ _
 72
65
 73
4
 40
36.0
 49
24.0
 74
0
 49
-3.0
 74
0
 49
6.0
 74
0
 49
-3.0
 74
0
  0
LTYPE
  5
47
100
AcDbSymbolTableRecord
100
AcDbLinetypeTableRecord
  2
DASHEDX2
 70
0
  3
Dashed (2x) ____  ____  ____  ____  ____  ___
 72
65
 73
2
 40
38.099999999999994
 49
25.399999999999999
 74
0
 49
-12.699999999999999
 74
0
  0
LTYPE
  5
48
100
AcDbSymbolTableRecord
100
AcDbLinetypeTableRecord
  2
ACAD_ISO02W100
 70
0
  3
ISO dash __ __ __ __ __ __ __ __ __ __ __ __ __
 72
65
 73
2
 40
15.0
 49
12.0
 74
0
 49
-3.0
 74
0
  0
LTYPE
  5
49
100
AcDbSymbolTableRecord
100
AcDbLinetypeTableRecord
  2
PHANTOM2
 70
0
  3
Phantom (.5x) ___ _ _ ___ _ _ ___ _ _ ___ _ _
 72
65
 73
6
 40
31.750000000000004
 49
15.875
 74
0
 49
-3.1749999999999998
 74
0
 49
3.1749999999999998
 74
0
 49
-3.1749999999999998
 74
0
 49
3.1749999999999998
 74
0
 49
-3.1749999999999998
 74
0
  0
LTYPE
  5
4A
100
AcDbSymbolTableRecord
100
AcDbLinetypeTableRecord
  2
DASHED2
 70
0
  3
Dashed (.5x) _ _ _ _ _ _ _ _ _ _ _ _ _ _ _ _ _ 
 72
65
 73
2
 40
9.5249999999999986
 49
6.3499999999999996
 74
0
 49
-3.1749999999999998
 74
0
  0
LTYPE
  5
4B
100
AcDbSymbolTableRecord
100
AcDbLinetypeTableRecord
  2
ACAD_ISO09W100
 70
0
  3
ISO long-dash double-short-dash ____ __ __ ____
 72
65
 73
6
 40
45.0
 49
24.0
 74
0
 49
-3.0
 74
0
 49
6.0
 74
0
 49
-3.0
 74
0
 49
6.0
 74
0
 49
-3.0
 74
0
  0
LTYPE
  5
4C
100
AcDbSymbolTableRecord
100
AcDbLinetypeTableRecord
  2
ACAD_ISO13W100
 70
0
  3
ISO double-dash double-dot __ __ . . __ __ . . _
 72
65
 73
8
 40
36.000000000000007
 49
12.0
 74
0
 49
-3.0
 74
0
 49
12.0
 74
0
 49
-2.9500000000000002
 74
0
 49
0.1
 74
0
 49
-2.9000000000000004
 74
0
 49
0.1
 74
0
 49
-2.9500000000000002
 74
0
  0
LTYPE
  5
4D
100
AcDbSymbolTableRecord
100
AcDbLinetypeTableRecord
  2
DOT2
 70
0
  3
Dot (.5x) ........................................
 72
65
 73
2
 40
3.1749999999999998
 49
0.1
 74
0
 49
-3.0749999999999997
 74
0
  0
LTYPE
  5
4E
100
AcDbSymbolTableRecord
100
AcDbLinetypeTableRecord
  2
DASHED
 70
0
  3
Dashed __ __ __ __ __ __ __ __ __ __ __ __ __ _
 72
65
 73
2
 40
19.049999999999997
 49
12.699999999999999
 74
0
 49
-6.3499999999999996
 74
0
  0
LTYPE
  5
4F
100
AcDbSymbolTableRecord
100
AcDbLinetypeTableRecord
  2
ACAD_ISO14W100
 70
0
  3
ISO dash triple-dot __ . . . __ . . . __ . . . _
 72
65
 73
8
 40
24.000000000000004
 49
12.0
 74
0
 49
-2.9500000000000002
 74
0
 49
0.1
 74
0
 49
-2.9000000000000004
 74
0
 49
0.1
 74
0
 49
-2.9000000000000004
 74
0
 49
0.1
 74
0
 49
-2.9500000000000002
 74
0
  0
LTYPE
  5
15
100
AcDbSymbolTableRecord
100
AcDbLinetypeTableRecord
  2
BYLAYER
 70
0
  3

 72
65
 73
0
 40
0.0
  0
LTYPE
  5
50
100
AcDbSymbolTableRecord
100
AcDbLinetypeTableRecord
  2
PHANTOMX2
 70
0
  3
Phantom (2x) ____________    ____    ____   _
 72
65
 73
6
 40
127.00000000000001
 49
63.5
 74
0
 49
-12.699999999999999
 74
0
 49
12.699999999999999
 74
0
 49
-12.699999999999999
 74
0
 49
12.699999999999999
 74
0
 49
-12.699999999999999
 74
0
  0
LTYPE
  5
14
100
AcDbSymbolTableRecord
100
AcDbLinetypeTableRecord
  2
BYBLOCK
 70
0
  3

 72
65
 73
0
 40
0.0
  0
LTYPE
  5
51
100
AcDbSymbolTableRecord
100
AcDbLinetypeTableRecord
  2
DIVIDEX2
 70
0
  3
Divide (2x) ________  .  .  ________  .  .  _
 72
65
 73
6
 40
63.5
 49
25.399999999999999
 74
0
 49
-12.649999999999999
 74
0
 49
0.1
 74
0
 49
-12.599999999999998
 74
0
 49
0.1
 74
0
 49
-12.649999999999999
 74
0
  0
LTYPE
  5
52
100
AcDbSymbolTableRecord
100
AcDbLinetypeTableRecord
  2
BORDER
 70
0
  3
Border __ __ . __ __ . __ __ . __ __ . __ __ .
 72
65
 73
6
 40
44.449999999999996
 49
12.699999999999999
 74
0
 49
-6.3499999999999996
 74
0
 49
12.699999999999999
 74
0
 49
-6.2999999999999998
 74
0
 49
0.1
 74
0
 49
-6.2999999999999998
 74
0
  0
LTYPE
  5
53
100
AcDbSymbolTableRecord
100
AcDbLinetypeTableRecord
  2
DIVIDE2
 70
0
  3
Divide (.5x) __..__..__..__..__..__..__..__.._
 72
65
 73
6
 40
15.874999999999998
 49
6.3499999999999996
 74
0
 49
-3.125
 74
0
 49
0.1
 74
0
 49
-3.0750000000000002
 74
0
 49
0.1
 74
0
 49
-3.125
 74
0
  0
LTYPE
  5
54
100
AcDbSymbolTableRecord
100
AcDbLinetypeTableRecord
  2
DOT
 70
0
  3
Dot . . . . . . . . . . . . . . . . . . . . . . . .
 72
65
 73
2
 40
6.3499999999999996
 49
0.1
 74
0
 49
-6.25
 74
0
  0
LTYPE
  5
55
100
AcDbSymbolTableRecord
100
AcDbLinetypeTableRecord
  2
DASHDOT
 70
0
  3
Dash dot __ . __ . __ . __ . __ . __ . __ . __
 72
65
 73
4
 40
25.400000000000002
 49
12.699999999999999
 74
0
 49
-6.2999999999999998
 74
0
 49
0.1
 74
0
 49
-6.2999999999999998
 74
0
  0
LTYPE
  5
56
100
AcDbSymbolTableRecord
100
AcDbLinetypeTableRecord
  2
ACAD_ISO03W100
 70
0
  3
ISO dash space __    __    __    __    __    __
 72
65
 73
2
 40
30.0
 49
12.0
 74
0
 49
-18.0
 74
0
  0
ENDTAB
  0
TABLE
  2
LAYER
  5
2
100
AcDbSymbolTable
 70
4
  0
LAYER
  5
57
100
AcDbSymbolTableRecord
100
AcDbLayerTableRecord
  2
Camplate
 70
0
 62
2
420
16776960
  6
Continuous
370
25
390
F
  0
LAYER
  5
58
100
AcDbSymbolTableRecord
100
AcDbLayerTableRecord
  2
Cambaseplate
 70
0
 62
30
420
16744192
  6
Continuous
370
25
390
F
  0
LAYER
  5
10
100
AcDbSymbolTableRecord
100
AcDbLayerTableRecord
  2
0
 70
0
 62
7
420
16777215
  6
Continuous
370
25
390
F
  0
LAYER
  5
59
100
AcDbSymbolTableRecord
100
AcDbLayerTableRecord
  2
Baseplate
 70
0
 62
7
420
16777215
  6
Continuous
370
25
390
F
  0
ENDTAB
  0
TABLE
  2
STYLE
  5
3
100
AcDbSymbolTable
 70
1
  0
STYLE
  5
5A
100
AcDbSymbolTableRecord
100
AcDbTextStyleTableRecord
  2
Standard
 70
0
 40
0.0
 41
1.0
 50
0.0
 71
0
 42
2.5
  3

  4

1001
ACAD
1000
txt
1071
0
  0
ENDTAB
  0
TABLE
  2
VIEW
  5
6
100
AcDbSymbolTable
 70
0
  0
ENDTAB
  0
TABLE
  2
UCS
  5
7
100
AcDbSymbolTable
 70
0
  0
ENDTAB
  0
TABLE
  2
APPID
  5
9
100
AcDbSymbolTable
 70
1
  0
APPID
  5
12
100
AcDbSymbolTableRecord
100
AcDbRegAppTableRecord
  2
ACAD
 70
0
  0
APPID
  5
5B
100
AcDbSymbolTableRecord
100
AcDbRegAppTableRecord
  2
QCAD
 70
0
  0
ENDTAB
  0
TABLE
  2
DIMSTYLE
  5
A
100
AcDbSymbolTable
 70
1
100
AcDbDimStyleTable
 71
0
  0
DIMSTYLE
105
27
100
AcDbSymbolTableRecord
100
AcDbDimStyleTableRecord
  2
Standard
 41
2.5
 42
0.625
 43
3.75
 44
1.25
 70
0
 73
0
 74
0
 77
1
 78
8
140
2.5
141
2.5
143
0.03937007874016
147
0.625
171
3
172
1
271
2
272
2
274
3
278
44
283
0
284
8
340
5A
  0
ENDTAB
  0
TABLE
  2
BLOCK_RECORD
  5
1
100
AcDbSymbolTable
 70
1
  0
BLOCK_RECORD
  5
1F
100
AcDbSymbolTableRecord
100
AcDbBlockTableRecord
  2
*Model_Space
340
22
  0
BLOCK_RECORD
  5
1B
100
AcDbSymbolTableRecord
100
AcDbBlockTableRecord
  2
*Paper_Space
340
1E
  0
BLOCK_RECORD
  5
23
100
AcDbSymbolTableRecord
100
AcDbBlockTableRecord
  2
*Paper_Space0
340
26
  0
ENDTAB
  0
ENDSEC
  0
SECTION
  2
BLOCKS
  0
BLOCK
  5
20
100
AcDbEntity
  8
0
100
AcDbBlockBegin
  2
*Model_Space
 70
0
 10
0.0
 20
0.0
 30
0.0
  3
*Model_Space
  1

  0
ENDBLK
  5
21
100
AcDbEntity
  8
0
100
AcDbBlockEnd
  0
BLOCK
  5
1C
100
AcDbEntity
 67
1
  8
0
100
AcDbBlockBegin
  2
*Paper_Space
 70
0
 10
0.0
 20
0.0
 30
0.0
  3
*Paper_Space
  1

  0
ENDBLK
  5
1D
100
AcDbEntity
 67
1
  8
0
100
AcDbBlockEnd
  0
BLOCK
  5
24
100
AcDbEntity
  8
0
100
AcDbBlockBegin
  2
*Paper_Space0
 70
0
 10
0.0
 20
0.0
 30
0.0
  3
*Paper_Space0
  1

  0
ENDBLK
  5
25
100
AcDbEntity
  8
0
100
AcDbBlockEnd
  0
ENDSEC
  0
SECTION
  2
ENTITIES
  0
LINE
  5
5C
100
AcDbEntity
100
AcDbLine
  8
Baseplate
 62
256
370
-1
 48
1.0
  6
BYLAYER
 10
34.547561338236036
 20
45.295584412271509
 30
0.0
 11
9.4235498012183143
 21
20.171572875253787
 31
0.0
  0
LINE
  5
5D
100
AcDbEntity
100
AcDbLine
  8
Baseplate
 62
256
370
-1
 48
1.0
  6
BYLAYER
 10
6.5951226764721014
 20
19.0
 30
0.0
 11
-6.5951226764721014
 21
19.0
 31
0.0
  0
LINE
  5
5E
100
AcDbEntity
100
AcDbLine
  8
Baseplate
 62
256
370
-1
 48
1.0
  6
BYLAYER
 10
19.0
 20
-6.5951226764721582
 30
0.0
 11
19.0
 21
6.5951226764720445
 31
0.0
  0
LINE
  5
5F
100
AcDbEntity
100
AcDbLine
  8
Baseplate
 62
256
370
-1
 48
1.0
  6
BYLAYER
 10
-6.5951226764721014
 20
-19.0
 30
0.0
 11
6.5951226764719877
 21
-19.0
 31
0.0
  0
CIRCLE
  5
60
100
AcDbEntity
100
AcDbCircle
  8
Baseplate
 62
256
370
-1
 48
1.0
  6
BYLAYER
 10
0.0
 20
0.0
 30
0.0
 40
10.0
  0
LINE
  5
61
100
AcDbEntity
100
AcDbLine
  8
Baseplate
 62
256
370
-1
 48
1.0
  6
BYLAYER
 10
40.20441558772842
 20
45.295584412271523
 30
0.0
 11
47.321067811865419
 21
38.178932188134524
 31
0.0
  0
CIRCLE
  5
62
100
AcDbEntity
100
AcDbCircle
  8
Baseplate
 62
256
370
-1
 48
1.0
  6
BYLAYER
 10
-36.739592359914354
 20
36.739592359914354
 30
0.0
 40
1.5
  0
POINT
  5
63
100
AcDbEntity
100
AcDbPoint
  8
Baseplate
 62
256
370
-1
 48
1.0
  6
BYLAYER
 10
0.0
 20
0.0
 30
0.0
  0
CIRCLE
  5
64
100
AcDbEntity
100
AcDbCircle
  8
Baseplate
 62
256
370
-1
 48
1.0
  6
BYLAYER
 10
-15.619514887400214
 20
15.619514887400214
 30
0.0
 40
1.5
  0
CIRCLE
  5
65
100
AcDbEntity
100
AcDbCircle
  8
Baseplate
 62
256
370
-1
 48
1.0
  6
BYLAYER
 10
-22.820195372257103
 20
22.82019537225716
 30
0.0
 40
1.5
  0
CIRCLE
  5
66
100
AcDbEntity
100
AcDbCircle
  8
Baseplate
 62
256
370
-1
 48
1.0
  6
BYLAYER
 10
-15.619514887400214
 20
-15.619514887400186
 30
0.0
 40
1.5
  0
CIRCLE
  5
67
100
AcDbEntity
100
AcDbCircle
  8
Baseplate
 62
256
370
-1
 48
1.0
  6
BYLAYER
 10
-22.820195372257217
 20
-22.82019537225716
 30
0.0
 40
1.5
  0
CIRCLE
  5
68
100
AcDbEntity
100
AcDbCircle
  8
Baseplate
 62
256
370
-1
 48
1.0
  6
BYLAYER
 10
-36.739592359914354
 20
-36.739592359914354
 30
0.0
 40
1.5
  0
CIRCLE
  5
69
100
AcDbEntity
100
AcDbCircle
  8
Baseplate
 62
256
370
-1
 48
1.0
  6
BYLAYER
 10
15.619514887400214
 20
-15.619514887400186
 30
0.0
 40
1.5
  0
CIRCLE
  5
6A
100
AcDbEntity
100
AcDbCircle
  8
Baseplate
 62
256
370
-1
 48
1.0
  6
BYLAYER
 10
22.820195372257103
 20
-22.82019537225716
 30
0.0
 40
1.5
  0
CIRCLE
  5
6B
100
AcDbEntity
100
AcDbCircle
  8
Baseplate
 62
256
370
-1
 48
1.0
  6
BYLAYER
 10
36.739592359914354
 20
-36.739592359914354
 30
0.0
 40
1.5
  0
CIRCLE
  5
6C
100
AcDbEntity
100
AcDbCircle
  8
Baseplate
 62
256
370
-1
 48
1.0
  6
BYLAYER
 10
15.619514887400214
 20
15.619514887400157
 30
0.0
 40
1.5
  0
CIRCLE
  5
6D
100
AcDbEntity
100
AcDbCircle
  8
Baseplate
 62
256
370
-1
 48
1.0
  6
BYLAYER
 10
22.820195372257217
 20
22.82019537225716
 30
0.0
 40
1.5
  0
CIRCLE
  5
6E
100
AcDbEntity
100
AcDbCircle
  8
Baseplate
 62
256
370
-1
 48
1.0
  6
BYLAYER
 10
36.739592359914354
 20
36.739592359914354
 30
0.0
 40
1.5
  0
ARC
  5
6F
100
AcDbEntity
  8
Baseplate
 62
256
370
-1
 48
1.0
  6
BYLAYER
100
AcDbCircle
 10
-40.25
 20
31.107864376269049
 30
0.0
 40
10.0
100
AcDbArc
 50
135.00000000000003
 51
180.0
  0
ARC
  5
70
100
AcDbEntity
  8
Baseplate
 62
256
370
-1
 48
1.0
  6
BYLAYER
100
AcDbCircle
 10
40.25
 20
31.107864376269049
 30
0.0
 40
10.0
100
AcDbArc
 50
0.0
 51
44.999999999999986
  0
ARC
  5
71
100
AcDbEntity
  8
Baseplate
 62
256
370
-1
 48
1.0
  6
BYLAYER
100
AcDbCircle
 10
40.25
 20
-31.107864376269049
 30
0.0
 40
10.0
100
AcDbArc
 50
315.0
 51
0.0
  0
ARC
  5
72
100
AcDbEntity
  8
Baseplate
 62
256
370
-1
 48
1.0
  6
BYLAYER
100
AcDbCircle
 10
-40.25
 20
-31.107864376269049
 30
0.0
 40
10.0
100
AcDbArc
 50
180.0
 51
225.0
  0
ARC
  5
73
100
AcDbEntity
  8
Baseplate
 62
256
370
-1
 48
1.0
  6
BYLAYER
100
AcDbCircle
 10
-38.25
 20
24.673549801218257
 30
0.0
 40
2.0
100
AcDbArc
 50
44.999999999999986
 51
180.0
  0
ARC
  5
74
100
AcDbEntity
  8
Baseplate
 62
256
370
-1
 48
1.0
  6
BYLAYER
100
AcDbCircle
 10
38.25
 20
24.673549801218201
 30
0.0
 40
2.0
100
AcDbArc
 50
0.0
 51
134.99999999999989
  0
ARC
  5
75
100
AcDbEntity
  8
Baseplate
 62
256
370
-1
 48
1.0
  6
BYLAYER
100
AcDbCircle
 10
38.25
 20
-24.673549801218371
 30
0.0
 40
2.0
100
AcDbArc
 50
225.0
 51
0.0
  0
ARC
  5
76
100
AcDbEntity
  8
Baseplate
 62
256
370
-1
 48
1.0
  6
BYLAYER
100
AcDbCircle
 10
-38.25
 20
-24.673549801218343
 30
0.0
 40
2.0
100
AcDbArc
 50
180.0
 51
314.99999999999994
  0
ARC
  5
77
100
AcDbEntity
  8
Baseplate
 62
256
370
-1
 48
1.0
  6
BYLAYER
100
AcDbCircle
 10
-6.5951226764721014
 20
23.0
 30
0.0
 40
4.0
100
AcDbArc
 50
224.99999999999997
 51
270.0
  0
ARC
  5
78
100
AcDbEntity
  8
Baseplate
 62
256
370
-1
 48
1.0
  6
BYLAYER
100
AcDbCircle
 10
6.5951226764721014
 20
23.0
 30
0.0
 40
4.0
100
AcDbArc
 50
270.0
 51
314.99999999999994
  0
ARC
  5
79
100
AcDbEntity
  8
Baseplate
 62
256
370
-1
 48
1.0
  6
BYLAYER
100
AcDbCircle
 10
23.0
 20
6.5951226764720445
 30
0.0
 40
4.0
100
AcDbArc
 50
134.99999999999997
 51
180.0
  0
ARC
  5
7A
100
AcDbEntity
  8
Baseplate
 62
256
370
-1
 48
1.0
  6
BYLAYER
100
AcDbCircle
 10
23.0
 20
-6.5951226764721582
 30
0.0
 40
4.0
100
AcDbArc
 50
180.0
 51
224.99999999999991
  0
ARC
  5
7B
100
AcDbEntity
  8
Baseplate
 62
256
370
-1
 48
1.0
  6
BYLAYER
100
AcDbCircle
 10
6.5951226764719877
 20
-23.0
 30
0.0
 40
4.0
100
AcDbArc
 50
44.999999999999979
 51
90.000000000000014
  0
ARC
  5
7C
100
AcDbEntity
  8
Baseplate
 62
256
370
-1
 48
1.0
  6
BYLAYER
100
AcDbCircle
 10
-6.5951226764721014
 20
-23.0
 30
0.0
 40
4.0
100
AcDbArc
 50
90.0
 51
134.99999999999994
  0
LINE
  5
7D
100
AcDbEntity
100
AcDbLine
  8
Baseplate
 62
256
370
-1
 48
1.0
  6
BYLAYER
 10
-47.321067811865532
 20
38.178932188134524
 30
0.0
 11
-40.204415587728484
 21
45.295584412271573
 31
0.0
  0
LINE
  5
7E
100
AcDbEntity
100
AcDbLine
  8
Baseplate
 62
256
370
-1
 48
1.0
  6
BYLAYER
 10
-9.4235498012183143
 20
20.171572875253787
 30
0.0
 11
-34.547561338236093
 21
45.295584412271566
 31
0.0
  0
LINE
  5
7F
100
AcDbEntity
100
AcDbLine
  8
Baseplate
 62
256
370
-1
 48
1.0
  6
BYLAYER
 10
-40.204415587728434
 20
-45.295584412271509
 30
0.0
 11
-47.321067811865419
 21
-38.178932188134524
 31
0.0
  0
LINE
  5
80
100
AcDbEntity
100
AcDbLine
  8
Baseplate
 62
256
370
-1
 48
1.0
  6
BYLAYER
 10
-34.547561338236051
 20
-45.295584412271502
 30
0.0
 11
-9.4235498012183143
 21
-20.171572875253815
 31
0.0
  0
LINE
  5
81
100
AcDbEntity
100
AcDbLine
  8
Baseplate
 62
256
370
-1
 48
1.0
  6
BYLAYER
 10
47.321067811865532
 20
-38.178932188134524
 30
0.0
 11
40.204415587728434
 21
-45.295584412271623
 31
0.0
  0
LINE
  5
82
100
AcDbEntity
100
AcDbLine
  8
Baseplate
 62
256
370
-1
 48
1.0
  6
BYLAYER
 10
9.4235498012182006
 20
-20.171572875253815
 30
0.0
 11
34.547561338236051
 21
-45.295584412271623
 31
0.0
  0
ARC
  5
83
100
AcDbEntity
  8
Baseplate
 62
256
370
-1
 48
1.0
  6
BYLAYER
100
AcDbCircle
 10
-37.375988462982235
 20
-42.46715728752531
 30
0.0
 40
4.0
100
AcDbArc
 50
224.99999999999997
 51
314.99999999999994
  0
ARC
  5
84
100
AcDbEntity
  8
Baseplate
 62
256
370
-1
 48
1.0
  6
BYLAYER
100
AcDbCircle
 10
37.375988462982242
 20
-42.467157287525431
 30
0.0
 40
4.0
100
AcDbArc
 50
225.0
 51
315.0
  0
ARC
  5
85
100
AcDbEntity
  8
Baseplate
 62
256
370
-1
 48
1.0
  6
BYLAYER
100
AcDbCircle
 10
37.375988462982228
 20
42.467157287525318
 30
0.0
 40
4.0
100
AcDbArc
 50
45.000000000000149
 51
135.0
  0
ARC
  5
86
100
AcDbEntity
  8
Baseplate
 62
256
370
-1
 48
1.0
  6
BYLAYER
100
AcDbCircle
 10
-37.375988462982292
 20
42.467157287525382
 30
0.0
 40
4.0
100
AcDbArc
 50
44.999999999999858
 51
135.0
  0
LINE
  5
87
100
AcDbEntity
100
AcDbLine
  8
Baseplate
 62
256
370
-1
 48
1.0
  6
BYLAYER
 10
40.25
 20
-24.673549801218371
 30
0.0
 11
40.25
 21
-23.5
 31
0.0
  0
LINE
  5
88
100
AcDbEntity
100
AcDbLine
  8
Baseplate
 62
256
370
-1
 48
1.0
  6
BYLAYER
 10
40.25
 20
23.500000000000004
 30
0.0
 11
40.25
 21
24.673549801218201
 31
0.0
  0
LINE
  5
89
100
AcDbEntity
100
AcDbLine
  8
Baseplate
 62
256
370
-1
 48
1.0
  6
BYLAYER
 10
50.25
 20
-31.107864376269049
 30
0.0
 11
50.25
 21
-24.5
 31
0.0
  0
LINE
  5
8A
100
AcDbEntity
100
AcDbLine
  8
Baseplate
 62
256
370
-1
 48
1.0
  6
BYLAYER
 10
50.25
 20
24.5
 30
0.0
 11
50.25
 21
31.107864376269049
 31
0.0
  0
LINE
  5
8B
100
AcDbEntity
100
AcDbLine
  8
Baseplate
 62
256
370
-1
 48
1.0
  6
BYLAYER
 10
39.250000000000007
 20
22.5
 30
0.0
 11
35.662236636408679
 21
22.5
 31
0.0
  0
LINE
  5
8C
100
AcDbEntity
100
AcDbLine
  8
Baseplate
 62
256
370
-1
 48
1.0
  6
BYLAYER
 10
34.955129855222133
 20
24.207106781186553
 30
0.0
 11
36.835786437626894
 21
26.087763363591307
 31
0.0
  0
LINE
  5
8D
100
AcDbEntity
100
AcDbLine
  8
Baseplate
 62
256
370
-1
 48
1.0
  6
BYLAYER
 10
36.835786437626894
 20
-26.087763363591449
 30
0.0
 11
34.955129855221983
 21
-24.207106781186543
 31
0.0
  0
LINE
  5
8E
100
AcDbEntity
100
AcDbLine
  8
Baseplate
 62
256
370
-1
 48
1.0
  6
BYLAYER
 10
35.662236636408529
 20
-22.5
 30
0.0
 11
39.25
 21
-22.5
 31
0.0
  0
ARC
  5
8F
100
AcDbEntity
  8
Baseplate
 62
256
370
-1
 48
1.0
  6
BYLAYER
100
AcDbCircle
 10
35.662236636408679
 20
23.5
 30
0.0
 40
1.0
100
AcDbArc
 50
134.99999999999989
 51
270.0
  0
ARC
  5
90
100
AcDbEntity
  8
Baseplate
 62
256
370
-1
 48
1.0
  6
BYLAYER
100
AcDbCircle
 10
35.662236636408529
 20
-23.5
 30
0.0
 40
1.0
100
AcDbArc
 50
90.0
 51
224.99999999999983
  0
ARC
  5
91
100
AcDbEntity
  8
Baseplate
 62
256
370
-1
 48
1.0
  6
BYLAYER
100
AcDbCircle
 10
39.25
 20
-23.5
 30
0.0
 40
1.0
100
AcDbArc
 50
0.0
 51
90.0
  0
ARC
  5
92
100
AcDbEntity
  8
Baseplate
 62
256
370
-1
 48
1.0
  6
BYLAYER
100
AcDbCircle
 10
39.250000000000007
 20
23.500000000000004
 30
0.0
 40
1.0
100
AcDbArc
 50
270.0
 51
0.0
  0
LINE
  5
93
100
AcDbEntity
100
AcDbLine
  8
Baseplate
 62
256
370
-1
 48
1.0
  6
BYLAYER
 10
34.0
 20
16.999999999999943
 30
0.0
 11
61.999999999999993
 21
17.0
 31
0.0
  0
LINE
  5
94
100
AcDbEntity
100
AcDbLine
  8
Baseplate
 62
256
370
-1
 48
1.0
  6
BYLAYER
 10
62.999999999999993
 20
18.0
 30
0.0
 11
62.999999999999993
 21
18.999999999999996
 31
0.0
  0
LINE
  5
95
100
AcDbEntity
100
AcDbLine
  8
Baseplate
 62
256
370
-1
 48
1.0
  6
BYLAYER
 10
61.999999999999993
 20
19.999999999999993
 30
0.0
 11
34.0
 21
19.999999999999698
 31
0.0
  0
LINE
  5
96
100
AcDbEntity
100
AcDbLine
  8
Baseplate
 62
256
370
-1
 48
1.0
  6
BYLAYER
 10
33.0
 20
19.000000000000011
 30
0.0
 11
33.0
 21
18.000000000000007
 31
0.0
  0
LINE
  5
97
100
AcDbEntity
100
AcDbLine
  8
Baseplate
 62
256
370
-1
 48
1.0
  6
BYLAYER
 10
75.0
 20
16.999999999999936
 30
0.0
 11
96.0
 21
16.999999999999936
 31
0.0
  0
LINE
  5
98
100
AcDbEntity
100
AcDbLine
  8
Baseplate
 62
256
370
-1
 48
1.0
  6
BYLAYER
 10
74.0
 20
18.999999999999932
 30
0.0
 11
74.0
 21
17.999999999999936
 31
0.0
  0
ARC
  5
99
100
AcDbEntity
  8
Baseplate
 62
256
370
-1
 48
1.0
  6
BYLAYER
100
AcDbCircle
 10
34.0
 20
19.000000000000018
 30
0.0
 40
1.0
100
AcDbArc
 50
90.000000000000014
 51
180.0
  0
ARC
  5
9A
100
AcDbEntity
  8
Baseplate
 62
256
370
-1
 48
1.0
  6
BYLAYER
100
AcDbCircle
 10
61.999999999999993
 20
19.000000000000007
 30
0.0
 40
1.0
100
AcDbArc
 50
0.0
 51
90.000000000000014
  0
ARC
  5
9B
100
AcDbEntity
  8
Baseplate
 62
256
370
-1
 48
1.0
  6
BYLAYER
100
AcDbCircle
 10
61.999999999999993
 20
18.0
 30
0.0
 40
1.0
100
AcDbArc
 50
270.0
 51
0.0
  0
ARC
  5
9C
100
AcDbEntity
  8
Baseplate
 62
256
370
-1
 48
1.0
  6
BYLAYER
100
AcDbCircle
 10
34.0
 20
18.000000000000014
 30
0.0
 40
1.0
100
AcDbArc
 50
180.0
 51
270.0
  0
ARC
  5
9D
100
AcDbEntity
  8
Baseplate
 62
256
370
-1
 48
1.0
  6
BYLAYER
100
AcDbCircle
 10
75.0
 20
17.999999999999936
 30
0.0
 40
1.0
100
AcDbArc
 50
180.0
 51
270.0
  0
ARC
  5
9E
100
AcDbEntity
  8
Baseplate
 62
256
370
-1
 48
1.0
  6
BYLAYER
100
AcDbCircle
 10
96.0
 20
17.999999999999925
 30
0.0
 40
1.0
100
AcDbArc
 50
270.0
 51
0.0
  0
LINE
  5
9F
100
AcDbEntity
100
AcDbLine
  8
Baseplate
 62
256
370
-1
 48
1.0
  6
BYLAYER
 10
52.249999999999993
 20
22.5
 30
0.0
 11
78.0
 21
22.5
 31
0.0
  0
LINE
  5
A0
100
AcDbEntity
100
AcDbLine
  8
Baseplate
 62
256
370
-1
 48
1.0
  6
BYLAYER
 10
98.0
 20
22.499999999999943
 30
0.0
 11
93.0
 21
22.49999999999995
 31
0.0
  0
LINE
  5
A1
100
AcDbEntity
100
AcDbLine
  8
Baseplate
 62
256
370
-1
 48
1.0
  6
BYLAYER
 10
74.0
 20
22.499999999999936
 30
0.0
 11
74.0
 21
22.499999999999936
 31
0.0
  0
LINE
  5
A2
100
AcDbEntity
100
AcDbLine
  8
Baseplate
 62
256
370
-1
 48
1.0
  6
BYLAYER
 10
75.0
 20
19.999999999999936
 30
0.0
 11
78.0
 21
19.999999999999929
 31
0.0
  0
LINE
  5
A3
100
AcDbEntity
100
AcDbLine
  8
Baseplate
 62
256
370
-1
 48
1.0
  6
BYLAYER
 10
96.0
 20
20.000000000000114
 30
0.0
 11
93.0
 21
19.999999999999989
 31
0.0
  0
LINE
  5
A4
100
AcDbEntity
100
AcDbLine
  8
Baseplate
 62
256
370
-1
 48
1.0
  6
BYLAYER
 10
92.0
 20
20.999999999999897
 30
0.0
 11
92.0
 21
21.499999999999897
 31
0.0
  0
LINE
  5
A5
100
AcDbEntity
100
AcDbLine
  8
Baseplate
 62
256
370
-1
 48
1.0
  6
BYLAYER
 10
79.0
 20
21.499999999999936
 30
0.0
 11
79.0
 21
20.999999999999936
 31
0.0
  0
LINE
  5
A6
100
AcDbEntity
100
AcDbLine
  8
Baseplate
 62
256
370
-1
 48
1.0
  6
BYLAYER
 10
97.0
 20
17.999999999999911
 30
0.0
 11
97.0
 21
18.999999999999972
 31
0.0
  0
ARC
  5
A7
100
AcDbEntity
  8
Baseplate
 62
256
370
-1
 48
1.0
  6
BYLAYER
100
AcDbCircle
 10
75.0
 20
18.999999999999932
 30
0.0
 40
1.0
100
AcDbArc
 50
90.000000000000014
 51
180.0
  0
ARC
  5
A8
100
AcDbEntity
  8
Baseplate
 62
256
370
-1
 48
1.0
  6
BYLAYER
100
AcDbCircle
 10
78.0
 20
20.999999999999936
 30
0.0
 40
1.0
100
AcDbArc
 50
270.0
 51
0.0
  0
ARC
  5
A9
100
AcDbEntity
  8
Baseplate
 62
256
370
-1
 48
1.0
  6
BYLAYER
100
AcDbCircle
 10
78.0
 20
21.499999999999936
 30
0.0
 40
1.0
100
AcDbArc
 50
0.0
 51
90.000000000000014
  0
ARC
  5
AA
100
AcDbEntity
  8
Baseplate
 62
256
370
-1
 48
1.0
  6
BYLAYER
100
AcDbCircle
 10
93.0
 20
21.499999999999947
 30
0.0
 40
1.0
100
AcDbArc
 50
90.000000000000014
 51
180.0
  0
ARC
  5
AB
100
AcDbEntity
  8
Baseplate
 62
256
370
-1
 48
1.0
  6
BYLAYER
100
AcDbCircle
 10
93.0
 20
20.999999999999908
 30
0.0
 40
1.0
100
AcDbArc
 50
180.0
 51
270.0
  0
ARC
  5
AC
100
AcDbEntity
  8
Baseplate
 62
256
370
-1
 48
1.0
  6
BYLAYER
100
AcDbCircle
 10
96.0
 20
19.000000000000018
 30
0.0
 40
1.0
100
AcDbArc
 50
0.0
 51
90.000000000000014
  0
ARC
  5
AD
100
AcDbEntity
  8
Baseplate
 62
256
370
-1
 48
1.0
  6
BYLAYER
100
AcDbCircle
 10
98.0
 20
20.500000000000036
 30
0.0
 40
2.0
100
AcDbArc
 50
0.0
 51
90.000000000000014
  0
ARC
  5
AE
100
AcDbEntity
  8
Baseplate
 62
256
370
-1
 48
1.0
  6
BYLAYER
100
AcDbCircle
 10
52.249999999999993
 20
24.5
 30
0.0
 40
2.0
100
AcDbArc
 50
180.0
 51
270.0
  0
ARC
  5
AF
100
AcDbEntity
  8
Baseplate
 62
256
370
-1
 48
1.0
  6
BYLAYER
100
AcDbCircle
 10
75.0
 20
-17.999999999999936
 30
0.0
 40
1.0
100
AcDbArc
 50
90.000000000000014
 51
180.0
  0
ARC
  5
B0
100
AcDbEntity
  8
Baseplate
 62
256
370
-1
 48
1.0
  6
BYLAYER
100
AcDbCircle
 10
96.0
 20
-17.999999999999925
 30
0.0
 40
1.0
100
AcDbArc
 50
0.0
 51
90.000000000000014
  0
LINE
  5
B1
100
AcDbEntity
100
AcDbLine
  8
Baseplate
 62
256
370
-1
 48
1.0
  6
BYLAYER
 10
52.249999999999993
 20
-22.5
 30
0.0
 11
78.0
 21
-22.499999999999996
 31
0.0
  0
LINE
  5
B2
100
AcDbEntity
100
AcDbLine
  8
Baseplate
 62
256
370
-1
 48
1.0
  6
BYLAYER
 10
98.0
 20
-22.49999999999994
 30
0.0
 11
93.0
 21
-22.499999999999947
 31
0.0
  0
LINE
  5
B3
100
AcDbEntity
100
AcDbLine
  8
Baseplate
 62
256
370
-1
 48
1.0
  6
BYLAYER
 10
74.0
 20
-22.499999999999932
 30
0.0
 11
74.0
 21
-22.499999999999932
 31
0.0
  0
LINE
  5
B4
100
AcDbEntity
100
AcDbLine
  8
Baseplate
 62
256
370
-1
 48
1.0
  6
BYLAYER
 10
75.0
 20
-19.999999999999932
 30
0.0
 11
78.0
 21
-19.999999999999929
 31
0.0
  0
LINE
  5
B5
100
AcDbEntity
100
AcDbLine
  8
Baseplate
 62
256
370
-1
 48
1.0
  6
BYLAYER
 10
96.0
 20
-20.00000000000011
 30
0.0
 11
93.0
 21
-19.999999999999993
 31
0.0
  0
LINE
  5
B6
100
AcDbEntity
100
AcDbLine
  8
Baseplate
 62
256
370
-1
 48
1.0
  6
BYLAYER
 10
92.0
 20
-20.999999999999901
 30
0.0
 11
92.0
 21
-21.499999999999901
 31
0.0
  0
LINE
  5
B7
100
AcDbEntity
100
AcDbLine
  8
Baseplate
 62
256
370
-1
 48
1.0
  6
BYLAYER
 10
79.0
 20
-21.499999999999936
 30
0.0
 11
79.0
 21
-20.999999999999936
 31
0.0
  0
LINE
  5
B8
100
AcDbEntity
100
AcDbLine
  8
Baseplate
 62
256
370
-1
 48
1.0
  6
BYLAYER
 10
97.0
 20
-17.999999999999911
 30
0.0
 11
97.0
 21
-18.999999999999972
 31
0.0
  0
ARC
  5
B9
100
AcDbEntity
  8
Baseplate
 62
256
370
-1
 48
1.0
  6
BYLAYER
100
AcDbCircle
 10
75.0
 20
-18.999999999999932
 30
0.0
 40
1.0
100
AcDbArc
 50
180.0
 51
270.0
  0
ARC
  5
BA
100
AcDbEntity
  8
Baseplate
 62
256
370
-1
 48
1.0
  6
BYLAYER
100
AcDbCircle
 10
78.0
 20
-20.999999999999932
 30
0.0
 40
1.0
100
AcDbArc
 50
0.0
 51
90.000000000000014
  0
ARC
  5
BB
100
AcDbEntity
  8
Baseplate
 62
256
370
-1
 48
1.0
  6
BYLAYER
100
AcDbCircle
 10
78.0
 20
-21.499999999999936
 30
0.0
 40
1.0
100
AcDbArc
 50
270.0
 51
0.0
  0
LINE
  5
BC
100
AcDbEntity
100
AcDbLine
  8
Baseplate
 62
256
370
-1
 48
1.0
  6
BYLAYER
 10
34.0
 20
-16.999999999999947
 30
0.0
 11
61.999999999999993
 21
-17.0
 31
0.0
  0
ARC
  5
BD
100
AcDbEntity
  8
Baseplate
 62
256
370
-1
 48
1.0
  6
BYLAYER
100
AcDbCircle
 10
93.0
 20
-21.49999999999995
 30
0.0
 40
1.0
100
AcDbArc
 50
180.0
 51
270.0
  0
LINE
  5
BE
100
AcDbEntity
100
AcDbLine
  8
Baseplate
 62
256
370
-1
 48
1.0
  6
BYLAYER
 10
62.999999999999993
 20
-18.0
 30
0.0
 11
62.999999999999993
 21
-18.999999999999996
 31
0.0
  0
ARC
  5
BF
100
AcDbEntity
  8
Baseplate
 62
256
370
-1
 48
1.0
  6
BYLAYER
100
AcDbCircle
 10
93.0
 20
-20.999999999999908
 30
0.0
 40
1.0
100
AcDbArc
 50
90.000000000000014
 51
180.0
  0
LINE
  5
C0
100
AcDbEntity
100
AcDbLine
  8
Baseplate
 62
256
370
-1
 48
1.0
  6
BYLAYER
 10
61.999999999999993
 20
-19.999999999999989
 30
0.0
 11
34.0
 21
-19.999999999999705
 31
0.0
  0
ARC
  5
C1
100
AcDbEntity
  8
Baseplate
 62
256
370
-1
 48
1.0
  6
BYLAYER
100
AcDbCircle
 10
96.0
 20
-19.000000000000018
 30
0.0
 40
1.0
100
AcDbArc
 50
270.0
 51
0.0
  0
LINE
  5
C2
100
AcDbEntity
100
AcDbLine
  8
Baseplate
 62
256
370
-1
 48
1.0
  6
BYLAYER
 10
33.0
 20
-19.000000000000007
 30
0.0
 11
33.0
 21
-18.0
 31
0.0
  0
ARC
  5
C3
100
AcDbEntity
  8
Baseplate
 62
256
370
-1
 48
1.0
  6
BYLAYER
100
AcDbCircle
 10
98.0
 20
-20.500000000000025
 30
0.0
 40
2.0
100
AcDbArc
 50
270.0
 51
0.0
  0
LINE
  5
C4
100
AcDbEntity
100
AcDbLine
  8
Baseplate
 62
256
370
-1
 48
1.0
  6
BYLAYER
 10
75.0
 20
-16.999999999999936
 30
0.0
 11
96.0
 21
-16.999999999999936
 31
0.0
  0
ARC
  5
C5
100
AcDbEntity
  8
Baseplate
 62
256
370
-1
 48
1.0
  6
BYLAYER
100
AcDbCircle
 10
52.249999999999993
 20
-24.499999999999996
 30
0.0
 40
2.0
100
AcDbArc
 50
90.000000000000014
 51
180.0
  0
LINE
  5
C6
100
AcDbEntity
100
AcDbLine
  8
Baseplate
 62
256
370
-1
 48
1.0
  6
BYLAYER
 10
74.0
 20
-18.999999999999932
 30
0.0
 11
74.0
 21
-17.999999999999936
 31
0.0
  0
ARC
  5
C7
100
AcDbEntity
  8
Baseplate
 62
256
370
-1
 48
1.0
  6
BYLAYER
100
AcDbCircle
 10
34.0
 20
-19.000000000000014
 30
0.0
 40
1.0
100
AcDbArc
 50
180.0
 51
270.0
  0
ARC
  5
C8
100
AcDbEntity
  8
Baseplate
 62
256
370
-1
 48
1.0
  6
BYLAYER
100
AcDbCircle
 10
61.999999999999993
 20
-19.000000000000007
 30
0.0
 40
1.0
100
AcDbArc
 50
270.0
 51
0.0
  0
ARC
  5
C9
100
AcDbEntity
  8
Baseplate
 62
256
370
-1
 48
1.0
  6
BYLAYER
100
AcDbCircle
 10
61.999999999999993
 20
-17.999999999999996
 30
0.0
 40
1.0
100
AcDbArc
 50
0.0
 51
90.000000000000014
  0
ARC
  5
CA
100
AcDbEntity
  8
Baseplate
 62
256
370
-1
 48
1.0
  6
BYLAYER
100
AcDbCircle
 10
34.0
 20
-18.000000000000007
 30
0.0
 40
1.0
100
AcDbArc
 50
90.000000000000014
 51
180.0
  0
LINE
  5
CB
100
AcDbEntity
100
AcDbLine
  8
Baseplate
 62
256
370
-1
 48
1.0
  6
BYLAYER
 10
100.0
 20
-20.500000000000021
 30
0.0
 11
100.0
 21
20.5
 31
0.0
  0
LINE
  5
CC
100
AcDbEntity
100
AcDbLine
  8
Baseplate
 62
256
370
-1
 48
1.0
  6
BYLAYER
 10
37.000000000000007
 20
-7.4999999999999982
 30
0.0
 11
43.000000000000007
 21
-7.4999999999999982
 31
0.0
  0
LINE
  5
CD
100
AcDbEntity
100
AcDbLine
  8
Baseplate
 62
256
370
-1
 48
1.0
  6
BYLAYER
 10
45.0
 20
-5.4999999999999973
 30
0.0
 11
45.0
 21
5.4999999999999982
 31
0.0
  0
LINE
  5
CE
100
AcDbEntity
100
AcDbLine
  8
Baseplate
 62
256
370
-1
 48
1.0
  6
BYLAYER
 10
43.0
 20
7.5
 30
0.0
 11
37.0
 21
7.5
 31
0.0
  0
LINE
  5
CF
100
AcDbEntity
100
AcDbLine
  8
Baseplate
 62
256
370
-1
 48
1.0
  6
BYLAYER
 10
35.0
 20
5.5
 30
0.0
 11
35.0
 21
-5.5
 31
0.0
  0
LINE
  5
D0
100
AcDbEntity
100
AcDbLine
  8
Baseplate
 62
256
370
-1
 48
1.0
  6
BYLAYER
 10
67.0
 20
-7.4999999999999982
 30
0.0
 11
73.0
 21
-7.4999999999999991
 31
0.0
  0
LINE
  5
D1
100
AcDbEntity
100
AcDbLine
  8
Baseplate
 62
256
370
-1
 48
1.0
  6
BYLAYER
 10
75.0
 20
-5.4999999999999991
 30
0.0
 11
75.0
 21
5.4999999999999973
 31
0.0
  0
LINE
  5
D2
100
AcDbEntity
100
AcDbLine
  8
Baseplate
 62
256
370
-1
 48
1.0
  6
BYLAYER
 10
73.0
 20
7.4999999999999991
 30
0.0
 11
67.0
 21
7.5
 31
0.0
  0
LINE
  5
D3
100
AcDbEntity
100
AcDbLine
  8
Baseplate
 62
256
370
-1
 48
1.0
  6
BYLAYER
 10
65.0
 20
5.5
 30
0.0
 11
65.0
 21
-5.5
 31
0.0
  0
LINE
  5
D4
100
AcDbEntity
100
AcDbLine
  8
Baseplate
 62
256
370
-1
 48
1.0
  6
BYLAYER
 10
82.0
 20
-7.4999999999999991
 30
0.0
 11
88.0
 21
-7.4999999999999991
 31
0.0
  0
LINE
  5
D5
100
AcDbEntity
100
AcDbLine
  8
Baseplate
 62
256
370
-1
 48
1.0
  6
BYLAYER
 10
90.0
 20
-5.4999999999999982
 30
0.0
 11
90.0
 21
5.4999999999999973
 31
0.0
  0
LINE
  5
D6
100
AcDbEntity
100
AcDbLine
  8
Baseplate
 62
256
370
-1
 48
1.0
  6
BYLAYER
 10
88.0
 20
7.4999999999999991
 30
0.0
 11
82.0
 21
7.4999999999999991
 31
0.0
  0
LINE
  5
D7
100
AcDbEntity
100
AcDbLine
  8
Baseplate
 62
256
370
-1
 48
1.0
  6
BYLAYER
 10
80.0
 20
5.4999999999999991
 30
0.0
 11
80.0
 21
-5.5000000000000009
 31
0.0
  0
ARC
  5
D8
100
AcDbEntity
  8
Baseplate
 62
256
370
-1
 48
1.0
  6
BYLAYER
100
AcDbCircle
 10
37.0
 20
5.5
 30
0.0
 40
2.0
100
AcDbArc
 50
90.0
 51
180.0
  0
ARC
  5
D9
100
AcDbEntity
  8
Baseplate
 62
256
370
-1
 48
1.0
  6
BYLAYER
100
AcDbCircle
 10
43.0
 20
5.5
 30
0.0
 40
2.0
100
AcDbArc
 50
360.0
 51
90.0
  0
ARC
  5
DA
100
AcDbEntity
  8
Baseplate
 62
256
370
-1
 48
1.0
  6
BYLAYER
100
AcDbCircle
 10
43.000000000000007
 20
-5.4999999999999973
 30
0.0
 40
2.0
100
AcDbArc
 50
270.0
 51
0.0
  0
ARC
  5
DB
100
AcDbEntity
  8
Baseplate
 62
256
370
-1
 48
1.0
  6
BYLAYER
100
AcDbCircle
 10
37.000000000000007
 20
-5.4999999999999982
 30
0.0
 40
2.0
100
AcDbArc
 50
180.0
 51
270.0
  0
ARC
  5
DC
100
AcDbEntity
  8
Baseplate
 62
256
370
-1
 48
1.0
  6
BYLAYER
100
AcDbCircle
 10
67.0
 20
5.5
 30
0.0
 40
2.0
100
AcDbArc
 50
90.0
 51
180.0
  0
ARC
  5
DD
100
AcDbEntity
  8
Baseplate
 62
256
370
-1
 48
1.0
  6
BYLAYER
100
AcDbCircle
 10
73.0
 20
5.4999999999999991
 30
0.0
 40
2.0
100
AcDbArc
 50
360.0
 51
90.0
  0
ARC
  5
DE
100
AcDbEntity
  8
Baseplate
 62
256
370
-1
 48
1.0
  6
BYLAYER
100
AcDbCircle
 10
73.0
 20
-5.4999999999999991
 30
0.0
 40
2.0
100
AcDbArc
 50
270.0
 51
0.0
  0
ARC
  5
DF
100
AcDbEntity
  8
Baseplate
 62
256
370
-1
 48
1.0
  6
BYLAYER
100
AcDbCircle
 10
67.0
 20
-5.4999999999999982
 30
0.0
 40
2.0
100
AcDbArc
 50
180.0
 51
270.0
  0
ARC
  5
E0
100
AcDbEntity
  8
Baseplate
 62
256
370
-1
 48
1.0
  6
BYLAYER
100
AcDbCircle
 10
82.0
 20
5.4999999999999991
 30
0.0
 40
2.0
100
AcDbArc
 50
90.0
 51
180.0
  0
ARC
  5
E1
100
AcDbEntity
  8
Baseplate
 62
256
370
-1
 48
1.0
  6
BYLAYER
100
AcDbCircle
 10
88.0
 20
5.4999999999999991
 30
0.0
 40
2.0
100
AcDbArc
 50
360.0
 51
90.0
  0
ARC
  5
E2
100
AcDbEntity
  8
Baseplate
 62
256
370
-1
 48
1.0
  6
BYLAYER
100
AcDbCircle
 10
88.0
 20
-5.4999999999999982
 30
0.0
 40
2.0
100
AcDbArc
 50
270.0
 51
0.0
  0
ARC
  5
E3
100
AcDbEntity
  8
Baseplate
 62
256
370
-1
 48
1.0
  6
BYLAYER
100
AcDbCircle
 10
82.0
 20
-5.5
 30
0.0
 40
2.0
100
AcDbArc
 50
180.0
 51
270.0
  0
LINE
  5
E4
100
AcDbEntity
100
AcDbLine
  8
Baseplate
 62
256
370
-1
 48
1.0
  6
BYLAYER
 10
20.171572875253787
 20
9.4235498012182575
 30
0.0
 11
21.585786437626904
 21
10.837763363591371
 31
0.0
  0
LINE
  5
E5
100
AcDbEntity
100
AcDbLine
  8
Baseplate
 62
256
370
-1
 48
1.0
  6
BYLAYER
 10
21.585786437626901
 20
-10.837763363591455
 30
0.0
 11
20.171572875253787
 21
-9.4235498012183427
 31
0.0
  0
LINE
  5
E6
100
AcDbEntity
100
AcDbLine
  8
Baseplate
 62
256
370
-1
 48
1.0
  6
BYLAYER
 10
25.0
 20
9.4235498012182735
 30
0.0
 11
25.0
 21
-9.4235498012183587
 31
0.0
  0
ARC
  5
E7
100
AcDbEntity
  8
Baseplate
 62
256
370
-1
 48
1.0
  6
BYLAYER
100
AcDbCircle
 10
22.999999999999996
 20
9.4235498012182735
 30
0.0
 40
2.0
100
AcDbArc
 50
0.0
 51
134.99999999999989
  0
ARC
  5
E8
100
AcDbEntity
  8
Baseplate
 62
256
370
-1
 48
1.0
  6
BYLAYER
100
AcDbCircle
 10
22.999999999999996
 20
-9.4235498012183587
 30
0.0
 40
2.0
100
AcDbArc
 50
225.0
 51
0.0
  0
LINE
  5
E9
100
AcDbEntity
100
AcDbLine
  8
Baseplate
 62
256
370
-1
 48
1.0
  6
BYLAYER
 10
52.000000000000007
 20
-7.4999999999999982
 30
0.0
 11
58.000000000000007
 21
-7.4999999999999982
 31
0.0
  0
LINE
  5
EA
100
AcDbEntity
100
AcDbLine
  8
Baseplate
 62
256
370
-1
 48
1.0
  6
BYLAYER
 10
60.0
 20
-5.4999999999999982
 30
0.0
 11
60.0
 21
5.4999999999999982
 31
0.0
  0
LINE
  5
EB
100
AcDbEntity
100
AcDbLine
  8
Baseplate
 62
256
370
-1
 48
1.0
  6
BYLAYER
 10
58.0
 20
7.5
 30
0.0
 11
52.0
 21
7.5
 31
0.0
  0
LINE
  5
EC
100
AcDbEntity
100
AcDbLine
  8
Baseplate
 62
256
370
-1
 48
1.0
  6
BYLAYER
 10
50.0
 20
5.5
 30
0.0
 11
50.0
 21
-5.5
 31
0.0
  0
ARC
  5
ED
100
AcDbEntity
  8
Baseplate
 62
256
370
-1
 48
1.0
  6
BYLAYER
100
AcDbCircle
 10
52.0
 20
5.5
 30
0.0
 40
2.0
100
AcDbArc
 50
90.0
 51
180.0
  0
ARC
  5
EE
100
AcDbEntity
  8
Baseplate
 62
256
370
-1
 48
1.0
  6
BYLAYER
100
AcDbCircle
 10
58.0
 20
5.5
 30
0.0
 40
2.0
100
AcDbArc
 50
360.0
 51
90.0
  0
ARC
  5
EF
100
AcDbEntity
  8
Baseplate
 62
256
370
-1
 48
1.0
  6
BYLAYER
100
AcDbCircle
 10
58.000000000000007
 20
-5.4999999999999982
 30
0.0
 40
2.0
100
AcDbArc
 50
270.0
 51
0.0
  0
ARC
  5
F0
100
AcDbEntity
  8
Baseplate
 62
256
370
-1
 48
1.0
  6
BYLAYER
100
AcDbCircle
 10
52.000000000000007
 20
-5.4999999999999982
 30
0.0
 40
2.0
100
AcDbArc
 50
180.0
 51
270.0
  0
ARC
  5
F1
100
AcDbEntity
  8
Baseplate
 62
256
370
-1
 48
1.0
  6
BYLAYER
100
AcDbCircle
 10
-94.0
 20
-20.000000000000007
 30
0.0
 40
4.0
100
AcDbArc
 50
180.0
 51
270.0
  0
LINE
  5
F2
100
AcDbEntity
100
AcDbLine
  8
Baseplate
 62
256
370
-1
 48
1.0
  6
BYLAYER
 10
-98.0
 20
-19.999999999999996
 30
0.0
 11
-98.0
 21
20.000000000000004
 31
0.0
  0
ARC
  5
F3
100
AcDbEntity
  8
Baseplate
 62
256
370
-1
 48
1.0
  6
BYLAYER
100
AcDbCircle
 10
-94.0
 20
20.0
 30
0.0
 40
4.0
100
AcDbArc
 50
90.0
 51
180.0
  0
LINE
  5
F4
100
AcDbEntity
100
AcDbLine
  8
Baseplate
 62
256
370
-1
 48
1.0
  6
BYLAYER
 10
-94.0
 20
24.0
 30
0.0
 11
-52.249999999999993
 21
23.999999999999996
 31
0.0
  0
LINE
  5
F5
100
AcDbEntity
100
AcDbLine
  8
Baseplate
 62
256
370
-1
 48
1.0
  6
BYLAYER
 10
-52.249999999999993
 20
-24.000000000000007
 30
0.0
 11
-94.0
 21
-23.999999999999996
 31
0.0
  0
LINE
  5
F6
100
AcDbEntity
100
AcDbLine
  8
Baseplate
 62
256
370
-1
 48
1.0
  6
BYLAYER
 10
-50.25
 20
31.107864376269049
 30
0.0
 11
-50.25
 21
25.999999999999996
 31
0.0
  0
LINE
  5
F7
100
AcDbEntity
100
AcDbLine
  8
Baseplate
 62
256
370
-1
 48
1.0
  6
BYLAYER
 10
-50.25
 20
-26.000000000000004
 30
0.0
 11
-50.25
 21
-31.107864376269049
 31
0.0
  0
ARC
  5
F8
100
AcDbEntity
  8
Baseplate
 62
256
370
-1
 48
1.0
  6
BYLAYER
100
AcDbCircle
 10
-52.249999999999993
 20
25.999999999999996
 30
0.0
 40
2.0
100
AcDbArc
 50
270.0
 51
0.0
  0
ARC
  5
F9
100
AcDbEntity
  8
Baseplate
 62
256
370
-1
 48
1.0
  6
BYLAYER
100
AcDbCircle
 10
-52.249999999999993
 20
-26.000000000000004
 30
0.0
 40
2.0
100
AcDbArc
 50
0.0
 51
90.0
  0
LINE
  5
FA
100
AcDbEntity
100
AcDbLine
  8
Baseplate
 62
256
370
-1
 48
1.0
  6
BYLAYER
 10
-40.25
 20
24.673549801218257
 30
0.0
 11
-40.25
 21
11.999999999999998
 31
0.0
  0
LINE
  5
FB
100
AcDbEntity
100
AcDbLine
  8
Baseplate
 62
256
370
-1
 48
1.0
  6
BYLAYER
 10
-40.25
 20
-12.0
 30
0.0
 11
-40.25
 21
-24.673549801218343
 31
0.0
  0
LINE
  5
FC
100
AcDbEntity
100
AcDbLine
  8
Baseplate
 62
256
370
-1
 48
1.0
  6
BYLAYER
 10
-38.249999999999993
 20
10.0
 30
0.0
 11
-25.576450198781721
 21
10.0
 31
0.0
  0
LINE
  5
FD
100
AcDbEntity
100
AcDbLine
  8
Baseplate
 62
256
370
-1
 48
1.0
  6
BYLAYER
 10
-36.835786437626894
 20
26.087763363591364
 30
0.0
 11
-24.162236636408622
 21
13.414213562373094
 31
0.0
  0
LINE
  5
FE
100
AcDbEntity
100
AcDbLine
  8
Baseplate
 62
256
370
-1
 48
1.0
  6
BYLAYER
 10
-24.162236636408547
 20
-13.414213562373096
 30
0.0
 11
-36.835786437626894
 21
-26.087763363591421
 31
0.0
  0
LINE
  5
FF
100
AcDbEntity
100
AcDbLine
  8
Baseplate
 62
256
370
-1
 48
1.0
  6
BYLAYER
 10
-38.25
 20
-10.0
 30
0.0
 11
-25.576450198781636
 21
-10.0
 31
0.0
  0
ARC
  5
100
100
AcDbEntity
  8
Baseplate
 62
256
370
-1
 48
1.0
  6
BYLAYER
100
AcDbCircle
 10
-38.249999999999993
 20
11.999999999999998
 30
0.0
 40
2.0
100
AcDbArc
 50
180.0
 51
270.0
  0
ARC
  5
101
100
AcDbEntity
  8
Baseplate
 62
256
370
-1
 48
1.0
  6
BYLAYER
100
AcDbCircle
 10
-25.576450198781725
 20
12.0
 30
0.0
 40
2.0
100
AcDbArc
 50
270.00000000000011
 51
44.999999999999915
  0
ARC
  5
102
100
AcDbEntity
  8
Baseplate
 62
256
370
-1
 48
1.0
  6
BYLAYER
100
AcDbCircle
 10
-38.25
 20
-12.0
 30
0.0
 40
2.0
100
AcDbArc
 50
90.0
 51
180.0
  0
ARC
  5
103
100
AcDbEntity
  8
Baseplate
 62
256
370
-1
 48
1.0
  6
BYLAYER
100
AcDbCircle
 10
-25.57645019878164
 20
-12.0
 30
0.0
 40
2.0
100
AcDbArc
 50
314.99999999999994
 51
89.999999999999901
  0
CIRCLE
  5
104
100
AcDbEntity
100
AcDbCircle
  8
Camplate
 62
256
370
-1
 48
1.0
  6
BYLAYER
 10
85.000000000000014
 20
90.0
 30
0.0
 40
2.0
  0
ARC
  5
105
100
AcDbEntity
  8
Camplate
 62
256
370
-1
 48
1.0
  6
BYLAYER
100
AcDbCircle
 10
80.999999999999943
 20
50.0
 30
0.0
 40
4.0
100
AcDbArc
 50
180.0
 51
0.0
  0
LINE
  5
106
100
AcDbEntity
100
AcDbLine
  8
Camplate
 62
256
370
-1
 48
1.0
  6
BYLAYER
 10
77.0
 20
50.0
 30
0.0
 11
77.0
 21
68.0
 31
0.0
  0
ARC
  5
107
100
AcDbEntity
  8
Camplate
 62
256
370
-1
 48
1.0
  6
BYLAYER
100
AcDbCircle
 10
80.999999999999986
 20
68.0
 30
0.0
 40
4.0
100
AcDbArc
 50
0.0
 51
180.0
  0
LINE
  5
108
100
AcDbEntity
100
AcDbLine
  8
Camplate
 62
256
370
-1
 48
1.0
  6
BYLAYER
 10
84.999999999999986
 20
68.0
 30
0.0
 11
85.0
 21
49.0
 31
0.0
  0
CIRCLE
  5
109
100
AcDbEntity
100
AcDbCircle
  8
Camplate
 62
256
370
-1
 48
1.0
  6
BYLAYER
 10
84.999999999999972
 20
28.0
 30
0.0
 40
2.0
  0
CIRCLE
  5
10A
100
AcDbEntity
100
AcDbCircle
  8
Camplate
 62
256
370
-1
 48
1.0
  6
BYLAYER
 10
62.000000000000007
 20
70.0
 30
0.0
 40
4.0
  0
CIRCLE
  5
10B
100
AcDbEntity
100
AcDbCircle
  8
Camplate
 62
256
370
-1
 48
1.0
  6
BYLAYER
 10
69.0
 20
59.0
 30
0.0
 40
3.0
  0
CIRCLE
  5
10C
100
AcDbEntity
100
AcDbCircle
  8
Camplate
 62
256
370
-1
 48
1.0
  6
BYLAYER
 10
61.999999999999972
 20
59.0
 30
0.0
 40
2.0
  0
CIRCLE
  5
10D
100
AcDbEntity
100
AcDbCircle
  8
Camplate
 62
256
370
-1
 48
1.0
  6
BYLAYER
 10
62.000000000000007
 20
48.0
 30
0.0
 40
4.0
  0
LINE
  5
10E
100
AcDbEntity
100
AcDbLine
  8
Camplate
 62
256
370
-1
 48
1.0
  6
BYLAYER
 10
74.0
 20
80.0
 30
0.0
 11
72.999999999999972
 21
80.0
 31
0.0
  0
LINE
  5
10F
100
AcDbEntity
100
AcDbLine
  8
Camplate
 62
256
370
-1
 48
1.0
  6
BYLAYER
 10
72.999999999999986
 20
78.0
 30
0.0
 11
78.0
 21
78.0
 31
0.0
  0
LINE
  5
110
100
AcDbEntity
100
AcDbLine
  8
Camplate
 62
256
370
-1
 48
1.0
  6
BYLAYER
 10
79.999999999999972
 20
80.0
 30
0.0
 11
79.999999999999972
 21
90.0
 31
0.0
  0
LINE
  5
111
100
AcDbEntity
100
AcDbLine
  8
Camplate
 62
256
370
-1
 48
1.0
  6
BYLAYER
 10
90.0
 20
90.0
 30
0.0
 11
89.999999999999929
 21
28.0
 31
0.0
  0
LINE
  5
112
100
AcDbEntity
100
AcDbLine
  8
Camplate
 62
256
370
-1
 48
1.0
  6
BYLAYER
 10
80.0
 20
28.0
 30
0.0
 11
79.999999999999972
 21
38.0
 31
0.0
  0
LINE
  5
113
100
AcDbEntity
100
AcDbLine
  8
Camplate
 62
256
370
-1
 48
1.0
  6
BYLAYER
 10
78.000000000000028
 20
40.0
 30
0.0
 11
73.000000000000028
 21
40.0
 31
0.0
  0
LINE
  5
114
100
AcDbEntity
100
AcDbLine
  8
Camplate
 62
256
370
-1
 48
1.0
  6
BYLAYER
 10
72.999999999999986
 20
38.0
 30
0.0
 11
74.000000000000028
 21
38.0
 31
0.0
  0
LINE
  5
115
100
AcDbEntity
100
AcDbLine
  8
Camplate
 62
256
370
-1
 48
1.0
  6
BYLAYER
 10
74.999999999999986
 20
37.0
 30
0.0
 11
75.0
 21
36.0
 31
0.0
  0
LINE
  5
116
100
AcDbEntity
100
AcDbLine
  8
Camplate
 62
256
370
-1
 48
1.0
  6
BYLAYER
 10
74.000000000000028
 20
35.0
 30
0.0
 11
62.000000000000028
 21
34.999999999999972
 31
0.0
  0
LINE
  5
117
100
AcDbEntity
100
AcDbLine
  8
Camplate
 62
256
370
-1
 48
1.0
  6
BYLAYER
 10
61.0
 20
36.0
 30
0.0
 11
60.999999999999986
 21
37.0
 31
0.0
  0
LINE
  5
118
100
AcDbEntity
100
AcDbLine
  8
Camplate
 62
256
370
-1
 48
1.0
  6
BYLAYER
 10
62.0
 20
38.0
 30
0.0
 11
62.999999999999943
 21
38.0
 31
0.0
  0
LINE
  5
119
100
AcDbEntity
100
AcDbLine
  8
Camplate
 62
256
370
-1
 48
1.0
  6
BYLAYER
 10
62.999999999999972
 20
40.0
 30
0.0
 11
60.000000000000007
 21
40.0
 31
0.0
  0
LINE
  5
11A
100
AcDbEntity
100
AcDbLine
  8
Camplate
 62
256
370
-1
 48
1.0
  6
BYLAYER
 10
56.999999999999986
 20
37.0
 30
0.0
 11
54.000000000000021
 21
36.999999999999972
 31
0.0
  0
LINE
  5
11B
100
AcDbEntity
100
AcDbLine
  8
Camplate
 62
256
370
-1
 48
1.0
  6
BYLAYER
 10
50.999999999999972
 20
40.0
 30
0.0
 11
50.999999999999972
 21
78.0
 31
0.0
  0
LINE
  5
11C
100
AcDbEntity
100
AcDbLine
  8
Camplate
 62
256
370
-1
 48
1.0
  6
BYLAYER
 10
54.000000000000007
 20
81.0
 30
0.0
 11
56.999999999999972
 21
81.0
 31
0.0
  0
LINE
  5
11D
100
AcDbEntity
100
AcDbLine
  8
Camplate
 62
256
370
-1
 48
1.0
  6
BYLAYER
 10
60.000000000000007
 20
78.0
 30
0.0
 11
63.0
 21
78.0
 31
0.0
  0
LINE
  5
11E
100
AcDbEntity
100
AcDbLine
  8
Camplate
 62
256
370
-1
 48
1.0
  6
BYLAYER
 10
62.999999999999972
 20
80.0
 30
0.0
 11
61.999999999999979
 21
80.0
 31
0.0
  0
LINE
  5
11F
100
AcDbEntity
100
AcDbLine
  8
Camplate
 62
256
370
-1
 48
1.0
  6
BYLAYER
 10
61.0
 20
81.0
 30
0.0
 11
61.0
 21
82.0
 31
0.0
  0
LINE
  5
120
100
AcDbEntity
100
AcDbLine
  8
Camplate
 62
256
370
-1
 48
1.0
  6
BYLAYER
 10
62.0
 20
83.0
 30
0.0
 11
73.999999999999972
 21
83.0
 31
0.0
  0
LINE
  5
121
100
AcDbEntity
100
AcDbLine
  8
Camplate
 62
256
370
-1
 48
1.0
  6
BYLAYER
 10
75.0
 20
82.0
 30
0.0
 11
74.999999999999972
 21
81.0
 31
0.0
  0
ARC
  5
122
100
AcDbEntity
  8
Camplate
 62
256
370
-1
 48
1.0
  6
BYLAYER
100
AcDbCircle
 10
73.999999999999972
 20
81.0
 30
0.0
 40
1.0
100
AcDbArc
 50
270.0
 51
0.0
  0
ARC
  5
123
100
AcDbEntity
  8
Camplate
 62
256
370
-1
 48
1.0
  6
BYLAYER
100
AcDbCircle
 10
73.0
 20
79.0
 30
0.0
 40
1.0
100
AcDbArc
 50
90.0
 51
270.0
  0
ARC
  5
124
100
AcDbEntity
  8
Camplate
 62
256
370
-1
 48
1.0
  6
BYLAYER
100
AcDbCircle
 10
77.999999999999986
 20
80.0
 30
0.0
 40
2.0
100
AcDbArc
 50
270.0
 51
0.0
  0
ARC
  5
125
100
AcDbEntity
  8
Camplate
 62
256
370
-1
 48
1.0
  6
BYLAYER
100
AcDbCircle
 10
85.000000000000014
 20
90.0
 30
0.0
 40
5.0
100
AcDbArc
 50
0.0
 51
180.0
  0
ARC
  5
126
100
AcDbEntity
  8
Camplate
 62
256
370
-1
 48
1.0
  6
BYLAYER
100
AcDbCircle
 10
84.999999999999972
 20
28.0
 30
0.0
 40
5.0
100
AcDbArc
 50
180.0
 51
0.0
  0
ARC
  5
127
100
AcDbEntity
  8
Camplate
 62
256
370
-1
 48
1.0
  6
BYLAYER
100
AcDbCircle
 10
78.0
 20
38.0
 30
0.0
 40
2.0
100
AcDbArc
 50
0.0
 51
90.0
  0
ARC
  5
128
100
AcDbEntity
  8
Camplate
 62
256
370
-1
 48
1.0
  6
BYLAYER
100
AcDbCircle
 10
73.0
 20
39.0
 30
0.0
 40
1.0
100
AcDbArc
 50
90.0
 51
270.0
  0
ARC
  5
129
100
AcDbEntity
  8
Camplate
 62
256
370
-1
 48
1.0
  6
BYLAYER
100
AcDbCircle
 10
73.999999999999957
 20
37.0
 30
0.0
 40
1.0
100
AcDbArc
 50
0.0
 51
90.0
  0
ARC
  5
12A
100
AcDbEntity
  8
Camplate
 62
256
370
-1
 48
1.0
  6
BYLAYER
100
AcDbCircle
 10
73.999999999999986
 20
36.0
 30
0.0
 40
1.0
100
AcDbArc
 50
270.0
 51
0.0
  0
ARC
  5
12B
100
AcDbEntity
  8
Camplate
 62
256
370
-1
 48
1.0
  6
BYLAYER
100
AcDbCircle
 10
62.000000000000043
 20
35.999999999999972
 30
0.0
 40
1.0
100
AcDbArc
 50
180.0
 51
270.0
  0
ARC
  5
12C
100
AcDbEntity
  8
Camplate
 62
256
370
-1
 48
1.0
  6
BYLAYER
100
AcDbCircle
 10
61.999999999999943
 20
37.0
 30
0.0
 40
1.0
100
AcDbArc
 50
90.0
 51
180.0
  0
ARC
  5
12D
100
AcDbEntity
  8
Camplate
 62
256
370
-1
 48
1.0
  6
BYLAYER
100
AcDbCircle
 10
62.999999999999972
 20
39.0
 30
0.0
 40
1.0
100
AcDbArc
 50
270.0
 51
90.0
  0
ARC
  5
12E
100
AcDbEntity
  8
Camplate
 62
256
370
-1
 48
1.0
  6
BYLAYER
100
AcDbCircle
 10
59.999999999999972
 20
38.0
 30
0.0
 40
2.0
100
AcDbArc
 50
90.0
 51
180.0
  0
ARC
  5
12F
100
AcDbEntity
  8
Camplate
 62
256
370
-1
 48
1.0
  6
BYLAYER
100
AcDbCircle
 10
56.999999999999943
 20
38.0
 30
0.0
 40
1.0
100
AcDbArc
 50
270.0
 51
0.0
  0
ARC
  5
130
100
AcDbEntity
  8
Camplate
 62
256
370
-1
 48
1.0
  6
BYLAYER
100
AcDbCircle
 10
53.999999999999957
 20
40.0
 30
0.0
 40
3.0
100
AcDbArc
 50
180.0
 51
270.0
  0
ARC
  5
131
100
AcDbEntity
  8
Camplate
 62
256
370
-1
 48
1.0
  6
BYLAYER
100
AcDbCircle
 10
53.999999999999972
 20
78.0
 30
0.0
 40
3.0
100
AcDbArc
 50
90.0
 51
180.0
  0
ARC
  5
132
100
AcDbEntity
  8
Camplate
 62
256
370
-1
 48
1.0
  6
BYLAYER
100
AcDbCircle
 10
56.999999999999972
 20
80.0
 30
0.0
 40
1.0
100
AcDbArc
 50
0.0
 51
90.0
  0
ARC
  5
133
100
AcDbEntity
  8
Camplate
 62
256
370
-1
 48
1.0
  6
BYLAYER
100
AcDbCircle
 10
60.000000000000007
 20
80.0
 30
0.0
 40
2.0
100
AcDbArc
 50
180.0
 51
270.0
  0
ARC
  5
134
100
AcDbEntity
  8
Camplate
 62
256
370
-1
 48
1.0
  6
BYLAYER
100
AcDbCircle
 10
62.999999999999972
 20
79.0
 30
0.0
 40
1.0
100
AcDbArc
 50
270.0
 51
90.0
  0
ARC
  5
135
100
AcDbEntity
  8
Camplate
 62
256
370
-1
 48
1.0
  6
BYLAYER
100
AcDbCircle
 10
62.0
 20
80.999999999999972
 30
0.0
 40
1.0
100
AcDbArc
 50
180.0
 51
270.0
  0
ARC
  5
136
100
AcDbEntity
  8
Camplate
 62
256
370
-1
 48
1.0
  6
BYLAYER
100
AcDbCircle
 10
62.0
 20
82.0
 30
0.0
 40
1.0
100
AcDbArc
 50
90.0
 51
180.0
  0
ARC
  5
137
100
AcDbEntity
  8
Camplate
 62
256
370
-1
 48
1.0
  6
BYLAYER
100
AcDbCircle
 10
73.999999999999986
 20
82.0
 30
0.0
 40
1.0
100
AcDbArc
 50
0.0
 51
90.0
  0
CIRCLE
  5
138
100
AcDbEntity
100
AcDbCircle
  8
Camplate
 62
256
370
-1
 48
1.0
  6
BYLAYER
 10
85.000000000000014
 20
90.0
 30
0.0
 40
2.0
  0
ARC
  5
139
100
AcDbEntity
  8
Camplate
 62
256
370
-1
 48
1.0
  6
BYLAYER
100
AcDbCircle
 10
80.999999999999943
 20
50.0
 30
0.0
 40
4.0
100
AcDbArc
 50
180.0
 51
0.0
  0
LINE
  5
13A
100
AcDbEntity
100
AcDbLine
  8
Camplate
 62
256
370
-1
 48
1.0
  6
BYLAYER
 10
77.0
 20
50.0
 30
0.0
 11
77.0
 21
68.0
 31
0.0
  0
ARC
  5
13B
100
AcDbEntity
  8
Camplate
 62
256
370
-1
 48
1.0
  6
BYLAYER
100
AcDbCircle
 10
80.999999999999986
 20
68.0
 30
0.0
 40
4.0
100
AcDbArc
 50
0.0
 51
180.0
  0
LINE
  5
13C
100
AcDbEntity
100
AcDbLine
  8
Camplate
 62
256
370
-1
 48
1.0
  6
BYLAYER
 10
84.999999999999986
 20
68.0
 30
0.0
 11
85.0
 21
49.0
 31
0.0
  0
CIRCLE
  5
13D
100
AcDbEntity
100
AcDbCircle
  8
Camplate
 62
256
370
-1
 48
1.0
  6
BYLAYER
 10
84.999999999999972
 20
28.0
 30
0.0
 40
2.0
  0
CIRCLE
  5
13E
100
AcDbEntity
100
AcDbCircle
  8
Camplate
 62
256
370
-1
 48
1.0
  6
BYLAYER
 10
62.000000000000007
 20
70.0
 30
0.0
 40
4.0
  0
CIRCLE
  5
13F
100
AcDbEntity
100
AcDbCircle
  8
Camplate
 62
256
370
-1
 48
1.0
  6
BYLAYER
 10
69.0
 20
59.0
 30
0.0
 40
3.0
  0
CIRCLE
  5
140
100
AcDbEntity
100
AcDbCircle
  8
Camplate
 62
256
370
-1
 48
1.0
  6
BYLAYER
 10
61.999999999999972
 20
59.0
 30
0.0
 40
2.0
  0
CIRCLE
  5
141
100
AcDbEntity
100
AcDbCircle
  8
Camplate
 62
256
370
-1
 48
1.0
  6
BYLAYER
 10
62.000000000000007
 20
48.0
 30
0.0
 40
4.0
  0
LINE
  5
142
100
AcDbEntity
100
AcDbLine
  8
Camplate
 62
256
370
-1
 48
1.0
  6
BYLAYER
 10
74.0
 20
80.0
 30
0.0
 11
72.999999999999972
 21
80.0
 31
0.0
  0
LINE
  5
143
100
AcDbEntity
100
AcDbLine
  8
Camplate
 62
256
370
-1
 48
1.0
  6
BYLAYER
 10
72.999999999999986
 20
78.0
 30
0.0
 11
78.0
 21
78.0
 31
0.0
  0
LINE
  5
144
100
AcDbEntity
100
AcDbLine
  8
Camplate
 62
256
370
-1
 48
1.0
  6
BYLAYER
 10
79.999999999999972
 20
80.0
 30
0.0
 11
79.999999999999972
 21
90.0
 31
0.0
  0
LINE
  5
145
100
AcDbEntity
100
AcDbLine
  8
Camplate
 62
256
370
-1
 48
1.0
  6
BYLAYER
 10
90.0
 20
90.0
 30
0.0
 11
89.999999999999929
 21
28.0
 31
0.0
  0
LINE
  5
146
100
AcDbEntity
100
AcDbLine
  8
Camplate
 62
256
370
-1
 48
1.0
  6
BYLAYER
 10
80.0
 20
28.0
 30
0.0
 11
79.999999999999972
 21
38.0
 31
0.0
  0
LINE
  5
147
100
AcDbEntity
100
AcDbLine
  8
Camplate
 62
256
370
-1
 48
1.0
  6
BYLAYER
 10
78.000000000000028
 20
40.0
 30
0.0
 11
73.000000000000028
 21
40.0
 31
0.0
  0
LINE
  5
148
100
AcDbEntity
100
AcDbLine
  8
Camplate
 62
256
370
-1
 48
1.0
  6
BYLAYER
 10
72.999999999999986
 20
38.0
 30
0.0
 11
74.000000000000028
 21
38.0
 31
0.0
  0
LINE
  5
149
100
AcDbEntity
100
AcDbLine
  8
Camplate
 62
256
370
-1
 48
1.0
  6
BYLAYER
 10
74.999999999999986
 20
37.0
 30
0.0
 11
75.0
 21
36.0
 31
0.0
  0
LINE
  5
14A
100
AcDbEntity
100
AcDbLine
  8
Camplate
 62
256
370
-1
 48
1.0
  6
BYLAYER
 10
74.000000000000028
 20
35.0
 30
0.0
 11
62.000000000000028
 21
34.999999999999972
 31
0.0
  0
LINE
  5
14B
100
AcDbEntity
100
AcDbLine
  8
Camplate
 62
256
370
-1
 48
1.0
  6
BYLAYER
 10
61.0
 20
36.0
 30
0.0
 11
60.999999999999986
 21
37.0
 31
0.0
  0
LINE
  5
14C
100
AcDbEntity
100
AcDbLine
  8
Camplate
 62
256
370
-1
 48
1.0
  6
BYLAYER
 10
62.0
 20
38.0
 30
0.0
 11
62.999999999999943
 21
38.0
 31
0.0
  0
LINE
  5
14D
100
AcDbEntity
100
AcDbLine
  8
Camplate
 62
256
370
-1
 48
1.0
  6
BYLAYER
 10
62.999999999999972
 20
40.0
 30
0.0
 11
60.000000000000007
 21
40.0
 31
0.0
  0
LINE
  5
14E
100
AcDbEntity
100
AcDbLine
  8
Camplate
 62
256
370
-1
 48
1.0
  6
BYLAYER
 10
56.999999999999986
 20
37.0
 30
0.0
 11
54.000000000000021
 21
36.999999999999972
 31
0.0
  0
LINE
  5
14F
100
AcDbEntity
100
AcDbLine
  8
Camplate
 62
256
370
-1
 48
1.0
  6
BYLAYER
 10
50.999999999999972
 20
40.0
 30
0.0
 11
50.999999999999972
 21
78.0
 31
0.0
  0
LINE
  5
150
100
AcDbEntity
100
AcDbLine
  8
Camplate
 62
256
370
-1
 48
1.0
  6
BYLAYER
 10
54.000000000000007
 20
81.0
 30
0.0
 11
56.999999999999972
 21
81.0
 31
0.0
  0
LINE
  5
151
100
AcDbEntity
100
AcDbLine
  8
Camplate
 62
256
370
-1
 48
1.0
  6
BYLAYER
 10
60.000000000000007
 20
78.0
 30
0.0
 11
63.0
 21
78.0
 31
0.0
  0
LINE
  5
152
100
AcDbEntity
100
AcDbLine
  8
Camplate
 62
256
370
-1
 48
1.0
  6
BYLAYER
 10
62.999999999999972
 20
80.0
 30
0.0
 11
61.999999999999979
 21
80.0
 31
0.0
  0
LINE
  5
153
100
AcDbEntity
100
AcDbLine
  8
Camplate
 62
256
370
-1
 48
1.0
  6
BYLAYER
 10
61.0
 20
81.0
 30
0.0
 11
61.0
 21
82.0
 31
0.0
  0
LINE
  5
154
100
AcDbEntity
100
AcDbLine
  8
Camplate
 62
256
370
-1
 48
1.0
  6
BYLAYER
 10
62.0
 20
83.0
 30
0.0
 11
73.999999999999972
 21
83.0
 31
0.0
  0
LINE
  5
155
100
AcDbEntity
100
AcDbLine
  8
Camplate
 62
256
370
-1
 48
1.0
  6
BYLAYER
 10
75.0
 20
82.0
 30
0.0
 11
74.999999999999972
 21
81.0
 31
0.0
  0
ARC
  5
156
100
AcDbEntity
  8
Camplate
 62
256
370
-1
 48
1.0
  6
BYLAYER
100
AcDbCircle
 10
73.999999999999972
 20
81.0
 30
0.0
 40
1.0
100
AcDbArc
 50
270.0
 51
0.0
  0
ARC
  5
157
100
AcDbEntity
  8
Camplate
 62
256
370
-1
 48
1.0
  6
BYLAYER
100
AcDbCircle
 10
73.0
 20
79.0
 30
0.0
 40
1.0
100
AcDbArc
 50
90.0
 51
270.0
  0
ARC
  5
158
100
AcDbEntity
  8
Camplate
 62
256
370
-1
 48
1.0
  6
BYLAYER
100
AcDbCircle
 10
77.999999999999986
 20
80.0
 30
0.0
 40
2.0
100
AcDbArc
 50
270.0
 51
0.0
  0
ARC
  5
159
100
AcDbEntity
  8
Camplate
 62
256
370
-1
 48
1.0
  6
BYLAYER
100
AcDbCircle
 10
85.000000000000014
 20
90.0
 30
0.0
 40
5.0
100
AcDbArc
 50
0.0
 51
180.0
  0
ARC
  5
15A
100
AcDbEntity
  8
Camplate
 62
256
370
-1
 48
1.0
  6
BYLAYER
100
AcDbCircle
 10
84.999999999999972
 20
28.0
 30
0.0
 40
5.0
100
AcDbArc
 50
180.0
 51
0.0
  0
ARC
  5
15B
100
AcDbEntity
  8
Camplate
 62
256
370
-1
 48
1.0
  6
BYLAYER
100
AcDbCircle
 10
78.0
 20
38.0
 30
0.0
 40
2.0
100
AcDbArc
 50
0.0
 51
90.0
  0
ARC
  5
15C
100
AcDbEntity
  8
Camplate
 62
256
370
-1
 48
1.0
  6
BYLAYER
100
AcDbCircle
 10
73.0
 20
39.0
 30
0.0
 40
1.0
100
AcDbArc
 50
90.0
 51
270.0
  0
ARC
  5
15D
100
AcDbEntity
  8
Camplate
 62
256
370
-1
 48
1.0
  6
BYLAYER
100
AcDbCircle
 10
73.999999999999957
 20
37.0
 30
0.0
 40
1.0
100
AcDbArc
 50
0.0
 51
90.0
  0
ARC
  5
15E
100
AcDbEntity
  8
Camplate
 62
256
370
-1
 48
1.0
  6
BYLAYER
100
AcDbCircle
 10
73.999999999999986
 20
36.0
 30
0.0
 40
1.0
100
AcDbArc
 50
270.0
 51
0.0
  0
ARC
  5
15F
100
AcDbEntity
  8
Camplate
 62
256
370
-1
 48
1.0
  6
BYLAYER
100
AcDbCircle
 10
62.000000000000043
 20
35.999999999999972
 30
0.0
 40
1.0
100
AcDbArc
 50
180.0
 51
270.0
  0
ARC
  5
160
100
AcDbEntity
  8
Camplate
 62
256
370
-1
 48
1.0
  6
BYLAYER
100
AcDbCircle
 10
61.999999999999943
 20
37.0
 30
0.0
 40
1.0
100
AcDbArc
 50
90.0
 51
180.0
  0
ARC
  5
161
100
AcDbEntity
  8
Camplate
 62
256
370
-1
 48
1.0
  6
BYLAYER
100
AcDbCircle
 10
62.999999999999972
 20
39.0
 30
0.0
 40
1.0
100
AcDbArc
 50
270.0
 51
90.0
  0
ARC
  5
162
100
AcDbEntity
  8
Camplate
 62
256
370
-1
 48
1.0
  6
BYLAYER
100
AcDbCircle
 10
59.999999999999972
 20
38.0
 30
0.0
 40
2.0
100
AcDbArc
 50
90.0
 51
180.0
  0
ARC
  5
163
100
AcDbEntity
  8
Camplate
 62
256
370
-1
 48
1.0
  6
BYLAYER
100
AcDbCircle
 10
56.999999999999943
 20
38.0
 30
0.0
 40
1.0
100
AcDbArc
 50
270.0
 51
0.0
  0
ARC
  5
164
100
AcDbEntity
  8
Camplate
 62
256
370
-1
 48
1.0
  6
BYLAYER
100
AcDbCircle
 10
53.999999999999957
 20
40.0
 30
0.0
 40
3.0
100
AcDbArc
 50
180.0
 51
270.0
  0
ARC
  5
165
100
AcDbEntity
  8
Camplate
 62
256
370
-1
 48
1.0
  6
BYLAYER
100
AcDbCircle
 10
53.999999999999972
 20
78.0
 30
0.0
 40
3.0
100
AcDbArc
 50
90.0
 51
180.0
  0
ARC
  5
166
100
AcDbEntity
  8
Camplate
 62
256
370
-1
 48
1.0
  6
BYLAYER
100
AcDbCircle
 10
56.999999999999972
 20
80.0
 30
0.0
 40
1.0
100
AcDbArc
 50
0.0
 51
90.0
  0
ARC
  5
167
100
AcDbEntity
  8
Camplate
 62
256
370
-1
 48
1.0
  6
BYLAYER
100
AcDbCircle
 10
60.000000000000007
 20
80.0
 30
0.0
 40
2.0
100
AcDbArc
 50
180.0
 51
270.0
  0
ARC
  5
168
100
AcDbEntity
  8
Camplate
 62
256
370
-1
 48
1.0
  6
BYLAYER
100
AcDbCircle
 10
62.999999999999972
 20
79.0
 30
0.0
 40
1.0
100
AcDbArc
 50
270.0
 51
90.0
  0
ARC
  5
169
100
AcDbEntity
  8
Camplate
 62
256
370
-1
 48
1.0
  6
BYLAYER
100
AcDbCircle
 10
62.0
 20
80.999999999999972
 30
0.0
 40
1.0
100
AcDbArc
 50
180.0
 51
270.0
  0
ARC
  5
16A
100
AcDbEntity
  8
Camplate
 62
256
370
-1
 48
1.0
  6
BYLAYER
100
AcDbCircle
 10
62.0
 20
82.0
 30
0.0
 40
1.0
100
AcDbArc
 50
90.0
 51
180.0
  0
ARC
  5
16B
100
AcDbEntity
  8
Camplate
 62
256
370
-1
 48
1.0
  6
BYLAYER
100
AcDbCircle
 10
73.999999999999986
 20
82.0
 30
0.0
 40
1.0
100
AcDbArc
 50
0.0
 51
90.0
  0
CIRCLE
  5
16C
100
AcDbEntity
100
AcDbCircle
  8
Cambaseplate
 62
256
370
-1
 48
1.0
  6
BYLAYER
 10
-86.0
 20
76.0
 30
0.0
 40
3.0
  0
CIRCLE
  5
16D
100
AcDbEntity
100
AcDbCircle
  8
Cambaseplate
 62
256
370
-1
 48
1.0
  6
BYLAYER
 10
-93.0
 20
76.0
 30
0.0
 40
2.0
  0
CIRCLE
  5
16E
100
AcDbEntity
100
AcDbCircle
  8
Cambaseplate
 62
256
370
-1
 48
1.0
  6
BYLAYER
 10
-93.0
 20
87.0
 30
0.0
 40
4.0
  0
ARC
  5
16F
100
AcDbEntity
  8
Cambaseplate
 62
256
370
-1
 48
1.0
  6
BYLAYER
100
AcDbCircle
 10
-100.0
 20
56.0
 30
0.0
 40
4.0
100
AcDbArc
 50
180.0
 51
270.0
  0
LINE
  5
170
100
AcDbEntity
100
AcDbLine
  8
Cambaseplate
 62
256
370
-1
 48
1.0
  6
BYLAYER
 10
-104.0
 20
56.0
 30
0.0
 11
-104.0
 21
96.0
 31
0.0
  0
ARC
  5
171
100
AcDbEntity
  8
Cambaseplate
 62
256
370
-1
 48
1.0
  6
BYLAYER
100
AcDbCircle
 10
-100.0
 20
96.0
 30
0.0
 40
4.0
100
AcDbArc
 50
90.0
 51
180.0
  0
CIRCLE
  5
172
100
AcDbEntity
100
AcDbCircle
  8
Cambaseplate
 62
256
370
-1
 48
1.0
  6
BYLAYER
 10
-93.0
 20
65.0
 30
0.0
 40
4.0
  0
LINE
  5
173
100
AcDbEntity
100
AcDbLine
  8
Cambaseplate
 62
256
370
-1
 48
1.0
  6
BYLAYER
 10
-100.0
 20
100.0
 30
0.0
 11
-32.25
 21
100.0
 31
0.0
  0
LINE
  5
174
100
AcDbEntity
100
AcDbLine
  8
Cambaseplate
 62
256
370
-1
 48
1.0
  6
BYLAYER
 10
-32.25
 20
52.0
 30
0.0
 11
-100.0
 21
52.0
 31
0.0
  0
CIRCLE
  5
175
100
AcDbEntity
100
AcDbCircle
  8
Baseplate
 62
256
370
-1
 48
1.0
  6
BYLAYER
 10
-85.0
 20
15.0
 30
0.0
 40
3.5
  0
CIRCLE
  5
176
100
AcDbEntity
100
AcDbCircle
  8
Baseplate
 62
256
370
-1
 48
1.0
  6
BYLAYER
 10
-65.0
 20
14.999999999999996
 30
0.0
 40
3.5
  0
CIRCLE
  5
177
100
AcDbEntity
100
AcDbCircle
  8
Baseplate
 62
256
370
-1
 48
1.0
  6
BYLAYER
 10
-85.0
 20
-15.0
 30
0.0
 40
3.5
  0
CIRCLE
  5
178
100
AcDbEntity
100
AcDbCircle
  8
Baseplate
 62
256
370
-1
 48
1.0
  6
BYLAYER
 10
-65.0
 20
-15.000000000000002
 30
0.0
 40
3.5
  0
CIRCLE
  5
179
100
AcDbEntity
100
AcDbCircle
  8
Cambaseplate
 62
256
370
-1
 48
1.0
  6
BYLAYER
 10
-84.0
 20
91.0
 30
0.0
 40
3.5
  0
CIRCLE
  5
17A
100
AcDbEntity
100
AcDbCircle
  8
Cambaseplate
 62
256
370
-1
 48
1.0
  6
BYLAYER
 10
-64.0
 20
91.0
 30
0.0
 40
3.5
  0
CIRCLE
  5
17B
100
AcDbEntity
100
AcDbCircle
  8
Cambaseplate
 62
256
370
-1
 48
1.0
  6
BYLAYER
 10
-84.0
 20
61.0
 30
0.0
 40
3.5
  0
CIRCLE
  5
17C
100
AcDbEntity
100
AcDbCircle
  8
Cambaseplate
 62
256
370
-1
 48
1.0
  6
BYLAYER
 10
-64.0
 20
61.0
 30
0.0
 40
3.5
  0
LINE
  5
17D
100
AcDbEntity
100
AcDbLine
  8
Cambaseplate
 62
256
370
-1
 48
1.0
  6
BYLAYER
 10
-28.25
 20
96.0
 30
0.0
 11
-28.249999999999993
 21
56.0
 31
0.0
  0
ARC
  5
17E
100
AcDbEntity
  8
Cambaseplate
 62
256
370
-1
 48
1.0
  6
BYLAYER
100
AcDbCircle
 10
-32.25
 20
96.0
 30
0.0
 40
4.0
100
AcDbArc
 50
0.0
 51
90.0
  0
ARC
  5
17F
100
AcDbEntity
  8
Cambaseplate
 62
256
370
-1
 48
1.0
  6
BYLAYER
100
AcDbCircle
 10
-32.25
 20
56.0
 30
0.0
 40
4.0
100
AcDbArc
 50
270.0
 51
0.0
  0
CIRCLE
  5
180
100
AcDbEntity
100
AcDbCircle
  8
Cambaseplate
 62
256
370
-1
 48
1.0
  6
BYLAYER
 10
-49.0
 20
86.0
 30
0.0
 40
2.0
  0
CIRCLE
  5
181
100
AcDbEntity
100
AcDbCircle
  8
Cambaseplate
 62
256
370
-1
 48
1.0
  6
BYLAYER
 10
-38.0
 20
86.0
 30
0.0
 40
2.0
  0
CIRCLE
  5
182
100
AcDbEntity
100
AcDbCircle
  8
Cambaseplate
 62
256
370
-1
 48
1.0
  6
BYLAYER
 10
-49.0
 20
66.0
 30
0.0
 40
2.0
  0
CIRCLE
  5
183
100
AcDbEntity
100
AcDbCircle
  8
Cambaseplate
 62
256
370
-1
 48
1.0
  6
BYLAYER
 10
-38.0
 20
66.0
 30
0.0
 40
2.0
  0
ENDSEC
  0
SECTION
  2
OBJECTS
  0
DICTIONARY
  5
C
100
AcDbDictionary
280
0
281
1
  3
ACAD_GROUP
350
D
  3
ACAD_LAYOUT
350
1A
  3
ACAD_MLINESTYLE
350
17
  3
ACAD_PLOTSETTINGS
350
19
  3
ACAD_PLOTSTYLENAME
350
E
  3
AcDbVariableDictionary
350
184
  3
QCAD_OBJECTS
350
185
  0
DICTIONARY
  5
D
100
AcDbDictionary
280
0
281
1
  0
ACDBDICTIONARYWDFLT
  5
E
100
AcDbDictionary
281
1
  3
Normal
350
F
100
AcDbDictionaryWithDefault
340
F
  0
ACDBPLACEHOLDER
  5
F
  0
DICTIONARY
  5
17
100
AcDbDictionary
280
0
281
1
  3
Standard
350
18
  0
MLINESTYLE
  5
18
100
AcDbMlineStyle
  2
STANDARD
 70
0
  3

 62
256
 51
90.0
 52
90.0
 71
2
 49
0.5
 62
256
  6
BYLAYER
 49
-0.5
 62
256
  6
BYLAYER
  0
DICTIONARY
  5
19
100
AcDbDictionary
280
0
281
1
  0
DICTIONARY
  5
1A
100
AcDbDictionary
281
1
  3
Layout1
350
1E
  3
Layout2
350
26
  3
Model
350
22
  0
LAYOUT
  5
1E
100
AcDbPlotSettings
  1

  2
none_device
  4

  6

 40
0.0
 41
0.0
 42
0.0
 43
0.0
 44
0.0
 45
0.0
 46
0.0
 47
0.0
 48
0.0
 49
0.0
140
0.0
141
0.0
142
1.0
143
1.0
 70
688
 72
0
 73
0
 74
5
  7

 75
16
147
1.0
148
0.0
149
0.0
100
AcDbLayout
  1
Layout1
 70
1
 71
1
 10
0.0
 20
0.0
 11
420.0
 21
297.0
 12
0.0
 22
0.0
 32
0.0
 14
100000000000000000000.0
 24
100000000000000000000.0
 34
100000000000000000000.0
 15
-100000000000000000000.0
 25
-100000000000000000000.0
 35
-100000000000000000000.0
146
0.0
 13
0.0
 23
0.0
 33
0.0
 16
1.0
 26
0.0
 36
0.0
 17
0.0
 27
1.0
 37
0.0
 76
0
330
1B
  0
LAYOUT
  5
22
100
AcDbPlotSettings
  1

  2
none_device
  4

  6

 40
0.0
 41
0.0
 42
0.0
 43
0.0
 44
0.0
 45
0.0
 46
0.0
 47
0.0
 48
0.0
 49
0.0
140
0.0
141
0.0
142
1.0
143
1.0
 70
1712
 72
0
 73
0
 74
0
  7

 75
0
147
1.0
148
0.0
149
0.0
100
AcDbLayout
  1
Model
 70
1
 71
0
 10
0.0
 20
0.0
 11
12.0
 21
9.0
 12
0.0
 22
0.0
 32
0.0
 14
0.0
 24
0.0
 34
0.0
 15
0.0
 25
0.0
 35
0.0
146
0.0
 13
0.0
 23
0.0
 33
0.0
 16
1.0
 26
0.0
 36
0.0
 17
0.0
 27
1.0
 37
0.0
 76
0
330
1F
  0
LAYOUT
  5
26
100
AcDbPlotSettings
  1

  2
none_device
  4

  6

 40
0.0
 41
0.0
 42
0.0
 43
0.0
 44
0.0
 45
0.0
 46
0.0
 47
0.0
 48
0.0
 49
0.0
140
0.0
141
0.0
142
1.0
143
1.0
 70
688
 72
0
 73
0
 74
5
  7

 75
16
147
1.0
148
0.0
149
0.0
100
AcDbLayout
  1
Layout2
 70
1
 71
2
 10
0.0
 20
0.0
 11
12.0
 21
9.0
 12
0.0
 22
0.0
 32
0.0
 14
0.0
 24
0.0
 34
0.0
 15
0.0
 25
0.0
 35
0.0
146
0.0
 13
0.0
 23
0.0
 33
0.0
 16
1.0
 26
0.0
 36
0.0
 17
0.0
 27
1.0
 37
0.0
 76
0
330
23
  0
DICTIONARY
  5
184
100
AcDbDictionary
281
1
  3
DIMASSOC
350
187
  3
HIDETEXT
350
186
  0
DICTIONARYVAR
  5
186
100
DictionaryVariables
280
0
  1
2
  0
DICTIONARYVAR
  5
187
100
DictionaryVariables
280
0
  1
1
  0
DICTIONARY
  5
185
100
AcDbDictionary
281
1
  3
Grid/DisplayGrid00
350
188
  3
Grid/DisplayGrid01
350
189
  3
Grid/DisplayGrid02
350
18A
  3
Grid/DisplayGrid03
350
18B
  3
Grid/GridSpacingX00
350
18C
  3
Grid/GridSpacingX01
350
18D
  3
Grid/GridSpacingX02
350
18E
  3
Grid/GridSpacingX03
350
18F
  3
Grid/GridSpacingY00
350
190
  3
Grid/GridSpacingY01
350
191
  3
Grid/GridSpacingY02
350
192
  3
Grid/GridSpacingY03
350
193
  3
Grid/IsometricGrid00
350
194
  3
Grid/IsometricGrid01
350
195
  3
Grid/IsometricGrid02
350
196
  3
Grid/IsometricGrid03
350
197
  3
Grid/IsometricProjection00
350
198
  3
Grid/IsometricProjection01
350
199
  3
Grid/IsometricProjection02
350
19A
  3
Grid/IsometricProjection03
350
19B
  3
Grid/MetaGridSpacingX00
350
19C
  3
Grid/MetaGridSpacingX01
350
19D
  3
Grid/MetaGridSpacingX02
350
19E
  3
Grid/MetaGridSpacingX03
350
19F
  3
Grid/MetaGridSpacingY00
350
1A0
  3
Grid/MetaGridSpacingY01
350
1A1
  3
Grid/MetaGridSpacingY02
350
1A2
  3
Grid/MetaGridSpacingY03
350
1A3
  3
MultiPageSettings/Columns
350
1A4
  3
MultiPageSettings/GlueMarginsBottom
350
1A5
  3
MultiPageSettings/GlueMarginsLeft
350
1A6
  3
MultiPageSettings/GlueMarginsRight
350
1A7
  3
MultiPageSettings/GlueMarginsTop
350
1A8
  3
MultiPageSettings/PrintCropMarks
350
1A9
  3
MultiPageSettings/Rows
350
1AA
  3
PageSettings/OffsetX
350
1AB
  3
PageSettings/OffsetY
350
1AC
  3
PageSettings/PageOrientation
350
1AD
  3
PageSettings/PaperHeight
350
1AE
  3
PageSettings/PaperWidth
350
1AF
  3
PageSettings/Scale
350
1B0
  3
PageSettings/ShowPaperBorders
350
1B1
  3
UnitSettings/PaperUnit
350
1B2
  0
XRECORD
  5
188
330
185
100
AcDbXrecord
280
1
290
1
  0
XRECORD
  5
189
330
185
100
AcDbXrecord
280
1
290
1
  0
XRECORD
  5
18A
330
185
100
AcDbXrecord
280
1
290
1
  0
XRECORD
  5
18B
330
185
100
AcDbXrecord
280
1
290
1
  0
XRECORD
  5
18C
330
185
100
AcDbXrecord
280
1
1000
auto
  0
XRECORD
  5
18D
330
185
100
AcDbXrecord
280
1
1000
auto
  0
XRECORD
  5
18E
330
185
100
AcDbXrecord
280
1
1000
auto
  0
XRECORD
  5
18F
330
185
100
AcDbXrecord
280
1
1000
auto
  0
XRECORD
  5
190
330
185
100
AcDbXrecord
280
1
1000
auto
  0
XRECORD
  5
191
330
185
100
AcDbXrecord
280
1
1000
auto
  0
XRECORD
  5
192
330
185
100
AcDbXrecord
280
1
1000
auto
  0
XRECORD
  5
193
330
185
100
AcDbXrecord
280
1
1000
auto
  0
XRECORD
  5
194
330
185
100
AcDbXrecord
280
1
290
0
  0
XRECORD
  5
195
330
185
100
AcDbXrecord
280
1
290
0
  0
XRECORD
  5
196
330
185
100
AcDbXrecord
280
1
290
0
  0
XRECORD
  5
197
330
185
100
AcDbXrecord
280
1
290
0
  0
XRECORD
  5
198
330
185
100
AcDbXrecord
280
1
 90
0
  0
XRECORD
  5
199
330
185
100
AcDbXrecord
280
1
 90
0
  0
XRECORD
  5
19A
330
185
100
AcDbXrecord
280
1
 90
0
  0
XRECORD
  5
19B
330
185
100
AcDbXrecord
280
1
 90
0
  0
XRECORD
  5
19C
330
185
100
AcDbXrecord
280
1
1000
auto
  0
XRECORD
  5
19D
330
185
100
AcDbXrecord
280
1
1000
auto
  0
XRECORD
  5
19E
330
185
100
AcDbXrecord
280
1
1000
auto
  0
XRECORD
  5
19F
330
185
100
AcDbXrecord
280
1
1000
auto
  0
XRECORD
  5
1A0
330
185
100
AcDbXrecord
280
1
1000
auto
  0
XRECORD
  5
1A1
330
185
100
AcDbXrecord
280
1
1000
auto
  0
XRECORD
  5
1A2
330
185
100
AcDbXrecord
280
1
1000
auto
  0
XRECORD
  5
1A3
330
185
100
AcDbXrecord
280
1
1000
auto
  0
XRECORD
  5
1A4
330
185
100
AcDbXrecord
280
1
 90
1
  0
XRECORD
  5
1A5
330
185
100
AcDbXrecord
280
1
 40
10.0
  0
XRECORD
  5
1A6
330
185
100
AcDbXrecord
280
1
 40
10.0
  0
XRECORD
  5
1A7
330
185
100
AcDbXrecord
280
1
 40
10.0
  0
XRECORD
  5
1A8
330
185
100
AcDbXrecord
280
1
 40
10.0
  0
XRECORD
  5
1A9
330
185
100
AcDbXrecord
280
1
290
0
  0
XRECORD
  5
1AA
330
185
100
AcDbXrecord
280
1
 90
1
  0
XRECORD
  5
1AB
330
185
100
AcDbXrecord
280
1
 40
0.0
  0
XRECORD
  5
1AC
330
185
100
AcDbXrecord
280
1
 40
0.0
  0
XRECORD
  5
1AD
330
185
100
AcDbXrecord
280
1
1000
Portrait
  0
XRECORD
  5
1AE
330
185
100
AcDbXrecord
280
1
 40
297.0
  0
XRECORD
  5
1AF
330
185
100
AcDbXrecord
280
1
 40
210.0
  0
XRECORD
  5
1B0
330
185
100
AcDbXrecord
280
1
1000
1:1
  0
XRECORD
  5
1B1
330
185
100
AcDbXrecord
280
1
290
1
  0
XRECORD
  5
1B2
330
185
100
AcDbXrecord
280
1
 90
4
  0
ENDSEC
  0
EOF
