999
dxflib 3.7.5.0
  0
SECTION
  2
HEADER
  9
$ACADVER
  1
AC1015
  9
$HANDSEED
  5
FFFF
  9
$ANGBASE
 50
0.0
  9
$ANGDIR
 70
0
  9
$ATTMODE
 70
1
  9
$AUNITS
 70
0
  9
$AUPREC
 70
2
  9
$CECOLOR
 62
256
  9
$CELTSCALE
 40
1.0
  9
$CHAMFERA
 40
10.0
  9
$CHAMFERB
 40
10.0
  9
$CHAMFERC
 40
20.0
  9
$CHAMFERD
 40
0.0
  9
$CMLJUST
 70
0
  9
$CMLSCALE
 40
20.0
  9
$DIMADEC
 70
2
  9
$DIMALT
 70
0
  9
$DIMALTD
 70
3
  9
$DIMALTF
 40
0.0393700787
  9
$DIMALTRND
 40
0.0
  9
$DIMALTTD
 70
3
  9
$DIMALTTZ
 70
0
  9
$DIMALTU
 70
2
  9
$DIMALTZ
 70
0
  9
$DIMAPOST
  1

  9
$DIMASZ
 40
3.302
  9
$DIMATFIT
 70
3
  9
$DIMAUNIT
 70
0
  9
$DIMAZIN
 70
0
  9
$DIMBLK
  1

  9
$DIMBLK1
  1

  9
$DIMBLK2
  1

  9
$DIMCEN
 40
2.5
  9
$DIMCLRD
 70
0
  9
$DIMCLRE
 70
0
  9
$DIMCLRT
 70
0
  9
$DIMDEC
 70
3
  9
$DIMDLE
 40
0.0
  9
$DIMDLI
 40
3.75
  9
$DIMDSEP
 70
44
  9
$DIMEXE
 40
1.0
  9
$DIMEXO
 40
1.0
  9
$DIMFRAC
 70
0
  9
$DIMGAP
 40
1.524
  9
$DIMJUST
 70
0
  9
$DIMLDRBLK
  1

  9
$DIMLFAC
 40
1.0
  9
$DIMLIM
 70
0
  9
$DIMLUNIT
 70
2
  9
$DIMLWD
 70
-2
  9
$DIMLWE
 70
-2
  9
$DIMPOST
  1

  9
$DIMRND
 40
0.0
  9
$DIMSAH
 70
0
  9
$DIMSCALE
 40
1.0
  9
$DIMSD1
 70
0
  9
$DIMSD2
 70
0
  9
$DIMSE1
 70
0
  9
$DIMSE2
 70
0
  9
$DIMSOXD
 70
0
  9
$DIMTAD
 70
1
  9
$DIMTDEC
 70
3
  9
$DIMTFAC
 40
1.0
  9
$DIMTIH
 70
1
  9
$DIMTIX
 70
0
  9
$DIMTM
 40
0.0
  9
$DIMTOFL
 70
1
  9
$DIMTOH
 70
1
  9
$DIMTOL
 70
0
  9
$DIMTOLJ
 70
0
  9
$DIMTP
 40
0.0
  9
$DIMTSZ
 40
0.0
  9
$DIMTVP
 40
0.0
  9
$DIMTXSTY
  7
Standard
  9
$DIMTXT
 40
3.5
  9
$DIMTZIN
 70
0
  9
$DIMUPT
 70
0
  9
$DIMZIN
 70
0
  9
$DISPSILH
 70
0
  9
$DWGCODEPAGE
  3
ANSI_1252
  9
$ELEVATION
 40
0.0
  9
$EXTMAX
 10
304.80000000000001
 20
304.80000000000001
 30
0.0
  9
$EXTMIN
 10
0.0
 20
0.0
 30
0.0
  9
$FILLETRAD
 40
10.0
  9
$FILLMODE
 70
1
  9
$INSBASE
 10
0.0
 20
0.0
 30
0.0
  9
$INSUNITS
 70
4
  9
$LIMCHECK
 70
0
  9
$LIMMAX
 10
304.80000000000001
 20
304.80000000000001
  9
$LIMMIN
 10
0.0
 20
0.0
  9
$LTSCALE
 40
1
  9
$LUNITS
 70
2
  9
$LUPREC
 70
2
  9
$MAXACTVP
 70
64
  9
$MIRRTEXT
 70
1
  9
$ORTHOMODE
 70
0
  9
$PDMODE
 70
0
  9
$PDSIZE
 40
-1.0
  9
$PELEVATION
 40
0.0
  9
$PEXTMAX
 10
-100000000000000000000.0
 20
-100000000000000000000.0
 30
-100000000000000000000.0
  9
$PEXTMIN
 10
100000000000000000000.0
 20
100000000000000000000.0
 30
100000000000000000000.0
  9
$PINSBASE
 10
0.0
 20
0.0
 30
0.0
  9
$PLIMCHECK
 70
0
  9
$PLIMMAX
 10
420.0
 20
297.0
  9
$PLIMMIN
 10
0.0
 20
0.0
  9
$PLINEGEN
 70
0
  9
$PLINEWID
 40
0.0
  9
$PROXYGRAPHICS
 70
1
  9
$PSLTSCALE
 70
1
  9
$PUCSNAME
  2

  9
$PUCSORG
 10
0.0
 20
0.0
 30
0.0
  9
$PUCSXDIR
 10
1.0
 20
0.0
 30
0.0
  9
$PUCSYDIR
 10
0.0
 20
1.0
 30
0.0
  9
$QTEXTMODE
 70
0
  9
$REGENMODE
 70
1
  9
$SHADEDGE
 70
3
  9
$SHADEDIF
 70
70
  9
$SKETCHINC
 40
1.0
  9
$SKPOLY
 70
0
  9
$SPLFRAME
 70
0
  9
$SPLINESEGS
 70
8
  9
$SPLINETYPE
 70
6
  9
$SURFTAB1
 70
6
  9
$SURFTAB2
 70
6
  9
$SURFTYPE
 70
6
  9
$SURFU
 70
6
  9
$SURFV
 70
6
  9
$TEXTSIZE
 40
3.5
  9
$TEXTSTYLE
  7
Standard
  9
$THICKNESS
 40
0.0
  9
$TILEMODE
 70
1
  9
$TRACEWID
 40
1.0
  9
$TREEDEPTH
 70
3020
  9
$UCSNAME
  2

  9
$UCSORG
 10
0.0
 20
0.0
 30
0.0
  9
$UCSXDIR
 10
1.0
 20
0.0
 30
0.0
  9
$UCSYDIR
 10
0.0
 20
1.0
 30
0.0
  9
$UNITMODE
 70
0
  9
$USERI1
 70
0
  9
$USERI2
 70
0
  9
$USERI3
 70
0
  9
$USERI4
 70
0
  9
$USERI5
 70
0
  9
$USERR1
 40
0.0
  9
$USERR2
 40
0.0
  9
$USERR3
 40
0.0
  9
$USERR4
 40
0.0
  9
$USERR5
 40
0.0
  9
$USRTIMER
 70
1
  9
$VISRETAIN
 70
1
  0
ENDSEC
  0
SECTION
  2
TABLES
  0
TABLE
  2
VPORT
  5
8
100
AcDbSymbolTable
 70
1
  0
VPORT
  5
30
100
AcDbSymbolTableRecord
100
AcDbViewportTableRecord
  2
*Active
 70
0
 10
0.0
 20
0.0
 11
1.0
 21
1.0
 12
286.30555555555549
 22
148.5
 13
0.0
 23
0.0
 14
10.0
 24
10.0
 15
10.0
 25
10.0
 16
0.0
 26
0.0
 36
1.0
 17
0.0
 27
0.0
 37
0.0
 40
297.0
 41
1.92798353909465
 42
50.0
 43
0.0
 44
0.0
 50
0.0
 51
0.0
 71
0
 72
100
 73
1
 74
3
 75
1
 76
1
 77
0
 78
0
281
0
 65
1
110
0.0
120
0.0
130
0.0
111
1.0
121
0.0
131
0.0
112
0.0
122
1.0
132
0.0
 79
0
146
0.0
  0
ENDTAB
  0
TABLE
  2
LTYPE
  5
5
100
AcDbSymbolTable
 70
41
  0
LTYPE
  5
16
100
AcDbSymbolTableRecord
100
AcDbLinetypeTableRecord
  2
Continuous
 70
0
  3
Solid line
 72
65
 73
0
 40
0.0
  0
LTYPE
  5
31
100
AcDbSymbolTableRecord
100
AcDbLinetypeTableRecord
  2
ACAD_ISO15W100
 70
0
  3
ISO double-dash triple-dot __ __ . . . __ __ . .
 72
65
 73
10
 40
39.0
 49
12.0
 74
0
 49
-3.0
 74
0
 49
12.0
 74
0
 49
-3.0
 74
0
 49
0.0
 74
0
 49
-3.0
 74
0
 49
0.0
 74
0
 49
-3.0
 74
0
 49
0.0
 74
0
 49
-3.0
 74
0
  0
LTYPE
  5
32
100
AcDbSymbolTableRecord
100
AcDbLinetypeTableRecord
  2
DIVIDE
 70
0
  3
Divide ____ . . ____ . . ____ . . ____ . . ____
 72
65
 73
6
 40
31.75
 49
12.699999999999999
 74
0
 49
-6.3499999999999996
 74
0
 49
0.0
 74
0
 49
-6.3499999999999996
 74
0
 49
0.0
 74
0
 49
-6.3499999999999996
 74
0
  0
LTYPE
  5
33
100
AcDbSymbolTableRecord
100
AcDbLinetypeTableRecord
  2
ACAD_ISO10W100
 70
0
  3
ISO dash dot __ . __ . __ . __ . __ . __ . __ . 
 72
65
 73
4
 40
18.0
 49
12.0
 74
0
 49
-3.0
 74
0
 49
0.0
 74
0
 49
-3.0
 74
0
  0
LTYPE
  5
34
100
AcDbSymbolTableRecord
100
AcDbLinetypeTableRecord
  2
ACAD_ISO04W100
 70
0
  3
ISO long-dash dot ____ . ____ . ____ . ____ . _
 72
65
 73
4
 40
30.0
 49
24.0
 74
0
 49
-3.0
 74
0
 49
0.0
 74
0
 49
-3.0
 74
0
  0
LTYPE
  5
14
100
AcDbSymbolTableRecord
100
AcDbLinetypeTableRecord
  2
ByBlock
 70
0
  3

 72
65
 73
0
 40
0.0
  0
LTYPE
  5
35
100
AcDbSymbolTableRecord
100
AcDbLinetypeTableRecord
  2
CENTER2
 70
0
  3
Center (.5x) ___ _ ___ _ ___ _ ___ _ ___ _ ___
 72
65
 73
4
 40
28.575000000000003
 49
19.050000000000001
 74
0
 49
-3.1749999999999998
 74
0
 49
3.1749999999999998
 74
0
 49
-3.1749999999999998
 74
0
  0
LTYPE
  5
36
100
AcDbSymbolTableRecord
100
AcDbLinetypeTableRecord
  2
ACAD_ISO11W100
 70
0
  3
ISO double-dash dot __ __ . __ __ . __ __ . __ _
 72
65
 73
6
 40
33.0
 49
12.0
 74
0
 49
-3.0
 74
0
 49
12.0
 74
0
 49
-3.0
 74
0
 49
0.0
 74
0
 49
-3.0
 74
0
  0
LTYPE
  5
37
100
AcDbSymbolTableRecord
100
AcDbLinetypeTableRecord
  2
HIDDEN2
 70
0
  3
Hidden (.5x) _ _ _ _ _ _ _ _ _ _ _ _ _ _ _ _ _ 
 72
65
 73
2
 40
4.7624999999999993
 49
3.1749999999999998
 74
0
 49
-1.5874999999999999
 74
0
  0
LTYPE
  5
38
100
AcDbSymbolTableRecord
100
AcDbLinetypeTableRecord
  2
BORDERX2
 70
0
  3
Border (2x) ____  ____  .  ____  ____  .  ___
 72
65
 73
6
 40
88.899999999999991
 49
25.399999999999999
 74
0
 49
-12.699999999999999
 74
0
 49
25.399999999999999
 74
0
 49
-12.699999999999999
 74
0
 49
0.0
 74
0
 49
-12.699999999999999
 74
0
  0
LTYPE
  5
39
100
AcDbSymbolTableRecord
100
AcDbLinetypeTableRecord
  2
ACAD_ISO05W100
 70
0
  3
ISO long-dash double-dot ____ .. ____ .. ____ . 
 72
65
 73
6
 40
33.0
 49
24.0
 74
0
 49
-3.0
 74
0
 49
0.0
 74
0
 49
-3.0
 74
0
 49
0.0
 74
0
 49
-3.0
 74
0
  0
LTYPE
  5
3A
100
AcDbSymbolTableRecord
100
AcDbLinetypeTableRecord
  2
DASHDOTX2
 70
0
  3
Dash dot (2x) ____  .  ____  .  ____  .  ___
 72
65
 73
4
 40
50.799999999999997
 49
25.399999999999999
 74
0
 49
-12.699999999999999
 74
0
 49
0.0
 74
0
 49
-12.699999999999999
 74
0
  0
LTYPE
  5
3B
100
AcDbSymbolTableRecord
100
AcDbLinetypeTableRecord
  2
HIDDENX2
 70
0
  3
Hidden (2x) ____ ____ ____ ____ ____ ____ ____ 
 72
65
 73
2
 40
19.049999999999997
 49
12.699999999999999
 74
0
 49
-6.3499999999999996
 74
0
  0
LTYPE
  5
3C
100
AcDbSymbolTableRecord
100
AcDbLinetypeTableRecord
  2
CENTERX2
 70
0
  3
Center (2x) ________  __  ________  __  _____
 72
65
 73
4
 40
20.319999999999997
 49
12.699999999999999
 74
0
 49
-2.54
 74
0
 49
2.54
 74
0
 49
-2.54
 74
0
  0
LTYPE
  5
3D
100
AcDbSymbolTableRecord
100
AcDbLinetypeTableRecord
  2
BORDER2
 70
0
  3
Border (.5x) __.__.__.__.__.__.__.__.__.__.__.
 72
65
 73
6
 40
22.224999999999998
 49
6.3499999999999996
 74
0
 49
-3.1749999999999998
 74
0
 49
6.3499999999999996
 74
0
 49
-3.1749999999999998
 74
0
 49
0.0
 74
0
 49
-3.1749999999999998
 74
0
  0
LTYPE
  5
3E
100
AcDbSymbolTableRecord
100
AcDbLinetypeTableRecord
  2
DASHDOT2
 70
0
  3
Dash dot (.5x) _._._._._._._._._._._._._._._.
 72
65
 73
4
 40
12.699999999999999
 49
6.3499999999999996
 74
0
 49
-3.1749999999999998
 74
0
 49
0.0
 74
0
 49
-3.1749999999999998
 74
0
  0
LTYPE
  5
3F
100
AcDbSymbolTableRecord
100
AcDbLinetypeTableRecord
  2
ACAD_ISO12W100
 70
0
  3
ISO dash double-dot __ . . __ . . __ . . __ . . 
 72
65
 73
6
 40
21.0
 49
12.0
 74
0
 49
-3.0
 74
0
 49
0.0
 74
0
 49
-3.0
 74
0
 49
0.0
 74
0
 49
-3.0
 74
0
  0
LTYPE
  5
40
100
AcDbSymbolTableRecord
100
AcDbLinetypeTableRecord
  2
ACAD_ISO07W100
 70
0
  3
ISO dot . . . . . . . . . . . . . . . . . . . . 
 72
65
 73
2
 40
3.0
 49
0.0
 74
0
 49
-3.0
 74
0
  0
LTYPE
  5
41
100
AcDbSymbolTableRecord
100
AcDbLinetypeTableRecord
  2
HIDDEN
 70
0
  3
Hidden __ __ __ __ __ __ __ __ __ __ __ __ __ __
 72
65
 73
2
 40
1.905
 49
1.27
 74
0
 49
-0.635
 74
0
  0
LTYPE
  5
42
100
AcDbSymbolTableRecord
100
AcDbLinetypeTableRecord
  2
ACAD_ISO06W100
 70
0
  3
ISO long-dash triple-dot ____ ... ____ ... ____
 72
65
 73
8
 40
36.0
 49
24.0
 74
0
 49
-3.0
 74
0
 49
0.0
 74
0
 49
-3.0
 74
0
 49
0.0
 74
0
 49
-3.0
 74
0
 49
0.0
 74
0
 49
-3.0
 74
0
  0
LTYPE
  5
43
100
AcDbSymbolTableRecord
100
AcDbLinetypeTableRecord
  2
CENTER
 70
0
  3
Center ____ _ ____ _ ____ _ ____ _ ____ _ ____
 72
65
 73
4
 40
10.159999999999998
 49
6.3499999999999996
 74
0
 49
-1.27
 74
0
 49
1.27
 74
0
 49
-1.27
 74
0
  0
LTYPE
  5
44
100
AcDbSymbolTableRecord
100
AcDbLinetypeTableRecord
  2
DOTX2
 70
0
  3
Dot (2x) .  .  .  .  .  .  .  .  .  .  .  .  .  .
 72
65
 73
2
 40
12.699999999999999
 49
0.0
 74
0
 49
-12.699999999999999
 74
0
  0
LTYPE
  5
45
100
AcDbSymbolTableRecord
100
AcDbLinetypeTableRecord
  2
PHANTOM
 70
0
  3
Phantom ______  __  __  ______  __  __  ______
 72
65
 73
6
 40
12.699999999999998
 49
6.3499999999999996
 74
0
 49
-1.27
 74
0
 49
1.27
 74
0
 49
-1.27
 74
0
 49
1.27
 74
0
 49
-1.27
 74
0
  0
LTYPE
  5
46
100
AcDbSymbolTableRecord
100
AcDbLinetypeTableRecord
  2
ACAD_ISO08W100
 70
0
  3
ISO long-dash short-dash ____ __ ____ __ ____ _
 72
65
 73
4
 40
36.0
 49
24.0
 74
0
 49
-3.0
 74
0
 49
6.0
 74
0
 49
-3.0
 74
0
  0
LTYPE
  5
47
100
AcDbSymbolTableRecord
100
AcDbLinetypeTableRecord
  2
DASHEDX2
 70
0
  3
Dashed (2x) ____  ____  ____  ____  ____  ___
 72
65
 73
2
 40
38.099999999999994
 49
25.399999999999999
 74
0
 49
-12.699999999999999
 74
0
  0
LTYPE
  5
48
100
AcDbSymbolTableRecord
100
AcDbLinetypeTableRecord
  2
ACAD_ISO02W100
 70
0
  3
ISO dash __ __ __ __ __ __ __ __ __ __ __ __ __
 72
65
 73
2
 40
15.0
 49
12.0
 74
0
 49
-3.0
 74
0
  0
LTYPE
  5
49
100
AcDbSymbolTableRecord
100
AcDbLinetypeTableRecord
  2
PHANTOM2
 70
0
  3
Phantom (.5x) ___ _ _ ___ _ _ ___ _ _ ___ _ _
 72
65
 73
6
 40
31.750000000000004
 49
15.875
 74
0
 49
-3.1749999999999998
 74
0
 49
3.1749999999999998
 74
0
 49
-3.1749999999999998
 74
0
 49
3.1749999999999998
 74
0
 49
-3.1749999999999998
 74
0
  0
LTYPE
  5
4A
100
AcDbSymbolTableRecord
100
AcDbLinetypeTableRecord
  2
DASHED2
 70
0
  3
Dashed (.5x) _ _ _ _ _ _ _ _ _ _ _ _ _ _ _ _ _ 
 72
65
 73
2
 40
9.5249999999999986
 49
6.3499999999999996
 74
0
 49
-3.1749999999999998
 74
0
  0
LTYPE
  5
4B
100
AcDbSymbolTableRecord
100
AcDbLinetypeTableRecord
  2
ACAD_ISO09W100
 70
0
  3
ISO long-dash double-short-dash ____ __ __ ____
 72
65
 73
6
 40
45.0
 49
24.0
 74
0
 49
-3.0
 74
0
 49
6.0
 74
0
 49
-3.0
 74
0
 49
6.0
 74
0
 49
-3.0
 74
0
  0
LTYPE
  5
4C
100
AcDbSymbolTableRecord
100
AcDbLinetypeTableRecord
  2
ACAD_ISO13W100
 70
0
  3
ISO double-dash double-dot __ __ . . __ __ . . _
 72
65
 73
8
 40
36.0
 49
12.0
 74
0
 49
-3.0
 74
0
 49
12.0
 74
0
 49
-3.0
 74
0
 49
0.0
 74
0
 49
-3.0
 74
0
 49
0.0
 74
0
 49
-3.0
 74
0
  0
LTYPE
  5
4D
100
AcDbSymbolTableRecord
100
AcDbLinetypeTableRecord
  2
DOT2
 70
0
  3
Dot (.5x) ........................................
 72
65
 73
2
 40
0.635
 49
0.1
 74
0
 49
-0.535
 74
0
  0
LTYPE
  5
4E
100
AcDbSymbolTableRecord
100
AcDbLinetypeTableRecord
  2
DASHED
 70
0
  3
Dashed __ __ __ __ __ __ __ __ __ __ __ __ __ _
 72
65
 73
2
 40
19.049999999999997
 49
12.699999999999999
 74
0
 49
-6.3499999999999996
 74
0
  0
LTYPE
  5
4F
100
AcDbSymbolTableRecord
100
AcDbLinetypeTableRecord
  2
ACAD_ISO14W100
 70
0
  3
ISO dash triple-dot __ . . . __ . . . __ . . . _
 72
65
 73
8
 40
24.0
 49
12.0
 74
0
 49
-3.0
 74
0
 49
0.0
 74
0
 49
-3.0
 74
0
 49
0.0
 74
0
 49
-3.0
 74
0
 49
0.0
 74
0
 49
-3.0
 74
0
  0
LTYPE
  5
50
100
AcDbSymbolTableRecord
100
AcDbLinetypeTableRecord
  2
PHANTOMX2
 70
0
  3
Phantom (2x) ____________    ____    ____   _
 72
65
 73
6
 40
127.00000000000001
 49
63.5
 74
0
 49
-12.699999999999999
 74
0
 49
12.699999999999999
 74
0
 49
-12.699999999999999
 74
0
 49
12.699999999999999
 74
0
 49
-12.699999999999999
 74
0
  0
LTYPE
  5
51
100
AcDbSymbolTableRecord
100
AcDbLinetypeTableRecord
  2
DIVIDEX2
 70
0
  3
Divide (2x) ________  .  .  ________  .  .  _
 72
65
 73
6
 40
63.5
 49
25.399999999999999
 74
0
 49
-12.699999999999999
 74
0
 49
0.0
 74
0
 49
-12.699999999999999
 74
0
 49
0.0
 74
0
 49
-12.699999999999999
 74
0
  0
LTYPE
  5
52
100
AcDbSymbolTableRecord
100
AcDbLinetypeTableRecord
  2
BORDER
 70
0
  3
Border __ __ . __ __ . __ __ . __ __ . __ __ .
 72
65
 73
6
 40
44.449999999999996
 49
12.699999999999999
 74
0
 49
-6.3499999999999996
 74
0
 49
12.699999999999999
 74
0
 49
-6.3499999999999996
 74
0
 49
0.0
 74
0
 49
-6.3499999999999996
 74
0
  0
LTYPE
  5
53
100
AcDbSymbolTableRecord
100
AcDbLinetypeTableRecord
  2
DIVIDE2
 70
0
  3
Divide (.5x) __..__..__..__..__..__..__..__.._
 72
65
 73
6
 40
15.875
 49
6.3499999999999996
 74
0
 49
-3.1749999999999998
 74
0
 49
0.0
 74
0
 49
-3.1749999999999998
 74
0
 49
0.0
 74
0
 49
-3.1749999999999998
 74
0
  0
LTYPE
  5
54
100
AcDbSymbolTableRecord
100
AcDbLinetypeTableRecord
  2
DOT
 70
0
  3
Dot . . . . . . . . . . . . . . . . . . . . . . . .
 72
65
 73
2
 40
6.3499999999999996
 49
0.0
 74
0
 49
-6.3499999999999996
 74
0
  0
LTYPE
  5
55
100
AcDbSymbolTableRecord
100
AcDbLinetypeTableRecord
  2
DASHDOT
 70
0
  3
Dash dot __ . __ . __ . __ . __ . __ . __ . __
 72
65
 73
4
 40
25.399999999999999
 49
12.699999999999999
 74
0
 49
-6.3499999999999996
 74
0
 49
0.0
 74
0
 49
-6.3499999999999996
 74
0
  0
LTYPE
  5
56
100
AcDbSymbolTableRecord
100
AcDbLinetypeTableRecord
  2
ACAD_ISO03W100
 70
0
  3
ISO dash space __    __    __    __    __    __
 72
65
 73
2
 40
30.0
 49
12.0
 74
0
 49
-18.0
 74
0
  0
LTYPE
  5
15
100
AcDbSymbolTableRecord
100
AcDbLinetypeTableRecord
  2
ByLayer
 70
0
  3

 72
65
 73
0
 40
0.0
  0
ENDTAB
  0
TABLE
  2
LAYER
  5
2
100
AcDbSymbolTable
 70
1
  0
LAYER
  5
10
100
AcDbSymbolTableRecord
100
AcDbLayerTableRecord
  2
0
 70
0
 62
7
420
16777215
  6
Continuous
370
-3
390
F
  0
ENDTAB
  0
TABLE
  2
STYLE
  5
3
100
AcDbSymbolTable
 70
1
  0
STYLE
  5
57
100
AcDbSymbolTableRecord
100
AcDbTextStyleTableRecord
  2
Standard
 70
0
 40
0.0
 41
1.0
 50
0.0
 71
0
 42
2.5
  3

  4

1001
ACAD
1000
txt
1071
0
  0
ENDTAB
  0
TABLE
  2
VIEW
  5
6
100
AcDbSymbolTable
 70
0
  0
ENDTAB
  0
TABLE
  2
UCS
  5
7
100
AcDbSymbolTable
 70
0
  0
ENDTAB
  0
TABLE
  2
APPID
  5
9
100
AcDbSymbolTable
 70
1
  0
APPID
  5
12
100
AcDbSymbolTableRecord
100
AcDbRegAppTableRecord
  2
ACAD
 70
0
  0
APPID
  5
58
100
AcDbSymbolTableRecord
100
AcDbRegAppTableRecord
  2
QCAD
 70
0
  0
ENDTAB
  0
TABLE
  2
DIMSTYLE
  5
A
100
AcDbSymbolTable
 70
1
100
AcDbDimStyleTable
 71
0
  0
DIMSTYLE
105
27
100
AcDbSymbolTableRecord
100
AcDbDimStyleTableRecord
  2
Standard
 41
3.302
 42
1.0
 43
3.75
 44
1.0
 70
0
 73
0
 74
0
 77
1
 78
8
140
3.5
141
2.5
143
0.03937007874016
147
1.524
171
3
172
1
271
2
272
2
274
3
278
44
283
0
284
8
340
57
  0
ENDTAB
  0
TABLE
  2
BLOCK_RECORD
  5
1
100
AcDbSymbolTable
 70
1
  0
BLOCK_RECORD
  5
1F
100
AcDbSymbolTableRecord
100
AcDbBlockTableRecord
  2
*Model_Space
340
22
  0
BLOCK_RECORD
  5
1B
100
AcDbSymbolTableRecord
100
AcDbBlockTableRecord
  2
*Paper_Space
340
1E
  0
BLOCK_RECORD
  5
23
100
AcDbSymbolTableRecord
100
AcDbBlockTableRecord
  2
*Paper_Space0
340
26
  0
BLOCK_RECORD
  5
59
100
AcDbSymbolTableRecord
100
AcDbBlockTableRecord
  2
SW_CENTERMARKSYMBOL_3
340
0
  0
BLOCK_RECORD
  5
5A
100
AcDbSymbolTableRecord
100
AcDbBlockTableRecord
  2
SW_CENTERMARKSYMBOL_0
340
0
  0
BLOCK_RECORD
  5
5B
100
AcDbSymbolTableRecord
100
AcDbBlockTableRecord
  2
SW_CENTERMARKSYMBOL_1
340
0
  0
BLOCK_RECORD
  5
5C
100
AcDbSymbolTableRecord
100
AcDbBlockTableRecord
  2
SW_CENTERMARKSYMBOL_2
340
0
  0
ENDTAB
  0
ENDSEC
  0
SECTION
  2
BLOCKS
  0
BLOCK
  5
20
100
AcDbEntity
  8
0
100
AcDbBlockBegin
  2
*Model_Space
 70
0
 10
0.0
 20
0.0
 30
0.0
  3
*Model_Space
  1

  0
ENDBLK
  5
21
100
AcDbEntity
  8
0
100
AcDbBlockEnd
  0
BLOCK
  5
1C
100
AcDbEntity
 67
1
  8
0
100
AcDbBlockBegin
  2
*Paper_Space
 70
0
 10
0.0
 20
0.0
 30
0.0
  3
*Paper_Space
  1

  0
ENDBLK
  5
1D
100
AcDbEntity
 67
1
  8
0
100
AcDbBlockEnd
  0
BLOCK
  5
24
100
AcDbEntity
  8
0
100
AcDbBlockBegin
  2
*Paper_Space0
 70
0
 10
0.0
 20
0.0
 30
0.0
  3
*Paper_Space0
  1

  0
ENDBLK
  5
25
100
AcDbEntity
  8
0
100
AcDbBlockEnd
  0
BLOCK
  5
5D
100
AcDbEntity
  8
0
100
AcDbBlockBegin
  2
SW_CENTERMARKSYMBOL_3
 70
0
 10
0.0
 20
0.0
 30
0.0
  3
SW_CENTERMARKSYMBOL_3
  1

  0
LINE
  5
5E
100
AcDbEntity
100
AcDbLine
  8
0
 62
0
370
0
 48
1.0
  6
Continuous
 10
0.0
 20
0.0
 30
0.0
 11
0.0
 21
2.5
 31
0.0
  0
LINE
  5
5F
100
AcDbEntity
100
AcDbLine
  8
0
 62
0
370
0
 48
1.0
  6
Continuous
 10
0.0
 20
0.0
 30
0.0
 11
-2.5
 21
0.0
 31
0.0
  0
LINE
  5
60
100
AcDbEntity
100
AcDbLine
  8
0
 62
0
370
0
 48
1.0
  6
Continuous
 10
0.0
 20
0.0
 30
0.0
 11
0.0
 21
-2.5
 31
0.0
  0
LINE
  5
61
100
AcDbEntity
100
AcDbLine
  8
0
 62
0
370
0
 48
1.0
  6
Continuous
 10
0.0
 20
0.0
 30
0.0
 11
2.5
 21
0.0
 31
0.0
  0
LINE
  5
62
100
AcDbEntity
100
AcDbLine
  8
0
 62
0
370
0
 48
1.0
  6
Continuous
 10
0.0
 20
5.0
 30
0.0
 11
0.0
 21
6.5
 31
0.0
  0
LINE
  5
63
100
AcDbEntity
100
AcDbLine
  8
0
 62
0
370
0
 48
1.0
  6
Continuous
 10
-5.0
 20
0.0
 30
0.0
 11
-6.5
 21
0.0
 31
0.0
  0
LINE
  5
64
100
AcDbEntity
100
AcDbLine
  8
0
 62
0
370
0
 48
1.0
  6
Continuous
 10
0.0
 20
-5.0
 30
0.0
 11
0.0
 21
-6.5
 31
0.0
  0
LINE
  5
65
100
AcDbEntity
100
AcDbLine
  8
0
 62
0
370
0
 48
1.0
  6
Continuous
 10
5.0
 20
0.0
 30
0.0
 11
6.5
 21
0.0
 31
0.0
  0
ENDBLK
  5
66
100
AcDbEntity
  8
0
100
AcDbBlockEnd
  0
BLOCK
  5
67
100
AcDbEntity
  8
0
100
AcDbBlockBegin
  2
SW_CENTERMARKSYMBOL_0
 70
0
 10
0.0
 20
0.0
 30
0.0
  3
SW_CENTERMARKSYMBOL_0
  1

  0
LINE
  5
68
100
AcDbEntity
100
AcDbLine
  8
0
 62
0
370
0
 48
1.0
  6
Continuous
 10
0.0
 20
0.0
 30
0.0
 11
0.0
 21
2.5
 31
0.0
  0
LINE
  5
69
100
AcDbEntity
100
AcDbLine
  8
0
 62
0
370
0
 48
1.0
  6
Continuous
 10
0.0
 20
0.0
 30
0.0
 11
-2.5
 21
0.0
 31
0.0
  0
LINE
  5
6A
100
AcDbEntity
100
AcDbLine
  8
0
 62
0
370
0
 48
1.0
  6
Continuous
 10
0.0
 20
0.0
 30
0.0
 11
0.0
 21
-2.5
 31
0.0
  0
LINE
  5
6B
100
AcDbEntity
100
AcDbLine
  8
0
 62
0
370
0
 48
1.0
  6
Continuous
 10
0.0
 20
0.0
 30
0.0
 11
2.5
 21
0.0
 31
0.0
  0
LINE
  5
6C
100
AcDbEntity
100
AcDbLine
  8
0
 62
0
370
0
 48
1.0
  6
Continuous
 10
0.0
 20
5.0
 30
0.0
 11
0.0
 21
6.5
 31
0.0
  0
LINE
  5
6D
100
AcDbEntity
100
AcDbLine
  8
0
 62
0
370
0
 48
1.0
  6
Continuous
 10
-5.0
 20
0.0
 30
0.0
 11
-6.5
 21
0.0
 31
0.0
  0
LINE
  5
6E
100
AcDbEntity
100
AcDbLine
  8
0
 62
0
370
0
 48
1.0
  6
Continuous
 10
0.0
 20
-5.0
 30
0.0
 11
0.0
 21
-6.5
 31
0.0
  0
LINE
  5
6F
100
AcDbEntity
100
AcDbLine
  8
0
 62
0
370
0
 48
1.0
  6
Continuous
 10
5.0
 20
0.0
 30
0.0
 11
6.5
 21
0.0
 31
0.0
  0
ENDBLK
  5
70
100
AcDbEntity
  8
0
100
AcDbBlockEnd
  0
BLOCK
  5
71
100
AcDbEntity
  8
0
100
AcDbBlockBegin
  2
SW_CENTERMARKSYMBOL_1
 70
0
 10
0.0
 20
0.0
 30
0.0
  3
SW_CENTERMARKSYMBOL_1
  1

  0
LINE
  5
72
100
AcDbEntity
100
AcDbLine
  8
0
 62
0
370
0
 48
1.0
  6
Continuous
 10
0.0
 20
0.0
 30
0.0
 11
0.0
 21
2.5
 31
0.0
  0
LINE
  5
73
100
AcDbEntity
100
AcDbLine
  8
0
 62
0
370
0
 48
1.0
  6
Continuous
 10
0.0
 20
0.0
 30
0.0
 11
-2.5
 21
0.0
 31
0.0
  0
LINE
  5
74
100
AcDbEntity
100
AcDbLine
  8
0
 62
0
370
0
 48
1.0
  6
Continuous
 10
0.0
 20
0.0
 30
0.0
 11
0.0
 21
-2.5
 31
0.0
  0
LINE
  5
75
100
AcDbEntity
100
AcDbLine
  8
0
 62
0
370
0
 48
1.0
  6
Continuous
 10
0.0
 20
0.0
 30
0.0
 11
2.5
 21
0.0
 31
0.0
  0
LINE
  5
76
100
AcDbEntity
100
AcDbLine
  8
0
 62
0
370
0
 48
1.0
  6
Continuous
 10
0.0
 20
5.0
 30
0.0
 11
0.0
 21
6.5
 31
0.0
  0
LINE
  5
77
100
AcDbEntity
100
AcDbLine
  8
0
 62
0
370
0
 48
1.0
  6
Continuous
 10
-5.0
 20
0.0
 30
0.0
 11
-6.5
 21
0.0
 31
0.0
  0
LINE
  5
78
100
AcDbEntity
100
AcDbLine
  8
0
 62
0
370
0
 48
1.0
  6
Continuous
 10
0.0
 20
-5.0
 30
0.0
 11
0.0
 21
-6.5
 31
0.0
  0
LINE
  5
79
100
AcDbEntity
100
AcDbLine
  8
0
 62
0
370
0
 48
1.0
  6
Continuous
 10
5.0
 20
0.0
 30
0.0
 11
6.5
 21
0.0
 31
0.0
  0
ENDBLK
  5
7A
100
AcDbEntity
  8
0
100
AcDbBlockEnd
  0
BLOCK
  5
7B
100
AcDbEntity
  8
0
100
AcDbBlockBegin
  2
SW_CENTERMARKSYMBOL_2
 70
0
 10
0.0
 20
0.0
 30
0.0
  3
SW_CENTERMARKSYMBOL_2
  1

  0
LINE
  5
7C
100
AcDbEntity
100
AcDbLine
  8
0
 62
0
370
0
 48
1.0
  6
Continuous
 10
0.0
 20
0.0
 30
0.0
 11
0.0
 21
2.5
 31
0.0
  0
LINE
  5
7D
100
AcDbEntity
100
AcDbLine
  8
0
 62
0
370
0
 48
1.0
  6
Continuous
 10
0.0
 20
0.0
 30
0.0
 11
-2.5
 21
0.0
 31
0.0
  0
LINE
  5
7E
100
AcDbEntity
100
AcDbLine
  8
0
 62
0
370
0
 48
1.0
  6
Continuous
 10
0.0
 20
0.0
 30
0.0
 11
0.0
 21
-2.5
 31
0.0
  0
LINE
  5
7F
100
AcDbEntity
100
AcDbLine
  8
0
 62
0
370
0
 48
1.0
  6
Continuous
 10
0.0
 20
0.0
 30
0.0
 11
2.5
 21
0.0
 31
0.0
  0
LINE
  5
80
100
AcDbEntity
100
AcDbLine
  8
0
 62
0
370
0
 48
1.0
  6
Continuous
 10
0.0
 20
5.0
 30
0.0
 11
0.0
 21
6.5
 31
0.0
  0
LINE
  5
81
100
AcDbEntity
100
AcDbLine
  8
0
 62
0
370
0
 48
1.0
  6
Continuous
 10
-5.0
 20
0.0
 30
0.0
 11
-6.5
 21
0.0
 31
0.0
  0
LINE
  5
82
100
AcDbEntity
100
AcDbLine
  8
0
 62
0
370
0
 48
1.0
  6
Continuous
 10
0.0
 20
-5.0
 30
0.0
 11
0.0
 21
-6.5
 31
0.0
  0
LINE
  5
83
100
AcDbEntity
100
AcDbLine
  8
0
 62
0
370
0
 48
1.0
  6
Continuous
 10
5.0
 20
0.0
 30
0.0
 11
6.5
 21
0.0
 31
0.0
  0
ENDBLK
  5
84
100
AcDbEntity
  8
0
100
AcDbBlockEnd
  0
ENDSEC
  0
SECTION
  2
ENTITIES
  0
CIRCLE
  5
85
100
AcDbEntity
100
AcDbCircle
  8
0
 62
7
420
16777215
370
15
 48
1.0
  6
Continuous
 10
20.216364518393895
 20
26.554140464416861
 30
0.0
 40
1.500000000000002
  0
CIRCLE
  5
86
100
AcDbEntity
100
AcDbCircle
  8
0
 62
7
420
16777215
370
15
 48
1.0
  6
Continuous
 10
20.216364518393895
 20
96.554140464616836
 30
0.0
 40
1.499999999999964
  0
CIRCLE
  5
87
100
AcDbEntity
100
AcDbCircle
  8
0
 62
7
420
16777215
370
15
 48
1.0
  6
Continuous
 10
134.04952559409392
 20
7.0920517578168472
 30
0.0
 40
1.499999999999972
  0
CIRCLE
  5
88
100
AcDbEntity
100
AcDbCircle
  8
0
 62
7
420
16777215
370
15
 48
1.0
  6
Continuous
 10
116.0890133518939
 20
25.052563999916856
 30
0.0
 40
1.500000000000012
  0
CIRCLE
  5
89
100
AcDbEntity
100
AcDbCircle
  8
0
 62
7
420
16777215
370
15
 48
1.0
  6
Continuous
 10
127.19058981659393
 20
86.954140464516826
 30
0.0
 40
1.499999999999962
  0
CIRCLE
  5
8A
100
AcDbEntity
100
AcDbCircle
  8
0
 62
7
420
16777215
370
15
 48
1.0
  6
Continuous
 10
145.15110205869391
 20
104.91465270671685
 30
0.0
 40
1.499999999999992
  0
CIRCLE
  5
8B
100
AcDbEntity
100
AcDbCircle
  8
0
 62
7
420
16777215
370
15
 48
1.0
  6
Continuous
 10
54.187436887293892
 20
36.154140464516843
 30
0.0
 40
1.500000000000002
  0
CIRCLE
  5
8C
100
AcDbEntity
100
AcDbCircle
  8
0
 62
7
420
16777215
370
15
 48
1.0
  6
Continuous
 10
36.22692464519389
 20
18.193628222416862
 30
0.0
 40
1.500000000000002
  0
CIRCLE
  5
8D
100
AcDbEntity
100
AcDbCircle
  8
0
 62
7
420
16777215
370
15
 48
1.0
  6
Continuous
 10
47.328501109793891
 20
116.01622917131684
 30
0.0
 40
1.500000000000002
  0
CIRCLE
  5
8E
100
AcDbEntity
100
AcDbCircle
  8
0
 62
7
420
16777215
370
15
 48
1.0
  6
Continuous
 10
54.187436887293892
 20
86.954140464516826
 30
0.0
 40
1.500000000000002
  0
LINE
  5
8F
100
AcDbEntity
100
AcDbLine
  8
0
 62
7
420
16777215
370
15
 48
1.0
  6
Continuous
 10
2.5163653716938921
 20
91.554143428216861
 30
0.0
 11
2.5159017563938928
 21
31.554137500916852
 31
0.0
  0
LINE
  5
90
100
AcDbEntity
100
AcDbLine
  8
0
 62
7
420
16777215
370
15
 48
1.0
  6
Continuous
 10
2.5163653716938921
 20
99.598354155316855
 30
0.0
 11
2.5163653716938921
 21
91.554143428216861
 31
0.0
  0
ARC
  5
91
100
AcDbEntity
  8
0
 62
7
420
16777215
370
15
 48
1.0
  6
Continuous
100
AcDbCircle
 10
5.0163645183938925
 20
99.59835414841686
 30
0.0
 40
2.500000000000016
100
AcDbArc
 50
103.9269527922
 51
180.0
  0
LINE
  5
92
100
AcDbEntity
100
AcDbLine
  8
0
 62
7
420
16777215
370
15
 48
1.0
  6
Continuous
 10
8.5097104502938947
 20
103.04032922251687
 30
0.0
 11
4.4146541602938925
 21
102.02485885951685
 31
0.0
  0
ARC
  5
93
100
AcDbEntity
  8
0
 62
7
420
16777215
370
15
 48
1.0
  6
Continuous
100
AcDbCircle
 10
-15.558756558206108
 20
200.10066782081682
 30
0.0
 40
100.0
100
AcDbArc
 50
283.92695279219998
 51
306.79303557719993
  0
ARC
  5
94
100
AcDbEntity
  8
0
 62
7
420
16777215
370
15
 48
1.0
  6
Continuous
100
AcDbCircle
 10
47.328501109793891
 20
116.01622917131684
 30
0.0
 40
5.0000000000000506
100
AcDbArc
 50
45.0
 51
126.79303557720002
  0
LINE
  5
95
100
AcDbEntity
100
AcDbLine
  8
0
 62
7
420
16777215
370
15
 48
1.0
  6
Continuous
 10
52.715418022893893
 20
117.70037949261686
 30
0.0
 11
50.864033408393894
 21
119.55176410711684
 31
0.0
  0
ARC
  5
96
100
AcDbEntity
  8
0
 62
7
420
16777215
370
15
 48
1.0
  6
Continuous
100
AcDbCircle
 10
88.07075928239388
 20
153.05571692921686
 30
0.0
 40
50.000000000000057
100
AcDbArc
 50
225.0
 51
270.0
  0
LINE
  5
97
100
AcDbEntity
100
AcDbLine
  8
0
 62
7
420
16777215
370
15
 48
1.0
  6
Continuous
 10
93.307266460593894
 20
103.05571677351688
 30
0.0
 11
88.070760243293904
 21
103.05571677351688
 31
0.0
  0
ARC
  5
98
100
AcDbEntity
  8
0
 62
7
420
16777215
370
15
 48
1.0
  6
Continuous
100
AcDbCircle
 10
93.307267421393902
 20
153.05571692921686
 30
0.0
 40
50.000000000000057
100
AcDbArc
 50
270.0
 51
315.0
  0
LINE
  5
99
100
AcDbEntity
100
AcDbLine
  8
0
 62
7
420
16777215
370
15
 48
1.0
  6
Continuous
 10
130.51399329539387
 20
119.55176410711684
 30
0.0
 11
128.6626086808939
 21
117.70037949261686
 31
0.0
  0
ARC
  5
9A
100
AcDbEntity
  8
0
 62
7
420
16777215
370
15
 48
1.0
  6
Continuous
100
AcDbCircle
 10
134.04952559409392
 20
116.01622917131684
 30
0.0
 40
5.0000000000000204
100
AcDbArc
 50
45.0
 51
135.0
  0
LINE
  5
9B
100
AcDbEntity
100
AcDbLine
  8
0
 62
7
420
16777215
370
15
 48
1.0
  6
Continuous
 10
148.68663370179391
 20
108.45018476921686
 30
0.0
 11
137.58505765649389
 21
119.55176081441684
 31
0.0
  0
ARC
  5
9C
100
AcDbEntity
  8
0
 62
7
420
16777215
370
15
 48
1.0
  6
Continuous
100
AcDbCircle
 10
145.15110205869391
 20
104.91465270671685
 30
0.0
 40
4.9999999999999796
100
AcDbArc
 50
326.12649387960005
 51
45.0
  0
ARC
  5
9D
100
AcDbEntity
  8
0
 62
7
420
16777215
370
15
 48
1.0
  6
Continuous
100
AcDbCircle
 10
157.60515356939388
 20
96.554233999016873
 30
0.0
 40
10.00000000000002
100
AcDbArc
 50
146.12649387959999
 51
270.00023670569999
  0
LINE
  5
9E
100
AcDbEntity
100
AcDbLine
  8
0
 62
7
420
16777215
370
15
 48
1.0
  6
Continuous
 10
173.86168849699388
 20
86.554302302116838
 30
0.0
 11
157.6051933135939
 21
86.554231179216828
 31
0.0
  0
ARC
  5
9F
100
AcDbEntity
  8
0
 62
7
420
16777215
370
15
 48
1.0
  6
Continuous
100
AcDbCircle
 10
173.86170866119389
 20
81.554301159516825
 30
0.0
 40
5.0000000000000364
100
AcDbArc
 50
0.000532588
 51
90.000236705700004
  0
LINE
  5
A0
100
AcDbEntity
100
AcDbLine
  8
0
 62
7
420
16777215
370
15
 48
1.0
  6
Continuous
 10
178.86208016639389
 20
41.554180635616859
 30
0.0
 11
178.86170874729387
 21
81.554345272016832
 31
0.0
  0
ARC
  5
A1
100
AcDbEntity
  8
0
 62
7
420
16777215
370
15
 48
1.0
  6
Continuous
100
AcDbCircle
 10
173.86208047929389
 20
41.554135907516837
 30
0.0
 40
5.0
100
AcDbArc
 50
270.0
 51
0.000532588
  0
LINE
  5
A2
100
AcDbEntity
100
AcDbLine
  8
0
 62
7
420
16777215
370
15
 48
1.0
  6
Continuous
 10
157.60509189769388
 20
36.554137994816841
 30
0.0
 11
173.86207835539389
 21
36.554136677716855
 31
0.0
  0
ARC
  5
A3
100
AcDbEntity
  8
0
 62
7
420
16777215
370
15
 48
1.0
  6
Continuous
100
AcDbCircle
 10
157.60509383829393
 20
26.554135907516837
 30
0.0
 40
10.000000000000011
100
AcDbArc
 50
90.0
 51
213.87391546879996
  0
ARC
  5
A4
100
AcDbEntity
  8
0
 62
7
420
16777215
370
15
 48
1.0
  6
Continuous
100
AcDbCircle
 10
145.15110205869391
 20
18.193628222416862
 30
0.0
 40
4.9999999999993978
100
AcDbArc
 50
315.0
 51
33.8739154688
  0
LINE
  5
A5
100
AcDbEntity
100
AcDbLine
  8
0
 62
7
420
16777215
370
15
 48
1.0
  6
Continuous
 10
137.58505765649389
 20
3.5565201147168466
 30
0.0
 11
148.68663370179391
 21
14.658096159916852
 31
0.0
  0
ARC
  5
A6
100
AcDbEntity
  8
0
 62
7
420
16777215
370
15
 48
1.0
  6
Continuous
100
AcDbCircle
 10
134.04952559409392
 20
7.0920517578168472
 30
0.0
 40
5.0000000000000204
100
AcDbArc
 50
225.0
 51
315.0
  0
LINE
  5
A7
100
AcDbEntity
100
AcDbLine
  8
0
 62
7
420
16777215
370
15
 48
1.0
  6
Continuous
 10
128.6626086808939
 20
5.4079014365168518
 30
0.0
 11
130.51399329539387
 21
3.5565168219168584
 31
0.0
  0
ARC
  5
A8
100
AcDbEntity
  8
0
 62
7
420
16777215
370
15
 48
1.0
  6
Continuous
100
AcDbCircle
 10
93.307267421393902
 20
-29.947436000083144
 30
0.0
 40
50.0
100
AcDbArc
 50
45.0
 51
90.0
  0
LINE
  5
A9
100
AcDbEntity
100
AcDbLine
  8
0
 62
7
420
16777215
370
15
 48
1.0
  6
Continuous
 10
88.070760243293904
 20
20.052564155616864
 30
0.0
 11
93.307266460593894
 21
20.052564155616864
 31
0.0
  0
ARC
  5
AA
100
AcDbEntity
  8
0
 62
7
420
16777215
370
15
 48
1.0
  6
Continuous
100
AcDbCircle
 10
88.07075928239388
 20
-29.947436000083144
 30
0.0
 40
50.000000000000028
100
AcDbArc
 50
90.0
 51
135.0
  0
LINE
  5
AB
100
AcDbEntity
100
AcDbLine
  8
0
 62
7
420
16777215
370
15
 48
1.0
  6
Continuous
 10
50.864033408393894
 20
3.5565168219168584
 30
0.0
 11
52.715418022893893
 21
5.4079014365168518
 31
0.0
  0
ARC
  5
AC
100
AcDbEntity
  8
0
 62
7
420
16777215
370
15
 48
1.0
  6
Continuous
100
AcDbCircle
 10
47.328501109793891
 20
7.0920517578168472
 30
0.0
 40
5.0000000000000151
100
AcDbArc
 50
233.20851367169996
 51
315.0
  0
ARC
  5
AD
100
AcDbEntity
  8
0
 62
7
420
16777215
370
15
 48
1.0
  6
Continuous
100
AcDbCircle
 10
-15.556482934506107
 20
-76.994087300583146
 30
0.0
 40
100.0
100
AcDbArc
 50
53.208513671700004
 51
76.075359470600006
  0
LINE
  5
AE
100
AcDbEntity
100
AcDbLine
  8
0
 62
7
420
16777215
370
15
 48
1.0
  6
Continuous
 10
4.4142880095938928
 20
21.082197176816862
 30
0.0
 11
8.5080680402938924
 21
20.067223356416861
 31
0.0
  0
ARC
  5
AF
100
AcDbEntity
  8
0
 62
7
420
16777215
370
15
 48
1.0
  6
Continuous
100
AcDbCircle
 10
5.0158997475938918
 20
23.508729968916839
 30
0.0
 40
2.5000000000000089
100
AcDbArc
 50
180.0
 51
256.07535947060001
  0
LINE
  5
B0
100
AcDbEntity
100
AcDbLine
  8
0
 62
7
420
16777215
370
15
 48
1.0
  6
Continuous
 10
2.5159017563938928
 20
31.554137500916852
 30
0.0
 11
2.5158991221938933
 21
23.508728222816842
 31
0.0
  0
CIRCLE
  5
B1
100
AcDbEntity
100
AcDbCircle
  8
0
 62
7
420
16777215
370
15
 48
1.0
  6
Continuous
 10
36.22692464519389
 20
104.91465270671685
 30
0.0
 40
1.499999999999972
  0
CIRCLE
  5
B2
100
AcDbEntity
100
AcDbCircle
  8
0
 62
7
420
16777215
370
15
 48
1.0
  6
Continuous
 10
65.289013351893885
 20
98.055716929216857
 30
0.0
 40
1.500000000000002
  0
CIRCLE
  5
B3
100
AcDbEntity
100
AcDbCircle
  8
0
 62
7
420
16777215
370
15
 48
1.0
  6
Continuous
 10
47.328501109793891
 20
7.0920517578168472
 30
0.0
 40
1.500000000000002
  0
CIRCLE
  5
B4
100
AcDbEntity
100
AcDbCircle
  8
0
 62
7
420
16777215
370
15
 48
1.0
  6
Continuous
 10
65.289013351893885
 20
25.052563999916856
 30
0.0
 40
1.500000000000022
  0
CIRCLE
  5
B5
100
AcDbEntity
100
AcDbCircle
  8
0
 62
7
420
16777215
370
15
 48
1.0
  6
Continuous
 10
134.04952559409392
 20
116.01622917131684
 30
0.0
 40
1.500000000000012
  0
CIRCLE
  5
B6
100
AcDbEntity
100
AcDbCircle
  8
0
 62
7
420
16777215
370
15
 48
1.0
  6
Continuous
 10
116.0890133518939
 20
98.055716929216857
 30
0.0
 40
1.499999999999972
  0
CIRCLE
  5
B7
100
AcDbEntity
100
AcDbCircle
  8
0
 62
7
420
16777215
370
15
 48
1.0
  6
Continuous
 10
127.19058981659393
 20
36.154140464516843
 30
0.0
 40
1.4999999999928171
  0
CIRCLE
  5
B8
100
AcDbEntity
100
AcDbCircle
  8
0
 62
7
420
16777215
370
15
 48
1.0
  6
Continuous
 10
145.15110205869391
 20
18.193628222416862
 30
0.0
 40
1.499999999999992
  0
CIRCLE
  5
B9
100
AcDbEntity
100
AcDbCircle
  8
0
 62
7
420
16777215
370
15
 48
1.0
  6
Continuous
 10
7.5163645183938925
 20
96.554140464616836
 30
0.0
 40
1.4999999999999629
  0
CIRCLE
  5
BA
100
AcDbEntity
100
AcDbCircle
  8
0
 62
7
420
16777215
370
15
 48
1.0
  6
Continuous
 10
7.5163645183938925
 20
26.554140464416861
 30
0.0
 40
1.500000000000024
  0
ARC
  5
BB
100
AcDbEntity
  8
0
 62
7
420
16777215
370
15
 48
1.0
  6
Continuous
100
AcDbCircle
 10
114.11935875639389
 20
70.842350245316851
 30
0.0
 40
2.5
100
AcDbArc
 50
135.0
 51
180.0
  0
LINE
  5
BC
100
AcDbEntity
100
AcDbLine
  8
0
 62
7
420
16777215
370
15
 48
1.0
  6
Continuous
 10
111.61935893479389
 20
70.842350328316854
 30
0.0
 11
111.61935893479389
 21
52.265930600816858
 31
0.0
  0
ARC
  5
BD
100
AcDbEntity
  8
0
 62
7
420
16777215
370
15
 48
1.0
  6
Continuous
100
AcDbCircle
 10
114.11935875639389
 20
52.265930683816862
 30
0.0
 40
2.5000000000000142
100
AcDbArc
 50
180.0
 51
225.0
  0
LINE
  5
BE
100
AcDbEntity
100
AcDbLine
  8
0
 62
7
420
16777215
370
15
 48
1.0
  6
Continuous
 10
112.35159226839389
 20
50.498163028816862
 30
0.0
 11
118.40756756379389
 21
44.442187733416858
 31
0.0
  0
ARC
  5
BF
100
AcDbEntity
  8
0
 62
7
420
16777215
370
15
 48
1.0
  6
Continuous
100
AcDbCircle
 10
121.94310244309392
 20
47.977720903016859
 30
0.0
 40
5.0000000000000284
100
AcDbArc
 50
225.0
 51
0.0
  0
LINE
  5
C0
100
AcDbEntity
100
AcDbLine
  8
0
 62
7
420
16777215
370
15
 48
1.0
  6
Continuous
 10
126.94310287239389
 20
47.977721231016858
 30
0.0
 11
126.94310287239389
 21
75.130559698016839
 31
0.0
  0
ARC
  5
C1
100
AcDbEntity
  8
0
 62
7
420
16777215
370
15
 48
1.0
  6
Continuous
100
AcDbCircle
 10
121.94310244309392
 20
75.130560026116854
 30
0.0
 40
5.0000000000017621
100
AcDbArc
 50
360.0
 51
135.0
  0
LINE
  5
C2
100
AcDbEntity
100
AcDbLine
  8
0
 62
7
420
16777215
370
15
 48
1.0
  6
Continuous
 10
118.40756756379389
 20
78.666093195716854
 30
0.0
 11
112.35159226839389
 21
72.610117900316851
 31
0.0
  0
ARC
  5
C3
100
AcDbEntity
  8
0
 62
7
420
16777215
370
15
 48
1.0
  6
Continuous
100
AcDbCircle
 10
86.189013351993879
 20
35.097266279316841
 30
0.0
 40
1.0
100
AcDbArc
 50
180.0
 51
270.0
  0
LINE
  5
C4
100
AcDbEntity
100
AcDbLine
  8
0
 62
7
420
16777215
370
15
 48
1.0
  6
Continuous
 10
85.189012940293878
 20
35.597266239316838
 30
0.0
 11
85.189013598793906
 21
35.097266980116842
 31
0.0
  0
ARC
  5
C5
100
AcDbEntity
  8
0
 62
7
420
16777215
370
15
 48
1.0
  6
Continuous
100
AcDbCircle
 10
86.189013351993879
 20
35.597266279316841
 30
0.0
 40
1.0
100
AcDbArc
 50
90.0
 51
180.0
  0
LINE
  5
C6
100
AcDbEntity
100
AcDbLine
  8
0
 62
7
420
16777215
370
15
 48
1.0
  6
Continuous
 10
87.189012610993899
 20
36.59726607461684
 30
0.0
 11
86.189012775693897
 21
36.59726607461684
 31
0.0
  0
ARC
  5
C7
100
AcDbEntity
  8
0
 62
7
420
16777215
370
15
 48
1.0
  6
Continuous
100
AcDbCircle
 10
87.189013351893891
 20
37.597266279316841
 30
0.0
 40
1.0
100
AcDbArc
 50
270.0
 51
0.0
  0
LINE
  5
C8
100
AcDbEntity
100
AcDbLine
  8
0
 62
7
420
16777215
370
15
 48
1.0
  6
Continuous
 10
88.189013104893888
 20
39.097266321616843
 30
0.0
 11
88.189012446393889
 21
37.597265910016858
 31
0.0
  0
ARC
  5
C9
100
AcDbEntity
  8
0
 62
7
420
16777215
370
15
 48
1.0
  6
Continuous
100
AcDbCircle
 10
87.189013351893891
 20
39.097266279316841
 30
0.0
 40
1.0
100
AcDbArc
 50
0.0
 51
90.0
  0
ARC
  5
CA
100
AcDbEntity
  8
0
 62
7
420
16777215
370
15
 48
1.0
  6
Continuous
100
AcDbCircle
 10
80.874274790393883
 20
37.597266279316841
 30
0.0
 40
2.5000000000000102
100
AcDbArc
 50
90.0
 51
135.0
  0
LINE
  5
CB
100
AcDbEntity
100
AcDbLine
  8
0
 62
7
420
16777215
370
15
 48
1.0
  6
Continuous
 10
79.106507191593892
 20
39.365032823516856
 30
0.0
 11
72.524003171493888
 21
32.782528803416852
 31
0.0
  0
ARC
  5
CC
100
AcDbEntity
  8
0
 62
7
420
16777215
370
15
 48
1.0
  6
Continuous
100
AcDbCircle
 10
74.291769275893898
 20
31.014760764816856
 30
0.0
 40
2.50000000000002
100
AcDbArc
 50
135.0
 51
282.73627800720004
  0
ARC
  5
CD
100
AcDbEntity
  8
0
 62
7
420
16777215
370
15
 48
1.0
  6
Continuous
100
AcDbCircle
 10
88.07075928239388
 20
-29.947436000083144
 30
0.0
 40
60.000000000000071
100
AcDbArc
 50
92.267961884099989
 51
102.7362780072
  0
LINE
  5
CE
100
AcDbEntity
100
AcDbLine
  8
0
 62
7
420
16777215
370
15
 48
1.0
  6
Continuous
 10
85.696374068493895
 20
30.005564822016851
 30
0.0
 11
95.681652635393903
 21
30.005564822016851
 31
0.0
  0
ARC
  5
CF
100
AcDbEntity
  8
0
 62
7
420
16777215
370
15
 48
1.0
  6
Continuous
100
AcDbCircle
 10
93.307267421393902
 20
-29.947436000083144
 30
0.0
 40
60.000000000000739
100
AcDbArc
 50
77.263721992800001
 51
87.732038115899996
  0
ARC
  5
D0
100
AcDbEntity
  8
0
 62
7
420
16777215
370
15
 48
1.0
  6
Continuous
100
AcDbCircle
 10
107.08625742789388
 20
31.014760764816856
 30
0.0
 40
2.50000000000006
100
AcDbArc
 50
257.26372199279996
 51
45.0
  0
LINE
  5
D1
100
AcDbEntity
100
AcDbLine
  8
0
 62
7
420
16777215
370
15
 48
1.0
  6
Continuous
 10
108.85402353229389
 20
32.782528803416852
 30
0.0
 11
102.27151951229391
 21
39.365032823516856
 31
0.0
  0
ARC
  5
D2
100
AcDbEntity
  8
0
 62
7
420
16777215
370
15
 48
1.0
  6
Continuous
100
AcDbCircle
 10
100.5037519133939
 20
37.597266279316841
 30
0.0
 40
2.5
100
AcDbArc
 50
45.0
 51
90.0
  0
LINE
  5
D3
100
AcDbEntity
100
AcDbLine
  8
0
 62
7
420
16777215
370
15
 48
1.0
  6
Continuous
 10
100.50375194029388
 20
40.097266157016861
 30
0.0
 11
94.189013434293884
 21
40.097266157016861
 31
0.0
  0
ARC
  5
D4
100
AcDbEntity
  8
0
 62
7
420
16777215
370
15
 48
1.0
  6
Continuous
100
AcDbCircle
 10
94.189013351893891
 20
39.097266279316841
 30
0.0
 40
1.0
100
AcDbArc
 50
90.0
 51
180.0
  0
LINE
  5
D5
100
AcDbEntity
100
AcDbLine
  8
0
 62
7
420
16777215
370
15
 48
1.0
  6
Continuous
 10
93.189014257393893
 20
37.597265910016858
 30
0.0
 11
93.189013598893894
 21
39.097266321616843
 31
0.0
  0
ARC
  5
D6
100
AcDbEntity
  8
0
 62
7
420
16777215
370
15
 48
1.0
  6
Continuous
100
AcDbCircle
 10
94.189013351893891
 20
37.597266279316841
 30
0.0
 40
1.0
100
AcDbArc
 50
180.0
 51
270.0
  0
LINE
  5
D7
100
AcDbEntity
100
AcDbLine
  8
0
 62
7
420
16777215
370
15
 48
1.0
  6
Continuous
 10
95.189013928193901
 20
36.59726607461684
 30
0.0
 11
94.189014092793883
 21
36.59726607461684
 31
0.0
  0
ARC
  5
D8
100
AcDbEntity
  8
0
 62
7
420
16777215
370
15
 48
1.0
  6
Continuous
100
AcDbCircle
 10
95.189013351993879
 20
35.597266279316841
 30
0.0
 40
1.0
100
AcDbArc
 50
0.0
 51
90.0
  0
LINE
  5
D9
100
AcDbEntity
100
AcDbLine
  8
0
 62
7
420
16777215
370
15
 48
1.0
  6
Continuous
 10
96.189013104993904
 20
35.097266980116842
 30
0.0
 11
96.189013763593891
 21
35.597266239316838
 31
0.0
  0
ARC
  5
DA
100
AcDbEntity
  8
0
 62
7
420
16777215
370
15
 48
1.0
  6
Continuous
100
AcDbCircle
 10
95.189013351993879
 20
35.097266279316841
 30
0.0
 40
1.0
100
AcDbArc
 50
270.0
 51
0.0
  0
LINE
  5
DB
100
AcDbEntity
100
AcDbLine
  8
0
 62
7
420
16777215
370
15
 48
1.0
  6
Continuous
 10
86.189014092693895
 20
34.097266486216853
 30
0.0
 11
95.189012611093887
 21
34.097266486216853
 31
0.0
  0
ARC
  5
DC
100
AcDbEntity
  8
0
 62
7
420
16777215
370
15
 48
1.0
  6
Continuous
100
AcDbCircle
 10
95.189013351993879
 20
88.011014649816872
 30
0.0
 40
1.0
100
AcDbArc
 50
0.0
 51
90.0
  0
LINE
  5
DD
100
AcDbEntity
100
AcDbLine
  8
0
 62
7
420
16777215
370
15
 48
1.0
  6
Continuous
 10
96.189013763593891
 20
87.511014689816847
 30
0.0
 11
96.189013104993904
 21
88.011013949016871
 31
0.0
  0
ARC
  5
DE
100
AcDbEntity
  8
0
 62
7
420
16777215
370
15
 48
1.0
  6
Continuous
100
AcDbCircle
 10
95.189013351993879
 20
87.511014649816872
 30
0.0
 40
1.0
100
AcDbArc
 50
270.0
 51
0.0
  0
LINE
  5
DF
100
AcDbEntity
100
AcDbLine
  8
0
 62
7
420
16777215
370
15
 48
1.0
  6
Continuous
 10
94.189014092793883
 20
86.511014854516844
 30
0.0
 11
95.189013928193901
 21
86.511014854516844
 31
0.0
  0
ARC
  5
E0
100
AcDbEntity
  8
0
 62
7
420
16777215
370
15
 48
1.0
  6
Continuous
100
AcDbCircle
 10
94.189013351893891
 20
85.511014649816872
 30
0.0
 40
1.0
100
AcDbArc
 50
90.0
 51
180.0
  0
LINE
  5
E1
100
AcDbEntity
100
AcDbLine
  8
0
 62
7
420
16777215
370
15
 48
1.0
  6
Continuous
 10
93.189013598893894
 20
84.011014607516842
 30
0.0
 11
93.189014257393893
 21
85.511015019116854
 31
0.0
  0
ARC
  5
E2
100
AcDbEntity
  8
0
 62
7
420
16777215
370
15
 48
1.0
  6
Continuous
100
AcDbCircle
 10
94.189013351893891
 20
84.011014649816872
 30
0.0
 40
1.0
100
AcDbArc
 50
180.0
 51
270.0
  0
LINE
  5
E3
100
AcDbEntity
100
AcDbLine
  8
0
 62
7
420
16777215
370
15
 48
1.0
  6
Continuous
 10
94.189013434293884
 20
83.011014772116852
 30
0.0
 11
100.50375194029388
 21
83.011014772116852
 31
0.0
  0
ARC
  5
E4
100
AcDbEntity
  8
0
 62
7
420
16777215
370
15
 48
1.0
  6
Continuous
100
AcDbCircle
 10
100.5037519133939
 20
85.511014649816872
 30
0.0
 40
2.49999999999998
100
AcDbArc
 50
270.0
 51
315.0
  0
LINE
  5
E5
100
AcDbEntity
100
AcDbLine
  8
0
 62
7
420
16777215
370
15
 48
1.0
  6
Continuous
 10
102.27151951229391
 20
83.743248105616857
 30
0.0
 11
108.85402353229389
 21
90.325752125716832
 31
0.0
  0
ARC
  5
E6
100
AcDbEntity
  8
0
 62
7
420
16777215
370
15
 48
1.0
  6
Continuous
100
AcDbCircle
 10
107.08625742789388
 20
92.093520164316857
 30
0.0
 40
2.5000000000007541
100
AcDbArc
 50
315.0
 51
102.7362780071
  0
ARC
  5
E7
100
AcDbEntity
  8
0
 62
7
420
16777215
370
15
 48
1.0
  6
Continuous
100
AcDbCircle
 10
93.307267421393902
 20
153.05571692921686
 30
0.0
 40
59.999999999999311
100
AcDbArc
 50
272.26796188409998
 51
282.73627800720004
  0
LINE
  5
E8
100
AcDbEntity
100
AcDbLine
  8
0
 62
7
420
16777215
370
15
 48
1.0
  6
Continuous
 10
95.681652635393903
 20
93.102716107116834
 30
0.0
 11
85.696374068493895
 21
93.102716107116834
 31
0.0
  0
ARC
  5
E9
100
AcDbEntity
  8
0
 62
7
420
16777215
370
15
 48
1.0
  6
Continuous
100
AcDbCircle
 10
88.07075928239388
 20
153.05571692921686
 30
0.0
 40
60.000000000000078
100
AcDbArc
 50
257.26372199279996
 51
267.73203811590002
  0
ARC
  5
EA
100
AcDbEntity
  8
0
 62
7
420
16777215
370
15
 48
1.0
  6
Continuous
100
AcDbCircle
 10
74.291769275893898
 20
92.093520164316857
 30
0.0
 40
2.500000000000004
100
AcDbArc
 50
77.263721992800001
 51
225.0
  0
LINE
  5
EB
100
AcDbEntity
100
AcDbLine
  8
0
 62
7
420
16777215
370
15
 48
1.0
  6
Continuous
 10
72.524003171493888
 20
90.325752125716832
 30
0.0
 11
79.106507191593892
 21
83.743248105616857
 31
0.0
  0
ARC
  5
EC
100
AcDbEntity
  8
0
 62
7
420
16777215
370
15
 48
1.0
  6
Continuous
100
AcDbCircle
 10
80.874274790393883
 20
85.511014649816872
 30
0.0
 40
2.5000000000000102
100
AcDbArc
 50
225.0
 51
270.0
  0
ARC
  5
ED
100
AcDbEntity
  8
0
 62
7
420
16777215
370
15
 48
1.0
  6
Continuous
100
AcDbCircle
 10
87.189013351893891
 20
84.011014649816872
 30
0.0
 40
1.0
100
AcDbArc
 50
270.0
 51
0.0
  0
LINE
  5
EE
100
AcDbEntity
100
AcDbLine
  8
0
 62
7
420
16777215
370
15
 48
1.0
  6
Continuous
 10
88.189012446393889
 20
85.511015019116854
 30
0.0
 11
88.189013104893888
 21
84.011014607516842
 31
0.0
  0
ARC
  5
EF
100
AcDbEntity
  8
0
 62
7
420
16777215
370
15
 48
1.0
  6
Continuous
100
AcDbCircle
 10
87.189013351893891
 20
85.511014649816872
 30
0.0
 40
1.0000000000000571
100
AcDbArc
 50
0.0
 51
90.0
  0
LINE
  5
F0
100
AcDbEntity
100
AcDbLine
  8
0
 62
7
420
16777215
370
15
 48
1.0
  6
Continuous
 10
86.189012775693897
 20
86.511014854516844
 30
0.0
 11
87.189012610993899
 21
86.511014854516844
 31
0.0
  0
ARC
  5
F1
100
AcDbEntity
  8
0
 62
7
420
16777215
370
15
 48
1.0
  6
Continuous
100
AcDbCircle
 10
86.189013351993879
 20
87.511014649816872
 30
0.0
 40
1.0
100
AcDbArc
 50
180.0
 51
270.0
  0
LINE
  5
F2
100
AcDbEntity
100
AcDbLine
  8
0
 62
7
420
16777215
370
15
 48
1.0
  6
Continuous
 10
85.189013598793906
 20
88.011013949016871
 30
0.0
 11
85.189012940293878
 21
87.511014689816847
 31
0.0
  0
ARC
  5
F3
100
AcDbEntity
  8
0
 62
7
420
16777215
370
15
 48
1.0
  6
Continuous
100
AcDbCircle
 10
86.189013351993879
 20
88.011014649816872
 30
0.0
 40
1.0
100
AcDbArc
 50
90.0
 51
180.0
  0
LINE
  5
F4
100
AcDbEntity
100
AcDbLine
  8
0
 62
7
420
16777215
370
15
 48
1.0
  6
Continuous
 10
95.189012611093887
 20
89.011014442916832
 30
0.0
 11
86.189014092693895
 21
89.011014442916832
 31
0.0
  0
LINE
  5
F5
100
AcDbEntity
100
AcDbLine
  8
0
 62
7
420
16777215
370
15
 48
1.0
  6
Continuous
 10
122.80652773849388
 20
96.287949942316828
 30
0.0
 11
125.4228228296939
 21
93.67165485111687
 31
0.0
  0
ARC
  5
F6
100
AcDbEntity
  8
0
 62
7
420
16777215
370
15
 48
1.0
  6
Continuous
100
AcDbCircle
 10
127.19058981649388
 20
95.439421838816855
 30
0.0
 40
2.49999999999998
100
AcDbArc
 50
225.0
 51
315.0
  0
LINE
  5
F7
100
AcDbEntity
100
AcDbLine
  8
0
 62
7
420
16777215
370
15
 48
1.0
  6
Continuous
 10
128.95835772669389
 20
93.671655756616843
 30
0.0
 11
138.4335856695939
 21
103.14688369951685
 31
0.0
  0
ARC
  5
F8
100
AcDbEntity
  8
0
 62
7
420
16777215
370
15
 48
1.0
  6
Continuous
100
AcDbCircle
 10
136.66582068449392
 20
104.91465270671685
 30
0.0
 40
2.50000000000002
100
AcDbArc
 50
315.0
 51
45.0
  0
LINE
  5
F9
100
AcDbEntity
100
AcDbLine
  8
0
 62
7
420
16777215
370
15
 48
1.0
  6
Continuous
 10
138.4335892092939
 20
106.68242123071687
 30
0.0
 11
135.81729411809388
 21
109.29871632191683
 31
0.0
  0
ARC
  5
FA
100
AcDbEntity
  8
0
 62
7
420
16777215
370
15
 48
1.0
  6
Continuous
100
AcDbCircle
 10
134.04952559409392
 20
107.53094779711685
 30
0.0
 40
2.49999999999998
100
AcDbArc
 50
45.0
 51
135.0
  0
LINE
  5
FB
100
AcDbEntity
100
AcDbLine
  8
0
 62
7
420
16777215
370
15
 48
1.0
  6
Continuous
 10
132.28175658689392
 20
109.29871278221682
 30
0.0
 11
122.80652864399391
 21
99.823484839316876
 31
0.0
  0
ARC
  5
FC
100
AcDbEntity
  8
0
 62
7
420
16777215
370
15
 48
1.0
  6
Continuous
100
AcDbCircle
 10
124.57429472609388
 20
98.055716929216857
 30
0.0
 40
2.50000000000002
100
AcDbArc
 50
135.0
 51
225.0
  0
LINE
  5
FD
100
AcDbEntity
100
AcDbLine
  8
0
 62
7
420
16777215
370
15
 48
1.0
  6
Continuous
 10
42.944441034193893
 20
103.14688369951685
 30
0.0
 11
52.419668977093885
 21
93.671655756616843
 31
0.0
  0
ARC
  5
FE
100
AcDbEntity
  8
0
 62
7
420
16777215
370
15
 48
1.0
  6
Continuous
100
AcDbCircle
 10
54.187436887293892
 20
95.439421838816855
 30
0.0
 40
2.5000000000000151
100
AcDbArc
 50
225.0
 51
315.0
  0
LINE
  5
FF
100
AcDbEntity
100
AcDbLine
  8
0
 62
7
420
16777215
370
15
 48
1.0
  6
Continuous
 10
55.955203874193892
 20
93.67165485111687
 30
0.0
 11
58.571498965393893
 21
96.287949942316828
 31
0.0
  0
ARC
  5
100
100
AcDbEntity
  8
0
 62
7
420
16777215
370
15
 48
1.0
  6
Continuous
100
AcDbCircle
 10
56.803731977693893
 20
98.055716929216857
 30
0.0
 40
2.5000000000000049
100
AcDbArc
 50
315.0
 51
45.0
  0
LINE
  5
101
100
AcDbEntity
100
AcDbLine
  8
0
 62
7
420
16777215
370
15
 48
1.0
  6
Continuous
 10
58.571498059893891
 20
99.823484839316876
 30
0.0
 11
49.096270116893891
 21
109.29871278221682
 31
0.0
  0
ARC
  5
102
100
AcDbEntity
  8
0
 62
7
420
16777215
370
15
 48
1.0
  6
Continuous
100
AcDbCircle
 10
47.328501109793891
 20
107.53094779711685
 30
0.0
 40
2.5000000000000151
100
AcDbArc
 50
45.0
 51
135.0
  0
LINE
  5
103
100
AcDbEntity
100
AcDbLine
  8
0
 62
7
420
16777215
370
15
 48
1.0
  6
Continuous
 10
45.560732585693891
 20
109.29871632191683
 30
0.0
 11
42.94443749449389
 21
106.68242123071687
 31
0.0
  0
ARC
  5
104
100
AcDbEntity
  8
0
 62
7
420
16777215
370
15
 48
1.0
  6
Continuous
100
AcDbCircle
 10
44.712206019393889
 20
104.91465270671685
 30
0.0
 40
2.5000000000000049
100
AcDbArc
 50
135.0
 51
225.0
  0
LINE
  5
105
100
AcDbEntity
100
AcDbLine
  8
0
 62
7
420
16777215
370
15
 48
1.0
  6
Continuous
 10
52.419668977093885
 20
29.436625172516841
 30
0.0
 11
42.944441034193893
 21
19.961397229616864
 31
0.0
  0
ARC
  5
106
100
AcDbEntity
  8
0
 62
7
420
16777215
370
15
 48
1.0
  6
Continuous
100
AcDbCircle
 10
44.712206019393889
 20
18.193628222416862
 30
0.0
 40
2.5000000000000049
100
AcDbArc
 50
135.0
 51
225.0
  0
LINE
  5
107
100
AcDbEntity
100
AcDbLine
  8
0
 62
7
420
16777215
370
15
 48
1.0
  6
Continuous
 10
42.94443749449389
 20
16.425859698316856
 30
0.0
 11
45.560732585693891
 21
13.809564607216856
 31
0.0
  0
ARC
  5
108
100
AcDbEntity
  8
0
 62
7
420
16777215
370
15
 48
1.0
  6
Continuous
100
AcDbCircle
 10
47.328501109793891
 20
15.577333132016861
 30
0.0
 40
2.4999999999999849
100
AcDbArc
 50
225.0
 51
315.0
  0
LINE
  5
109
100
AcDbEntity
100
AcDbLine
  8
0
 62
7
420
16777215
370
15
 48
1.0
  6
Continuous
 10
49.096270116893891
 20
13.809568146816844
 30
0.0
 11
58.571498059893891
 21
23.284796089716849
 31
0.0
  0
ARC
  5
10A
100
AcDbEntity
  8
0
 62
7
420
16777215
370
15
 48
1.0
  6
Continuous
100
AcDbCircle
 10
56.803731977693893
 20
25.052563999916856
 30
0.0
 40
2.5000000000000151
100
AcDbArc
 50
315.0
 51
45.0
  0
LINE
  5
10B
100
AcDbEntity
100
AcDbLine
  8
0
 62
7
420
16777215
370
15
 48
1.0
  6
Continuous
 10
58.571498965393893
 20
26.820330986816856
 30
0.0
 11
55.955203874193892
 21
29.436626078016843
 31
0.0
  0
ARC
  5
10C
100
AcDbEntity
  8
0
 62
7
420
16777215
370
15
 48
1.0
  6
Continuous
100
AcDbCircle
 10
54.187436887293892
 20
27.668859090316857
 30
0.0
 40
2.5000000000000049
100
AcDbArc
 50
45.0
 51
135.0
  0
LINE
  5
10D
100
AcDbEntity
100
AcDbLine
  8
0
 62
7
420
16777215
370
15
 48
1.0
  6
Continuous
 10
122.80652864399391
 20
23.284796089716849
 30
0.0
 11
132.28175658689392
 21
13.809568146816844
 31
0.0
  0
ARC
  5
10E
100
AcDbEntity
  8
0
 62
7
420
16777215
370
15
 48
1.0
  6
Continuous
100
AcDbCircle
 10
134.04952559409392
 20
15.577333132016861
 30
0.0
 40
2.50000000000002
100
AcDbArc
 50
225.0
 51
315.0
  0
LINE
  5
10F
100
AcDbEntity
100
AcDbLine
  8
0
 62
7
420
16777215
370
15
 48
1.0
  6
Continuous
 10
135.81729411809388
 20
13.809564607216856
 30
0.0
 11
138.4335892092939
 21
16.425859698316856
 31
0.0
  0
ARC
  5
110
100
AcDbEntity
  8
0
 62
7
420
16777215
370
15
 48
1.0
  6
Continuous
100
AcDbCircle
 10
136.66582068449392
 20
18.193628222416862
 30
0.0
 40
2.50000000000002
100
AcDbArc
 50
315.0
 51
45.0
  0
LINE
  5
111
100
AcDbEntity
100
AcDbLine
  8
0
 62
7
420
16777215
370
15
 48
1.0
  6
Continuous
 10
138.4335856695939
 20
19.961397229616864
 30
0.0
 11
128.95835772669389
 21
29.436625172516841
 31
0.0
  0
ARC
  5
112
100
AcDbEntity
  8
0
 62
7
420
16777215
370
15
 48
1.0
  6
Continuous
100
AcDbCircle
 10
127.19058981659393
 20
27.668859090316857
 30
0.0
 40
2.5
100
AcDbArc
 50
45.0
 51
135.0
  0
LINE
  5
113
100
AcDbEntity
100
AcDbLine
  8
0
 62
7
420
16777215
370
15
 48
1.0
  6
Continuous
 10
125.4228228296939
 20
29.436626078016843
 30
0.0
 11
122.80652773849388
 21
26.820330986816856
 31
0.0
  0
ARC
  5
114
100
AcDbEntity
  8
0
 62
7
420
16777215
370
15
 48
1.0
  6
Continuous
100
AcDbCircle
 10
124.5742947261939
 20
25.052563999916856
 30
0.0
 40
2.4999999999999898
100
AcDbArc
 50
135.0
 51
225.0
  0
ARC
  5
115
100
AcDbEntity
  8
0
 62
7
420
16777215
370
15
 48
1.0
  6
Continuous
100
AcDbCircle
 10
139.44310244309392
 20
74.054162580316842
 30
0.0
 40
2.5
100
AcDbArc
 50
89.999921302999979
 51
180.0
  0
LINE
  5
116
100
AcDbEntity
100
AcDbLine
  8
0
 62
7
420
16777215
370
15
 48
1.0
  6
Continuous
 10
136.94310386029392
 20
74.054163431416839
 30
0.0
 11
136.94310122619387
 21
66.554108031316844
 31
0.0
  0
ARC
  5
117
100
AcDbEntity
  8
0
 62
7
420
16777215
370
15
 48
1.0
  6
Continuous
100
AcDbCircle
 10
139.44310244309392
 20
66.554109057516854
 30
0.0
 40
2.5000000000000431
100
AcDbArc
 50
180.0
 51
270.00009755199994
  0
LINE
  5
118
100
AcDbEntity
100
AcDbLine
  8
0
 62
7
420
16777215
370
15
 48
1.0
  6
Continuous
 10
139.44310739999392
 20
64.054107125716854
 30
0.0
 11
142.90260238529387
 21
64.054115028316858
 31
0.0
  0
ARC
  5
119
100
AcDbEntity
  8
0
 62
7
420
16777215
370
15
 48
1.0
  6
Continuous
100
AcDbCircle
 10
142.90259569279388
 20
66.55411494771684
 30
0.0
 40
2.5000000000000142
100
AcDbArc
 50
270.00009755199994
 51
359.99992130300001
  0
LINE
  5
11A
100
AcDbEntity
100
AcDbLine
  8
0
 62
7
420
16777215
370
15
 48
1.0
  6
Continuous
 10
145.40259538829392
 20
66.554113299616859
 30
0.0
 11
145.40260592499388
 21
74.054155528816864
 31
0.0
  0
ARC
  5
11B
100
AcDbEntity
  8
0
 62
7
420
16777215
370
15
 48
1.0
  6
Continuous
100
AcDbCircle
 10
142.90260599429391
 20
74.054157828616837
 30
0.0
 40
2.4999999999999991
100
AcDbArc
 50
359.99992130300001
 51
89.999921302999979
  0
LINE
  5
11C
100
AcDbEntity
100
AcDbLine
  8
0
 62
7
420
16777215
370
15
 48
1.0
  6
Continuous
 10
142.90260897079392
 20
76.55415775151684
 30
0.0
 11
139.44310608289388
 21
76.554163019816855
 31
0.0
  0
ARC
  5
11D
100
AcDbEntity
  8
0
 62
7
420
16777215
370
15
 48
1.0
  6
Continuous
100
AcDbCircle
 10
156.36202205469388
 20
49.054109235216856
 30
0.0
 40
2.4999999999999991
100
AcDbArc
 50
269.99992130300001
 51
0.0002738009
  0
LINE
  5
11E
100
AcDbEntity
100
AcDbLine
  8
0
 62
7
420
16777215
370
15
 48
1.0
  6
Continuous
 10
158.8620228728939
 20
49.054120131916847
 30
0.0
 11
158.8619859943939
 21
56.554151824416863
 31
0.0
  0
ARC
  5
11F
100
AcDbEntity
  8
0
 62
7
420
16777215
370
15
 48
1.0
  6
Continuous
100
AcDbCircle
 10
156.36198621409389
 20
56.554137863716846
 30
0.0
 40
2.5000000000000382
100
AcDbArc
 50
0.0002738009
 51
90.000097552
  0
LINE
  5
120
100
AcDbEntity
100
AcDbLine
  8
0
 62
7
420
16777215
370
15
 48
1.0
  6
Continuous
 10
156.3619824546939
 20
59.054139559016846
 30
0.0
 11
152.90257703139392
 21
59.054131656516859
 31
0.0
  0
ARC
  5
121
100
AcDbEntity
  8
0
 62
7
420
16777215
370
15
 48
1.0
  6
Continuous
100
AcDbCircle
 10
152.90258195759392
 20
56.554131973716864
 30
0.0
 40
2.5000000000000142
100
AcDbArc
 50
90.000097552
 51
179.99992130300001
  0
LINE
  5
122
100
AcDbEntity
100
AcDbLine
  8
0
 62
7
420
16777215
370
15
 48
1.0
  6
Continuous
 10
150.40258139429389
 20
56.554136019316843
 30
0.0
 11
150.40257349169391
 21
49.054117497716845
 31
0.0
  0
ARC
  5
123
100
AcDbEntity
  8
0
 62
7
420
16777215
370
15
 48
1.0
  6
Continuous
100
AcDbCircle
 10
152.90257165619389
 20
49.05411398691686
 30
0.0
 40
2.4999999999999991
100
AcDbArc
 50
179.99992130300001
 51
269.99992130300001
  0
LINE
  5
124
100
AcDbEntity
100
AcDbLine
  8
0
 62
7
420
16777215
370
15
 48
1.0
  6
Continuous
 10
152.9025664946939
 20
46.554113958016842
 30
0.0
 11
156.36201669899393
 21
46.554108689716855
 31
0.0
  0
ARC
  5
125
100
AcDbEntity
  8
0
 62
7
420
16777215
370
15
 48
1.0
  6
Continuous
100
AcDbCircle
 10
139.44310244309392
 20
49.054132473716862
 30
0.0
 40
2.4999999999999991
100
AcDbArc
 50
180.0
 51
269.99992130300001
  0
LINE
  5
126
100
AcDbEntity
100
AcDbLine
  8
0
 62
7
420
16777215
370
15
 48
1.0
  6
Continuous
 10
139.44309949749388
 20
46.554132397316863
 30
0.0
 11
142.90256682389392
 21
46.554128446016847
 31
0.0
  0
ARC
  5
127
100
AcDbEntity
  8
0
 62
7
420
16777215
370
15
 48
1.0
  6
Continuous
100
AcDbCircle
 10
142.90257165619389
 20
49.054127722116846
 30
0.0
 40
2.4999999999999991
100
AcDbArc
 50
269.99992130300001
 51
359.99992130300001
  0
LINE
  5
128
100
AcDbEntity
100
AcDbLine
  8
0
 62
7
420
16777215
370
15
 48
1.0
  6
Continuous
 10
145.4025729977939
 20
49.054124083116847
 30
0.0
 11
145.40258221739393
 21
56.554112311716864
 31
0.0
  0
ARC
  5
129
100
AcDbEntity
  8
0
 62
7
420
16777215
370
15
 48
1.0
  6
Continuous
100
AcDbCircle
 10
142.90258195759392
 20
56.554114947616853
 30
0.0
 40
2.4999999999999991
100
AcDbArc
 50
359.99992130300001
 51
90.000097552
  0
LINE
  5
12A
100
AcDbEntity
100
AcDbLine
  8
0
 62
7
420
16777215
370
15
 48
1.0
  6
Continuous
 10
142.90257867769392
 20
59.054115851416839
 30
0.0
 11
139.44309949749388
 21
59.054107948916851
 31
0.0
  0
ARC
  5
12B
100
AcDbEntity
  8
0
 62
7
420
16777215
370
15
 48
1.0
  6
Continuous
100
AcDbCircle
 10
139.44310244309392
 20
56.554109057516854
 30
0.0
 40
2.5000000000000142
100
AcDbArc
 50
90.000097552
 51
180.0
  0
LINE
  5
12C
100
AcDbEntity
100
AcDbLine
  8
0
 62
7
420
16777215
370
15
 48
1.0
  6
Continuous
 10
136.94310122619387
 20
56.554109677516863
 30
0.0
 11
136.94310254319387
 21
49.05413198571685
 31
0.0
  0
ARC
  5
12D
100
AcDbEntity
  8
0
 62
7
420
16777215
370
15
 48
1.0
  6
Continuous
100
AcDbCircle
 10
156.36190258629389
 20
74.054139341916851
 30
0.0
 40
2.5000000000000382
100
AcDbArc
 50
0.0002738013
 51
89.999921302999979
  0
LINE
  5
12E
100
AcDbEntity
100
AcDbLine
  8
0
 62
7
420
16777215
370
15
 48
1.0
  6
Continuous
 10
156.36190606349388
 20
76.554140629316834
 30
0.0
 11
152.9026086415939
 21
76.554145897716836
 31
0.0
  0
ARC
  5
12F
100
AcDbEntity
  8
0
 62
7
420
16777215
370
15
 48
1.0
  6
Continuous
100
AcDbCircle
 10
152.90260599429391
 20
74.054144093416852
 30
0.0
 40
2.4999999999999991
100
AcDbArc
 50
89.999921302999979
 51
179.99992130300001
  0
LINE
  5
130
100
AcDbEntity
100
AcDbLine
  8
0
 62
7
420
16777215
370
15
 48
1.0
  6
Continuous
 10
150.4026051018939
 20
74.054147626316848
 30
0.0
 11
150.40259719929392
 21
66.554134373016836
 31
0.0
  0
ARC
  5
131
100
AcDbEntity
  8
0
 62
7
420
16777215
370
15
 48
1.0
  6
Continuous
100
AcDbCircle
 10
152.90259569279388
 20
66.554131973716864
 30
0.0
 40
2.4999999999999991
100
AcDbArc
 50
179.99992130300001
 51
270.00009755199994
  0
LINE
  5
132
100
AcDbEntity
100
AcDbLine
  8
0
 62
7
420
16777215
370
15
 48
1.0
  6
Continuous
 10
152.90260073899393
 20
64.054130833316862
 30
0.0
 11
156.36194294199387
 21
64.054138735916837
 31
0.0
  0
ARC
  5
133
100
AcDbEntity
  8
0
 62
7
420
16777215
370
15
 48
1.0
  6
Continuous
100
AcDbCircle
 10
156.3619384267939
 20
66.554137863616859
 30
0.0
 40
2.5000000000000142
100
AcDbArc
 50
270.00009755199994
 51
0.0002738013
  0
LINE
  5
134
100
AcDbEntity
100
AcDbLine
  8
0
 62
7
420
16777215
370
15
 48
1.0
  6
Continuous
 10
158.86193857919389
 20
66.554150178116856
 30
0.0
 11
158.86190170069389
 21
74.054150260516849
 31
0.0
  0
ARC
  5
135
100
AcDbEntity
  8
0
 62
7
420
16777215
370
15
 48
1.0
  6
Continuous
100
AcDbCircle
 10
166.36225849509393
 20
66.554185652416862
 30
0.0
 40
2.4999999999999871
100
AcDbArc
 50
180.0002738009
 51
270.00045005020002
  0
LINE
  5
136
100
AcDbEntity
100
AcDbLine
  8
0
 62
7
420
16777215
370
15
 48
1.0
  6
Continuous
 10
166.36227847049392
 20
64.054186151116852
 30
0.0
 11
169.82162067349392
 21
64.054215127016846
 31
0.0
  0
ARC
  5
137
100
AcDbEntity
  8
0
 62
7
420
16777215
370
15
 48
1.0
  6
Continuous
100
AcDbCircle
 10
169.8216012289939
 20
66.554212825116849
 30
0.0
 40
2.500000000000016
100
AcDbArc
 50
270.00045005020002
 51
0.0006262992
  0
LINE
  5
138
100
AcDbEntity
100
AcDbLine
  8
0
 62
7
420
16777215
370
15
 48
1.0
  6
Continuous
 10
172.32160313979389
 20
66.554239740216843
 30
0.0
 11
172.32151884609388
 21
74.054250359316853
 31
0.0
  0
ARC
  5
139
100
AcDbEntity
  8
0
 62
7
420
16777215
370
15
 48
1.0
  6
Continuous
100
AcDbCircle
 10
169.82151924649392
 20
74.054224944316843
 30
0.0
 40
2.5000000000000302
100
AcDbArc
 50
0.0006262992
 51
90.000626299200007
  0
LINE
  5
13A
100
AcDbEntity
100
AcDbLine
  8
0
 62
7
420
16777215
370
15
 48
1.0
  6
Continuous
 10
169.82149159879393
 20
76.554224923016847
 30
0.0
 11
166.36219681099388
 21
76.554190678716822
 31
0.0
  0
ARC
  5
13B
100
AcDbEntity
  8
0
 62
7
420
16777215
370
15
 48
1.0
  6
Continuous
100
AcDbCircle
 10
166.36222265469391
 20
74.054187130816842
 30
0.0
 40
2.5000000000000022
100
AcDbArc
 50
90.000626299200007
 51
180.0002738009
  0
LINE
  5
13C
100
AcDbEntity
100
AcDbLine
  8
0
 62
7
420
16777215
370
15
 48
1.0
  6
Continuous
 10
163.86222224729389
 20
74.054173968116856
 30
0.0
 11
163.86225912579388
 21
66.554173885716864
 31
0.0
  0
ARC
  5
13D
100
AcDbEntity
  8
0
 62
7
420
16777215
370
15
 48
1.0
  6
Continuous
100
AcDbCircle
 10
169.82179252139392
 20
49.054194839316864
 30
0.0
 40
2.5000000000000022
100
AcDbArc
 50
270.00062629920001
 51
0.0006262992
  0
LINE
  5
13E
100
AcDbEntity
100
AcDbLine
  8
0
 62
7
420
16777215
370
15
 48
1.0
  6
Continuous
 10
172.3217928005939
 20
49.054220230616863
 30
0.0
 11
172.32171114109391
 21
56.554238752316849
 31
0.0
  0
ARC
  5
13F
100
AcDbEntity
  8
0
 62
7
420
16777215
370
15
 48
1.0
  6
Continuous
100
AcDbCircle
 10
169.82171053889388
 20
56.554212825616844
 30
0.0
 40
2.5000000000000022
100
AcDbArc
 50
0.0006262992
 51
90.000450050200001
  0
LINE
  5
140
100
AcDbEntity
100
AcDbLine
  8
0
 62
7
420
16777215
370
15
 48
1.0
  6
Continuous
 10
169.82168916209392
 20
59.054213316016842
 30
0.0
 11
166.36228637309389
 21
59.054186974216861
 31
0.0
  0
ARC
  5
141
100
AcDbEntity
  8
0
 62
7
420
16777215
370
15
 48
1.0
  6
Continuous
100
AcDbCircle
 10
166.36230628239392
 20
56.55418565251685
 30
0.0
 40
2.5000000000000102
100
AcDbArc
 50
90.000450050200001
 51
180.00027380129998
  0
LINE
  5
142
100
AcDbEntity
100
AcDbLine
  8
0
 62
7
420
16777215
370
15
 48
1.0
  6
Continuous
 10
163.8623065409939
 20
56.554175532016842
 30
0.0
 11
163.8623434194939
 21
49.054143839516854
 31
0.0
  0
ARC
  5
143
100
AcDbEntity
  8
0
 62
7
420
16777215
370
15
 48
1.0
  6
Continuous
100
AcDbCircle
 10
166.3623421230939
 20
49.054157024116847
 30
0.0
 40
2.5000000000000382
100
AcDbArc
 50
180.00027380129998
 51
270.00062629920001
  0
LINE
  5
144
100
AcDbEntity
100
AcDbLine
  8
0
 62
7
420
16777215
370
15
 48
1.0
  6
Continuous
 10
166.36236803259388
 20
46.554156104916842
 30
0.0
 11
169.82182087099389
 21
46.554195617516854
 31
0.0
  0
CIRCLE
  5
145
100
AcDbEntity
100
AcDbCircle
  8
0
 62
7
420
16777215
370
15
 48
1.0
  6
Continuous
 10
173.86170866119389
 20
81.554301159516825
 30
0.0
 40
1.500000000000052
  0
CIRCLE
  5
146
100
AcDbEntity
100
AcDbCircle
  8
0
 62
7
420
16777215
370
15
 48
1.0
  6
Continuous
 10
173.86208047929389
 20
41.554135907516837
 30
0.0
 40
1.500000000000012
  0
ARC
  5
147
100
AcDbEntity
  8
0
 62
7
420
16777215
370
15
 48
1.0
  6
Continuous
100
AcDbCircle
 10
47.516364518393893
 20
66.054140464516848
 30
0.0
 40
1.0
100
AcDbArc
 50
0.0
 51
90.0
  0
LINE
  5
148
100
AcDbEntity
100
AcDbLine
  8
0
 62
7
420
16777215
370
15
 48
1.0
  6
Continuous
 10
48.516363067193893
 20
57.054139888316854
 30
0.0
 11
48.516363067193893
 21
66.054141040816859
 31
0.0
  0
ARC
  5
149
100
AcDbEntity
  8
0
 62
7
420
16777215
370
15
 48
1.0
  6
Continuous
100
AcDbCircle
 10
47.516364518393893
 20
57.054140464516848
 30
0.0
 40
1.0000000000000071
100
AcDbArc
 50
270.0
 51
0.0
  0
LINE
  5
14A
100
AcDbEntity
100
AcDbLine
  8
0
 62
7
420
16777215
370
15
 48
1.0
  6
Continuous
 10
47.016364631193895
 20
56.054140052916864
 30
0.0
 11
47.516363231793889
 21
56.054140052916864
 31
0.0
  0
ARC
  5
14B
100
AcDbEntity
  8
0
 62
7
420
16777215
370
15
 48
1.0
  6
Continuous
100
AcDbCircle
 10
47.016364518393893
 20
57.054140464516848
 30
0.0
 40
1.0
100
AcDbArc
 50
180.0
 51
270.0
  0
LINE
  5
14C
100
AcDbEntity
100
AcDbLine
  8
0
 62
7
420
16777215
370
15
 48
1.0
  6
Continuous
 10
46.016366112993893
 20
58.054141040716843
 30
0.0
 11
46.016364795893892
 21
57.054139888316854
 31
0.0
  0
ARC
  5
14D
100
AcDbEntity
  8
0
 62
7
420
16777215
370
15
 48
1.0
  6
Continuous
100
AcDbCircle
 10
45.016364518393893
 20
58.054140464516848
 30
0.0
 40
1.0
100
AcDbArc
 50
0.0
 51
90.0
  0
LINE
  5
14E
100
AcDbEntity
100
AcDbLine
  8
0
 62
7
420
16777215
370
15
 48
1.0
  6
Continuous
 10
43.516363890293896
 20
59.054142193216848
 30
0.0
 11
45.016364960493895
 21
59.054142193216848
 31
0.0
  0
ARC
  5
14F
100
AcDbEntity
  8
0
 62
7
420
16777215
370
15
 48
1.0
  6
Continuous
100
AcDbCircle
 10
43.516364518393893
 20
58.054140464516848
 30
0.0
 40
1.0
100
AcDbArc
 50
90.0
 51
180.0
  0
ARC
  5
150
100
AcDbEntity
  8
0
 62
7
420
16777215
370
15
 48
1.0
  6
Continuous
100
AcDbCircle
 10
47.516364518393893
 20
46.059161160716855
 30
0.0
 40
5.0
100
AcDbArc
 50
180.0
 51
270.0
  0
LINE
  5
151
100
AcDbEntity
100
AcDbLine
  8
0
 62
7
420
16777215
370
15
 48
1.0
  6
Continuous
 10
47.516363231793889
 20
41.059160631516846
 30
0.0
 11
57.516365536793892
 21
41.059161948616861
 31
0.0
  0
LINE
  5
152
100
AcDbEntity
100
AcDbLine
  8
0
 62
7
420
16777215
370
15
 48
1.0
  6
Continuous
 10
61.051897717393892
 20
42.52362631071685
 30
0.0
 11
66.299388456993881
 21
47.771117050416848
 31
0.0
  0
ARC
  5
153
100
AcDbEntity
  8
0
 62
7
420
16777215
370
15
 48
1.0
  6
Continuous
100
AcDbCircle
 10
64.531621123293888
 20
49.538883859716861
 30
0.0
 40
2.5000000000000142
100
AcDbArc
 50
315.0
 51
360.0
  0
LINE
  5
154
100
AcDbEntity
100
AcDbLine
  8
0
 62
7
420
16777215
370
15
 48
1.0
  6
Continuous
 10
67.031620473493888
 20
49.538883305316858
 30
0.0
 11
67.031620473493888
 21
73.569397623816855
 31
0.0
  0
ARC
  5
155
100
AcDbEntity
  8
0
 62
7
420
16777215
370
15
 48
1.0
  6
Continuous
100
AcDbCircle
 10
64.531621123293888
 20
73.569397069416851
 30
0.0
 40
2.50000000000002
100
AcDbArc
 50
360.0
 51
45.0
  0
LINE
  5
156
100
AcDbEntity
100
AcDbLine
  8
0
 62
7
420
16777215
370
15
 48
1.0
  6
Continuous
 10
66.299388456993881
 20
75.337163878716837
 30
0.0
 11
61.051897717393892
 21
80.584654618416863
 31
0.0
  0
ARC
  5
157
100
AcDbEntity
  8
0
 62
7
420
16777215
370
15
 48
1.0
  6
Continuous
100
AcDbCircle
 10
57.516364518393893
 20
77.04911976841683
 30
0.0
 40
5.0
100
AcDbArc
 50
45.0
 51
90.0
  0
LINE
  5
158
100
AcDbEntity
100
AcDbLine
  8
0
 62
7
420
16777215
370
15
 48
1.0
  6
Continuous
 10
57.516365536793892
 20
82.049118980516852
 30
0.0
 11
47.516363231793889
 21
82.049120297616838
 31
0.0
  0
ARC
  5
159
100
AcDbEntity
  8
0
 62
7
420
16777215
370
15
 48
1.0
  6
Continuous
100
AcDbCircle
 10
47.516364518393893
 20
77.04911976841683
 30
0.0
 40
5.0000000000000071
100
AcDbArc
 50
90.0
 51
180.0
  0
LINE
  5
15A
100
AcDbEntity
100
AcDbLine
  8
0
 62
7
420
16777215
370
15
 48
1.0
  6
Continuous
 10
42.516364054993893
 20
77.049121120716876
 30
0.0
 11
42.516364054993893
 21
65.054138571316855
 31
0.0
  0
ARC
  5
15B
100
AcDbEntity
  8
0
 62
7
420
16777215
370
15
 48
1.0
  6
Continuous
100
AcDbCircle
 10
43.516364518393893
 20
65.054140464516848
 30
0.0
 40
1.0
100
AcDbArc
 50
180.0
 51
270.0
  0
LINE
  5
15C
100
AcDbEntity
100
AcDbLine
  8
0
 62
7
420
16777215
370
15
 48
1.0
  6
Continuous
 10
45.016364960493895
 20
64.054138735916837
 30
0.0
 11
43.516363890293896
 21
64.054138735916837
 31
0.0
  0
ARC
  5
15D
100
AcDbEntity
  8
0
 62
7
420
16777215
370
15
 48
1.0
  6
Continuous
100
AcDbCircle
 10
45.016364518393893
 20
65.054140464516848
 30
0.0
 40
1.0
100
AcDbArc
 50
270.0
 51
0.0
  0
LINE
  5
15E
100
AcDbEntity
100
AcDbLine
  8
0
 62
7
420
16777215
370
15
 48
1.0
  6
Continuous
 10
46.016364795893892
 20
66.054141040816859
 30
0.0
 11
46.016366112993893
 21
65.054139888316854
 31
0.0
  0
ARC
  5
15F
100
AcDbEntity
  8
0
 62
7
420
16777215
370
15
 48
1.0
  6
Continuous
100
AcDbCircle
 10
47.016364518393893
 20
66.054140464516848
 30
0.0
 40
1.0000000000000071
100
AcDbArc
 50
90.0
 51
180.0
  0
LINE
  5
160
100
AcDbEntity
100
AcDbLine
  8
0
 62
7
420
16777215
370
15
 48
1.0
  6
Continuous
 10
47.516363231793889
 20
67.054140876216849
 30
0.0
 11
47.016364631193895
 21
67.054140876216849
 31
0.0
  0
CIRCLE
  5
161
100
AcDbEntity
100
AcDbCircle
  8
0
 62
7
420
16777215
370
15
 48
1.0
  6
Continuous
 10
42.025200250893896
 20
30.355864858816858
 30
0.0
 40
1.500000000000002
  0
CIRCLE
  5
162
100
AcDbEntity
100
AcDbCircle
  8
0
 62
7
420
16777215
370
15
 48
1.0
  6
Continuous
 10
42.025200250893896
 20
92.752416070316855
 30
0.0
 40
1.5000000000000171
  0
CIRCLE
  5
163
100
AcDbEntity
100
AcDbCircle
  8
0
 62
7
420
16777215
370
15
 48
1.0
  6
Continuous
 10
139.35282645299392
 20
30.355864858816858
 30
0.0
 40
1.500000000000032
  0
CIRCLE
  5
164
100
AcDbEntity
100
AcDbCircle
  8
0
 62
7
420
16777215
370
15
 48
1.0
  6
Continuous
 10
139.35282645299392
 20
92.752416070316855
 30
0.0
 40
1.500000000000032
  0
ARC
  5
165
100
AcDbEntity
  8
0
 62
7
420
16777215
370
15
 48
1.0
  6
Continuous
100
AcDbCircle
 10
82.031621123293888
 20
68.011014649816843
 30
0.0
 40
5.0
100
AcDbArc
 50
90.0
 51
180.0
  0
LINE
  5
166
100
AcDbEntity
100
AcDbLine
  8
0
 62
7
420
16777215
370
15
 48
1.0
  6
Continuous
 10
77.031621461393883
 20
68.011014607416854
 30
0.0
 11
77.031621461393883
 21
55.097266321716859
 31
0.0
  0
ARC
  5
167
100
AcDbEntity
  8
0
 62
7
420
16777215
370
15
 48
1.0
  6
Continuous
100
AcDbCircle
 10
82.031621123293888
 20
55.097266279316841
 30
0.0
 40
5.0000000000000284
100
AcDbArc
 50
180.0
 51
270.0
  0
LINE
  5
168
100
AcDbEntity
100
AcDbLine
  8
0
 62
7
420
16777215
370
15
 48
1.0
  6
Continuous
 10
82.031621296793901
 20
50.09726648631684
 30
0.0
 11
96.619359099393904
 21
50.097266157116849
 31
0.0
  0
ARC
  5
169
100
AcDbEntity
  8
0
 62
7
420
16777215
370
15
 48
1.0
  6
Continuous
100
AcDbCircle
 10
96.619358756393893
 20
55.097266279316841
 30
0.0
 40
5.0000000000000284
100
AcDbArc
 50
270.0
 51
0.0
  0
LINE
  5
16A
100
AcDbEntity
100
AcDbLine
  8
0
 62
7
420
16777215
370
15
 48
1.0
  6
Continuous
 10
101.61935893479389
 20
55.097265992516839
 30
0.0
 11
101.61935893479389
 21
68.011014936616846
 31
0.0
  0
ARC
  5
16B
100
AcDbEntity
  8
0
 62
7
420
16777215
370
15
 48
1.0
  6
Continuous
100
AcDbCircle
 10
96.619358756393893
 20
68.011014649816843
 30
0.0
 40
5.0000000000000284
100
AcDbArc
 50
0.0
 51
90.0
  0
LINE
  5
16C
100
AcDbEntity
100
AcDbLine
  8
0
 62
7
420
16777215
370
15
 48
1.0
  6
Continuous
 10
96.619359099393904
 20
73.011014772016864
 30
0.0
 11
82.031621296793901
 21
73.011014442816844
 31
0.0
  0
ARC
  5
16D
100
AcDbEntity
  8
0
 62
7
420
16777215
370
15
 48
1.0
  6
Continuous
100
AcDbCircle
 10
30.016350720593891
 20
51.554189506016854
 30
0.0
 40
2.5000000000000182
100
AcDbArc
 50
270.00042162860001
 51
359.99989459199998
  0
LINE
  5
16E
100
AcDbEntity
100
AcDbLine
  8
0
 62
7
420
16777215
370
15
 48
1.0
  6
Continuous
 10
32.516352530393895
 20
51.554184257716855
 30
0.0
 11
32.51636043289389
 21
56.554136019316843
 31
0.0
  0
ARC
  5
16F
100
AcDbEntity
  8
0
 62
7
420
16777215
370
15
 48
1.0
  6
Continuous
100
AcDbCircle
 10
30.016359919093894
 20
56.554140464516848
 30
0.0
 40
2.5000000000000031
100
AcDbArc
 50
359.99989459199998
 51
90.0
  0
LINE
  5
170
100
AcDbEntity
100
AcDbLine
  8
0
 62
7
420
16777215
370
15
 48
1.0
  6
Continuous
 10
30.016359527393895
 20
59.054142193216848
 30
0.0
 11
15.016093310593892
 21
59.054139559016846
 31
0.0
  0
ARC
  5
171
100
AcDbEntity
  8
0
 62
7
420
16777215
370
15
 48
1.0
  6
Continuous
100
AcDbCircle
 10
15.016093402493894
 20
56.554140464516848
 30
0.0
 40
2.5
100
AcDbArc
 50
90.0
 51
179.9995561767
  0
LINE
  5
172
100
AcDbEntity
100
AcDbLine
  8
0
 62
7
420
16777215
370
15
 48
1.0
  6
Continuous
 10
12.516092405093893
 20
56.554159726916851
 30
0.0
 11
12.516055526593892
 21
51.554099964016842
 31
0.0
  0
ARC
  5
173
100
AcDbEntity
  8
0
 62
7
420
16777215
370
15
 48
1.0
  6
Continuous
100
AcDbCircle
 10
15.016054671093894
 20
51.554079121716853
 30
0.0
 40
2.5000000000000462
100
AcDbArc
 50
179.9995561767
 51
270.00042162860001
  0
LINE
  5
174
100
AcDbEntity
100
AcDbLine
  8
0
 62
7
420
16777215
370
15
 48
1.0
  6
Continuous
 10
15.016072237193892
 20
49.054077985016846
 30
0.0
 11
30.016367429893897
 21
49.05418862051684
 31
0.0
  0
ARC
  5
175
100
AcDbEntity
  8
0
 62
7
420
16777215
370
15
 48
1.0
  6
Continuous
100
AcDbCircle
 10
15.016054670793892
 20
71.554142743016854
 30
0.0
 40
2.5
100
AcDbArc
 50
90.0
 51
180.00044382089999
  0
LINE
  5
176
100
AcDbEntity
100
AcDbLine
  8
0
 62
7
420
16777215
370
15
 48
1.0
  6
Continuous
 10
12.516055526593892
 20
71.554123013216838
 30
0.0
 11
12.516092405093893
 21
66.554121202216862
 31
0.0
  0
ARC
  5
177
100
AcDbEntity
  8
0
 62
7
420
16777215
370
15
 48
1.0
  6
Continuous
100
AcDbCircle
 10
15.016093401493894
 20
66.554140464516848
 30
0.0
 40
2.5000000000000089
100
AcDbArc
 50
180.00044382089999
 51
270.0
  0
LINE
  5
178
100
AcDbEntity
100
AcDbLine
  8
0
 62
7
420
16777215
370
15
 48
1.0
  6
Continuous
 10
15.016093310593892
 20
64.054141370116838
 30
0.0
 11
30.016364795693896
 21
64.054138735916837
 31
0.0
  0
ARC
  5
179
100
AcDbEntity
  8
0
 62
7
420
16777215
370
15
 48
1.0
  6
Continuous
100
AcDbCircle
 10
30.016364518393893
 20
66.554140464516848
 30
0.0
 40
2.500000000000004
100
AcDbArc
 50
270.0
 51
360.0
  0
LINE
  5
17A
100
AcDbEntity
100
AcDbLine
  8
0
 62
7
420
16777215
370
15
 48
1.0
  6
Continuous
 10
32.516365701293893
 20
66.554139641416839
 30
0.0
 11
32.516365701293893
 21
71.554141452416843
 31
0.0
  0
ARC
  5
17B
100
AcDbEntity
  8
0
 62
7
420
16777215
370
15
 48
1.0
  6
Continuous
100
AcDbCircle
 10
30.016364518393893
 20
71.554142743016854
 30
0.0
 40
2.5
100
AcDbArc
 50
360.0
 51
90.0
  0
LINE
  5
17C
100
AcDbEntity
100
AcDbLine
  8
0
 62
7
420
16777215
370
15
 48
1.0
  6
Continuous
 10
30.016364795693896
 20
74.054142358016861
 30
0.0
 11
15.016053797993891
 21
74.054142358016861
 31
0.0
  0
ARC
  5
17D
100
AcDbEntity
  8
0
 62
7
420
16777215
370
15
 48
1.0
  6
Continuous
100
AcDbCircle
 10
30.016364518393893
 20
41.554189505916838
 30
0.0
 40
2.4999999999999929
100
AcDbArc
 50
360.0
 51
90.000421628699996
  0
LINE
  5
17E
100
AcDbEntity
100
AcDbLine
  8
0
 62
7
420
16777215
370
15
 48
1.0
  6
Continuous
 10
30.01634503939389
 20
44.05418812661685
 30
0.0
 11
15.015985309293892
 21
44.054078808216843
 31
0.0
  0
ARC
  5
17F
100
AcDbEntity
  8
0
 62
7
420
16777215
370
15
 48
1.0
  6
Continuous
100
AcDbCircle
 10
15.016006258993894
 20
41.554079121116843
 30
0.0
 40
2.5000000000000089
100
AcDbArc
 50
90.000421628699996
 51
179.99938973510001
  0
LINE
  5
180
100
AcDbEntity
100
AcDbLine
  8
0
 62
7
420
16777215
370
15
 48
1.0
  6
Continuous
 10
12.516005477293895
 20
41.554104244416862
 30
0.0
 11
12.515955427893893
 21
36.554157751116861
 31
0.0
  0
ARC
  5
181
100
AcDbEntity
  8
0
 62
7
420
16777215
370
15
 48
1.0
  6
Continuous
100
AcDbCircle
 10
15.015953003893891
 20
36.554128344716844
 30
0.0
 40
2.5000000000000071
100
AcDbArc
 50
179.99938973510001
 51
270.00038142059998
  0
LINE
  5
182
100
AcDbEntity
100
AcDbLine
  8
0
 62
7
420
16777215
370
15
 48
1.0
  6
Continuous
 10
30.016380600793887
 20
34.054227968416853
 30
0.0
 11
15.015972138493893
 21
34.05413050381685
 31
0.0
  0
ARC
  5
183
100
AcDbEntity
  8
0
 62
7
420
16777215
370
15
 48
1.0
  6
Continuous
100
AcDbCircle
 10
30.016364518393893
 20
36.55422820311685
 30
0.0
 40
2.5000000000000009
100
AcDbArc
 50
270.00038142059998
 51
360.0
  0
LINE
  5
184
100
AcDbEntity
100
AcDbLine
  8
0
 62
7
420
16777215
370
15
 48
1.0
  6
Continuous
 10
32.516365701293893
 20
36.554228873916855
 30
0.0
 11
32.516364384193892
 21
41.554189855216862
 31
0.0
  0
ARC
  5
185
100
AcDbEntity
  8
0
 62
7
420
16777215
370
15
 48
1.0
  6
Continuous
100
AcDbCircle
 10
15.015985923593892
 20
81.554142743016854
 30
0.0
 40
2.5000000000000151
100
AcDbArc
 50
180.00049374880001
 51
270.0
  0
LINE
  5
186
100
AcDbEntity
100
AcDbLine
  8
0
 62
7
420
16777215
370
15
 48
1.0
  6
Continuous
 10
15.015987943493894
 20
79.054141534816864
 30
0.0
 11
30.016363478593895
 21
79.054142851916851
 31
0.0
  0
ARC
  5
187
100
AcDbEntity
  8
0
 62
7
420
16777215
370
15
 48
1.0
  6
Continuous
100
AcDbCircle
 10
30.016364518393893
 20
81.554142743016854
 30
0.0
 40
2.5
100
AcDbArc
 50
270.0
 51
360.0
  0
LINE
  5
188
100
AcDbEntity
100
AcDbLine
  8
0
 62
7
420
16777215
370
15
 48
1.0
  6
Continuous
 10
32.516364384193892
 20
81.554143757416824
 30
0.0
 11
32.516365701293893
 21
86.554052055116841
 31
0.0
  0
ARC
  5
189
100
AcDbEntity
  8
0
 62
7
420
16777215
370
15
 48
1.0
  6
Continuous
100
AcDbCircle
 10
30.016364518393893
 20
86.554053361416862
 30
0.0
 40
2.500000000000004
100
AcDbArc
 50
360.0
 51
89.999604015200006
  0
LINE
  5
18A
100
AcDbEntity
100
AcDbLine
  8
0
 62
7
420
16777215
370
15
 48
1.0
  6
Continuous
 10
15.015958967593892
 20
89.05415832781685
 30
0.0
 11
30.016381917893888
 21
89.054054277716858
 31
0.0
  0
ARC
  5
18B
100
AcDbEntity
  8
0
 62
7
420
16777215
370
15
 48
1.0
  6
Continuous
100
AcDbCircle
 10
15.015942835693892
 20
86.554157032916834
 30
0.0
 40
2.5000000000000151
100
AcDbArc
 50
89.999604015200006
 51
180.00049374880001
  0
LINE
  5
18C
100
AcDbEntity
100
AcDbLine
  8
0
 62
7
420
16777215
370
15
 48
1.0
  6
Continuous
 10
12.515944891193893
 20
86.554133714716869
 30
0.0
 11
12.515984403793894
 21
81.554124001116833
 31
0.0
  0
ARC
  5
18D
100
AcDbEntity
  8
0
 62
7
420
16777215
370
15
 48
1.0
  6
Continuous
100
AcDbCircle
 10
57.516364518393893
 20
46.059161160716855
 30
0.0
 40
5.0000000000000107
100
AcDbArc
 50
270.0
 51
315.0
  0
LINE
  5
18E
100
AcDbEntity
100
AcDbLine
  8
0
 62
7
420
16777215
370
15
 48
1.0
  6
Continuous
 10
42.516364054993893
 20
58.054142357816858
 30
0.0
 11
42.516364054993893
 21
46.059159808316849
 31
0.0
  0
LINE
  5
18F
100
AcDbEntity
100
AcDbLine
  8
0
 62
7
420
16777215
370
15
 48
1.0
  6
Continuous
 10
80.874274763593888
 20
83.011014772116852
 30
0.0
 11
87.189013269593886
 21
83.011014772116852
 31
0.0
  0
LINE
  5
190
100
AcDbEntity
100
AcDbLine
  8
0
 62
7
420
16777215
370
15
 48
1.0
  6
Continuous
 10
87.189013269593886
 20
40.097266157016861
 30
0.0
 11
80.874274763593888
 21
40.097266157016861
 31
0.0
  0
DIMENSION
  5
191
100
AcDbEntity
  8
0
 62
256
370
-1
 48
1.0
  6
ByLayer
100
AcDbDimension
 10
207.19144778546348
 20
72.602418868837262
 30
0.0
 11
157.34124812611336
 21
127.58739488572861
 31
0.0
 70
1
 71
8
 72
2
 41
1.0
 42
0.0
  1

  3
Standard
100
AcDbAlignedDimension
 13
148.68663596462622
 23
14.658094316484549
 33
0.0
 14
44.333869792213271
 24
120.02025005936248
 34
0.0
1001
ACAD
1000
DSTYLE
1002
{
1070
144
1040
1
1002
}
  0
POINT
  5
192
100
AcDbEntity
100
AcDbPoint
  8
0
 62
256
370
-1
 48
1.0
  6
ByLayer
 10
90.689013351943899
 20
93.102716107116834
 30
0.0
  0
ENDSEC
  0
SECTION
  2
OBJECTS
  0
DICTIONARY
  5
C
100
AcDbDictionary
280
0
281
1
  3
ACAD_GROUP
350
D
  3
ACAD_LAYOUT
350
1A
  3
ACAD_MLINESTYLE
350
17
  3
ACAD_PLOTSETTINGS
350
19
  3
ACAD_PLOTSTYLENAME
350
E
  3
AcDbVariableDictionary
350
193
  3
QCAD_OBJECTS
350
194
  0
DICTIONARY
  5
D
100
AcDbDictionary
280
0
281
1
  0
ACDBDICTIONARYWDFLT
  5
E
100
AcDbDictionary
281
1
  3
Normal
350
F
100
AcDbDictionaryWithDefault
340
F
  0
ACDBPLACEHOLDER
  5
F
  0
DICTIONARY
  5
17
100
AcDbDictionary
280
0
281
1
  3
Standard
350
18
  0
MLINESTYLE
  5
18
100
AcDbMlineStyle
  2
STANDARD
 70
0
  3

 62
256
 51
90.0
 52
90.0
 71
2
 49
0.5
 62
256
  6
BYLAYER
 49
-0.5
 62
256
  6
BYLAYER
  0
DICTIONARY
  5
19
100
AcDbDictionary
280
0
281
1
  0
DICTIONARY
  5
1A
100
AcDbDictionary
281
1
  3
Layout1
350
1E
  3
Layout2
350
26
  3
Model
350
22
  0
LAYOUT
  5
1E
100
AcDbPlotSettings
  1

  2
none_device
  4

  6

 40
0.0
 41
0.0
 42
0.0
 43
0.0
 44
0.0
 45
0.0
 46
0.0
 47
0.0
 48
0.0
 49
0.0
140
0.0
141
0.0
142
1.0
143
1.0
 70
688
 72
0
 73
0
 74
5
  7

 75
16
147
1.0
148
0.0
149
0.0
100
AcDbLayout
  1
Layout1
 70
1
 71
1
 10
0.0
 20
0.0
 11
420.0
 21
297.0
 12
0.0
 22
0.0
 32
0.0
 14
100000000000000000000.0
 24
100000000000000000000.0
 34
100000000000000000000.0
 15
-100000000000000000000.0
 25
-100000000000000000000.0
 35
-100000000000000000000.0
146
0.0
 13
0.0
 23
0.0
 33
0.0
 16
1.0
 26
0.0
 36
0.0
 17
0.0
 27
1.0
 37
0.0
 76
0
330
1B
  0
LAYOUT
  5
22
100
AcDbPlotSettings
  1

  2
none_device
  4

  6

 40
0.0
 41
0.0
 42
0.0
 43
0.0
 44
0.0
 45
0.0
 46
0.0
 47
0.0
 48
0.0
 49
0.0
140
0.0
141
0.0
142
1.0
143
1.0
 70
1712
 72
0
 73
0
 74
0
  7

 75
0
147
1.0
148
0.0
149
0.0
100
AcDbLayout
  1
Model
 70
1
 71
0
 10
0.0
 20
0.0
 11
12.0
 21
9.0
 12
0.0
 22
0.0
 32
0.0
 14
0.0
 24
0.0
 34
0.0
 15
0.0
 25
0.0
 35
0.0
146
0.0
 13
0.0
 23
0.0
 33
0.0
 16
1.0
 26
0.0
 36
0.0
 17
0.0
 27
1.0
 37
0.0
 76
0
330
1F
  0
LAYOUT
  5
26
100
AcDbPlotSettings
  1

  2
none_device
  4

  6

 40
0.0
 41
0.0
 42
0.0
 43
0.0
 44
0.0
 45
0.0
 46
0.0
 47
0.0
 48
0.0
 49
0.0
140
0.0
141
0.0
142
1.0
143
1.0
 70
688
 72
0
 73
0
 74
5
  7

 75
16
147
1.0
148
0.0
149
0.0
100
AcDbLayout
  1
Layout2
 70
1
 71
2
 10
0.0
 20
0.0
 11
12.0
 21
9.0
 12
0.0
 22
0.0
 32
0.0
 14
0.0
 24
0.0
 34
0.0
 15
0.0
 25
0.0
 35
0.0
146
0.0
 13
0.0
 23
0.0
 33
0.0
 16
1.0
 26
0.0
 36
0.0
 17
0.0
 27
1.0
 37
0.0
 76
0
330
23
  0
DICTIONARY
  5
193
100
AcDbDictionary
281
1
  3
DIMASSOC
350
196
  3
HIDETEXT
350
195
  0
DICTIONARYVAR
  5
195
100
DictionaryVariables
280
0
  1
2
  0
DICTIONARYVAR
  5
196
100
DictionaryVariables
280
0
  1
1
  0
DICTIONARY
  5
194
100
AcDbDictionary
281
1
  3
Grid/DisplayGrid00
350
197
  3
Grid/DisplayGrid01
350
198
  3
Grid/DisplayGrid02
350
199
  3
Grid/DisplayGrid03
350
19A
  3
Grid/GridSpacingX00
350
19B
  3
Grid/GridSpacingX01
350
19C
  3
Grid/GridSpacingX02
350
19D
  3
Grid/GridSpacingX03
350
19E
  3
Grid/GridSpacingY00
350
19F
  3
Grid/GridSpacingY01
350
1A0
  3
Grid/GridSpacingY02
350
1A1
  3
Grid/GridSpacingY03
350
1A2
  3
Grid/IsometricGrid00
350
1A3
  3
Grid/IsometricGrid01
350
1A4
  3
Grid/IsometricGrid02
350
1A5
  3
Grid/IsometricGrid03
350
1A6
  3
Grid/IsometricProjection00
350
1A7
  3
Grid/IsometricProjection01
350
1A8
  3
Grid/IsometricProjection02
350
1A9
  3
Grid/IsometricProjection03
350
1AA
  3
Grid/MetaGridSpacingX00
350
1AB
  3
Grid/MetaGridSpacingX01
350
1AC
  3
Grid/MetaGridSpacingX02
350
1AD
  3
Grid/MetaGridSpacingX03
350
1AE
  3
Grid/MetaGridSpacingY00
350
1AF
  3
Grid/MetaGridSpacingY01
350
1B0
  3
Grid/MetaGridSpacingY02
350
1B1
  3
Grid/MetaGridSpacingY03
350
1B2
  3
MultiPageSettings/Columns
350
1B3
  3
MultiPageSettings/GlueMarginsBottom
350
1B4
  3
MultiPageSettings/GlueMarginsLeft
350
1B5
  3
MultiPageSettings/GlueMarginsRight
350
1B6
  3
MultiPageSettings/GlueMarginsTop
350
1B7
  3
MultiPageSettings/PrintCropMarks
350
1B8
  3
MultiPageSettings/Rows
350
1B9
  3
PageSettings/OffsetX
350
1BA
  3
PageSettings/OffsetY
350
1BB
  3
PageSettings/PageOrientation
350
1BC
  3
PageSettings/PaperHeight
350
1BD
  3
PageSettings/PaperWidth
350
1BE
  3
PageSettings/Scale
350
1BF
  3
PageSettings/ShowPaperBorders
350
1C0
  3
UnitSettings/PaperUnit
350
1C1
  0
XRECORD
  5
197
330
194
100
AcDbXrecord
280
1
290
1
  0
XRECORD
  5
198
330
194
100
AcDbXrecord
280
1
290
1
  0
XRECORD
  5
199
330
194
100
AcDbXrecord
280
1
290
1
  0
XRECORD
  5
19A
330
194
100
AcDbXrecord
280
1
290
1
  0
XRECORD
  5
19B
330
194
100
AcDbXrecord
280
1
1000
auto
  0
XRECORD
  5
19C
330
194
100
AcDbXrecord
280
1
1000
auto
  0
XRECORD
  5
19D
330
194
100
AcDbXrecord
280
1
1000
auto
  0
XRECORD
  5
19E
330
194
100
AcDbXrecord
280
1
1000
auto
  0
XRECORD
  5
19F
330
194
100
AcDbXrecord
280
1
1000
auto
  0
XRECORD
  5
1A0
330
194
100
AcDbXrecord
280
1
1000
auto
  0
XRECORD
  5
1A1
330
194
100
AcDbXrecord
280
1
1000
auto
  0
XRECORD
  5
1A2
330
194
100
AcDbXrecord
280
1
1000
auto
  0
XRECORD
  5
1A3
330
194
100
AcDbXrecord
280
1
290
0
  0
XRECORD
  5
1A4
330
194
100
AcDbXrecord
280
1
290
0
  0
XRECORD
  5
1A5
330
194
100
AcDbXrecord
280
1
290
0
  0
XRECORD
  5
1A6
330
194
100
AcDbXrecord
280
1
290
0
  0
XRECORD
  5
1A7
330
194
100
AcDbXrecord
280
1
 90
0
  0
XRECORD
  5
1A8
330
194
100
AcDbXrecord
280
1
 90
0
  0
XRECORD
  5
1A9
330
194
100
AcDbXrecord
280
1
 90
0
  0
XRECORD
  5
1AA
330
194
100
AcDbXrecord
280
1
 90
0
  0
XRECORD
  5
1AB
330
194
100
AcDbXrecord
280
1
1000
auto
  0
XRECORD
  5
1AC
330
194
100
AcDbXrecord
280
1
1000
auto
  0
XRECORD
  5
1AD
330
194
100
AcDbXrecord
280
1
1000
auto
  0
XRECORD
  5
1AE
330
194
100
AcDbXrecord
280
1
1000
auto
  0
XRECORD
  5
1AF
330
194
100
AcDbXrecord
280
1
1000
auto
  0
XRECORD
  5
1B0
330
194
100
AcDbXrecord
280
1
1000
auto
  0
XRECORD
  5
1B1
330
194
100
AcDbXrecord
280
1
1000
auto
  0
XRECORD
  5
1B2
330
194
100
AcDbXrecord
280
1
1000
auto
  0
XRECORD
  5
1B3
330
194
100
AcDbXrecord
280
1
 90
1
  0
XRECORD
  5
1B4
330
194
100
AcDbXrecord
280
1
 40
10.0
  0
XRECORD
  5
1B5
330
194
100
AcDbXrecord
280
1
 40
10.0
  0
XRECORD
  5
1B6
330
194
100
AcDbXrecord
280
1
 40
10.0
  0
XRECORD
  5
1B7
330
194
100
AcDbXrecord
280
1
 40
10.0
  0
XRECORD
  5
1B8
330
194
100
AcDbXrecord
280
1
290
0
  0
XRECORD
  5
1B9
330
194
100
AcDbXrecord
280
1
 90
1
  0
XRECORD
  5
1BA
330
194
100
AcDbXrecord
280
1
 40
0.0
  0
XRECORD
  5
1BB
330
194
100
AcDbXrecord
280
1
 40
0.0
  0
XRECORD
  5
1BC
330
194
100
AcDbXrecord
280
1
1000
Portrait
  0
XRECORD
  5
1BD
330
194
100
AcDbXrecord
280
1
 40
297.0
  0
XRECORD
  5
1BE
330
194
100
AcDbXrecord
280
1
 40
210.0
  0
XRECORD
  5
1BF
330
194
100
AcDbXrecord
280
1
1000
1:1
  0
XRECORD
  5
1C0
330
194
100
AcDbXrecord
280
1
290
1
  0
XRECORD
  5
1C1
330
194
100
AcDbXrecord
280
1
 90
4
  0
ENDSEC
  0
EOF
