999
dxflib 3.7.5.0
  0
SECTION
  2
HEADER
  9
$ACADVER
  1
AC1015
  9
$HANDSEED
  5
FFFF
  9
$DIMADEC
 70
0
  9
$DIMASZ
 40
2.5
  9
$DIMAUNIT
 70
0
  9
$DIMAZIN
 70
2
  9
$DIMDEC
 70
4
  9
$DIMEXE
 40
1.25
  9
$DIMEXO
 40
0.625
  9
$DIMGAP
 40
0.625
  9
$DIMLUNIT
 70
2
  9
$DIMSCALE
 40
1.0
  9
$DIMTSZ
 40
0.0
  9
$DIMTXT
 40
2.5
  9
$DIMZIN
 70
8
  9
$DWGCODEPAGE
  3
ANSI_1252
  9
$INSUNITS
 70
4
  0
ENDSEC
  0
SECTION
  2
TABLES
  0
TABLE
  2
VPORT
  5
8
100
AcDbSymbolTable
 70
1
  0
VPORT
  5
30
100
AcDbSymbolTableRecord
100
AcDbViewportTableRecord
  2
*Active
 70
0
 10
0.0
 20
0.0
 11
1.0
 21
1.0
 12
286.30555555555549
 22
148.5
 13
0.0
 23
0.0
 14
10.0
 24
10.0
 15
10.0
 25
10.0
 16
0.0
 26
0.0
 36
1.0
 17
0.0
 27
0.0
 37
0.0
 40
297.0
 41
1.92798353909465
 42
50.0
 43
0.0
 44
0.0
 50
0.0
 51
0.0
 71
0
 72
100
 73
1
 74
3
 75
1
 76
1
 77
0
 78
0
281
0
 65
1
110
0.0
120
0.0
130
0.0
111
1.0
121
0.0
131
0.0
112
0.0
122
1.0
132
0.0
 79
0
146
0.0
  0
ENDTAB
  0
TABLE
  2
LTYPE
  5
5
100
AcDbSymbolTable
 70
41
  0
LTYPE
  5
16
100
AcDbSymbolTableRecord
100
AcDbLinetypeTableRecord
  2
Continuous
 70
0
  3
Solid line
 72
65
 73
0
 40
0.0
  0
LTYPE
  5
31
100
AcDbSymbolTableRecord
100
AcDbLinetypeTableRecord
  2
ACAD_ISO15W100
 70
0
  3
ISO double-dash triple-dot __ __ . . . __ __ . .
 72
65
 73
10
 40
39.0
 49
12.0
 74
0
 49
-3.0
 74
0
 49
12.0
 74
0
 49
-3.0
 74
0
 49
0.0
 74
0
 49
-3.0
 74
0
 49
0.0
 74
0
 49
-3.0
 74
0
 49
0.0
 74
0
 49
-3.0
 74
0
  0
LTYPE
  5
32
100
AcDbSymbolTableRecord
100
AcDbLinetypeTableRecord
  2
DIVIDE
 70
0
  3
Divide ____ . . ____ . . ____ . . ____ . . ____
 72
65
 73
6
 40
31.75
 49
12.699999999999999
 74
0
 49
-6.3499999999999996
 74
0
 49
0.0
 74
0
 49
-6.3499999999999996
 74
0
 49
0.0
 74
0
 49
-6.3499999999999996
 74
0
  0
LTYPE
  5
33
100
AcDbSymbolTableRecord
100
AcDbLinetypeTableRecord
  2
ACAD_ISO10W100
 70
0
  3
ISO dash dot __ . __ . __ . __ . __ . __ . __ . 
 72
65
 73
4
 40
18.0
 49
12.0
 74
0
 49
-3.0
 74
0
 49
0.0
 74
0
 49
-3.0
 74
0
  0
LTYPE
  5
34
100
AcDbSymbolTableRecord
100
AcDbLinetypeTableRecord
  2
ACAD_ISO04W100
 70
0
  3
ISO long-dash dot ____ . ____ . ____ . ____ . _
 72
65
 73
4
 40
30.0
 49
24.0
 74
0
 49
-3.0
 74
0
 49
0.0
 74
0
 49
-3.0
 74
0
  0
LTYPE
  5
35
100
AcDbSymbolTableRecord
100
AcDbLinetypeTableRecord
  2
CENTER2
 70
0
  3
Center (.5x) ___ _ ___ _ ___ _ ___ _ ___ _ ___
 72
65
 73
4
 40
28.575000000000003
 49
19.050000000000001
 74
0
 49
-3.1749999999999998
 74
0
 49
3.1749999999999998
 74
0
 49
-3.1749999999999998
 74
0
  0
LTYPE
  5
36
100
AcDbSymbolTableRecord
100
AcDbLinetypeTableRecord
  2
ACAD_ISO11W100
 70
0
  3
ISO double-dash dot __ __ . __ __ . __ __ . __ _
 72
65
 73
6
 40
33.0
 49
12.0
 74
0
 49
-3.0
 74
0
 49
12.0
 74
0
 49
-3.0
 74
0
 49
0.0
 74
0
 49
-3.0
 74
0
  0
LTYPE
  5
37
100
AcDbSymbolTableRecord
100
AcDbLinetypeTableRecord
  2
HIDDEN2
 70
0
  3
Hidden (.5x) _ _ _ _ _ _ _ _ _ _ _ _ _ _ _ _ _ 
 72
65
 73
2
 40
4.7624999999999993
 49
3.1749999999999998
 74
0
 49
-1.5874999999999999
 74
0
  0
LTYPE
  5
38
100
AcDbSymbolTableRecord
100
AcDbLinetypeTableRecord
  2
BORDERX2
 70
0
  3
Border (2x) ____  ____  .  ____  ____  .  ___
 72
65
 73
6
 40
88.899999999999991
 49
25.399999999999999
 74
0
 49
-12.699999999999999
 74
0
 49
25.399999999999999
 74
0
 49
-12.699999999999999
 74
0
 49
0.0
 74
0
 49
-12.699999999999999
 74
0
  0
LTYPE
  5
39
100
AcDbSymbolTableRecord
100
AcDbLinetypeTableRecord
  2
ACAD_ISO05W100
 70
0
  3
ISO long-dash double-dot ____ .. ____ .. ____ . 
 72
65
 73
6
 40
33.0
 49
24.0
 74
0
 49
-3.0
 74
0
 49
0.0
 74
0
 49
-3.0
 74
0
 49
0.0
 74
0
 49
-3.0
 74
0
  0
LTYPE
  5
3A
100
AcDbSymbolTableRecord
100
AcDbLinetypeTableRecord
  2
DASHDOTX2
 70
0
  3
Dash dot (2x) ____  .  ____  .  ____  .  ___
 72
65
 73
4
 40
50.799999999999997
 49
25.399999999999999
 74
0
 49
-12.699999999999999
 74
0
 49
0.0
 74
0
 49
-12.699999999999999
 74
0
  0
LTYPE
  5
3B
100
AcDbSymbolTableRecord
100
AcDbLinetypeTableRecord
  2
HIDDENX2
 70
0
  3
Hidden (2x) ____ ____ ____ ____ ____ ____ ____ 
 72
65
 73
2
 40
19.049999999999997
 49
12.699999999999999
 74
0
 49
-6.3499999999999996
 74
0
  0
LTYPE
  5
3C
100
AcDbSymbolTableRecord
100
AcDbLinetypeTableRecord
  2
CENTERX2
 70
0
  3
Center (2x) ________  __  ________  __  _____
 72
65
 73
4
 40
101.60000000000001
 49
63.5
 74
0
 49
-12.699999999999999
 74
0
 49
12.699999999999999
 74
0
 49
-12.699999999999999
 74
0
  0
LTYPE
  5
3D
100
AcDbSymbolTableRecord
100
AcDbLinetypeTableRecord
  2
BORDER2
 70
0
  3
Border (.5x) __.__.__.__.__.__.__.__.__.__.__.
 72
65
 73
6
 40
22.224999999999998
 49
6.3499999999999996
 74
0
 49
-3.1749999999999998
 74
0
 49
6.3499999999999996
 74
0
 49
-3.1749999999999998
 74
0
 49
0.0
 74
0
 49
-3.1749999999999998
 74
0
  0
LTYPE
  5
3E
100
AcDbSymbolTableRecord
100
AcDbLinetypeTableRecord
  2
DASHDOT2
 70
0
  3
Dash dot (.5x) _._._._._._._._._._._._._._._.
 72
65
 73
4
 40
12.699999999999999
 49
6.3499999999999996
 74
0
 49
-3.1749999999999998
 74
0
 49
0.0
 74
0
 49
-3.1749999999999998
 74
0
  0
LTYPE
  5
3F
100
AcDbSymbolTableRecord
100
AcDbLinetypeTableRecord
  2
ACAD_ISO12W100
 70
0
  3
ISO dash double-dot __ . . __ . . __ . . __ . . 
 72
65
 73
6
 40
21.0
 49
12.0
 74
0
 49
-3.0
 74
0
 49
0.0
 74
0
 49
-3.0
 74
0
 49
0.0
 74
0
 49
-3.0
 74
0
  0
LTYPE
  5
40
100
AcDbSymbolTableRecord
100
AcDbLinetypeTableRecord
  2
ACAD_ISO07W100
 70
0
  3
ISO dot . . . . . . . . . . . . . . . . . . . . 
 72
65
 73
2
 40
3.0
 49
0.0
 74
0
 49
-3.0
 74
0
  0
LTYPE
  5
41
100
AcDbSymbolTableRecord
100
AcDbLinetypeTableRecord
  2
HIDDEN
 70
0
  3
Hidden __ __ __ __ __ __ __ __ __ __ __ __ __ __
 72
65
 73
2
 40
9.5249999999999986
 49
6.3499999999999996
 74
0
 49
-3.1749999999999998
 74
0
  0
LTYPE
  5
42
100
AcDbSymbolTableRecord
100
AcDbLinetypeTableRecord
  2
ACAD_ISO06W100
 70
0
  3
ISO long-dash triple-dot ____ ... ____ ... ____
 72
65
 73
8
 40
36.0
 49
24.0
 74
0
 49
-3.0
 74
0
 49
0.0
 74
0
 49
-3.0
 74
0
 49
0.0
 74
0
 49
-3.0
 74
0
 49
0.0
 74
0
 49
-3.0
 74
0
  0
LTYPE
  5
43
100
AcDbSymbolTableRecord
100
AcDbLinetypeTableRecord
  2
CENTER
 70
0
  3
Center ____ _ ____ _ ____ _ ____ _ ____ _ ____
 72
65
 73
4
 40
50.800000000000004
 49
31.75
 74
0
 49
-6.3499999999999996
 74
0
 49
6.3499999999999996
 74
0
 49
-6.3499999999999996
 74
0
  0
LTYPE
  5
44
100
AcDbSymbolTableRecord
100
AcDbLinetypeTableRecord
  2
DOTX2
 70
0
  3
Dot (2x) .  .  .  .  .  .  .  .  .  .  .  .  .  .
 72
65
 73
2
 40
12.699999999999999
 49
0.0
 74
0
 49
-12.699999999999999
 74
0
  0
LTYPE
  5
45
100
AcDbSymbolTableRecord
100
AcDbLinetypeTableRecord
  2
PHANTOM
 70
0
  3
Phantom ______  __  __  ______  __  __  ______ 
 72
65
 73
6
 40
63.500000000000007
 49
31.75
 74
0
 49
-6.3499999999999996
 74
0
 49
6.3499999999999996
 74
0
 49
-6.3499999999999996
 74
0
 49
6.3499999999999996
 74
0
 49
-6.3499999999999996
 74
0
  0
LTYPE
  5
46
100
AcDbSymbolTableRecord
100
AcDbLinetypeTableRecord
  2
ACAD_ISO08W100
 70
0
  3
ISO long-dash short-dash ____ __ ____ __ ____ _
 72
65
 73
4
 40
36.0
 49
24.0
 74
0
 49
-3.0
 74
0
 49
6.0
 74
0
 49
-3.0
 74
0
  0
LTYPE
  5
47
100
AcDbSymbolTableRecord
100
AcDbLinetypeTableRecord
  2
DASHEDX2
 70
0
  3
Dashed (2x) ____  ____  ____  ____  ____  ___
 72
65
 73
2
 40
38.099999999999994
 49
25.399999999999999
 74
0
 49
-12.699999999999999
 74
0
  0
LTYPE
  5
48
100
AcDbSymbolTableRecord
100
AcDbLinetypeTableRecord
  2
ACAD_ISO02W100
 70
0
  3
ISO dash __ __ __ __ __ __ __ __ __ __ __ __ __
 72
65
 73
2
 40
15.0
 49
12.0
 74
0
 49
-3.0
 74
0
  0
LTYPE
  5
49
100
AcDbSymbolTableRecord
100
AcDbLinetypeTableRecord
  2
PHANTOM2
 70
0
  3
Phantom (.5x) ___ _ _ ___ _ _ ___ _ _ ___ _ _
 72
65
 73
6
 40
31.750000000000004
 49
15.875
 74
0
 49
-3.1749999999999998
 74
0
 49
3.1749999999999998
 74
0
 49
-3.1749999999999998
 74
0
 49
3.1749999999999998
 74
0
 49
-3.1749999999999998
 74
0
  0
LTYPE
  5
4A
100
AcDbSymbolTableRecord
100
AcDbLinetypeTableRecord
  2
DASHED2
 70
0
  3
Dashed (.5x) _ _ _ _ _ _ _ _ _ _ _ _ _ _ _ _ _ 
 72
65
 73
2
 40
9.5249999999999986
 49
6.3499999999999996
 74
0
 49
-3.1749999999999998
 74
0
  0
LTYPE
  5
4B
100
AcDbSymbolTableRecord
100
AcDbLinetypeTableRecord
  2
ACAD_ISO09W100
 70
0
  3
ISO long-dash double-short-dash ____ __ __ ____
 72
65
 73
6
 40
45.0
 49
24.0
 74
0
 49
-3.0
 74
0
 49
6.0
 74
0
 49
-3.0
 74
0
 49
6.0
 74
0
 49
-3.0
 74
0
  0
LTYPE
  5
4C
100
AcDbSymbolTableRecord
100
AcDbLinetypeTableRecord
  2
ACAD_ISO13W100
 70
0
  3
ISO double-dash double-dot __ __ . . __ __ . . _
 72
65
 73
8
 40
36.0
 49
12.0
 74
0
 49
-3.0
 74
0
 49
12.0
 74
0
 49
-3.0
 74
0
 49
0.0
 74
0
 49
-3.0
 74
0
 49
0.0
 74
0
 49
-3.0
 74
0
  0
LTYPE
  5
4D
100
AcDbSymbolTableRecord
100
AcDbLinetypeTableRecord
  2
DOT2
 70
0
  3
Dot (.5x) ........................................
 72
65
 73
2
 40
3.1749999999999998
 49
0.0
 74
0
 49
-3.1749999999999998
 74
0
  0
LTYPE
  5
4E
100
AcDbSymbolTableRecord
100
AcDbLinetypeTableRecord
  2
DASHED
 70
0
  3
Dashed __ __ __ __ __ __ __ __ __ __ __ __ __ _
 72
65
 73
2
 40
19.049999999999997
 49
12.699999999999999
 74
0
 49
-6.3499999999999996
 74
0
  0
LTYPE
  5
4F
100
AcDbSymbolTableRecord
100
AcDbLinetypeTableRecord
  2
ACAD_ISO14W100
 70
0
  3
ISO dash triple-dot __ . . . __ . . . __ . . . _
 72
65
 73
8
 40
24.0
 49
12.0
 74
0
 49
-3.0
 74
0
 49
0.0
 74
0
 49
-3.0
 74
0
 49
0.0
 74
0
 49
-3.0
 74
0
 49
0.0
 74
0
 49
-3.0
 74
0
  0
LTYPE
  5
15
100
AcDbSymbolTableRecord
100
AcDbLinetypeTableRecord
  2
BYLAYER
 70
0
  3

 72
65
 73
0
 40
0.0
  0
LTYPE
  5
50
100
AcDbSymbolTableRecord
100
AcDbLinetypeTableRecord
  2
PHANTOMX2
 70
0
  3
Phantom (2x) ____________    ____    ____   _
 72
65
 73
6
 40
127.00000000000001
 49
63.5
 74
0
 49
-12.699999999999999
 74
0
 49
12.699999999999999
 74
0
 49
-12.699999999999999
 74
0
 49
12.699999999999999
 74
0
 49
-12.699999999999999
 74
0
  0
LTYPE
  5
14
100
AcDbSymbolTableRecord
100
AcDbLinetypeTableRecord
  2
BYBLOCK
 70
0
  3

 72
65
 73
0
 40
0.0
  0
LTYPE
  5
51
100
AcDbSymbolTableRecord
100
AcDbLinetypeTableRecord
  2
DIVIDEX2
 70
0
  3
Divide (2x) ________  .  .  ________  .  .  _
 72
65
 73
6
 40
63.5
 49
25.399999999999999
 74
0
 49
-12.699999999999999
 74
0
 49
0.0
 74
0
 49
-12.699999999999999
 74
0
 49
0.0
 74
0
 49
-12.699999999999999
 74
0
  0
LTYPE
  5
52
100
AcDbSymbolTableRecord
100
AcDbLinetypeTableRecord
  2
BORDER
 70
0
  3
Border __ __ . __ __ . __ __ . __ __ . __ __ .
 72
65
 73
6
 40
44.449999999999996
 49
12.699999999999999
 74
0
 49
-6.3499999999999996
 74
0
 49
12.699999999999999
 74
0
 49
-6.3499999999999996
 74
0
 49
0.0
 74
0
 49
-6.3499999999999996
 74
0
  0
LTYPE
  5
53
100
AcDbSymbolTableRecord
100
AcDbLinetypeTableRecord
  2
DIVIDE2
 70
0
  3
Divide (.5x) __..__..__..__..__..__..__..__.._
 72
65
 73
6
 40
15.875
 49
6.3499999999999996
 74
0
 49
-3.1749999999999998
 74
0
 49
0.0
 74
0
 49
-3.1749999999999998
 74
0
 49
0.0
 74
0
 49
-3.1749999999999998
 74
0
  0
LTYPE
  5
54
100
AcDbSymbolTableRecord
100
AcDbLinetypeTableRecord
  2
DOT
 70
0
  3
Dot . . . . . . . . . . . . . . . . . . . . . . . .
 72
65
 73
2
 40
6.3499999999999996
 49
0.0
 74
0
 49
-6.3499999999999996
 74
0
  0
LTYPE
  5
55
100
AcDbSymbolTableRecord
100
AcDbLinetypeTableRecord
  2
DASHDOT
 70
0
  3
Dash dot __ . __ . __ . __ . __ . __ . __ . __
 72
65
 73
4
 40
25.399999999999999
 49
12.699999999999999
 74
0
 49
-6.3499999999999996
 74
0
 49
0.0
 74
0
 49
-6.3499999999999996
 74
0
  0
LTYPE
  5
56
100
AcDbSymbolTableRecord
100
AcDbLinetypeTableRecord
  2
ACAD_ISO03W100
 70
0
  3
ISO dash space __    __    __    __    __    __
 72
65
 73
2
 40
30.0
 49
12.0
 74
0
 49
-18.0
 74
0
  0
ENDTAB
  0
TABLE
  2
LAYER
  5
2
100
AcDbSymbolTable
 70
2
  0
LAYER
  5
57
100
AcDbSymbolTableRecord
100
AcDbLayerTableRecord
  2
Measures
 70
0
 62
5
420
255
  6
Continuous
370
25
390
F
  0
LAYER
  5
10
100
AcDbSymbolTableRecord
100
AcDbLayerTableRecord
  2
0
 70
0
 62
7
420
16777215
  6
Continuous
370
25
390
F
  0
ENDTAB
  0
TABLE
  2
STYLE
  5
3
100
AcDbSymbolTable
 70
1
  0
STYLE
  5
58
100
AcDbSymbolTableRecord
100
AcDbTextStyleTableRecord
  2
Standard
 70
0
 40
0.0
 41
1.0
 50
0.0
 71
0
 42
2.5
  3

  4

1001
ACAD
1000
txt
1071
0
  0
ENDTAB
  0
TABLE
  2
VIEW
  5
6
100
AcDbSymbolTable
 70
0
  0
ENDTAB
  0
TABLE
  2
UCS
  5
7
100
AcDbSymbolTable
 70
0
  0
ENDTAB
  0
TABLE
  2
APPID
  5
9
100
AcDbSymbolTable
 70
1
  0
APPID
  5
12
100
AcDbSymbolTableRecord
100
AcDbRegAppTableRecord
  2
ACAD
 70
0
  0
APPID
  5
59
100
AcDbSymbolTableRecord
100
AcDbRegAppTableRecord
  2
QCAD
 70
0
  0
ENDTAB
  0
TABLE
  2
DIMSTYLE
  5
A
100
AcDbSymbolTable
 70
1
100
AcDbDimStyleTable
 71
0
  0
DIMSTYLE
105
27
100
AcDbSymbolTableRecord
100
AcDbDimStyleTableRecord
  2
Standard
 41
2.5
 42
0.625
 43
3.75
 44
1.25
 70
0
 73
0
 74
0
 77
1
 78
8
140
2.5
141
2.5
143
0.03937007874016
147
0.625
171
3
172
1
271
2
272
2
274
3
278
44
283
0
284
8
340
58
  0
ENDTAB
  0
TABLE
  2
BLOCK_RECORD
  5
1
100
AcDbSymbolTable
 70
1
  0
BLOCK_RECORD
  5
1F
100
AcDbSymbolTableRecord
100
AcDbBlockTableRecord
  2
*Model_Space
340
22
  0
BLOCK_RECORD
  5
1B
100
AcDbSymbolTableRecord
100
AcDbBlockTableRecord
  2
*Paper_Space
340
1E
  0
BLOCK_RECORD
  5
23
100
AcDbSymbolTableRecord
100
AcDbBlockTableRecord
  2
*Paper_Space0
340
26
  0
ENDTAB
  0
ENDSEC
  0
SECTION
  2
BLOCKS
  0
BLOCK
  5
20
100
AcDbEntity
  8
0
100
AcDbBlockBegin
  2
*Model_Space
 70
0
 10
0.0
 20
0.0
 30
0.0
  3
*Model_Space
  1

  0
ENDBLK
  5
21
100
AcDbEntity
  8
0
100
AcDbBlockEnd
  0
BLOCK
  5
1C
100
AcDbEntity
 67
1
  8
0
100
AcDbBlockBegin
  2
*Paper_Space
 70
0
 10
0.0
 20
0.0
 30
0.0
  3
*Paper_Space
  1

  0
ENDBLK
  5
1D
100
AcDbEntity
 67
1
  8
0
100
AcDbBlockEnd
  0
BLOCK
  5
24
100
AcDbEntity
  8
0
100
AcDbBlockBegin
  2
*Paper_Space0
 70
0
 10
0.0
 20
0.0
 30
0.0
  3
*Paper_Space0
  1

  0
ENDBLK
  5
25
100
AcDbEntity
  8
0
100
AcDbBlockEnd
  0
ENDSEC
  0
SECTION
  2
ENTITIES
  0
LINE
  5
5A
100
AcDbEntity
100
AcDbLine
  8
0
 62
256
370
-1
 48
1.0
  6
BYLAYER
 10
1.#QNAN
 20
1.#QNAN
 30
0.0
 11
1.#QNAN
 21
1.#QNAN
 31
0.0
  0
LINE
  5
5B
100
AcDbEntity
100
AcDbLine
  8
0
 62
256
370
-1
 48
1.0
  6
BYLAYER
 10
1.#QNAN
 20
1.#QNAN
 30
0.0
 11
1.#QNAN
 21
1.#QNAN
 31
0.0
  0
LINE
  5
5C
100
AcDbEntity
100
AcDbLine
  8
0
 62
256
370
-1
 48
1.0
  6
BYLAYER
 10
1.#QNAN
 20
1.#QNAN
 30
0.0
 11
1.#QNAN
 21
1.#QNAN
 31
0.0
  0
LINE
  5
5D
100
AcDbEntity
100
AcDbLine
  8
0
 62
256
370
-1
 48
1.0
  6
BYLAYER
 10
1.#QNAN
 20
1.#QNAN
 30
0.0
 11
1.#QNAN
 21
1.#QNAN
 31
0.0
  0
LINE
  5
5E
100
AcDbEntity
100
AcDbLine
  8
0
 62
256
370
-1
 48
1.0
  6
BYLAYER
 10
-31.107864376269053
 20
-50.25
 30
0.0
 11
31.107864376269063
 21
-50.25
 31
0.0
  0
LINE
  5
5F
100
AcDbEntity
100
AcDbLine
  8
0
 62
256
370
-1
 48
1.0
  6
BYLAYER
 10
50.25
 20
-31.107864376269053
 30
0.0
 11
50.25
 21
31.107864376269063
 31
0.0
  0
LINE
  5
60
100
AcDbEntity
100
AcDbLine
  8
0
 62
256
370
-1
 48
1.0
  6
BYLAYER
 10
31.107864376269053
 20
50.25
 30
0.0
 11
-31.107864376269063
 21
50.25
 31
0.0
  0
LINE
  5
61
100
AcDbEntity
100
AcDbLine
  8
0
 62
256
370
-1
 48
1.0
  6
BYLAYER
 10
-50.25
 20
31.107864376269053
 30
0.0
 11
-50.25
 21
-31.107864376269053
 31
0.0
  0
LINE
  5
62
100
AcDbEntity
100
AcDbLine
  8
0
 62
256
370
-1
 48
1.0
  6
BYLAYER
 10
40.25
 20
-24.67354980121836
 30
0.0
 11
40.25
 21
24.673549801218215
 31
0.0
  0
LINE
  5
63
100
AcDbEntity
100
AcDbLine
  8
0
 62
256
370
-1
 48
1.0
  6
BYLAYER
 10
-24.673549801218307
 20
-40.25
 30
0.0
 11
24.673549801218229
 21
-40.25
 31
0.0
  0
LINE
  5
64
100
AcDbEntity
100
AcDbLine
  8
0
 62
256
370
-1
 48
1.0
  6
BYLAYER
 10
-40.25
 20
24.673549801218261
 30
0.0
 11
-40.25
 21
-24.673549801218339
 31
0.0
  0
LINE
  5
65
100
AcDbEntity
100
AcDbLine
  8
0
 62
256
370
-1
 48
1.0
  6
BYLAYER
 10
24.67354980121836
 20
40.25
 30
0.0
 11
-24.673549801218343
 21
40.25
 31
0.0
  0
LINE
  5
66
100
AcDbEntity
100
AcDbLine
  8
0
 62
256
370
-1
 48
1.0
  6
BYLAYER
 10
-9.423549801218341
 20
20.171572875253812
 30
0.0
 11
-26.087763363591428
 21
36.835786437626908
 31
0.0
  0
LINE
  5
67
100
AcDbEntity
100
AcDbLine
  8
0
 62
256
370
-1
 48
1.0
  6
BYLAYER
 10
26.087763363591456
 20
36.835786437626908
 30
0.0
 11
9.4235498012183427
 21
20.171572875253805
 31
0.0
  0
LINE
  5
68
100
AcDbEntity
100
AcDbLine
  8
0
 62
256
370
-1
 48
1.0
  6
BYLAYER
 10
20.171572875253815
 20
9.4235498012182433
 30
0.0
 11
36.835786437626908
 21
26.087763363591314
 31
0.0
  0
LINE
  5
69
100
AcDbEntity
100
AcDbLine
  8
0
 62
256
370
-1
 48
1.0
  6
BYLAYER
 10
36.835786437626908
 20
-26.087763363591453
 30
0.0
 11
20.171572875253801
 21
-9.4235498012183427
 31
0.0
  0
LINE
  5
6A
100
AcDbEntity
100
AcDbLine
  8
0
 62
256
370
-1
 48
1.0
  6
BYLAYER
 10
9.4235498012182344
 20
-20.171572875253812
 30
0.0
 11
26.087763363591321
 21
-36.835786437626908
 31
0.0
  0
LINE
  5
6B
100
AcDbEntity
100
AcDbLine
  8
0
 62
256
370
-1
 48
1.0
  6
BYLAYER
 10
-26.087763363591403
 20
-36.835786437626901
 30
0.0
 11
-9.4235498012182859
 21
-20.171572875253808
 31
0.0
  0
LINE
  5
6C
100
AcDbEntity
100
AcDbLine
  8
0
 62
256
370
-1
 48
1.0
  6
BYLAYER
 10
-20.171572875253812
 20
-9.4235498012183356
 30
0.0
 11
-36.835786437626915
 21
-26.087763363591435
 31
0.0
  0
LINE
  5
6D
100
AcDbEntity
100
AcDbLine
  8
0
 62
256
370
-1
 48
1.0
  6
BYLAYER
 10
-36.835786437626901
 20
26.08776336359136
 30
0.0
 11
-20.171572875253808
 21
9.4235498012182575
 31
0.0
  0
LINE
  5
6E
100
AcDbEntity
100
AcDbLine
  8
0
 62
256
370
-1
 48
1.0
  6
BYLAYER
 10
6.5951226764721573
 20
19.0
 30
0.0
 11
-6.5951226764721493
 21
19.0
 31
0.0
  0
LINE
  5
6F
100
AcDbEntity
100
AcDbLine
  8
0
 62
256
370
-1
 48
1.0
  6
BYLAYER
 10
19.0
 20
-6.5951226764721582
 30
0.0
 11
19.0
 21
6.5951226764720463
 31
0.0
  0
LINE
  5
70
100
AcDbEntity
100
AcDbLine
  8
0
 62
256
370
-1
 48
1.0
  6
BYLAYER
 10
-6.595122676472096
 20
-19.0
 30
0.0
 11
6.5951226764720428
 21
-19.0
 31
0.0
  0
LINE
  5
71
100
AcDbEntity
100
AcDbLine
  8
0
 62
256
370
-1
 48
1.0
  6
BYLAYER
 10
-19.0
 20
6.5951226764720685
 30
0.0
 11
-19.0
 21
-6.5951226764721422
 31
0.0
  0
CIRCLE
  5
72
100
AcDbEntity
100
AcDbCircle
  8
0
 62
256
370
-1
 48
1.0
  6
BYLAYER
 10
0.0
 20
0.0
 30
0.0
 40
10.0
  0
LINE
  5
73
100
AcDbEntity
100
AcDbLine
  8
0
 62
256
370
-1
 48
1.0
  6
BYLAYER
 10
299.75
 20
199.75
 30
0.0
 11
400.25
 21
199.75
 31
0.0
  0
LINE
  5
74
100
AcDbEntity
100
AcDbLine
  8
0
 62
256
370
-1
 48
1.0
  6
BYLAYER
 10
400.25
 20
199.75
 30
0.0
 11
400.25
 21
300.25
 31
0.0
  0
LINE
  5
75
100
AcDbEntity
100
AcDbLine
  8
0
 62
256
370
-1
 48
1.0
  6
BYLAYER
 10
400.25
 20
300.25
 30
0.0
 11
299.75
 21
300.25
 31
0.0
  0
LINE
  5
76
100
AcDbEntity
100
AcDbLine
  8
0
 62
256
370
-1
 48
1.0
  6
BYLAYER
 10
299.75
 20
300.25
 30
0.0
 11
299.75
 21
199.75
 31
0.0
  0
LINE
  5
77
100
AcDbEntity
100
AcDbLine
  8
0
 62
256
370
-1
 48
1.0
  6
BYLAYER
 10
390.25
 20
220.49802307403544
 30
0.0
 11
390.25
 21
279.50197692596441
 31
0.0
  0
LINE
  5
78
100
AcDbEntity
100
AcDbLine
  8
0
 62
256
370
-1
 48
1.0
  6
BYLAYER
 10
320.49802307403547
 20
209.75
 30
0.0
 11
379.50197692596441
 21
209.75
 31
0.0
  0
LINE
  5
79
100
AcDbEntity
100
AcDbLine
  8
0
 62
256
370
-1
 48
1.0
  6
BYLAYER
 10
309.75
 20
279.50197692596447
 30
0.0
 11
309.75
 21
220.49802307403547
 31
0.0
  0
LINE
  5
7A
100
AcDbEntity
100
AcDbLine
  8
0
 62
256
370
-1
 48
1.0
  6
BYLAYER
 10
379.50197692596453
 20
290.25
 30
0.0
 11
320.49802307403547
 21
290.25
 31
0.0
  0
LINE
  5
7B
100
AcDbEntity
100
AcDbLine
  8
0
 62
256
370
-1
 48
1.0
  6
BYLAYER
 10
341.74802307403547
 20
269.0
 30
0.0
 11
320.49802307403547
 21
290.25
 31
0.0
  0
LINE
  5
7C
100
AcDbEntity
100
AcDbLine
  8
0
 62
256
370
-1
 48
1.0
  6
BYLAYER
 10
379.50197692596453
 20
290.25
 30
0.0
 11
358.25197692596453
 21
269.0
 31
0.0
  0
LINE
  5
7D
100
AcDbEntity
100
AcDbLine
  8
0
 62
256
370
-1
 48
1.0
  6
BYLAYER
 10
369.0
 20
258.25197692596441
 30
0.0
 11
390.25
 21
279.50197692596441
 31
0.0
  0
LINE
  5
7E
100
AcDbEntity
100
AcDbLine
  8
0
 62
256
370
-1
 48
1.0
  6
BYLAYER
 10
390.25
 20
220.49802307403544
 30
0.0
 11
369.0
 21
241.74802307403547
 31
0.0
  0
LINE
  5
7F
100
AcDbEntity
100
AcDbLine
  8
0
 62
256
370
-1
 48
1.0
  6
BYLAYER
 10
358.25197692596441
 20
231.0
 30
0.0
 11
379.50197692596441
 21
209.75
 31
0.0
  0
LINE
  5
80
100
AcDbEntity
100
AcDbLine
  8
0
 62
256
370
-1
 48
1.0
  6
BYLAYER
 10
320.49802307403547
 20
209.75
 30
0.0
 11
341.74802307403553
 21
231.0
 31
0.0
  0
LINE
  5
81
100
AcDbEntity
100
AcDbLine
  8
0
 62
256
370
-1
 48
1.0
  6
BYLAYER
 10
331.0
 20
241.74802307403547
 30
0.0
 11
309.75
 21
220.49802307403547
 31
0.0
  0
LINE
  5
82
100
AcDbEntity
100
AcDbLine
  8
0
 62
256
370
-1
 48
1.0
  6
BYLAYER
 10
309.75
 20
279.50197692596447
 30
0.0
 11
331.0
 21
258.25197692596447
 31
0.0
  0
LINE
  5
83
100
AcDbEntity
100
AcDbLine
  8
0
 62
256
370
-1
 48
1.0
  6
BYLAYER
 10
358.25197692596453
 20
269.0
 30
0.0
 11
341.74802307403547
 21
269.0
 31
0.0
  0
LINE
  5
84
100
AcDbEntity
100
AcDbLine
  8
0
 62
256
370
-1
 48
1.0
  6
BYLAYER
 10
369.0
 20
241.74802307403547
 30
0.0
 11
369.0
 21
258.25197692596441
 31
0.0
  0
LINE
  5
85
100
AcDbEntity
100
AcDbLine
  8
0
 62
256
370
-1
 48
1.0
  6
BYLAYER
 10
341.74802307403553
 20
231.0
 30
0.0
 11
358.25197692596441
 21
231.0
 31
0.0
  0
LINE
  5
86
100
AcDbEntity
100
AcDbLine
  8
0
 62
256
370
-1
 48
1.0
  6
BYLAYER
 10
331.0
 20
258.25197692596447
 30
0.0
 11
331.0
 21
241.74802307403547
 31
0.0
  0
CIRCLE
  5
87
100
AcDbEntity
100
AcDbCircle
  8
0
 62
256
370
-1
 48
1.0
  6
BYLAYER
 10
350.0
 20
250.0
 30
0.0
 40
10.0
  0
LINE
  5
88
100
AcDbEntity
100
AcDbLine
  8
0
 62
256
370
-1
 48
1.0
  6
BYLAYER
 10
-47.321067811865476
 20
38.178932188134524
 30
0.0
 11
-38.178932188134532
 21
47.321067811865468
 31
0.0
  0
LINE
  5
89
100
AcDbEntity
100
AcDbLine
  8
0
 62
256
370
-1
 48
1.0
  6
BYLAYER
 10
38.178932188134524
 20
47.321067811865476
 30
0.0
 11
47.321067811865468
 21
38.178932188134532
 31
0.0
  0
LINE
  5
8A
100
AcDbEntity
100
AcDbLine
  8
0
 62
256
370
-1
 48
1.0
  6
BYLAYER
 10
47.321067811865476
 20
-38.178932188134524
 30
0.0
 11
38.178932188134532
 21
-47.321067811865468
 31
0.0
  0
LINE
  5
8B
100
AcDbEntity
100
AcDbLine
  8
0
 62
256
370
-1
 48
1.0
  6
BYLAYER
 10
-38.178932188134524
 20
-47.321067811865476
 30
0.0
 11
-47.321067811865468
 21
-38.178932188134532
 31
0.0
  0
LINE
  5
8C
100
AcDbEntity
100
AcDbLine
  8
0
 62
256
370
-1
 48
1.0
  6
BYLAYER
 10
439.611648202894
 20
199.07528401843464
 30
0.0
 11
510.111648202894
 21
199.07528401843464
 31
0.0
  0
LINE
  5
8D
100
AcDbEntity
100
AcDbLine
  8
0
 62
256
370
-1
 48
1.0
  6
BYLAYER
 10
525.111648202894
 20
214.07528401843464
 30
0.0
 11
525.111648202894
 21
284.57528401843467
 31
0.0
  0
LINE
  5
8E
100
AcDbEntity
100
AcDbLine
  8
0
 62
256
370
-1
 48
1.0
  6
BYLAYER
 10
510.111648202894
 20
299.57528401843467
 30
0.0
 11
439.611648202894
 21
299.57528401843467
 31
0.0
  0
LINE
  5
8F
100
AcDbEntity
100
AcDbLine
  8
0
 62
256
370
-1
 48
1.0
  6
BYLAYER
 10
424.611648202894
 20
284.57528401843467
 30
0.0
 11
424.611648202894
 21
214.07528401843464
 31
0.0
  0
LINE
  5
90
100
AcDbEntity
100
AcDbLine
  8
0
 62
256
370
-1
 48
1.0
  6
BYLAYER
 10
515.111648202894
 20
219.82330709247009
 30
0.0
 11
515.111648202894
 21
278.82726094439903
 31
0.0
  0
LINE
  5
91
100
AcDbEntity
100
AcDbLine
  8
0
 62
256
370
-1
 48
1.0
  6
BYLAYER
 10
445.35967127692948
 20
209.07528401843464
 30
0.0
 11
504.36362512885842
 21
209.07528401843464
 31
0.0
  0
LINE
  5
92
100
AcDbEntity
100
AcDbLine
  8
0
 62
256
370
-1
 48
1.0
  6
BYLAYER
 10
434.611648202894
 20
278.82726094439909
 30
0.0
 11
434.611648202894
 21
219.82330709247015
 31
0.0
  0
LINE
  5
93
100
AcDbEntity
100
AcDbLine
  8
0
 62
256
370
-1
 48
1.0
  6
BYLAYER
 10
504.36362512885853
 20
289.57528401843467
 30
0.0
 11
445.35967127692948
 21
289.57528401843467
 31
0.0
  0
LINE
  5
94
100
AcDbEntity
100
AcDbLine
  8
0
 62
256
370
-1
 48
1.0
  6
BYLAYER
 10
466.60967127692948
 20
268.32528401843462
 30
0.0
 11
445.35967127692948
 21
289.57528401843467
 31
0.0
  0
LINE
  5
95
100
AcDbEntity
100
AcDbLine
  8
0
 62
256
370
-1
 48
1.0
  6
BYLAYER
 10
504.36362512885853
 20
289.57528401843467
 30
0.0
 11
483.11362512885853
 21
268.32528401843467
 31
0.0
  0
LINE
  5
96
100
AcDbEntity
100
AcDbLine
  8
0
 62
256
370
-1
 48
1.0
  6
BYLAYER
 10
493.861648202894
 20
257.57726094439909
 30
0.0
 11
515.111648202894
 21
278.82726094439909
 31
0.0
  0
LINE
  5
97
100
AcDbEntity
100
AcDbLine
  8
0
 62
256
370
-1
 48
1.0
  6
BYLAYER
 10
515.111648202894
 20
219.82330709247009
 30
0.0
 11
493.861648202894
 21
241.07330709247009
 31
0.0
  0
LINE
  5
98
100
AcDbEntity
100
AcDbLine
  8
0
 62
256
370
-1
 48
1.0
  6
BYLAYER
 10
483.11362512885842
 20
230.32528401843464
 30
0.0
 11
504.36362512885842
 21
209.07528401843467
 31
0.0
  0
LINE
  5
99
100
AcDbEntity
100
AcDbLine
  8
0
 62
256
370
-1
 48
1.0
  6
BYLAYER
 10
445.35967127692948
 20
209.07528401843464
 30
0.0
 11
466.60967127692953
 21
230.32528401843464
 31
0.0
  0
LINE
  5
9A
100
AcDbEntity
100
AcDbLine
  8
0
 62
256
370
-1
 48
1.0
  6
BYLAYER
 10
455.861648202894
 20
241.07330709247012
 30
0.0
 11
434.611648202894
 21
219.82330709247012
 31
0.0
  0
LINE
  5
9B
100
AcDbEntity
100
AcDbLine
  8
0
 62
256
370
-1
 48
1.0
  6
BYLAYER
 10
434.611648202894
 20
278.82726094439909
 30
0.0
 11
455.861648202894
 21
257.57726094439909
 31
0.0
  0
LINE
  5
9C
100
AcDbEntity
100
AcDbLine
  8
0
 62
256
370
-1
 48
1.0
  6
BYLAYER
 10
483.11362512885853
 20
268.32528401843467
 30
0.0
 11
466.60967127692948
 21
268.32528401843467
 31
0.0
  0
LINE
  5
9D
100
AcDbEntity
100
AcDbLine
  8
0
 62
256
370
-1
 48
1.0
  6
BYLAYER
 10
493.861648202894
 20
241.07330709247012
 30
0.0
 11
493.861648202894
 21
257.57726094439909
 31
0.0
  0
LINE
  5
9E
100
AcDbEntity
100
AcDbLine
  8
0
 62
256
370
-1
 48
1.0
  6
BYLAYER
 10
466.60967127692953
 20
230.32528401843464
 30
0.0
 11
483.11362512885842
 21
230.32528401843464
 31
0.0
  0
LINE
  5
9F
100
AcDbEntity
100
AcDbLine
  8
0
 62
256
370
-1
 48
1.0
  6
BYLAYER
 10
455.861648202894
 20
257.57726094439909
 30
0.0
 11
455.861648202894
 21
241.07330709247012
 31
0.0
  0
CIRCLE
  5
A0
100
AcDbEntity
100
AcDbCircle
  8
0
 62
256
370
-1
 48
1.0
  6
BYLAYER
 10
474.861648202894
 20
249.32528401843464
 30
0.0
 40
10.0
  0
LINE
  5
A1
100
AcDbEntity
100
AcDbLine
  8
0
 62
256
370
-1
 48
1.0
  6
BYLAYER
 10
424.611648202894
 20
284.57528401843467
 30
0.0
 11
439.611648202894
 21
299.57528401843467
 31
0.0
  0
LINE
  5
A2
100
AcDbEntity
100
AcDbLine
  8
0
 62
256
370
-1
 48
1.0
  6
BYLAYER
 10
510.111648202894
 20
299.57528401843467
 30
0.0
 11
525.111648202894
 21
284.57528401843467
 31
0.0
  0
LINE
  5
A3
100
AcDbEntity
100
AcDbLine
  8
0
 62
256
370
-1
 48
1.0
  6
BYLAYER
 10
525.111648202894
 20
214.07528401843464
 30
0.0
 11
510.111648202894
 21
199.07528401843464
 31
0.0
  0
LINE
  5
A4
100
AcDbEntity
100
AcDbLine
  8
0
 62
256
370
-1
 48
1.0
  6
BYLAYER
 10
439.611648202894
 20
199.07528401843464
 30
0.0
 11
424.611648202894
 21
214.07528401843464
 31
0.0
  0
CIRCLE
  5
A5
100
AcDbEntity
100
AcDbCircle
  8
0
 62
256
370
-1
 48
1.0
  6
BYLAYER
 10
-36.739592359914347
 20
36.739592359914347
 30
0.0
 40
1.5
  0
POINT
  5
A6
100
AcDbEntity
100
AcDbPoint
  8
0
 62
256
370
-1
 48
1.0
  6
BYLAYER
 10
0.0
 20
0.0
 30
0.0
  0
CIRCLE
  5
A7
100
AcDbEntity
100
AcDbCircle
  8
0
 62
256
370
-1
 48
1.0
  6
BYLAYER
 10
-15.619514887400186
 20
15.619514887400189
 30
0.0
 40
1.5
  0
CIRCLE
  5
A8
100
AcDbEntity
100
AcDbCircle
  8
0
 62
256
370
-1
 48
1.0
  6
BYLAYER
 10
-22.820195372257153
 20
22.82019537225716
 30
0.0
 40
1.5
  0
CIRCLE
  5
A9
100
AcDbEntity
100
AcDbCircle
  8
0
 62
256
370
-1
 48
1.0
  6
BYLAYER
 10
-15.619514887400189
 20
-15.619514887400184
 30
0.0
 40
1.5
  0
CIRCLE
  5
AA
100
AcDbEntity
100
AcDbCircle
  8
0
 62
256
370
-1
 48
1.0
  6
BYLAYER
 10
-22.820195372257164
 20
-22.820195372257157
 30
0.0
 40
1.5
  0
CIRCLE
  5
AB
100
AcDbEntity
100
AcDbCircle
  8
0
 62
256
370
-1
 48
1.0
  6
BYLAYER
 10
-36.739592359914361
 20
-36.739592359914347
 30
0.0
 40
1.5
  0
CIRCLE
  5
AC
100
AcDbEntity
100
AcDbCircle
  8
0
 62
256
370
-1
 48
1.0
  6
BYLAYER
 10
15.619514887400182
 20
-15.619514887400189
 30
0.0
 40
1.5
  0
CIRCLE
  5
AD
100
AcDbEntity
100
AcDbCircle
  8
0
 62
256
370
-1
 48
1.0
  6
BYLAYER
 10
22.820195372257153
 20
-22.820195372257164
 30
0.0
 40
1.5
  0
CIRCLE
  5
AE
100
AcDbEntity
100
AcDbCircle
  8
0
 62
256
370
-1
 48
1.0
  6
BYLAYER
 10
36.73959235991434
 20
-36.739592359914361
 30
0.0
 40
1.5
  0
CIRCLE
  5
AF
100
AcDbEntity
100
AcDbCircle
  8
0
 62
256
370
-1
 48
1.0
  6
BYLAYER
 10
15.619514887400189
 20
15.619514887400182
 30
0.0
 40
1.5
  0
CIRCLE
  5
B0
100
AcDbEntity
100
AcDbCircle
  8
0
 62
256
370
-1
 48
1.0
  6
BYLAYER
 10
22.820195372257164
 20
22.820195372257153
 30
0.0
 40
1.5
  0
CIRCLE
  5
B1
100
AcDbEntity
100
AcDbCircle
  8
0
 62
256
370
-1
 48
1.0
  6
BYLAYER
 10
36.739592359914361
 20
36.73959235991434
 30
0.0
 40
1.5
  0
LINE
  5
B2
100
AcDbEntity
100
AcDbLine
  8
0
 62
256
370
-1
 48
1.0
  6
BYLAYER
 10
562.87383595838605
 20
196.46632899191945
 30
0.0
 11
633.37383595838605
 21
196.46632899191945
 31
0.0
  0
LINE
  5
B3
100
AcDbEntity
100
AcDbLine
  8
0
 62
256
370
-1
 48
1.0
  6
BYLAYER
 10
648.37383595838605
 20
211.46632899191945
 30
0.0
 11
648.37383595838605
 21
281.96632899191945
 31
0.0
  0
LINE
  5
B4
100
AcDbEntity
100
AcDbLine
  8
0
 62
256
370
-1
 48
1.0
  6
BYLAYER
 10
633.37383595838605
 20
296.96632899191945
 30
0.0
 11
562.87383595838605
 21
296.96632899191945
 31
0.0
  0
LINE
  5
B5
100
AcDbEntity
100
AcDbLine
  8
0
 62
256
370
-1
 48
1.0
  6
BYLAYER
 10
547.87383595838605
 20
281.96632899191945
 30
0.0
 11
547.87383595838605
 21
211.46632899191945
 31
0.0
  0
LINE
  5
B6
100
AcDbEntity
100
AcDbLine
  8
0
 62
256
370
-1
 48
1.0
  6
BYLAYER
 10
638.37383595838605
 20
217.2143520659549
 30
0.0
 11
638.37383595838605
 21
276.21830591788387
 31
0.0
  0
LINE
  5
B7
100
AcDbEntity
100
AcDbLine
  8
0
 62
256
370
-1
 48
1.0
  6
BYLAYER
 10
568.62185903242153
 20
206.46632899191945
 30
0.0
 11
627.62581288435047
 21
206.46632899191945
 31
0.0
  0
LINE
  5
B8
100
AcDbEntity
100
AcDbLine
  8
0
 62
256
370
-1
 48
1.0
  6
BYLAYER
 10
557.87383595838605
 20
276.21830591788392
 30
0.0
 11
557.87383595838605
 21
217.21435206595493
 31
0.0
  0
LINE
  5
B9
100
AcDbEntity
100
AcDbLine
  8
0
 62
256
370
-1
 48
1.0
  6
BYLAYER
 10
627.62581288435058
 20
286.96632899191945
 30
0.0
 11
568.62185903242153
 21
286.96632899191945
 31
0.0
  0
LINE
  5
BA
100
AcDbEntity
100
AcDbLine
  8
0
 62
256
370
-1
 48
1.0
  6
BYLAYER
 10
589.87185903242153
 20
265.71632899191945
 30
0.0
 11
568.62185903242153
 21
286.96632899191945
 31
0.0
  0
LINE
  5
BB
100
AcDbEntity
100
AcDbLine
  8
0
 62
256
370
-1
 48
1.0
  6
BYLAYER
 10
627.62581288435058
 20
286.96632899191945
 30
0.0
 11
606.37581288435058
 21
265.71632899191945
 31
0.0
  0
LINE
  5
BC
100
AcDbEntity
100
AcDbLine
  8
0
 62
256
370
-1
 48
1.0
  6
BYLAYER
 10
617.12383595838605
 20
254.9683059178839
 30
0.0
 11
638.37383595838605
 21
276.21830591788387
 31
0.0
  0
LINE
  5
BD
100
AcDbEntity
100
AcDbLine
  8
0
 62
256
370
-1
 48
1.0
  6
BYLAYER
 10
638.37383595838605
 20
217.2143520659549
 30
0.0
 11
617.12383595838605
 21
238.46435206595493
 31
0.0
  0
LINE
  5
BE
100
AcDbEntity
100
AcDbLine
  8
0
 62
256
370
-1
 48
1.0
  6
BYLAYER
 10
606.37581288435047
 20
227.71632899191945
 30
0.0
 11
627.62581288435047
 21
206.46632899191945
 31
0.0
  0
LINE
  5
BF
100
AcDbEntity
100
AcDbLine
  8
0
 62
256
370
-1
 48
1.0
  6
BYLAYER
 10
568.62185903242153
 20
206.46632899191945
 30
0.0
 11
589.87185903242153
 21
227.71632899191945
 31
0.0
  0
LINE
  5
C0
100
AcDbEntity
100
AcDbLine
  8
0
 62
256
370
-1
 48
1.0
  6
BYLAYER
 10
579.12383595838605
 20
238.46435206595493
 30
0.0
 11
557.87383595838605
 21
217.21435206595493
 31
0.0
  0
LINE
  5
C1
100
AcDbEntity
100
AcDbLine
  8
0
 62
256
370
-1
 48
1.0
  6
BYLAYER
 10
557.87383595838605
 20
276.21830591788392
 30
0.0
 11
579.12383595838605
 21
254.9683059178839
 31
0.0
  0
LINE
  5
C2
100
AcDbEntity
100
AcDbLine
  8
0
 62
256
370
-1
 48
1.0
  6
BYLAYER
 10
606.37581288435058
 20
265.71632899191945
 30
0.0
 11
589.87185903242153
 21
265.71632899191945
 31
0.0
  0
LINE
  5
C3
100
AcDbEntity
100
AcDbLine
  8
0
 62
256
370
-1
 48
1.0
  6
BYLAYER
 10
617.12383595838605
 20
238.46435206595493
 30
0.0
 11
617.12383595838605
 21
254.96830591788387
 31
0.0
  0
LINE
  5
C4
100
AcDbEntity
100
AcDbLine
  8
0
 62
256
370
-1
 48
1.0
  6
BYLAYER
 10
589.87185903242164
 20
227.71632899191945
 30
0.0
 11
606.37581288435047
 21
227.71632899191945
 31
0.0
  0
LINE
  5
C5
100
AcDbEntity
100
AcDbLine
  8
0
 62
256
370
-1
 48
1.0
  6
BYLAYER
 10
579.12383595838605
 20
254.9683059178839
 30
0.0
 11
579.12383595838605
 21
238.46435206595493
 31
0.0
  0
CIRCLE
  5
C6
100
AcDbEntity
100
AcDbCircle
  8
0
 62
256
370
-1
 48
1.0
  6
BYLAYER
 10
598.12383595838605
 20
246.71632899191945
 30
0.0
 40
10.0
  0
LINE
  5
C7
100
AcDbEntity
100
AcDbLine
  8
0
 62
256
370
-1
 48
1.0
  6
BYLAYER
 10
633.37383595838605
 20
296.96632899191945
 30
0.0
 11
648.37383595838605
 21
281.96632899191945
 31
0.0
  0
LINE
  5
C8
100
AcDbEntity
100
AcDbLine
  8
0
 62
256
370
-1
 48
1.0
  6
BYLAYER
 10
648.37383595838605
 20
211.46632899191945
 30
0.0
 11
633.37383595838605
 21
196.46632899191945
 31
0.0
  0
LINE
  5
C9
100
AcDbEntity
100
AcDbLine
  8
0
 62
256
370
-1
 48
1.0
  6
BYLAYER
 10
562.87383595838605
 20
196.46632899191945
 30
0.0
 11
547.87383595838605
 21
211.46632899191945
 31
0.0
  0
CIRCLE
  5
CA
100
AcDbEntity
100
AcDbCircle
  8
0
 62
256
370
-1
 48
1.0
  6
BYLAYER
 10
561.3842435984717
 20
283.45592135183381
 30
0.0
 40
1.5
  0
POINT
  5
CB
100
AcDbEntity
100
AcDbPoint
  8
0
 62
256
370
-1
 48
1.0
  6
BYLAYER
 10
598.12383595838605
 20
246.71632899191945
 30
0.0
  0
CIRCLE
  5
CC
100
AcDbEntity
100
AcDbCircle
  8
0
 62
256
370
-1
 48
1.0
  6
BYLAYER
 10
582.50432107098584
 20
262.33584387931967
 30
0.0
 40
1.5
  0
CIRCLE
  5
CD
100
AcDbEntity
100
AcDbCircle
  8
0
 62
256
370
-1
 48
1.0
  6
BYLAYER
 10
575.30364058612895
 20
269.53652436417661
 30
0.0
 40
1.5
  0
CIRCLE
  5
CE
100
AcDbEntity
100
AcDbCircle
  8
0
 62
256
370
-1
 48
1.0
  6
BYLAYER
 10
582.50432107098584
 20
231.09681410451927
 30
0.0
 40
1.5
  0
CIRCLE
  5
CF
100
AcDbEntity
100
AcDbCircle
  8
0
 62
256
370
-1
 48
1.0
  6
BYLAYER
 10
575.30364058612884
 20
223.89613361966229
 30
0.0
 40
1.5
  0
CIRCLE
  5
D0
100
AcDbEntity
100
AcDbCircle
  8
0
 62
256
370
-1
 48
1.0
  6
BYLAYER
 10
561.3842435984717
 20
209.9767366320051
 30
0.0
 40
1.5
  0
CIRCLE
  5
D1
100
AcDbEntity
100
AcDbCircle
  8
0
 62
256
370
-1
 48
1.0
  6
BYLAYER
 10
613.74335084578627
 20
231.09681410451927
 30
0.0
 40
1.5
  0
CIRCLE
  5
D2
100
AcDbEntity
100
AcDbCircle
  8
0
 62
256
370
-1
 48
1.0
  6
BYLAYER
 10
620.94403133064316
 20
223.89613361966229
 30
0.0
 40
1.5
  0
CIRCLE
  5
D3
100
AcDbEntity
100
AcDbCircle
  8
0
 62
256
370
-1
 48
1.0
  6
BYLAYER
 10
634.86342831830041
 20
209.9767366320051
 30
0.0
 40
1.5
  0
CIRCLE
  5
D4
100
AcDbEntity
100
AcDbCircle
  8
0
 62
256
370
-1
 48
1.0
  6
BYLAYER
 10
613.74335084578627
 20
262.33584387931961
 30
0.0
 40
1.5
  0
CIRCLE
  5
D5
100
AcDbEntity
100
AcDbCircle
  8
0
 62
256
370
-1
 48
1.0
  6
BYLAYER
 10
620.94403133064327
 20
269.53652436417661
 30
0.0
 40
1.5
  0
CIRCLE
  5
D6
100
AcDbEntity
100
AcDbCircle
  8
0
 62
256
370
-1
 48
1.0
  6
BYLAYER
 10
634.86342831830041
 20
283.45592135183381
 30
0.0
 40
1.5
  0
LINE
  5
D7
100
AcDbEntity
100
AcDbLine
  8
0
 62
256
370
-1
 48
1.0
  6
BYLAYER
 10
547.87383595838605
 20
281.96632899191945
 30
0.0
 11
562.87383595838605
 21
296.96632899191945
 31
0.0
  0
ARC
  5
D8
100
AcDbEntity
  8
0
 62
256
370
-1
 48
1.0
  6
BYLAYER
100
AcDbCircle
 10
-40.25
 20
31.107864376269053
 30
0.0
 40
10.0
100
AcDbArc
 50
135.00000000000003
 51
180.0
  0
ARC
  5
D9
100
AcDbEntity
  8
0
 62
256
370
-1
 48
1.0
  6
BYLAYER
100
AcDbCircle
 10
-31.10786437626906
 20
40.249999999999993
 30
0.0
 40
10.0
100
AcDbArc
 50
90.000000000000014
 51
135.0
  0
ARC
  5
DA
100
AcDbEntity
  8
0
 62
256
370
-1
 48
1.0
  6
BYLAYER
100
AcDbCircle
 10
31.107864376269053
 20
40.25
 30
0.0
 40
10.0
100
AcDbArc
 50
45.000000000000007
 51
90.0
  0
ARC
  5
DB
100
AcDbEntity
  8
0
 62
256
370
-1
 48
1.0
  6
BYLAYER
100
AcDbCircle
 10
40.249999999999993
 20
31.10786437626906
 30
0.0
 40
10.0
100
AcDbArc
 50
0.0
 51
44.999999999999986
  0
ARC
  5
DC
100
AcDbEntity
  8
0
 62
256
370
-1
 48
1.0
  6
BYLAYER
100
AcDbCircle
 10
40.25
 20
-31.107864376269053
 30
0.0
 40
10.0
100
AcDbArc
 50
315.0
 51
0.0
  0
ARC
  5
DD
100
AcDbEntity
  8
0
 62
256
370
-1
 48
1.0
  6
BYLAYER
100
AcDbCircle
 10
31.10786437626906
 20
-40.249999999999993
 30
0.0
 40
10.0
100
AcDbArc
 50
270.0
 51
315.0
  0
ARC
  5
DE
100
AcDbEntity
  8
0
 62
256
370
-1
 48
1.0
  6
BYLAYER
100
AcDbCircle
 10
-31.107864376269053
 20
-40.25
 30
0.0
 40
10.0
100
AcDbArc
 50
225.0
 51
270.0
  0
ARC
  5
DF
100
AcDbEntity
  8
0
 62
256
370
-1
 48
1.0
  6
BYLAYER
100
AcDbCircle
 10
-40.249999999999993
 20
-31.107864376269053
 30
0.0
 40
10.0
100
AcDbArc
 50
180.0
 51
225.0
  0
ARC
  5
E0
100
AcDbEntity
  8
0
 62
256
370
-1
 48
1.0
  6
BYLAYER
100
AcDbCircle
 10
-38.25
 20
24.673549801218261
 30
0.0
 40
2.0
100
AcDbArc
 50
44.999999999999986
 51
180.0
  0
ARC
  5
E1
100
AcDbEntity
  8
0
 62
256
370
-1
 48
1.0
  6
BYLAYER
100
AcDbCircle
 10
-24.673549801218339
 20
38.250000000000007
 30
0.0
 40
2.0
100
AcDbArc
 50
90.000000000000099
 51
225.00000000000011
  0
ARC
  5
E2
100
AcDbEntity
  8
0
 62
256
370
-1
 48
1.0
  6
BYLAYER
100
AcDbCircle
 10
24.67354980121836
 20
38.250000000000007
 30
0.0
 40
2.0
100
AcDbArc
 50
314.99999999999994
 51
90.0
  0
ARC
  5
E3
100
AcDbEntity
  8
0
 62
256
370
-1
 48
1.0
  6
BYLAYER
100
AcDbCircle
 10
38.25
 20
24.673549801218215
 30
0.0
 40
2.0
100
AcDbArc
 50
0.0
 51
134.99999999999989
  0
ARC
  5
E4
100
AcDbEntity
  8
0
 62
256
370
-1
 48
1.0
  6
BYLAYER
100
AcDbCircle
 10
38.25
 20
-24.67354980121836
 30
0.0
 40
2.0
100
AcDbArc
 50
225.0
 51
0.0
  0
ARC
  5
E5
100
AcDbEntity
  8
0
 62
256
370
-1
 48
1.0
  6
BYLAYER
100
AcDbCircle
 10
24.673549801218225
 20
-38.25
 30
0.0
 40
2.0
100
AcDbArc
 50
270.00000000000011
 51
44.999999999999922
  0
ARC
  5
E6
100
AcDbEntity
  8
0
 62
256
370
-1
 48
1.0
  6
BYLAYER
100
AcDbCircle
 10
-24.673549801218307
 20
-38.25
 30
0.0
 40
2.0
100
AcDbArc
 50
134.99999999999994
 51
270.0
  0
ARC
  5
E7
100
AcDbEntity
  8
0
 62
256
370
-1
 48
1.0
  6
BYLAYER
100
AcDbCircle
 10
-38.250000000000007
 20
-24.673549801218339
 30
0.0
 40
2.0
100
AcDbArc
 50
180.0
 51
314.99999999999994
  0
ARC
  5
E8
100
AcDbEntity
  8
0
 62
256
370
-1
 48
1.0
  6
BYLAYER
100
AcDbCircle
 10
-6.5951226764721502
 20
23.0
 30
0.0
 40
4.0
100
AcDbArc
 50
224.99999999999997
 51
270.0
  0
ARC
  5
E9
100
AcDbEntity
  8
0
 62
256
370
-1
 48
1.0
  6
BYLAYER
100
AcDbCircle
 10
6.5951226764721573
 20
23.0
 30
0.0
 40
4.0
100
AcDbArc
 50
270.0
 51
314.99999999999994
  0
ARC
  5
EA
100
AcDbEntity
  8
0
 62
256
370
-1
 48
1.0
  6
BYLAYER
100
AcDbCircle
 10
23.000000000000004
 20
6.5951226764720525
 30
0.0
 40
4.0
100
AcDbArc
 50
134.99999999999997
 51
180.0
  0
ARC
  5
EB
100
AcDbEntity
  8
0
 62
256
370
-1
 48
1.0
  6
BYLAYER
100
AcDbCircle
 10
23.0
 20
-6.5951226764721582
 30
0.0
 40
4.0
100
AcDbArc
 50
180.0
 51
224.99999999999991
  0
ARC
  5
EC
100
AcDbEntity
  8
0
 62
256
370
-1
 48
1.0
  6
BYLAYER
100
AcDbCircle
 10
6.5951226764720436
 20
-23.0
 30
0.0
 40
4.0
100
AcDbArc
 50
44.999999999999979
 51
90.000000000000014
  0
ARC
  5
ED
100
AcDbEntity
  8
0
 62
256
370
-1
 48
1.0
  6
BYLAYER
100
AcDbCircle
 10
-6.595122676472096
 20
-23.000000000000004
 30
0.0
 40
4.0
100
AcDbArc
 50
90.0
 51
134.99999999999994
  0
ARC
  5
EE
100
AcDbEntity
  8
0
 62
256
370
-1
 48
1.0
  6
BYLAYER
100
AcDbCircle
 10
-23.0
 20
-6.5951226764721449
 30
0.0
 40
4.0
100
AcDbArc
 50
314.99999999999994
 51
0.0
  0
ARC
  5
EF
100
AcDbEntity
  8
0
 62
256
370
-1
 48
1.0
  6
BYLAYER
100
AcDbCircle
 10
-23.0
 20
6.5951226764720685
 30
0.0
 40
4.0
100
AcDbArc
 50
0.0
 51
44.999999999999972
  0
LINE
  5
F0
100
AcDbEntity
100
AcDbLine
  8
0
 62
256
370
-1
 48
1.0
  6
BYLAYER
 10
688.89213562373095
 20
199.75
 30
0.0
 11
751.10786437626905
 21
199.75
 31
0.0
  0
LINE
  5
F1
100
AcDbEntity
100
AcDbLine
  8
0
 62
256
370
-1
 48
1.0
  6
BYLAYER
 10
770.25
 20
218.89213562373095
 30
0.0
 11
770.25
 21
281.10786437626905
 31
0.0
  0
LINE
  5
F2
100
AcDbEntity
100
AcDbLine
  8
0
 62
256
370
-1
 48
1.0
  6
BYLAYER
 10
751.10786437626905
 20
300.25
 30
0.0
 11
688.89213562373095
 21
300.25
 31
0.0
  0
LINE
  5
F3
100
AcDbEntity
100
AcDbLine
  8
0
 62
256
370
-1
 48
1.0
  6
BYLAYER
 10
669.75
 20
281.10786437626905
 30
0.0
 11
669.75
 21
218.89213562373095
 31
0.0
  0
LINE
  5
F4
100
AcDbEntity
100
AcDbLine
  8
0
 62
256
370
-1
 48
1.0
  6
BYLAYER
 10
760.25
 20
225.32645019878163
 30
0.0
 11
760.25
 21
274.6735498012182
 31
0.0
  0
LINE
  5
F5
100
AcDbEntity
100
AcDbLine
  8
0
 62
256
370
-1
 48
1.0
  6
BYLAYER
 10
695.32645019878169
 20
209.75
 30
0.0
 11
744.6735498012182
 21
209.75
 31
0.0
  0
LINE
  5
F6
100
AcDbEntity
100
AcDbLine
  8
0
 62
256
370
-1
 48
1.0
  6
BYLAYER
 10
679.75
 20
274.67354980121826
 30
0.0
 11
679.75
 21
225.32645019878166
 31
0.0
  0
LINE
  5
F7
100
AcDbEntity
100
AcDbLine
  8
0
 62
256
370
-1
 48
1.0
  6
BYLAYER
 10
744.67354980121831
 20
290.25
 30
0.0
 11
695.32645019878169
 21
290.25
 31
0.0
  0
LINE
  5
F8
100
AcDbEntity
100
AcDbLine
  8
0
 62
256
370
-1
 48
1.0
  6
BYLAYER
 10
710.57645019878169
 20
270.17157287525379
 30
0.0
 11
693.91223663640858
 21
286.83578643762689
 31
0.0
  0
LINE
  5
F9
100
AcDbEntity
100
AcDbLine
  8
0
 62
256
370
-1
 48
1.0
  6
BYLAYER
 10
746.08776336359142
 20
286.83578643762689
 30
0.0
 11
729.42354980121831
 21
270.17157287525379
 31
0.0
  0
LINE
  5
FA
100
AcDbEntity
100
AcDbLine
  8
0
 62
256
370
-1
 48
1.0
  6
BYLAYER
 10
740.17157287525379
 20
259.42354980121826
 30
0.0
 11
756.83578643762689
 21
276.08776336359131
 31
0.0
  0
LINE
  5
FB
100
AcDbEntity
100
AcDbLine
  8
0
 62
256
370
-1
 48
1.0
  6
BYLAYER
 10
756.83578643762689
 20
223.91223663640855
 30
0.0
 11
740.17157287525379
 21
240.57645019878166
 31
0.0
  0
LINE
  5
FC
100
AcDbEntity
100
AcDbLine
  8
0
 62
256
370
-1
 48
1.0
  6
BYLAYER
 10
729.4235498012182
 20
229.82842712474618
 30
0.0
 11
746.08776336359131
 21
213.16421356237311
 31
0.0
  0
LINE
  5
FD
100
AcDbEntity
100
AcDbLine
  8
0
 62
256
370
-1
 48
1.0
  6
BYLAYER
 10
693.91223663640858
 20
213.16421356237311
 30
0.0
 11
710.57645019878169
 21
229.82842712474618
 31
0.0
  0
LINE
  5
FE
100
AcDbEntity
100
AcDbLine
  8
0
 62
256
370
-1
 48
1.0
  6
BYLAYER
 10
699.82842712474621
 20
240.57645019878166
 30
0.0
 11
683.16421356237311
 21
223.91223663640858
 31
0.0
  0
LINE
  5
FF
100
AcDbEntity
100
AcDbLine
  8
0
 62
256
370
-1
 48
1.0
  6
BYLAYER
 10
683.16421356237311
 20
276.08776336359136
 30
0.0
 11
699.82842712474621
 21
259.42354980121826
 31
0.0
  0
LINE
  5
100
100
AcDbEntity
100
AcDbLine
  8
0
 62
256
370
-1
 48
1.0
  6
BYLAYER
 10
726.5951226764721
 20
269.0
 30
0.0
 11
713.4048773235279
 21
269.0
 31
0.0
  0
LINE
  5
101
100
AcDbEntity
100
AcDbLine
  8
0
 62
256
370
-1
 48
1.0
  6
BYLAYER
 10
739.0
 20
243.40487732352784
 30
0.0
 11
739.0
 21
256.59512267647204
 31
0.0
  0
LINE
  5
102
100
AcDbEntity
100
AcDbLine
  8
0
 62
256
370
-1
 48
1.0
  6
BYLAYER
 10
713.4048773235279
 20
231.0
 30
0.0
 11
726.59512267647199
 21
231.0
 31
0.0
  0
LINE
  5
103
100
AcDbEntity
100
AcDbLine
  8
0
 62
256
370
-1
 48
1.0
  6
BYLAYER
 10
701.0
 20
256.59512267647204
 30
0.0
 11
701.0
 21
243.40487732352787
 31
0.0
  0
CIRCLE
  5
104
100
AcDbEntity
100
AcDbCircle
  8
0
 62
256
370
-1
 48
1.0
  6
BYLAYER
 10
720.0
 20
250.0
 30
0.0
 40
10.0
  0
LINE
  5
105
100
AcDbEntity
100
AcDbLine
  8
0
 62
256
370
-1
 48
1.0
  6
BYLAYER
 10
672.67893218813447
 20
288.17893218813452
 30
0.0
 11
681.82106781186542
 21
297.32106781186548
 31
0.0
  0
LINE
  5
106
100
AcDbEntity
100
AcDbLine
  8
0
 62
256
370
-1
 48
1.0
  6
BYLAYER
 10
758.17893218813447
 20
297.32106781186548
 30
0.0
 11
767.32106781186542
 21
288.17893218813452
 31
0.0
  0
LINE
  5
107
100
AcDbEntity
100
AcDbLine
  8
0
 62
256
370
-1
 48
1.0
  6
BYLAYER
 10
767.32106781186553
 20
211.82106781186548
 30
0.0
 11
758.17893218813458
 21
202.67893218813452
 31
0.0
  0
LINE
  5
108
100
AcDbEntity
100
AcDbLine
  8
0
 62
256
370
-1
 48
1.0
  6
BYLAYER
 10
681.82106781186553
 20
202.67893218813452
 30
0.0
 11
672.67893218813458
 21
211.82106781186548
 31
0.0
  0
CIRCLE
  5
109
100
AcDbEntity
100
AcDbCircle
  8
0
 62
256
370
-1
 48
1.0
  6
BYLAYER
 10
683.26040764008565
 20
286.73959235991435
 30
0.0
 40
1.5
  0
POINT
  5
10A
100
AcDbEntity
100
AcDbPoint
  8
0
 62
256
370
-1
 48
1.0
  6
BYLAYER
 10
720.0
 20
250.0
 30
0.0
  0
CIRCLE
  5
10B
100
AcDbEntity
100
AcDbCircle
  8
0
 62
256
370
-1
 48
1.0
  6
BYLAYER
 10
704.38048511259979
 20
265.61951488740021
 30
0.0
 40
1.5
  0
CIRCLE
  5
10C
100
AcDbEntity
100
AcDbCircle
  8
0
 62
256
370
-1
 48
1.0
  6
BYLAYER
 10
697.1798046277429
 20
272.82019537225716
 30
0.0
 40
1.5
  0
CIRCLE
  5
10D
100
AcDbEntity
100
AcDbCircle
  8
0
 62
256
370
-1
 48
1.0
  6
BYLAYER
 10
704.38048511259979
 20
234.38048511259981
 30
0.0
 40
1.5
  0
CIRCLE
  5
10E
100
AcDbEntity
100
AcDbCircle
  8
0
 62
256
370
-1
 48
1.0
  6
BYLAYER
 10
697.17980462774278
 20
227.17980462774284
 30
0.0
 40
1.5
  0
CIRCLE
  5
10F
100
AcDbEntity
100
AcDbCircle
  8
0
 62
256
370
-1
 48
1.0
  6
BYLAYER
 10
683.26040764008565
 20
213.26040764008565
 30
0.0
 40
1.5
  0
CIRCLE
  5
110
100
AcDbEntity
100
AcDbCircle
  8
0
 62
256
370
-1
 48
1.0
  6
BYLAYER
 10
735.61951488740021
 20
234.38048511259981
 30
0.0
 40
1.5
  0
CIRCLE
  5
111
100
AcDbEntity
100
AcDbCircle
  8
0
 62
256
370
-1
 48
1.0
  6
BYLAYER
 10
742.8201953722571
 20
227.17980462774284
 30
0.0
 40
1.5
  0
CIRCLE
  5
112
100
AcDbEntity
100
AcDbCircle
  8
0
 62
256
370
-1
 48
1.0
  6
BYLAYER
 10
756.73959235991435
 20
213.26040764008565
 30
0.0
 40
1.5
  0
CIRCLE
  5
113
100
AcDbEntity
100
AcDbCircle
  8
0
 62
256
370
-1
 48
1.0
  6
BYLAYER
 10
735.61951488740021
 20
265.61951488740016
 30
0.0
 40
1.5
  0
CIRCLE
  5
114
100
AcDbEntity
100
AcDbCircle
  8
0
 62
256
370
-1
 48
1.0
  6
BYLAYER
 10
742.82019537225722
 20
272.82019537225716
 30
0.0
 40
1.5
  0
CIRCLE
  5
115
100
AcDbEntity
100
AcDbCircle
  8
0
 62
256
370
-1
 48
1.0
  6
BYLAYER
 10
756.73959235991435
 20
286.73959235991435
 30
0.0
 40
1.5
  0
ARC
  5
116
100
AcDbEntity
  8
0
 62
256
370
-1
 48
1.0
  6
BYLAYER
100
AcDbCircle
 10
679.75
 20
281.10786437626905
 30
0.0
 40
10.0
100
AcDbArc
 50
135.00000000000003
 51
180.0
  0
ARC
  5
117
100
AcDbEntity
  8
0
 62
256
370
-1
 48
1.0
  6
BYLAYER
100
AcDbCircle
 10
688.89213562373095
 20
290.25
 30
0.0
 40
10.0
100
AcDbArc
 50
90.000000000000014
 51
135.0
  0
ARC
  5
118
100
AcDbEntity
  8
0
 62
256
370
-1
 48
1.0
  6
BYLAYER
100
AcDbCircle
 10
751.10786437626905
 20
290.25
 30
0.0
 40
10.0
100
AcDbArc
 50
45.000000000000007
 51
90.0
  0
ARC
  5
119
100
AcDbEntity
  8
0
 62
256
370
-1
 48
1.0
  6
BYLAYER
100
AcDbCircle
 10
760.25
 20
281.10786437626905
 30
0.0
 40
10.0
100
AcDbArc
 50
0.0
 51
44.999999999999986
  0
ARC
  5
11A
100
AcDbEntity
  8
0
 62
256
370
-1
 48
1.0
  6
BYLAYER
100
AcDbCircle
 10
760.25
 20
218.89213562373095
 30
0.0
 40
10.0
100
AcDbArc
 50
315.0
 51
0.0
  0
ARC
  5
11B
100
AcDbEntity
  8
0
 62
256
370
-1
 48
1.0
  6
BYLAYER
100
AcDbCircle
 10
751.10786437626905
 20
209.75
 30
0.0
 40
10.0
100
AcDbArc
 50
270.0
 51
315.0
  0
ARC
  5
11C
100
AcDbEntity
  8
0
 62
256
370
-1
 48
1.0
  6
BYLAYER
100
AcDbCircle
 10
688.89213562373095
 20
209.75
 30
0.0
 40
10.0
100
AcDbArc
 50
225.0
 51
270.0
  0
ARC
  5
11D
100
AcDbEntity
  8
0
 62
256
370
-1
 48
1.0
  6
BYLAYER
100
AcDbCircle
 10
679.75
 20
218.89213562373095
 30
0.0
 40
10.0
100
AcDbArc
 50
180.0
 51
225.0
  0
ARC
  5
11E
100
AcDbEntity
  8
0
 62
256
370
-1
 48
1.0
  6
BYLAYER
100
AcDbCircle
 10
681.75
 20
274.67354980121826
 30
0.0
 40
2.0
100
AcDbArc
 50
44.999999999999986
 51
180.0
  0
ARC
  5
11F
100
AcDbEntity
  8
0
 62
256
370
-1
 48
1.0
  6
BYLAYER
100
AcDbCircle
 10
695.32645019878169
 20
288.25
 30
0.0
 40
2.0
100
AcDbArc
 50
90.000000000000099
 51
225.00000000000011
  0
ARC
  5
120
100
AcDbEntity
  8
0
 62
256
370
-1
 48
1.0
  6
BYLAYER
100
AcDbCircle
 10
744.67354980121831
 20
288.25
 30
0.0
 40
2.0
100
AcDbArc
 50
314.99999999999994
 51
90.0
  0
ARC
  5
121
100
AcDbEntity
  8
0
 62
256
370
-1
 48
1.0
  6
BYLAYER
100
AcDbCircle
 10
758.25
 20
274.6735498012182
 30
0.0
 40
2.0
100
AcDbArc
 50
0.0
 51
134.99999999999989
  0
ARC
  5
122
100
AcDbEntity
  8
0
 62
256
370
-1
 48
1.0
  6
BYLAYER
100
AcDbCircle
 10
758.25
 20
225.32645019878163
 30
0.0
 40
2.0
100
AcDbArc
 50
225.0
 51
0.0
  0
ARC
  5
123
100
AcDbEntity
  8
0
 62
256
370
-1
 48
1.0
  6
BYLAYER
100
AcDbCircle
 10
744.6735498012182
 20
211.75
 30
0.0
 40
2.0
100
AcDbArc
 50
270.00000000000011
 51
44.999999999999922
  0
ARC
  5
124
100
AcDbEntity
  8
0
 62
256
370
-1
 48
1.0
  6
BYLAYER
100
AcDbCircle
 10
695.32645019878169
 20
211.75
 30
0.0
 40
2.0
100
AcDbArc
 50
134.99999999999994
 51
270.0
  0
ARC
  5
125
100
AcDbEntity
  8
0
 62
256
370
-1
 48
1.0
  6
BYLAYER
100
AcDbCircle
 10
681.75
 20
225.32645019878166
 30
0.0
 40
2.0
100
AcDbArc
 50
180.0
 51
314.99999999999994
  0
ARC
  5
126
100
AcDbEntity
  8
0
 62
256
370
-1
 48
1.0
  6
BYLAYER
100
AcDbCircle
 10
713.4048773235279
 20
273.0
 30
0.0
 40
4.0
100
AcDbArc
 50
224.99999999999997
 51
270.0
  0
ARC
  5
127
100
AcDbEntity
  8
0
 62
256
370
-1
 48
1.0
  6
BYLAYER
100
AcDbCircle
 10
726.5951226764721
 20
273.0
 30
0.0
 40
4.0
100
AcDbArc
 50
270.0
 51
314.99999999999994
  0
ARC
  5
128
100
AcDbEntity
  8
0
 62
256
370
-1
 48
1.0
  6
BYLAYER
100
AcDbCircle
 10
743.0
 20
256.59512267647204
 30
0.0
 40
4.0
100
AcDbArc
 50
134.99999999999997
 51
180.0
  0
ARC
  5
129
100
AcDbEntity
  8
0
 62
256
370
-1
 48
1.0
  6
BYLAYER
100
AcDbCircle
 10
743.0
 20
243.40487732352784
 30
0.0
 40
4.0
100
AcDbArc
 50
180.0
 51
224.99999999999991
  0
ARC
  5
12A
100
AcDbEntity
  8
0
 62
256
370
-1
 48
1.0
  6
BYLAYER
100
AcDbCircle
 10
726.59512267647199
 20
227.0
 30
0.0
 40
4.0
100
AcDbArc
 50
44.999999999999979
 51
90.000000000000014
  0
ARC
  5
12B
100
AcDbEntity
  8
0
 62
256
370
-1
 48
1.0
  6
BYLAYER
100
AcDbCircle
 10
713.4048773235279
 20
227.0
 30
0.0
 40
4.0
100
AcDbArc
 50
90.0
 51
134.99999999999994
  0
ARC
  5
12C
100
AcDbEntity
  8
0
 62
256
370
-1
 48
1.0
  6
BYLAYER
100
AcDbCircle
 10
697.0
 20
243.40487732352784
 30
0.0
 40
4.0
100
AcDbArc
 50
314.99999999999994
 51
0.0
  0
ARC
  5
12D
100
AcDbEntity
  8
0
 62
256
370
-1
 48
1.0
  6
BYLAYER
100
AcDbCircle
 10
697.0
 20
256.59512267647204
 30
0.0
 40
4.0
100
AcDbArc
 50
0.0
 51
44.999999999999972
  0
DIMENSION
  5
12E
100
AcDbEntity
  8
Measures
 62
256
370
-1
 48
1.0
  6
BYLAYER
100
AcDbDimension
 10
-21.380485112599839
 20
-52.619514887400143
 30
0.0
 11
-9.4946211616179834
 21
-61.853728408932454
 31
0.0
 70
1
 71
8
 72
2
 41
1.0
 42
0.0
  1

  3
Standard
100
AcDbAlignedDimension
 13
15.619514887400182
 23
-15.619514887400189
 33
0.0
 14
36.73959235991434
 24
-36.739592359914361
 34
0.0
1001
ACAD
1000
DSTYLE
1002
{
1070
144
1040
1
1002
}
  0
DIMENSION
  5
12F
100
AcDbEntity
  8
Measures
 62
256
370
-1
 48
1.0
  6
BYLAYER
100
AcDbDimension
 10
-7.7564739555977944
 20
-53.396864700112047
 30
0.0
 11
0.529049752955576
 21
-59.030737979215871
 31
0.0
 70
1
 71
8
 72
2
 41
1.0
 42
0.0
  1

  3
Standard
100
AcDbAlignedDimension
 13
22.820195372257153
 23
-22.820195372257164
 33
0.0
 14
36.73959235991434
 24
-36.739592359914361
 34
0.0
1001
ACAD
1000
DSTYLE
1002
{
1070
144
1040
1
1002
}
  0
DIMENSION
  5
130
100
AcDbEntity
  8
Measures
 62
256
370
-1
 48
1.0
  6
BYLAYER
100
AcDbDimension
 10
6.7911140780637105
 20
-24.447915696736658
 30
0.0
 11
19.491513972149384
 21
-34.496665161372782
 31
0.0
 70
1
 71
8
 72
2
 41
1.0
 42
0.0
  1

  3
Standard
100
AcDbAlignedDimension
 13
15.619514887400182
 23
-15.619514887400189
 33
0.0
 14
22.820195372257153
 24
-22.820195372257164
 34
0.0
1001
ACAD
1000
DSTYLE
1002
{
1070
144
1040
1
1002
}
  0
DIMENSION
  5
131
100
AcDbEntity
  8
Measures
 62
256
370
-1
 48
1.0
  6
BYLAYER
100
AcDbDimension
 10
-91.51958899933183
 20
6.0195889993318374
 30
0.0
 11
-50.095414214056262
 21
50.095414214056632
 31
0.0
 70
0
 71
8
 72
2
 41
1.0
 42
0.0
  1

  3
Standard
100
AcDbAlignedDimension
 13
-42.75
 23
-42.75
 33
0.0
 14
42.75
 24
42.75
 34
0.0
 50
45.0
100
AcDbRotatedDimension
1001
ACAD
1000
DSTYLE
1002
{
1070
144
1040
1
1002
}
  0
DIMENSION
  5
132
100
AcDbEntity
  8
Measures
 62
256
370
-1
 48
1.0
  6
BYLAYER
100
AcDbDimension
 10
78.01786469799822
 20
19.0
 30
0.0
 11
76.14286469799822
 21
0.0000000000000002
 31
0.0
 70
0
 71
8
 72
2
 41
1.0
 42
0.0
  1

  3
Standard
100
AcDbAlignedDimension
 13
0.000000000000004
 23
19.0
 33
0.0
 14
-0.0000000000000266
 24
-19.0
 34
0.0
 50
90.0
100
AcDbRotatedDimension
1001
ACAD
1000
DSTYLE
1002
{
1070
144
1040
1
1002
}
  0
DIMENSION
  5
133
100
AcDbEntity
  8
Measures
 62
256
370
-1
 48
1.0
  6
BYLAYER
100
AcDbDimension
 10
90.113864697998196
 20
-40.25
 30
0.0
 11
88.238864697998196
 21
0.0000000000000002
 31
0.0
 70
0
 71
8
 72
2
 41
1.0
 42
0.0
  1

  3
Standard
100
AcDbAlignedDimension
 13
-0.0000000000000391
 23
-40.25
 33
0.0
 14
0.0000000000000089
 24
40.25
 34
0.0
 50
90.0
100
AcDbRotatedDimension
1001
ACAD
1000
DSTYLE
1002
{
1070
144
1040
1
1002
}
  0
DIMENSION
  5
134
100
AcDbEntity
  8
Measures
 62
256
370
-1
 48
1.0
  6
BYLAYER
100
AcDbDimension
 10
99.963464697998177
 20
50.25
 30
0.0
 11
98.088464697998177
 21
0.0000000000000002
 31
0.0
 70
0
 71
8
 72
2
 41
1.0
 42
0.0
  1

  3
Standard
100
AcDbAlignedDimension
 13
-0.0000000000000053
 23
50.25
 33
0.0
 14
0.0000000000000053
 24
-50.25
 34
0.0
 50
90.0
100
AcDbRotatedDimension
1001
ACAD
1000
DSTYLE
1002
{
1070
144
1040
1
1002
}
  0
LINE
  5
135
100
AcDbEntity
100
AcDbLine
  8
0
 62
256
370
-1
 48
1.0
  6
BYLAYER
 10
694.48713951263926
 20
40.860001680291305
 30
0.0
 11
756.70286826517736
 21
40.860001680291305
 31
0.0
  0
LINE
  5
136
100
AcDbEntity
100
AcDbLine
  8
0
 62
256
370
-1
 48
1.0
  6
BYLAYER
 10
775.84500388890831
 20
60.002137304022256
 30
0.0
 11
775.84500388890831
 21
122.21786605656037
 31
0.0
  0
LINE
  5
137
100
AcDbEntity
100
AcDbLine
  8
0
 62
256
370
-1
 48
1.0
  6
BYLAYER
 10
756.70286826517736
 20
141.3600016802913
 30
0.0
 11
694.48713951263926
 21
141.3600016802913
 31
0.0
  0
LINE
  5
138
100
AcDbEntity
100
AcDbLine
  8
0
 62
256
370
-1
 48
1.0
  6
BYLAYER
 10
675.34500388890831
 20
122.21786605656035
 30
0.0
 11
675.34500388890831
 21
60.002137304022256
 31
0.0
  0
LINE
  5
139
100
AcDbEntity
100
AcDbLine
  8
0
 62
256
370
-1
 48
1.0
  6
BYLAYER
 10
765.84500388890831
 20
66.436451879072948
 30
0.0
 11
765.84500388890831
 21
115.78355148150952
 31
0.0
  0
LINE
  5
13A
100
AcDbEntity
100
AcDbLine
  8
0
 62
256
370
-1
 48
1.0
  6
BYLAYER
 10
700.92145408768999
 20
50.860001680291305
 30
0.0
 11
750.26855369012651
 21
50.860001680291305
 31
0.0
  0
LINE
  5
13B
100
AcDbEntity
100
AcDbLine
  8
0
 62
256
370
-1
 48
1.0
  6
BYLAYER
 10
685.34500388890831
 20
115.78355148150956
 30
0.0
 11
685.34500388890831
 21
66.436451879072962
 31
0.0
  0
LINE
  5
13C
100
AcDbEntity
100
AcDbLine
  8
0
 62
256
370
-1
 48
1.0
  6
BYLAYER
 10
750.26855369012674
 20
131.3600016802913
 30
0.0
 11
700.92145408768999
 21
131.3600016802913
 31
0.0
  0
LINE
  5
13D
100
AcDbEntity
100
AcDbLine
  8
0
 62
256
370
-1
 48
1.0
  6
BYLAYER
 10
716.17145408768999
 20
111.28157455554512
 30
0.0
 11
699.50724052531689
 21
127.94578811791821
 31
0.0
  0
LINE
  5
13E
100
AcDbEntity
100
AcDbLine
  8
0
 62
256
370
-1
 48
1.0
  6
BYLAYER
 10
751.68276725249973
 20
127.94578811791821
 30
0.0
 11
735.01855369012662
 21
111.28157455554511
 31
0.0
  0
LINE
  5
13F
100
AcDbEntity
100
AcDbLine
  8
0
 62
256
370
-1
 48
1.0
  6
BYLAYER
 10
745.7665767641621
 20
100.53355148150955
 30
0.0
 11
762.4307903265352
 21
117.19776504388261
 31
0.0
  0
LINE
  5
140
100
AcDbEntity
100
AcDbLine
  8
0
 62
256
370
-1
 48
1.0
  6
BYLAYER
 10
762.4307903265352
 20
65.022238316699855
 30
0.0
 11
745.7665767641621
 21
81.686451879072962
 31
0.0
  0
LINE
  5
141
100
AcDbEntity
100
AcDbLine
  8
0
 62
256
370
-1
 48
1.0
  6
BYLAYER
 10
735.01855369012651
 20
70.938428805037489
 30
0.0
 11
751.68276725249962
 21
54.274215242664397
 31
0.0
  0
LINE
  5
142
100
AcDbEntity
100
AcDbLine
  8
0
 62
256
370
-1
 48
1.0
  6
BYLAYER
 10
699.50724052531689
 20
54.274215242664404
 30
0.0
 11
716.17145408768999
 21
70.938428805037489
 31
0.0
  0
LINE
  5
143
100
AcDbEntity
100
AcDbLine
  8
0
 62
256
370
-1
 48
1.0
  6
BYLAYER
 10
705.42343101365452
 20
81.686451879072962
 30
0.0
 11
688.75921745128142
 21
65.02223831669987
 31
0.0
  0
LINE
  5
144
100
AcDbEntity
100
AcDbLine
  8
0
 62
256
370
-1
 48
1.0
  6
BYLAYER
 10
688.75921745128142
 20
117.19776504388267
 30
0.0
 11
705.42343101365452
 21
100.53355148150956
 31
0.0
  0
LINE
  5
145
100
AcDbEntity
100
AcDbLine
  8
0
 62
256
370
-1
 48
1.0
  6
BYLAYER
 10
732.19012656538052
 20
110.1100016802913
 30
0.0
 11
718.99988121243621
 21
110.1100016802913
 31
0.0
  0
LINE
  5
146
100
AcDbEntity
100
AcDbLine
  8
0
 62
256
370
-1
 48
1.0
  6
BYLAYER
 10
744.59500388890831
 20
84.514879003819146
 30
0.0
 11
744.59500388890831
 21
97.705124356763349
 31
0.0
  0
LINE
  5
147
100
AcDbEntity
100
AcDbLine
  8
0
 62
256
370
-1
 48
1.0
  6
BYLAYER
 10
718.99988121243621
 20
72.110001680291305
 30
0.0
 11
732.19012656538041
 21
72.110001680291305
 31
0.0
  0
LINE
  5
148
100
AcDbEntity
100
AcDbLine
  8
0
 62
256
370
-1
 48
1.0
  6
BYLAYER
 10
706.59500388890831
 20
97.705124356763378
 30
0.0
 11
706.59500388890831
 21
84.514879003819161
 31
0.0
  0
CIRCLE
  5
149
100
AcDbEntity
100
AcDbCircle
  8
0
 62
256
370
-1
 48
1.0
  6
BYLAYER
 10
725.59500388890831
 20
91.110001680291305
 30
0.0
 40
10.0
  0
LINE
  5
14A
100
AcDbEntity
100
AcDbLine
  8
0
 62
256
370
-1
 48
1.0
  6
BYLAYER
 10
678.27393607704289
 20
129.28893386842583
 30
0.0
 11
687.41607170077384
 21
138.43106949215678
 31
0.0
  0
LINE
  5
14B
100
AcDbEntity
100
AcDbLine
  8
0
 62
256
370
-1
 48
1.0
  6
BYLAYER
 10
763.77393607704289
 20
138.43106949215678
 30
0.0
 11
772.91607170077384
 21
129.28893386842583
 31
0.0
  0
LINE
  5
14C
100
AcDbEntity
100
AcDbLine
  8
0
 62
256
370
-1
 48
1.0
  6
BYLAYER
 10
772.91607170077384
 20
52.93106949215678
 30
0.0
 11
763.77393607704289
 21
43.788933868425836
 31
0.0
  0
LINE
  5
14D
100
AcDbEntity
100
AcDbLine
  8
0
 62
256
370
-1
 48
1.0
  6
BYLAYER
 10
687.41607170077384
 20
43.788933868425829
 30
0.0
 11
678.27393607704289
 21
52.931069492156773
 31
0.0
  0
CIRCLE
  5
14E
100
AcDbEntity
100
AcDbCircle
  8
0
 62
256
370
-1
 48
1.0
  6
BYLAYER
 10
688.85541152899395
 20
127.84959404020566
 30
0.0
 40
1.5
  0
POINT
  5
14F
100
AcDbEntity
100
AcDbPoint
  8
0
 62
256
370
-1
 48
1.0
  6
BYLAYER
 10
725.59500388890831
 20
91.110001680291305
 30
0.0
  0
CIRCLE
  5
150
100
AcDbEntity
100
AcDbCircle
  8
0
 62
256
370
-1
 48
1.0
  6
BYLAYER
 10
709.97548900150809
 20
106.72951656769149
 30
0.0
 40
1.5
  0
CIRCLE
  5
151
100
AcDbEntity
100
AcDbCircle
  8
0
 62
256
370
-1
 48
1.0
  6
BYLAYER
 10
702.77480851665121
 20
113.93019705254846
 30
0.0
 40
1.5
  0
CIRCLE
  5
152
100
AcDbEntity
100
AcDbCircle
  8
0
 62
256
370
-1
 48
1.0
  6
BYLAYER
 10
709.97548900150809
 20
75.490486792891119
 30
0.0
 40
1.5
  0
CIRCLE
  5
153
100
AcDbEntity
100
AcDbCircle
  8
0
 62
256
370
-1
 48
1.0
  6
BYLAYER
 10
702.77480851665121
 20
68.289806308034144
 30
0.0
 40
1.5
  0
CIRCLE
  5
154
100
AcDbEntity
100
AcDbCircle
  8
0
 62
256
370
-1
 48
1.0
  6
BYLAYER
 10
688.85541152899395
 20
54.370409320376957
 30
0.0
 40
1.5
  0
CIRCLE
  5
155
100
AcDbEntity
100
AcDbCircle
  8
0
 62
256
370
-1
 48
1.0
  6
BYLAYER
 10
741.21451877630852
 20
75.490486792891119
 30
0.0
 40
1.5
  0
CIRCLE
  5
156
100
AcDbEntity
100
AcDbCircle
  8
0
 62
256
370
-1
 48
1.0
  6
BYLAYER
 10
748.41519926116553
 20
68.289806308034144
 30
0.0
 40
1.5
  0
CIRCLE
  5
157
100
AcDbEntity
100
AcDbCircle
  8
0
 62
256
370
-1
 48
1.0
  6
BYLAYER
 10
762.33459624882266
 20
54.370409320376943
 30
0.0
 40
1.5
  0
CIRCLE
  5
158
100
AcDbEntity
100
AcDbCircle
  8
0
 62
256
370
-1
 48
1.0
  6
BYLAYER
 10
741.21451877630852
 20
106.72951656769149
 30
0.0
 40
1.5
  0
CIRCLE
  5
159
100
AcDbEntity
100
AcDbCircle
  8
0
 62
256
370
-1
 48
1.0
  6
BYLAYER
 10
748.41519926116553
 20
113.93019705254846
 30
0.0
 40
1.5
  0
CIRCLE
  5
15A
100
AcDbEntity
100
AcDbCircle
  8
0
 62
256
370
-1
 48
1.0
  6
BYLAYER
 10
762.33459624882266
 20
127.84959404020564
 30
0.0
 40
1.5
  0
ARC
  5
15B
100
AcDbEntity
  8
0
 62
256
370
-1
 48
1.0
  6
BYLAYER
100
AcDbCircle
 10
685.34500388890831
 20
122.21786605656035
 30
0.0
 40
10.0
100
AcDbArc
 50
135.00000000000003
 51
180.0
  0
ARC
  5
15C
100
AcDbEntity
  8
0
 62
256
370
-1
 48
1.0
  6
BYLAYER
100
AcDbCircle
 10
694.48713951263926
 20
131.3600016802913
 30
0.0
 40
10.0
100
AcDbArc
 50
90.000000000000014
 51
135.0
  0
ARC
  5
15D
100
AcDbEntity
  8
0
 62
256
370
-1
 48
1.0
  6
BYLAYER
100
AcDbCircle
 10
756.70286826517736
 20
131.3600016802913
 30
0.0
 40
10.0
100
AcDbArc
 50
45.000000000000007
 51
90.0
  0
ARC
  5
15E
100
AcDbEntity
  8
0
 62
256
370
-1
 48
1.0
  6
BYLAYER
100
AcDbCircle
 10
765.84500388890831
 20
122.21786605656037
 30
0.0
 40
10.0
100
AcDbArc
 50
0.0
 51
44.999999999999986
  0
ARC
  5
15F
100
AcDbEntity
  8
0
 62
256
370
-1
 48
1.0
  6
BYLAYER
100
AcDbCircle
 10
765.84500388890831
 20
60.002137304022256
 30
0.0
 40
10.0
100
AcDbArc
 50
315.0
 51
0.0
  0
ARC
  5
160
100
AcDbEntity
  8
0
 62
256
370
-1
 48
1.0
  6
BYLAYER
100
AcDbCircle
 10
756.70286826517736
 20
50.860001680291312
 30
0.0
 40
10.0
100
AcDbArc
 50
270.0
 51
315.0
  0
ARC
  5
161
100
AcDbEntity
  8
0
 62
256
370
-1
 48
1.0
  6
BYLAYER
100
AcDbCircle
 10
694.48713951263926
 20
50.860001680291305
 30
0.0
 40
10.0
100
AcDbArc
 50
225.0
 51
270.0
  0
ARC
  5
162
100
AcDbEntity
  8
0
 62
256
370
-1
 48
1.0
  6
BYLAYER
100
AcDbCircle
 10
685.34500388890831
 20
60.002137304022256
 30
0.0
 40
10.0
100
AcDbArc
 50
180.0
 51
225.0
  0
ARC
  5
163
100
AcDbEntity
  8
0
 62
256
370
-1
 48
1.0
  6
BYLAYER
100
AcDbCircle
 10
687.34500388890831
 20
115.78355148150956
 30
0.0
 40
2.0
100
AcDbArc
 50
44.999999999999986
 51
180.0
  0
ARC
  5
164
100
AcDbEntity
  8
0
 62
256
370
-1
 48
1.0
  6
BYLAYER
100
AcDbCircle
 10
700.92145408768999
 20
129.3600016802913
 30
0.0
 40
2.0
100
AcDbArc
 50
90.000000000000099
 51
225.00000000000011
  0
ARC
  5
165
100
AcDbEntity
  8
0
 62
256
370
-1
 48
1.0
  6
BYLAYER
100
AcDbCircle
 10
750.26855369012674
 20
129.3600016802913
 30
0.0
 40
2.0
100
AcDbArc
 50
314.99999999999994
 51
90.0
  0
ARC
  5
166
100
AcDbEntity
  8
0
 62
256
370
-1
 48
1.0
  6
BYLAYER
100
AcDbCircle
 10
763.84500388890831
 20
115.78355148150952
 30
0.0
 40
2.0
100
AcDbArc
 50
0.0
 51
134.99999999999989
  0
ARC
  5
167
100
AcDbEntity
  8
0
 62
256
370
-1
 48
1.0
  6
BYLAYER
100
AcDbCircle
 10
763.84500388890831
 20
66.436451879072948
 30
0.0
 40
2.0
100
AcDbArc
 50
225.0
 51
0.0
  0
ARC
  5
168
100
AcDbEntity
  8
0
 62
256
370
-1
 48
1.0
  6
BYLAYER
100
AcDbCircle
 10
750.26855369012651
 20
52.860001680291305
 30
0.0
 40
2.0
100
AcDbArc
 50
270.00000000000011
 51
44.999999999999922
  0
ARC
  5
169
100
AcDbEntity
  8
0
 62
256
370
-1
 48
1.0
  6
BYLAYER
100
AcDbCircle
 10
700.92145408768999
 20
52.860001680291305
 30
0.0
 40
2.0
100
AcDbArc
 50
134.99999999999994
 51
270.0
  0
ARC
  5
16A
100
AcDbEntity
  8
0
 62
256
370
-1
 48
1.0
  6
BYLAYER
100
AcDbCircle
 10
687.34500388890831
 20
66.436451879072962
 30
0.0
 40
2.0
100
AcDbArc
 50
180.0
 51
314.99999999999994
  0
ARC
  5
16B
100
AcDbEntity
  8
0
 62
256
370
-1
 48
1.0
  6
BYLAYER
100
AcDbCircle
 10
718.99988121243621
 20
114.1100016802913
 30
0.0
 40
4.0
100
AcDbArc
 50
224.99999999999997
 51
270.0
  0
ARC
  5
16C
100
AcDbEntity
  8
0
 62
256
370
-1
 48
1.0
  6
BYLAYER
100
AcDbCircle
 10
732.19012656538052
 20
114.1100016802913
 30
0.0
 40
4.0
100
AcDbArc
 50
270.0
 51
314.99999999999994
  0
ARC
  5
16D
100
AcDbEntity
  8
0
 62
256
370
-1
 48
1.0
  6
BYLAYER
100
AcDbCircle
 10
748.59500388890831
 20
97.705124356763363
 30
0.0
 40
4.0
100
AcDbArc
 50
134.99999999999997
 51
180.0
  0
ARC
  5
16E
100
AcDbEntity
  8
0
 62
256
370
-1
 48
1.0
  6
BYLAYER
100
AcDbCircle
 10
748.59500388890831
 20
84.514879003819146
 30
0.0
 40
4.0
100
AcDbArc
 50
180.0
 51
224.99999999999991
  0
ARC
  5
16F
100
AcDbEntity
  8
0
 62
256
370
-1
 48
1.0
  6
BYLAYER
100
AcDbCircle
 10
732.19012656538041
 20
68.110001680291305
 30
0.0
 40
4.0
100
AcDbArc
 50
44.999999999999979
 51
90.000000000000014
  0
ARC
  5
170
100
AcDbEntity
  8
0
 62
256
370
-1
 48
1.0
  6
BYLAYER
100
AcDbCircle
 10
718.99988121243621
 20
68.110001680291305
 30
0.0
 40
4.0
100
AcDbArc
 50
90.0
 51
134.99999999999994
  0
ARC
  5
171
100
AcDbEntity
  8
0
 62
256
370
-1
 48
1.0
  6
BYLAYER
100
AcDbCircle
 10
702.59500388890831
 20
84.514879003819161
 30
0.0
 40
4.0
100
AcDbArc
 50
314.99999999999994
 51
0.0
  0
ARC
  5
172
100
AcDbEntity
  8
0
 62
256
370
-1
 48
1.0
  6
BYLAYER
100
AcDbCircle
 10
702.59500388890831
 20
97.705124356763378
 30
0.0
 40
4.0
100
AcDbArc
 50
0.0
 51
44.999999999999972
  0
DIMENSION
  5
173
100
AcDbEntity
  8
Measures
 62
256
370
-1
 48
1.0
  6
BYLAYER
100
AcDbDimension
 10
704.21451877630841
 20
38.490486792891154
 30
0.0
 11
716.10038272729025
 21
29.256273271358811
 31
0.0
 70
1
 71
8
 72
2
 41
1.0
 42
0.0
  1

  3
Standard
100
AcDbAlignedDimension
 13
741.21451877630852
 23
75.490486792891119
 33
0.0
 14
762.33459624882266
 24
54.370409320376886
 34
0.0
1001
ACAD
1000
DSTYLE
1002
{
1070
144
1040
1
1002
}
  0
DIMENSION
  5
174
100
AcDbEntity
  8
Measures
 62
256
370
-1
 48
1.0
  6
BYLAYER
100
AcDbDimension
 10
717.8385299333105
 20
37.713136980179392
 30
0.0
 11
726.12405364186384
 21
32.079263701075533
 31
0.0
 70
1
 71
8
 72
2
 41
1.0
 42
0.0
  1

  3
Standard
100
AcDbAlignedDimension
 13
748.41519926116553
 23
68.289806308034144
 33
0.0
 14
762.33459624882266
 24
54.370409320376886
 34
0.0
1001
ACAD
1000
DSTYLE
1002
{
1070
144
1040
1
1002
}
  0
DIMENSION
  5
175
100
AcDbEntity
  8
Measures
 62
256
370
-1
 48
1.0
  6
BYLAYER
100
AcDbDimension
 10
732.38611796697205
 20
66.662085983554618
 30
0.0
 11
745.08651786105781
 21
56.613336518918494
 31
0.0
 70
1
 71
8
 72
2
 41
1.0
 42
0.0
  1

  3
Standard
100
AcDbAlignedDimension
 13
741.21451877630852
 23
75.490486792891119
 33
0.0
 14
748.41519926116553
 24
68.289806308034144
 34
0.0
1001
ACAD
1000
DSTYLE
1002
{
1070
144
1040
1
1002
}
  0
DIMENSION
  5
176
100
AcDbEntity
  8
Measures
 62
256
370
-1
 48
1.0
  6
BYLAYER
100
AcDbDimension
 10
634.07541488957645
 20
97.12959067962349
 30
0.0
 11
675.49958967485145
 21
141.20541589434811
 31
0.0
 70
0
 71
8
 72
2
 41
1.0
 42
0.0
  1

  3
Standard
100
AcDbAlignedDimension
 13
682.84500388890831
 23
48.360001680291333
 33
0.0
 14
768.34500388890831
 24
133.8600016802913
 34
0.0
 50
45.0
100
AcDbRotatedDimension
1001
ACAD
1000
DSTYLE
1002
{
1070
144
1040
1
1002
}
  0
DIMENSION
  5
177
100
AcDbEntity
  8
Measures
 62
256
370
-1
 48
1.0
  6
BYLAYER
100
AcDbDimension
 10
803.61286858690653
 20
110.11000168029132
 30
0.0
 11
801.73786858690653
 21
91.110001680291305
 31
0.0
 70
0
 71
8
 72
2
 41
1.0
 42
0.0
  1

  3
Standard
100
AcDbAlignedDimension
 13
725.59500388890831
 23
110.1100016802913
 33
0.0
 14
725.59500388890831
 24
72.110001680291305
 34
0.0
 50
90.0
100
AcDbRotatedDimension
1001
ACAD
1000
DSTYLE
1002
{
1070
144
1040
1
1002
}
  0
DIMENSION
  5
178
100
AcDbEntity
  8
Measures
 62
256
370
-1
 48
1.0
  6
BYLAYER
100
AcDbDimension
 10
815.70886858690642
 20
50.860001680291198
 30
0.0
 11
813.83386858690642
 21
91.110001680291305
 31
0.0
 70
0
 71
8
 72
2
 41
1.0
 42
0.0
  1

  3
Standard
100
AcDbAlignedDimension
 13
725.59500388890831
 23
50.860001680291305
 33
0.0
 14
725.59500388890831
 24
131.3600016802913
 34
0.0
 50
90.0
100
AcDbRotatedDimension
1001
ACAD
1000
DSTYLE
1002
{
1070
144
1040
1
1002
}
  0
DIMENSION
  5
179
100
AcDbEntity
  8
Measures
 62
256
370
-1
 48
1.0
  6
BYLAYER
100
AcDbDimension
 10
825.55846858690654
 20
141.3600016802913
 30
0.0
 11
823.68346858690654
 21
91.110001680291305
 31
0.0
 70
0
 71
8
 72
2
 41
1.0
 42
0.0
  1

  3
Standard
100
AcDbAlignedDimension
 13
725.59500388890831
 23
141.3600016802913
 33
0.0
 14
725.59500388890831
 24
40.860001680291305
 34
0.0
 50
90.0
100
AcDbRotatedDimension
1001
ACAD
1000
DSTYLE
1002
{
1070
144
1040
1
1002
}
  0
ENDSEC
  0
SECTION
  2
OBJECTS
  0
DICTIONARY
  5
C
100
AcDbDictionary
280
0
281
1
  3
ACAD_GROUP
350
D
  3
ACAD_LAYOUT
350
1A
  3
ACAD_MLINESTYLE
350
17
  3
ACAD_PLOTSETTINGS
350
19
  3
ACAD_PLOTSTYLENAME
350
E
  3
AcDbVariableDictionary
350
17A
  3
QCAD_OBJECTS
350
17B
  0
DICTIONARY
  5
D
100
AcDbDictionary
280
0
281
1
  0
ACDBDICTIONARYWDFLT
  5
E
100
AcDbDictionary
281
1
  3
Normal
350
F
100
AcDbDictionaryWithDefault
340
F
  0
ACDBPLACEHOLDER
  5
F
  0
DICTIONARY
  5
17
100
AcDbDictionary
280
0
281
1
  3
Standard
350
18
  0
MLINESTYLE
  5
18
100
AcDbMlineStyle
  2
STANDARD
 70
0
  3

 62
256
 51
90.0
 52
90.0
 71
2
 49
0.5
 62
256
  6
BYLAYER
 49
-0.5
 62
256
  6
BYLAYER
  0
DICTIONARY
  5
19
100
AcDbDictionary
280
0
281
1
  0
DICTIONARY
  5
1A
100
AcDbDictionary
281
1
  3
Layout1
350
1E
  3
Layout2
350
26
  3
Model
350
22
  0
LAYOUT
  5
1E
100
AcDbPlotSettings
  1

  2
none_device
  4

  6

 40
0.0
 41
0.0
 42
0.0
 43
0.0
 44
0.0
 45
0.0
 46
0.0
 47
0.0
 48
0.0
 49
0.0
140
0.0
141
0.0
142
1.0
143
1.0
 70
688
 72
0
 73
0
 74
5
  7

 75
16
147
1.0
148
0.0
149
0.0
100
AcDbLayout
  1
Layout1
 70
1
 71
1
 10
0.0
 20
0.0
 11
420.0
 21
297.0
 12
0.0
 22
0.0
 32
0.0
 14
100000000000000000000.0
 24
100000000000000000000.0
 34
100000000000000000000.0
 15
-100000000000000000000.0
 25
-100000000000000000000.0
 35
-100000000000000000000.0
146
0.0
 13
0.0
 23
0.0
 33
0.0
 16
1.0
 26
0.0
 36
0.0
 17
0.0
 27
1.0
 37
0.0
 76
0
330
1B
  0
LAYOUT
  5
22
100
AcDbPlotSettings
  1

  2
none_device
  4

  6

 40
0.0
 41
0.0
 42
0.0
 43
0.0
 44
0.0
 45
0.0
 46
0.0
 47
0.0
 48
0.0
 49
0.0
140
0.0
141
0.0
142
1.0
143
1.0
 70
1712
 72
0
 73
0
 74
0
  7

 75
0
147
1.0
148
0.0
149
0.0
100
AcDbLayout
  1
Model
 70
1
 71
0
 10
0.0
 20
0.0
 11
12.0
 21
9.0
 12
0.0
 22
0.0
 32
0.0
 14
0.0
 24
0.0
 34
0.0
 15
0.0
 25
0.0
 35
0.0
146
0.0
 13
0.0
 23
0.0
 33
0.0
 16
1.0
 26
0.0
 36
0.0
 17
0.0
 27
1.0
 37
0.0
 76
0
330
1F
  0
LAYOUT
  5
26
100
AcDbPlotSettings
  1

  2
none_device
  4

  6

 40
0.0
 41
0.0
 42
0.0
 43
0.0
 44
0.0
 45
0.0
 46
0.0
 47
0.0
 48
0.0
 49
0.0
140
0.0
141
0.0
142
1.0
143
1.0
 70
688
 72
0
 73
0
 74
5
  7

 75
16
147
1.0
148
0.0
149
0.0
100
AcDbLayout
  1
Layout2
 70
1
 71
2
 10
0.0
 20
0.0
 11
12.0
 21
9.0
 12
0.0
 22
0.0
 32
0.0
 14
0.0
 24
0.0
 34
0.0
 15
0.0
 25
0.0
 35
0.0
146
0.0
 13
0.0
 23
0.0
 33
0.0
 16
1.0
 26
0.0
 36
0.0
 17
0.0
 27
1.0
 37
0.0
 76
0
330
23
  0
DICTIONARY
  5
17A
100
AcDbDictionary
281
1
  3
DIMASSOC
350
17D
  3
HIDETEXT
350
17C
  0
DICTIONARYVAR
  5
17C
100
DictionaryVariables
280
0
  1
2
  0
DICTIONARYVAR
  5
17D
100
DictionaryVariables
280
0
  1
1
  0
DICTIONARY
  5
17B
100
AcDbDictionary
281
1
  3
Grid/DisplayGrid00
350
17E
  3
Grid/DisplayGrid01
350
17F
  3
Grid/DisplayGrid02
350
180
  3
Grid/DisplayGrid03
350
181
  3
Grid/GridSpacingX00
350
182
  3
Grid/GridSpacingX01
350
183
  3
Grid/GridSpacingX02
350
184
  3
Grid/GridSpacingX03
350
185
  3
Grid/GridSpacingY00
350
186
  3
Grid/GridSpacingY01
350
187
  3
Grid/GridSpacingY02
350
188
  3
Grid/GridSpacingY03
350
189
  3
Grid/IsometricGrid00
350
18A
  3
Grid/IsometricGrid01
350
18B
  3
Grid/IsometricGrid02
350
18C
  3
Grid/IsometricGrid03
350
18D
  3
Grid/IsometricProjection00
350
18E
  3
Grid/IsometricProjection01
350
18F
  3
Grid/IsometricProjection02
350
190
  3
Grid/IsometricProjection03
350
191
  3
Grid/MetaGridSpacingX00
350
192
  3
Grid/MetaGridSpacingX01
350
193
  3
Grid/MetaGridSpacingX02
350
194
  3
Grid/MetaGridSpacingX03
350
195
  3
Grid/MetaGridSpacingY00
350
196
  3
Grid/MetaGridSpacingY01
350
197
  3
Grid/MetaGridSpacingY02
350
198
  3
Grid/MetaGridSpacingY03
350
199
  3
MultiPageSettings/Columns
350
19A
  3
MultiPageSettings/GlueMarginsBottom
350
19B
  3
MultiPageSettings/GlueMarginsLeft
350
19C
  3
MultiPageSettings/GlueMarginsRight
350
19D
  3
MultiPageSettings/GlueMarginsTop
350
19E
  3
MultiPageSettings/PrintCropMarks
350
19F
  3
MultiPageSettings/Rows
350
1A0
  3
PageSettings/OffsetX
350
1A1
  3
PageSettings/OffsetY
350
1A2
  3
PageSettings/PageOrientation
350
1A3
  3
PageSettings/PaperHeight
350
1A4
  3
PageSettings/PaperWidth
350
1A5
  3
PageSettings/Scale
350
1A6
  3
PageSettings/ShowPaperBorders
350
1A7
  3
UnitSettings/PaperUnit
350
1A8
  0
XRECORD
  5
17E
330
17B
100
AcDbXrecord
280
1
290
1
  0
XRECORD
  5
17F
330
17B
100
AcDbXrecord
280
1
290
1
  0
XRECORD
  5
180
330
17B
100
AcDbXrecord
280
1
290
1
  0
XRECORD
  5
181
330
17B
100
AcDbXrecord
280
1
290
1
  0
XRECORD
  5
182
330
17B
100
AcDbXrecord
280
1
1000
auto
  0
XRECORD
  5
183
330
17B
100
AcDbXrecord
280
1
1000
auto
  0
XRECORD
  5
184
330
17B
100
AcDbXrecord
280
1
1000
auto
  0
XRECORD
  5
185
330
17B
100
AcDbXrecord
280
1
1000
auto
  0
XRECORD
  5
186
330
17B
100
AcDbXrecord
280
1
1000
auto
  0
XRECORD
  5
187
330
17B
100
AcDbXrecord
280
1
1000
auto
  0
XRECORD
  5
188
330
17B
100
AcDbXrecord
280
1
1000
auto
  0
XRECORD
  5
189
330
17B
100
AcDbXrecord
280
1
1000
auto
  0
XRECORD
  5
18A
330
17B
100
AcDbXrecord
280
1
290
0
  0
XRECORD
  5
18B
330
17B
100
AcDbXrecord
280
1
290
0
  0
XRECORD
  5
18C
330
17B
100
AcDbXrecord
280
1
290
0
  0
XRECORD
  5
18D
330
17B
100
AcDbXrecord
280
1
290
0
  0
XRECORD
  5
18E
330
17B
100
AcDbXrecord
280
1
 90
0
  0
XRECORD
  5
18F
330
17B
100
AcDbXrecord
280
1
 90
0
  0
XRECORD
  5
190
330
17B
100
AcDbXrecord
280
1
 90
0
  0
XRECORD
  5
191
330
17B
100
AcDbXrecord
280
1
 90
0
  0
XRECORD
  5
192
330
17B
100
AcDbXrecord
280
1
1000
auto
  0
XRECORD
  5
193
330
17B
100
AcDbXrecord
280
1
1000
auto
  0
XRECORD
  5
194
330
17B
100
AcDbXrecord
280
1
1000
auto
  0
XRECORD
  5
195
330
17B
100
AcDbXrecord
280
1
1000
auto
  0
XRECORD
  5
196
330
17B
100
AcDbXrecord
280
1
1000
auto
  0
XRECORD
  5
197
330
17B
100
AcDbXrecord
280
1
1000
auto
  0
XRECORD
  5
198
330
17B
100
AcDbXrecord
280
1
1000
auto
  0
XRECORD
  5
199
330
17B
100
AcDbXrecord
280
1
1000
auto
  0
XRECORD
  5
19A
330
17B
100
AcDbXrecord
280
1
 90
1
  0
XRECORD
  5
19B
330
17B
100
AcDbXrecord
280
1
 40
10.0
  0
XRECORD
  5
19C
330
17B
100
AcDbXrecord
280
1
 40
10.0
  0
XRECORD
  5
19D
330
17B
100
AcDbXrecord
280
1
 40
10.0
  0
XRECORD
  5
19E
330
17B
100
AcDbXrecord
280
1
 40
10.0
  0
XRECORD
  5
19F
330
17B
100
AcDbXrecord
280
1
290
0
  0
XRECORD
  5
1A0
330
17B
100
AcDbXrecord
280
1
 90
1
  0
XRECORD
  5
1A1
330
17B
100
AcDbXrecord
280
1
 40
0.0
  0
XRECORD
  5
1A2
330
17B
100
AcDbXrecord
280
1
 40
0.0
  0
XRECORD
  5
1A3
330
17B
100
AcDbXrecord
280
1
1000
Portrait
  0
XRECORD
  5
1A4
330
17B
100
AcDbXrecord
280
1
 40
297.0
  0
XRECORD
  5
1A5
330
17B
100
AcDbXrecord
280
1
 40
210.0
  0
XRECORD
  5
1A6
330
17B
100
AcDbXrecord
280
1
1000
1:1
  0
XRECORD
  5
1A7
330
17B
100
AcDbXrecord
280
1
290
1
  0
XRECORD
  5
1A8
330
17B
100
AcDbXrecord
280
1
 90
4
  0
ENDSEC
  0
EOF
