<?xml version="1.0" encoding="UTF-8" standalone="no"?>
<svg
   xmlns:dc="http://purl.org/dc/elements/1.1/"
   xmlns:cc="http://creativecommons.org/ns#"
   xmlns:rdf="http://www.w3.org/1999/02/22-rdf-syntax-ns#"
   xmlns:svg="http://www.w3.org/2000/svg"
   xmlns="http://www.w3.org/2000/svg"
   version="1.1"
   id="svg2"
   viewBox="0 0 775.48365 941.94539"
   height="265.83792mm"
   width="218.85872mm">
  <defs
     id="defs4">
    <clipPath
       clipPathUnits="userSpaceOnUse"
       id="clipPath4016">
      <path
         d="m 223.898,584.109 0,5813.601 4728.752,0 0,-5813.601 -4728.752,0"
         id="path4018" />
    </clipPath>
  </defs>
  <metadata
     id="metadata7">
    <rdf:RDF>
      <cc:Work
         rdf:about="">
        <dc:format>image/svg+xml</dc:format>
        <dc:type
           rdf:resource="http://purl.org/dc/dcmitype/StillImage" />
        <dc:title></dc:title>
      </cc:Work>
    </rdf:RDF>
  </metadata>
  <g
     transform="translate(28.819139,-69.985211)"
     id="layer1">
    <g
       id="g4008"
       transform="matrix(1.25,0,0,-1.25,-7.3506189,1000.4743)">
      <g
         transform="matrix(0.12,0,0,0.12,-19.452356,-50.911688)"
         id="g4014"
         clip-path="url(#clipPath4016)">
        <path
           id="path4144"
           d="m 1597.3595,6390.5628 c 0,-0.5516 -41.9211,-123.7255 -93.1581,-273.7198 -51.2369,-149.9943 -111.5221,-326.9199 -133.9671,-393.1682 -22.4449,-66.2482 -43.2083,-125.1942 -46.1409,-130.991 -23.3407,-46.1382 -71.4518,-87.0166 -131.0172,-111.3207 -11.5615,-4.7175 -166.6135,-49.0822 -389.06167,-111.3219 -203.4118,-56.9135 -370.4945,-104.0429 -371.2949,-104.7322 -0.8005,-0.6894 4.4177,-28.6765 11.596,-62.194 52.1535,-243.518 82.7406,-416.5003 90.8704,-513.9094 2.8534,-34.1889 2.8853,-128.4788 0.053,-157.157 -13.6648,-138.3667 -67.3398,-447.0612 -131.0655,-753.7803 -83.4748,-401.7742 -130.3605,-747.0985 -147.0041,-1082.7188 -2.6314,-53.0617 -2.6238,-381.1774 0.01,-427.4555 5.0187,-88.1878 13.655,-178.3443 24.1112,-251.7046 9.4004,-65.9521 32.7171,-204.9731 43.9142,-261.8292 83.6406,-424.704 227.2969,-769.09473 415.9154,-997.08418 26.6698,-32.23665 90.3838,-95.56155 111.6743,-110.99237 37.6138,-27.26151 81.2844,-52.07656 107.277,-60.95831 16.55573,-5.65712 51.32487,-5.77229 60.46487,-0.20028 13.6827,8.34135 25.2965,30.55692 28.586,54.68057 2.195,16.09798 2.1433,16.89869 -5.7174,88.47238 -9.1156,82.99905 -11.0216,121.85388 -11.0366,224.98453 -0.016,116.53116 3.2423,167.28066 17.0176,264.98176 41.2213,292.3607 156.6584,559.6684 326.4569,755.948 110.7375,128.0078 300.0729,249.3269 481.5578,308.5644 63.7628,20.8125 133.9012,37.2814 197.0313,46.2642 182.2423,25.9312 376.4459,8.8562 545.4049,-47.9538 42.8328,-14.4019 51.8432,-15.9866 61.7568,-10.8613 12.2503,6.3335 12.3279,7.5816 4.6663,75.0251 -6.2118,54.6812 -6.7128,62.9832 -4.8852,80.9303 5.3307,52.3458 27.4752,98.3566 65.5952,136.2905 25.8147,25.6886 47.8616,39.1821 101.8174,62.3157 239.459,102.6679 591.1616,166.5481 992.925,180.346 81.0938,2.7852 127.6504,2.5098 150.0238,-0.8872 45.9391,-6.9749 84.5974,-26.2789 119.2683,-59.5569 27.1333,-26.0432 47.7612,-59.9156 57.792,-94.8992 3.4919,-12.1788 30.2216,-189.0655 86.5237,-572.5848 l 81.4707,-554.9619 78.4022,-39.1598 c 114.4006,-57.14 237.8,-114.7356 285.2207,-133.124 9.6623,-3.7468 27.2151,-9.2592 39.0062,-12.2498 19.9161,-5.0513 24.2784,-5.4286 61.4445,-5.3154 36.9031,0.1124 41.5544,0.5384 59.9625,5.4913 38.868,10.4579 84.3482,37.9344 104.1831,62.9417 12.0536,15.1965 25.993,43.7202 30.9051,63.24 3.4202,13.5905 3.9809,22.5302 3.9809,63.4637 0,43.3929 -0.4569,49.8342 -5.1194,72.1752 -5.774,27.6657 -22.1356,78.5778 -34.8764,108.5243 -4.6797,10.9993 -29.2018,63.1957 -54.4936,115.9921 -121.9506,254.57 -175.8999,379.6107 -241.1665,558.9615 -99.9364,274.6233 -139.7107,434.7641 -152.7372,614.9577 -5.1098,70.6831 -2.1649,252.3418 5.4789,337.9768 11.1311,124.7034 40.5428,258.4888 135.8531,617.9574 72.3987,273.0567 99.175,382.4669 137.7747,562.9613 66.754,312.1454 90.8214,464.3209 99.4732,628.9568 2.9368,55.8843 1.247,193.6202 -3.0547,248.9828 -10.7761,138.6905 -40.8683,246.4757 -103.2922,369.9746 -53.3637,105.5749 -121.4579,199.5097 -205.8985,284.0338 -64.7342,64.7984 -129.6427,114.8725 -199.254,153.7157 -97.9299,54.6452 -241.9389,84.6596 -452.8578,94.3845 -63.3504,2.921 -215.821,1.3267 -284.045,-2.9702 -46.1086,-2.904 -145.1344,-6.4674 -311.0495,-11.193 -255.041,-7.2643 -485.6044,-9.756 -575.0912,-6.2152 -283.8064,11.2296 -678.1672,50.1207 -1019.1616,100.5079 -73.939,10.9256 -119.0189,15.9131 -119.0189,13.1677 z m 82.013,-13.3509 c 345.2149,-51.0303 701.3186,-87.6112 1003.7542,-103.1115 69.5294,-3.5636 283.91,-4.0597 426.4726,-0.9872 193.7492,4.1758 463.1377,12.5484 513.0814,15.9467 92.5973,6.3008 212.9062,7.0336 310.0492,1.8887 149.0764,-7.8954 273.7628,-29.9883 360.9446,-63.9552 120.4085,-46.9122 258.463,-160.7473 361.5918,-298.1571 105.6693,-140.7945 176.2123,-303.1159 198.4703,-456.6846 12.8236,-88.4775 17.2647,-242.3145 10.0746,-348.976 -10.8418,-160.8249 -34.2243,-304.6278 -98.2046,-603.9584 -38.5387,-180.3026 -66.1437,-293.1067 -138.744,-566.961 -99.8899,-376.7931 -128.2908,-509.5124 -136.9457,-639.956 -6.5215,-98.2896 -7.6629,-269.6834 -2.2176,-332.9771 13.9702,-162.3816 46.0505,-296.9022 124.3731,-521.5263 77.657,-222.7143 135.2153,-358.6141 276.4457,-652.7094 20.4194,-42.5212 40.9065,-86.1682 45.5268,-96.9934 42.2979,-99.1026 54.3348,-186.2261 34.4821,-249.5838 -10.7077,-34.172 -27.0679,-57.7791 -54.101,-78.0651 -62.2519,-46.7148 -139.1907,-56.8903 -220.9283,-29.2189 -35.4978,12.0176 -156.3357,67.7754 -289.0966,133.3971 -80.6382,39.8582 -82.4413,40.8781 -83.5637,47.2681 -0.6309,3.5919 -37.1012,251.764 -81.0452,551.4933 -43.944,299.7294 -81.8712,552.612 -84.2828,561.9614 -10.7597,41.7143 -30.0673,74.4397 -62.03,105.1372 -32.1873,30.913 -74.2928,51.877 -118.377,58.9387 -18.0068,2.8844 -170.8023,1.5741 -232.4027,-1.9929 -314.196,-18.1941 -563.4495,-58.6995 -778.1234,-126.4505 -60.1257,-18.9755 -140.6273,-50.3347 -180.0285,-70.1295 -67.3107,-33.8162 -112.6299,-93.2717 -125.9294,-165.2102 -4.4729,-24.1947 -3.86,-45.2059 3.0753,-105.4166 6.8515,-59.4837 6.7291,-61.0105 -5.2942,-66.0331 -8.441,-3.526 -11.5585,-2.8169 -57.2287,13.0185 -81.2425,28.1694 -188.9648,48.8699 -293.0831,56.3204 -43.2277,3.0932 -163.4661,1.3037 -203.6481,-3.031 -146.623,-15.8172 -272.6937,-52.4257 -401.0636,-116.4614 -98.7384,-49.2544 -192.4046,-112.5265 -266.4325,-179.9769 -66.3238,-60.4307 -144.4628,-162.0419 -202.5114,-263.3437 -172.5706,-301.1565 -238.06934,-667.0737 -191.929,-1072.23581 3.3836,-29.71216 4.8694,-51.30706 4.1966,-60.99581 -1.8467,-26.59366 -13.5877,-49.23207 -30.7475,-59.28612 -7.9057,-4.63199 -10.4557,-5.11423 -22.30844,-4.21883 -23.0004,1.73753 -56.16113,15.73199 -96.73393,40.82363 -74.2126,45.8956 -151.4907,128.20718 -229.2967,244.23184 -125.0598,186.4897 -226.7755,431.5288 -297.3716,716.385 -27.306,110.1803 -44.2795,195.7107 -67.8651,341.9765 -23.1454,143.5361 -31.4499,220.3873 -39.6548,366.9747 -3.3922,60.605 -3.3904,306.2558 0,373.9743 18.9217,377.6228 63.2794,701.5147 158.1688,1154.9206 46.4172,221.7929 102.0624,540.9741 118.3671,678.9533 8.2457,69.7798 7.4693,155.1113 -2.1655,237.9836 -10.3383,88.9247 -39.5217,247.4778 -83.7416,454.9687 -7.6185,35.7475 -13.25,65.5579 -12.5145,66.2452 0.7355,0.6874 162.9128,46.4072 360.3942,101.6 197.48133,55.1926 366.25817,102.6708 375.05957,105.5072 37.2185,11.994 81.8345,37.3716 108.8879,61.9355 17.4319,15.8279 34.7845,38.0868 44.0193,56.4653 4.2059,8.3705 21.1873,55.266 37.7365,104.2127 40.5877,120.0439 232.7649,683.2322 236.6431,693.4985 1.2905,3.4161 2.8435,4.2893 6.2499,3.5139 2.493,-0.5673 34.6875,-5.4892 71.5433,-10.9372 z m -107.752,-87.6164 c -91.913,-268.9033 -177.7933,-520.9446 -204.4564,-600.0379 -29.5973,-87.7976 -34.4088,-100.0735 -46.8031,-119.4126 -25.0204,-39.0397 -73.882,-76.3112 -128.0731,-97.6939 -9.9056,-3.9085 -182.283,-53.1103 -383.06077,-109.3373 -200.7778,-56.2269 -365.8191,-102.9805 -366.7583,-103.8966 -0.9392,-0.916 2.4224,-20.876 7.4704,-44.3552 47.1449,-219.2833 76.8038,-380.0734 89.5831,-485.6592 3.9328,-32.4935 4.4895,-46.8573 4.5731,-117.9918 0.091,-77.4201 -0.1499,-82.8479 -5.4583,-122.9916 -15.288,-115.6136 -41.1722,-271.2617 -75.6442,-454.8671 -13.4216,-71.4859 -21.6067,-112.5786 -64.5525,-324.0793 -69.3959,-341.7627 -113.0158,-662.6432 -130.2198,-957.9341 -5.9781,-102.6087 -7.6901,-163.3646 -7.7202,-273.9812 -0.065,-239.4014 11.9507,-373.8689 56.8279,-635.9562 73.3068,-428.1191 212.629,-793.2645 394.4257,-1033.73854 64.7596,-85.66158 121.9814,-142.01606 182.4939,-179.72772 47.5705,-29.64614 88.99033,-45.25933 109.74217,-41.36717 10.5079,1.97086 23.6339,14.47008 29.9334,28.50415 9.3949,20.92987 10.175,35.80871 4.4894,85.6324 -20.3744,178.5428 -20.3841,337.24368 -0.03,496.21018 31.99,249.8494 115.464,478.228 244.2882,668.3541 56.6621,83.6253 116.8236,152.8492 175.5037,201.9406 262.9837,220.0106 581.8424,314.1368 921.3091,271.968 80.9593,-10.0568 173.3839,-31.484 236.5902,-54.8497 28.1858,-10.4195 37.3585,-11.2326 44.636,-3.9567 3.9787,3.9777 4.7706,6.3277 3.8753,11.4992 -1.1188,6.4619 -7.3926,61.2788 -11.1472,97.3974 -6.7361,64.7975 20.384,133.7439 71.857,182.6798 28.8824,27.4586 55.7556,42.5514 126.2636,70.9129 198.2387,79.7405 455.6333,133.3668 760.1206,158.3659 137.4684,11.2864 313.966,17.2664 355.5938,12.0479 45.0639,-5.6494 90.5207,-26.8845 126.0092,-58.8657 32.4603,-29.2522 59.8985,-78.6344 68.3764,-123.0614 2.0369,-10.6746 162.1335,-1099.152 162.1335,-1102.3268 0,-2.6577 159.7011,-81.5638 243.0386,-120.082 130.6339,-60.3784 158.5787,-69.5023 212.8733,-69.5023 52.7258,0 92.6453,12.6366 131.247,41.5464 18.9482,14.1907 28.1147,23.6058 37.4326,38.4481 38.7125,61.6637 35.2302,157.0409 -9.8934,270.9814 -6.0986,15.3989 -31.354,70.2951 -56.1235,121.9916 -133.6008,278.839 -189.051,408.5159 -259.537,606.9582 -75.5699,212.7562 -110.8533,343.256 -128.9576,476.9672 -13.8518,102.3038 -16.3176,189.595 -9.971,352.9757 6.7737,174.3692 27.5698,277.8897 144.6299,719.9505 75.6844,285.8116 93.11,357.3696 137.3346,563.9612 78.7615,367.9283 100.2129,530.6165 97.4347,738.9492 -1.1854,88.8969 -4.7834,146.4445 -12.5032,199.9862 -24.8241,172.1702 -107.9283,350.0704 -234.9781,503.0146 -27.1131,32.6392 -102.5728,107.8274 -133.0017,132.5231 -49.9637,40.55 -107.4302,78.8438 -150.0238,99.9705 -91.0666,45.1699 -234.7518,72.6974 -426.0675,81.6268 -62.2931,2.9076 -217.0641,1.2925 -285.0452,-2.9746 -46.2644,-2.9038 -149.7788,-6.6143 -313.0497,-11.2216 -256.0616,-7.2255 -480.4748,-9.6687 -570.0904,-6.2066 -300.5411,11.6106 -731.4233,55.1934 -1090.5808,110.31 -21.1277,3.2422 -39.603,5.895 -41.0564,5.895 -1.6971,0 -14.3193,-34.1622 -35.2828,-95.4934 z m 87.9815,82.5625 c 102.7169,-15.9013 282.8888,-39.5449 418.8338,-54.9628 206.1643,-23.3816 370.5268,-37.5246 587.0931,-50.5177 56.2247,-3.3732 398.453,-3.351 525.0833,0.034 204.3262,5.4622 394.0359,11.7914 432.0685,14.4152 131.3682,9.0624 303.8178,6.1342 421.0668,-7.1497 139.6745,-15.8249 239.463,-43.303 315.05,-86.7534 200.6042,-115.3151 376.3375,-337.3838 452.7146,-572.0817 23.5435,-72.3462 34.9433,-129.9121 41.2731,-208.4169 17.2327,-213.7257 2.0639,-404.5155 -55.1385,-693.5211 -53.3343,-269.4614 -91.1601,-430.1872 -178.849,-759.9477 -104.7898,-394.0693 -131.231,-522.9454 -139.0939,-677.9533 -3.5493,-69.9746 -4.6835,-210.6754 -2.0793,-257.9823 9.2475,-167.9846 39.6117,-307.3325 114.8646,-527.1381 82.932,-242.2357 141.1628,-380.8798 291.3146,-693.604 39.9232,-83.1485 51.7898,-110.6129 63.9826,-148.0818 20.1976,-62.0683 26.7266,-117.6845 19.0544,-162.3088 -3.9262,-22.8369 -7.639,-34.2494 -17.1637,-52.7584 -9.8464,-19.134 -22.5584,-33.6011 -42.7546,-48.6576 -56.8572,-42.3879 -131.0738,-52.1662 -207.1905,-27.298 -34.5442,11.2859 -159.1492,68.5906 -294.8011,135.5763 l -75.8861,37.4729 -70.4865,479.9169 c -97.7295,665.4047 -92.1781,628.7472 -98.0466,647.4215 -6.3726,20.2782 -20.1238,48.1807 -32.2701,65.4793 -12.1919,17.3632 -40.2762,44.7487 -58.0684,56.6229 -20.3548,13.5847 -49.0108,26.6812 -71.8782,32.8502 -18.779,5.0658 -22.0667,5.308 -82.5677,6.0793 -132.9453,1.6953 -311.5118,-9.7419 -477.4887,-30.583 -228.0466,-28.6351 -425.2465,-75.3571 -583.5506,-138.2587 -74.8941,-29.759 -103.2404,-45.4729 -132.9489,-73.7006 -22.4021,-21.2856 -38.5233,-43.2401 -51.5618,-70.219 -23.3991,-48.4171 -26.5862,-79.7159 -16.7412,-164.4036 6.6226,-56.9679 6.5728,-58.6655 -1.8031,-61.3233 -1.9433,-0.6167 -22.3403,5.1672 -45.3266,12.8529 -96.9,32.3997 -191.3281,50.6381 -301.674,58.2671 -44.3623,3.0671 -161.5752,1.2979 -202.1927,-3.0519 -193.5543,-20.7281 -368.0685,-82.8466 -528.0838,-187.9717 -85.1448,-55.9375 -148.5597,-109.0022 -200.2337,-167.5526 -191.4471,-216.9237 -314.9323,-518.744 -346.7414,-847.4994 -6.9268,-71.5902 -8.7188,-110.9651 -8.6922,-190.98693 0.031,-92.53868 4.2524,-168.10728 13.7413,-245.98308 4.8913,-40.14229 5.6151,-57.70665 2.9384,-71.30889 -4.0216,-20.43668 -13.7782,-36.21575 -26.5027,-42.86181 -19.13874,-9.99627 -65.38287,7.55632 -125.61927,47.68057 -34.1449,22.7443 -66.3147,51.26127 -101.2592,89.76138 -184.7635,203.56302 -333.113,528.20136 -422.6,924.79026 -28.4959,126.2884 -62.2282,324.7798 -75.0882,441.8429 -15.0211,136.7361 -20.2006,254.4655 -18.5203,420.9711 1.3797,136.7181 5.1976,219.8048 16.4491,357.9753 22.8861,281.0435 67.046,573.8136 136.9487,907.9376 57.0748,272.8082 112.0338,588.2977 128.3784,736.9493 3.4023,30.9441 3.3727,142.8608 -0.047,177.9877 -10.1301,104.0499 -32.3516,230.068 -83.4048,472.9879 -9.5102,45.2513 -16.984,82.5211 -16.6084,82.8217 0.3755,0.3008 165.4089,46.641 366.7409,102.9783 264.29157,73.9547 371.89717,104.8908 387.06137,111.2778 60.8993,25.6498 110.1509,67.5501 133.2629,113.372 3.7444,7.4237 30.5811,83.4684 59.637,168.9883 29.0559,85.52 88.9044,261.0929 132.9967,390.1618 44.0923,129.0689 80.1678,235.0366 80.1678,235.4838 0,1.6501 8.4563,0.6598 52.241,-6.1184 z m 78.2233,-127.922 c -19.0493,-6.1182 -30.4484,-21.4039 -30.4484,-40.8302 0,-18.1217 8.7187,-32.4099 24.8305,-40.692 11.9843,-6.1603 32.1024,-4.5269 43.5942,3.5396 22.3595,15.6947 25.0327,50.1681 5.2817,68.1119 -11.5341,10.4787 -28.9741,14.4582 -43.258,9.8707 z m 27.0977,-6.2323 c 21.014,-8.7782 30.049,-32.1104 20.2615,-52.324 -8.015,-16.5529 -27.4903,-25.6979 -44.1193,-20.7168 -11.6437,3.4875 -24.5737,16.5786 -27.6477,27.9921 -2.9919,11.1088 -1.4948,19.0684 5.7283,30.4557 9.8752,15.5679 28.9141,21.6371 45.7772,14.593 z m -26.2666,-1.7437 c -16.5213,-6.0818 -24.425,-19.3055 -22.8546,-38.238 1.5817,-19.0693 15.1801,-30.9181 35.4837,-30.9181 17.0086,0 29.7426,9.8056 34.193,26.3296 7.3332,27.227 -20.3683,52.5646 -46.8221,42.8265 z m 26.8864,-7.7079 c 20.2935,-13.6727 21.0621,-37.5564 1.6705,-51.9114 -19.4158,-14.3728 -50.5409,5.153 -46.8547,29.3936 3.3013,21.7087 28.0666,34.0508 45.1842,22.5178 z m 1676.1092,-93.9479 c -4.9508,-2.6426 -11.7019,-8.638 -15.0024,-13.3229 -5.4924,-7.7965 -6.0009,-9.9141 -6.0009,-24.9909 0,-14.5894 0.6237,-17.415 5.456,-24.7155 8.2115,-12.4055 20.8233,-18.9631 36.4714,-18.9631 15.8415,0 27.2857,5.7676 35.9635,18.1248 5.1166,7.2859 6.1636,10.8574 6.7415,22.9984 0.5787,12.1593 -0.056,15.7591 -4.1217,23.3724 -2.6432,4.9496 -8.6191,11.6846 -13.2797,14.9663 -7.1315,5.0219 -10.7513,6.0756 -22.85,6.6512 -12.1621,0.5785 -15.7627,-0.056 -23.3777,-4.1207 z m 39.3842,-4.9163 c 17.9017,-9.246 25.5139,-33.0977 16.1418,-50.5779 -10.279,-19.1719 -32.0865,-26.9228 -50.5738,-17.9752 -24.3763,11.7976 -29.9194,43.0103 -10.9978,61.9276 12.3256,12.3227 29.5383,14.8331 45.4298,6.6255 z m -33.3822,-0.8283 c -12.9607,-5.1669 -20.0042,-16.9117 -20.0042,-33.3557 0,-17.7404 10.154,-30.6055 27.1733,-34.4287 14.8601,-3.3379 29.2568,2.6758 38.3371,16.0145 6.3824,9.3758 6.3584,28.6709 -0.048,38.1744 -7.48,11.097 -16.3484,15.8615 -29.2529,15.7155 -6.1632,-0.07 -13.4559,-1.0237 -16.2057,-2.12 z m 26.6608,-4.4807 c 20.7841,-8.6822 25.2854,-36.1285 8.3617,-50.9843 -12.2029,-10.7121 -27.8806,-10.6757 -40.1482,0.092 -25.5978,22.47 0.3549,64.0214 31.7865,50.8915 z M 3359.639,5623.7561 c -40.0808,-6.7361 -80.7302,-30.1397 -105.9802,-61.0176 -17.7578,-21.7157 -32.942,-56.9241 -37.1351,-86.1067 -1.0774,-7.4981 -2.2744,-9.7201 -5.6383,-10.466 -5.4025,-1.1982 -542.5633,-85.0078 -544.8398,-85.0078 -0.926,0 -4.2135,5.1746 -7.3056,11.4992 -19.5391,39.9655 -57.0056,72.1474 -101.2282,86.9502 -18.1249,6.067 -20.4821,6.3652 -51.0081,6.4522 -27.5214,0.078 -34.2022,-0.5454 -47.6888,-4.4521 -67.0716,-19.4295 -113.329,-73.3018 -124.3335,-144.8015 -0.9215,-5.9867 -2.1431,-7.5674 -6.5694,-8.4998 -2.9907,-0.6297 -106.7036,-16.9418 -230.4732,-36.2491 -248.6623,-38.7897 -236.1663,-36.1043 -247.4695,-53.1807 -3.7794,-5.7098 -5.564,-11.3796 -6.1023,-19.3881 -0.9394,-13.9758 56.2641,-381.9763 60.8945,-391.7452 6.4189,-13.5425 23.6877,-24.5009 38.6623,-24.5341 4.4368,-0.02 447.0209,68.5808 457.0631,70.8347 3.2695,0.7337 5.1856,-1.5461 10.4848,-12.4756 20.2006,-41.6627 63.0296,-76.3427 109.5342,-88.6927 21.8517,-5.803 61.5746,-6.2401 83.0132,-0.9133 70.3011,17.4676 119.3791,72.6644 130.9377,147.2625 l 1.0898,7.0341 272.54,42.5201 c 149.897,23.3862 273.9785,42.494 275.7366,42.4624 1.7955,-0.032 4.8645,-3.7633 7.0011,-8.5104 15.3262,-34.0522 46.1483,-64.2192 83.13,-81.3628 25.8357,-11.9768 40.3668,-15.0209 71.6983,-15.0209 31.2332,0 45.8689,3.0479 71.358,14.8613 20.0379,9.2872 32.0912,17.3928 47.3955,31.8734 27.1381,25.6777 46.3497,63.1149 50.799,98.99 l 1.4747,11.8904 226.4419,35.378 c 124.5429,19.4578 229.2243,36.3477 232.6253,37.533 16.0285,5.5862 27.9502,22.4609 27.9904,39.6191 0.02,7.5149 -53.1644,353.4159 -58.1014,377.8972 -3.7322,18.5065 -22.3882,34.6034 -40.2284,34.7102 -4.034,0.024 -107.9917,-15.7049 -231.0166,-34.9536 -123.0251,-19.2487 -224.8031,-34.9976 -226.1735,-34.9976 -1.3702,0 -5.3108,5.6246 -8.757,12.4991 -23.3771,46.6344 -66.756,79.7784 -118.2273,90.3322 -14.1847,2.9084 -48.9004,3.9096 -61.5942,1.7763 z m 71.3011,-9.7541 c 45.6514,-13.2263 82.2246,-43.0785 103.2826,-84.3022 4.6449,-9.093 9.1614,-16.5369 10.0368,-16.5419 0.8751,0 102.5912,15.7945 226.0358,35.11 123.4444,19.3155 227.7143,35.169 231.711,35.2302 16.8761,0.258 33.0864,-11.6674 37.6908,-27.7277 1.2021,-4.1931 15.2126,-91.2021 31.1343,-193.3533 23.8494,-153.0135 28.6019,-187.0077 26.9801,-192.9867 -3.0757,-11.3379 -11.0926,-21.4468 -20.4855,-25.8309 -6.2426,-2.9138 -70.3211,-13.614 -235.6105,-39.3433 -124.8699,-19.4374 -227.5841,-35.9563 -228.254,-36.7086 -0.6702,-0.7524 -2.2896,-8.1095 -3.5992,-16.3493 -10.0316,-63.1159 -55.3296,-114.5599 -118.2728,-134.3204 -12.975,-4.0733 -18.9956,-4.6876 -45.9369,-4.6876 -26.9412,0 -32.9618,0.6143 -45.9369,4.6876 -30.1561,9.4674 -55.5388,25.3973 -76.0604,47.7354 -12.1731,13.2506 -28.9894,39.0739 -31.3034,48.07 -0.6737,2.6189 -2.6974,4.4997 -4.8417,4.4997 -5.2221,0 -554.2133,-85.9081 -555.9844,-87.0024 -0.803,-0.4961 -2.0822,-6.4005 -2.8427,-13.1209 -7.3385,-64.8499 -58.9443,-122.3698 -124.7646,-139.0626 -74.9451,-19.0071 -153.6807,17.2796 -188.1152,86.6964 -5.3054,10.6955 -8.2313,14.499 -11.1526,14.499 -2.1783,0 -104.6482,-15.7489 -227.711,-34.9976 -123.0628,-19.2486 -227.7791,-34.9976 -232.7029,-34.9976 -4.9237,0 -11.8628,1.216 -15.4202,2.7019 -8.0696,3.3709 -18.3043,14.8233 -21.1129,23.6247 -1.1708,3.6692 -15.2335,90.6626 -31.2505,193.3189 -31.4734,201.7202 -30.6551,193.4241 -20.557,208.4045 9.3245,13.8326 4.4297,12.8343 249.5439,50.8933 124.8698,19.3887 228.6112,35.7107 230.5365,36.2713 2.3826,0.694 3.505,3.0522 3.5146,7.3843 0.026,11.7698 8.0857,40.2336 15.9593,56.3613 25.3804,51.9882 73.7041,86.2541 131.6869,93.3782 33.4731,4.1125 72.0268,-4.2165 102.044,-22.0453 26.9359,-15.9985 55.0099,-47.0268 66.636,-73.6479 2.3261,-5.3263 4.4763,-9.9727 4.7781,-10.3255 0.9652,-1.1279 553.8985,85.5959 557.021,87.365 1.8133,1.0273 3.5839,6.3623 4.4751,13.4842 4.913,39.2617 27.5197,79.8362 58.9007,105.7148 41.8983,34.5518 98.9485,46.6966 149.9478,31.921 z m -78.3294,0.3256 c -54.0154,-12.3094 -97.4725,-49.0853 -117.6817,-99.5884 -5.7635,-14.4036 -11.3116,-38.0902 -11.3116,-48.2939 l 0,-6.4449 -227.5361,-35.5224 c -125.1448,-19.5372 -252.0661,-39.3647 -282.0475,-44.0612 l -54.5114,-8.5388 -7.8147,16.1393 c -21.3242,44.0394 -61.0469,75.788 -109.1983,87.2774 -15.1328,3.6108 -22.1485,4.1493 -44.007,3.3786 -22.505,-0.7936 -28.5611,-1.7787 -45.0071,-7.3213 -23.7362,-7.9993 -42.3297,-18.8961 -59.2588,-34.7288 -29.2807,-27.3845 -47.5674,-63.5388 -51.8498,-102.5126 l -1.3243,-12.0497 -229.3288,-35.7702 c -126.1309,-19.6736 -232.2264,-36.5593 -235.7678,-37.5236 -14.3094,-3.8969 -24.566,-17.8282 -24.566,-33.3671 0,-4.3437 13.056,-91.3943 29.0134,-193.4459 20.2937,-129.7831 30.1152,-187.6837 32.6792,-192.6529 4.3621,-8.4547 14.0608,-15.4992 23.8716,-17.3392 4.8886,-0.917 77.975,9.7265 234.3136,34.1228 124.9649,19.5007 229.6491,35.9327 232.6314,36.5159 4.9726,0.9721 5.8257,0.148 10.2826,-9.9273 30.0486,-67.9296 103.9403,-107.4174 177.1181,-94.6523 71.1723,12.4155 124.4308,67.3524 134.5332,138.7728 l 2.2753,16.0851 12.2122,2.0843 c 6.7168,1.1463 131.0312,20.587 276.2542,43.2016 145.223,22.6147 266.3846,41.5876 269.2481,42.1619 4.8358,0.9702 5.7743,-0.136 13.1867,-15.5487 25.2118,-52.422 77.4983,-87.2096 136.6316,-90.9042 85.9893,-5.3726 160.0918,55.438 172.0465,141.1865 1.141,8.1835 2.342,15.1464 2.6689,15.4732 0.3268,0.3267 104.2985,16.7952 231.0482,36.5962 133.0329,20.7828 232.9223,37.2783 236.2931,39.021 9.7385,5.0348 16.6408,15.9393 17.512,27.6657 1.0985,14.7887 -56.2718,379.7554 -61.1951,389.298 -4.3435,8.419 -14.0577,15.4315 -23.9454,17.2862 -5.0328,0.9439 -76.2525,-9.3862 -235.314,-34.1311 -125.4531,-19.5164 -229.4926,-35.8565 -231.1988,-36.3109 -2.199,-0.5857 -4.1273,2.0229 -6.6213,8.957 -9.0754,25.2321 -39.437,59.8557 -66.5535,75.8966 -7.5554,4.4693 -22.2886,11.0118 -32.7402,14.539 -16.9741,5.7282 -21.8863,6.4826 -46.0073,7.0653 -17.9221,0.4328 -31.0502,-0.2698 -39.0334,-2.089 z m 73.5862,-7.0636 c 8.5524,-2.19 23.8548,-8.243 34.0054,-13.4512 15.077,-7.7359 21.9653,-12.9655 37.628,-28.5677 16.9275,-16.8622 20.3236,-21.4831 29.0046,-39.4649 8.2479,-17.0848 10.5899,-20.3875 14.5347,-20.4985 2.5864,-0.072 105.6528,15.6651 229.0363,34.9732 123.3836,19.3078 228.2268,35.1317 232.985,35.1641 11.3006,0.076 22.3941,-7.1607 26.8649,-17.5272 1.9193,-4.4501 15.7463,-87.4563 32.5003,-195.1045 28.3605,-182.2237 29.0726,-187.5673 25.9833,-194.9592 -4.1154,-9.8478 -10.0438,-16.0379 -17.7818,-18.5668 -3.4137,-1.1157 -107.4728,-17.8045 -231.2425,-37.0866 -123.7696,-19.2821 -227.3842,-35.5378 -230.2545,-36.1239 -4.843,-0.9889 -5.3046,-2.0311 -6.4096,-14.4678 -1.7709,-19.9356 -6.326,-35.332 -16.3904,-55.3992 -27.0655,-53.9657 -80.6008,-86.994 -141.008,-86.994 -26.7016,0 -46.4523,4.7021 -71.0112,16.9056 -30.7757,15.293 -53.1315,37.7566 -70.19,70.5288 -8.8966,17.092 -10.7883,19.5004 -15.0023,19.1 -15.6279,-1.4853 -559.7126,-87.0076 -563.4106,-88.5601 -3.6906,-1.5495 -4.5007,-3.4597 -4.5007,-10.612 0,-12.602 -6.9627,-38.0296 -15.1586,-55.359 -15.212,-32.164 -39.8747,-57.2575 -71.8552,-73.11 -24.2561,-12.0236 -44.4365,-16.8928 -69.8311,-16.849 -23.946,0.042 -41.2811,3.3907 -61.8472,11.9505 -36.425,15.1602 -71.2919,49.8308 -84.4844,84.0081 -1.9105,4.9496 -4.0248,9.6407 -4.6985,10.4246 -0.6737,0.784 -104.6578,-14.7399 -231.0759,-34.4976 -126.4181,-19.7576 -233.9898,-35.9229 -239.0482,-35.9229 -11.691,0 -22.1109,6.7595 -26.6764,17.3052 -4.3764,10.1089 -61.8847,379.1795 -60.1971,386.3266 1.8593,7.8747 10.2481,18.1922 17.4369,21.446 3.4663,1.5688 110.6947,19.1072 238.2855,38.9745 141.2754,21.9979 232.5789,37.0586 233.5064,38.5173 0.8377,1.3177 1.5371,6.0764 1.5539,10.5751 0.042,11.3678 6.9909,37.3974 13.9544,52.2756 15.4208,32.9479 40.6582,58.7034 73.9435,75.4618 79.3626,39.9573 177.0037,4.3729 214.4282,-78.1464 4.019,-8.8616 6.9023,-12.7735 9.4145,-12.7735 4.046,0 566.8805,87.7783 567.6282,88.5261 0.2611,0.2608 1.4869,7.8666 2.7243,16.9016 9.8671,72.0485 63.7809,127.2729 135.1766,138.4629 16.4992,2.5858 42.9604,0.9565 61.4793,-3.7856 z M 655.21973,5195.8311 c -15.6413,-8.054 -23.0134,-20.3874 -23.0134,-38.5009 0,-25.9774 17.2199,-43.2266 43.0069,-43.0798 28.2625,0.1599 46.2847,20.2804 43.379,48.4276 -2.2173,21.4791 -17.7279,36.2343 -39.8175,37.8782 -10.9301,0.8136 -13.9916,0.2 -23.555,-4.7251 z m 37.5656,-4.1761 c 3.6137,-1.6529 9.1601,-6.1463 12.3253,-9.9855 14.8614,-18.0253 10.5304,-43.8864 -9.5045,-56.7539 -8.3428,-5.358 -10.7604,-5.9504 -21.656,-5.3058 -20.7863,1.2297 -34.6559,14.4288 -36.3266,34.5706 -2.5056,30.2071 27.0919,50.3143 55.1618,37.4746 z m -32.5745,-1.3071 c -7.7299,-3.4349 -14.0171,-10.3299 -17.9074,-19.6384 -4.2931,-10.2725 -3.8716,-19.1531 1.4048,-29.595 12.3175,-24.3767 45.2271,-26.377 61.9724,-3.7665 4.5191,6.1017 6.5716,18.6911 4.6858,28.7408 -1.6331,8.7038 -11.7486,20.7014 -20.5554,24.3803 -8.1522,3.4054 -21.7893,3.3496 -29.6002,-0.122 z m 25.004,-4.2385 c 7.5247,-2.0752 17.8331,-12.8795 20.0139,-20.9765 5.0353,-18.6954 -10.1908,-37.9424 -30.0155,-37.9424 -27.4625,0 -40.6925,34.262 -20.3404,52.6761 4.8884,4.4231 18.1554,9.387 22.3407,8.3591 1.6502,-0.4054 5.2508,-1.3577 8.0013,-2.1163 z M 4565.214,4490.4085 c -5.6033,-1.5321 -12.5936,-5.4595 -16.7469,-9.409 -29.5838,-28.1316 -11.4336,-75.883 28.7854,-75.7304 14.4467,0.054 25.8981,5.0509 33.9436,14.8092 27.7142,33.6145 -3.8264,81.8562 -45.9821,70.3302 z m 28.5809,-7.6887 c 13.5156,-6.9035 20.6173,-17.141 21.6335,-31.1857 0.6507,-8.9933 -0.094,-13.4574 -3.2876,-19.7164 -7.0635,-13.8426 -21.2307,-22.6366 -36.3089,-22.5378 -7.3414,0.048 -20.1728,6.5559 -26.7671,13.5756 -5.5062,5.8616 -11.8914,23.7818 -10.313,28.9446 0.4071,1.3319 1.2784,4.8799 1.9363,7.8847 1.6861,7.7005 12.6574,19.5052 22.1245,23.8049 10.7637,4.8887 20.3717,4.6499 30.9823,-0.7699 z m -25.2348,0.6558 c -22.2359,-5.5191 -33.1446,-31.3737 -22.0829,-52.3376 13.0195,-24.6739 51.2148,-23.898 63.4099,1.2881 13.3691,27.6105 -11.5824,58.4321 -41.327,51.0495 z m 24.0663,-8.6882 c 10.8741,-6.2328 15.6632,-15.7138 14.6637,-29.0293 -0.6551,-8.7252 -1.9719,-11.7793 -7.5674,-17.5511 -12.9983,-13.4079 -30.7625,-13.7041 -43.7402,-0.7296 -24.8701,24.8647 6.0826,64.8271 36.6439,47.31 z M 580.56583,3772.3711 c -13.6364,-4.8623 -22.1276,-14.0697 -26.5541,-28.7937 -12.6996,-42.2435 37.0036,-74.0983 70.6668,-45.2904 16.0964,13.7748 19.4735,40.0584 7.3871,57.4932 -11.1551,16.0911 -33.0863,23.1564 -51.4998,16.5909 z m 32.6013,-7.0836 c 15.6199,-7.9668 24.5125,-27.4071 20.0745,-43.8851 -3.2803,-12.1792 -16.7439,-25.1021 -28.8394,-27.6811 -29.832,-6.3612 -55.6775,22.829 -45.0848,50.9191 2.7897,7.3977 13.3497,18.4155 20.8807,21.7861 8.9233,3.9937 23.9218,3.4755 32.969,-1.139 z m -33.1262,-1.8108 c -26.186,-11.8904 -27.2327,-49.2292 -1.784,-63.6396 16.8849,-9.5612 39.5308,-3.3048 48.3431,13.3556 16.7455,31.6591 -14.1329,65.0078 -46.5591,50.284 z m 27.7931,-4.4515 c 20.4661,-10.5123 24.5812,-34.0431 8.6528,-49.478 -24.8043,-24.0358 -63.7957,5.2602 -47.5873,35.7545 7.2959,13.7265 26.0554,20.3388 38.9345,13.7235 z M 4289.7393,3148.2438 c -28.8262,-8.8848 -39.259,-45.905 -19.6385,-69.6856 16.705,-20.2472 50.5172,-20.4424 67.0518,-0.3876 14.6914,17.8192 13.9826,41.2704 -1.763,58.3486 -5.7802,6.2694 -10.9998,9.6479 -18.2141,11.7898 -12.098,3.5919 -15.5979,3.5837 -27.4362,-0.066 z m 28.6159,-5.6934 c 7.8445,-3.3652 18.4372,-14.2314 21.3166,-21.8671 6.1956,-16.4297 -0.198,-35.4834 -15.5216,-46.25 -7.1402,-5.0173 -10.5535,-6.0496 -20.0024,-6.0496 -25.5627,0 -42.4425,21.5735 -37.498,47.9245 1.5839,8.4408 13.3668,22.4016 22.1366,26.2286 7.9046,3.4491 21.546,3.4555 29.5688,0.02 z m -27.2009,-2.1359 c -9.9677,-3.5541 -15.1064,-8.2976 -19.6093,-18.1011 -11.3736,-24.7629 5.1634,-50.9965 32.1471,-50.9965 6.9387,0 13.0569,1.4065 17.8615,4.1063 27.0743,15.2132 22.3603,57.5582 -7.3254,65.8009 -9.5949,2.6642 -13.7394,2.5188 -23.0739,-0.8096 z m 26.6679,-6.8051 c 3.8334,-2.0367 9.0748,-6.7613 11.6476,-10.4993 3.9058,-5.6748 4.5447,-8.6976 3.8714,-18.3177 -0.6889,-9.8425 -1.7995,-12.546 -7.6214,-18.5513 -8.7878,-9.0646 -19.2482,-12.3612 -29.4891,-9.2936 -4.1568,1.2451 -10.6246,5.4272 -14.373,9.2936 -5.822,6.0053 -6.9325,8.7088 -7.6214,18.5513 -0.6734,9.6201 -0.034,12.6429 3.8714,18.3177 5.7599,8.3686 16.3084,14.2022 25.681,14.2022 3.8851,0 10.2001,-1.6662 14.0335,-3.7029 z M 2449.9659,2563.3938 c -32.979,-7.8205 -43.6903,-52.7555 -17.9596,-75.3422 9.4607,-8.3046 19.366,-11.3281 33.7133,-10.2906 36.8137,2.6623 52.4665,47.1033 25.9339,73.63 -12.1755,12.1726 -25.1808,15.9172 -41.6876,12.0028 z m 25.0698,-7.1369 c 35.0662,-14.6483 31.353,-63.2981 -5.5741,-73.0296 -24.6261,-6.4898 -51.5086,18.2434 -46.8444,43.0991 4.6051,24.5422 30.2558,39.1885 52.4185,29.9305 z m -26.2308,-1.7162 c -36.8896,-13.6561 -27.8786,-69.016 11.2556,-69.1506 12.1505,-0.042 21.2152,3.7463 27.8618,11.6435 19.0991,22.6928 6.387,55.9733 -22.6656,59.3391 -5.16,0.5978 -11.9223,-0.1552 -16.4518,-1.832 z m 27.4858,-7.7206 c 18.7764,-10.7622 20.4432,-35.6583 3.3499,-50.0379 -17.5078,-14.7286 -44.0056,-3.996 -49.0466,19.8657 -1.4378,6.8051 2.5454,18.745 8.4752,25.4055 8.6524,9.7184 24.9427,11.8046 37.2215,4.7667 z M 445.52853,2317.2125 c -9.2622,-2.8344 -22.9191,-17.1123 -25.8962,-27.0739 -6.1498,-20.5774 1.1991,-41.2634 18.3864,-51.7547 8.3104,-5.0727 11.8956,-6.0093 23.0037,-6.0093 24.5421,0 41.4217,15.7094 43.513,40.4964 0.8295,9.832 0.1492,13.0936 -4.6904,22.4869 -7.9145,15.3617 -18.2378,22.2075 -34.9265,23.1612 -7.0074,0.4005 -15.7329,-0.1876 -19.39,-1.3066 z m 32.5843,-7.2559 c 13.6306,-6.8927 21.0724,-18.8554 21.0724,-33.8739 0,-38.8565 -50.1949,-53.3118 -70.6235,-20.3383 -20.1857,32.5814 15.3795,71.4921 49.5511,54.2122 z m -31.936,-1.422 c -18.2089,-8.1258 -26.2817,-30.982 -17.2155,-48.7416 4.6786,-9.1648 9.2226,-13.3735 18.7247,-17.3428 26.2255,-10.9552 52.9523,10.9264 48.6205,39.8063 -1.6179,10.7867 -10.509,22.2249 -20.5295,26.4108 -8.1622,3.4096 -21.7994,3.3485 -29.6002,-0.1326 z m 29.998,-6.9711 c 26.6345,-15.1508 15.6834,-56.1748 -14.9956,-56.1748 -27.4132,0 -40.49,31.537 -21.3713,51.5409 10.2079,10.6804 22.8954,12.2971 36.3669,4.6339 z m 4294.15907,-780.098 c -25.1043,-5.9532 -39.6985,-36.9508 -28.7457,-61.055 4.4439,-9.7798 15.385,-19.7183 25.3144,-22.9946 4.0616,-1.3401 12.6948,-2.0525 19.185,-1.5832 37.4058,2.7051 53.0687,50.28 24.7564,75.1959 -12.172,10.7117 -25.1984,14.0678 -40.5101,10.4369 z m 28.3431,-8.5743 c 18.9376,-10.8294 26.0468,-30.9187 17.654,-49.8873 -7.3627,-16.6411 -27.0491,-26.3679 -43.9941,-21.7371 -25.4761,6.962 -37.0437,35.2609 -23.4098,57.2694 10.9714,17.7106 32.845,24.022 49.7499,14.355 z m -29.504,-0.2789 c -36.8897,-13.656 -27.8787,-69.0159 11.2555,-69.1505 12.1506,-0.042 21.2152,3.7463 27.8619,11.6435 19.099,22.6928 6.387,55.9733 -22.6656,59.3391 -5.1601,0.5978 -11.9223,-0.1552 -16.4518,-1.8321 z m 25.9309,-6.4343 c 9.062,-4.2993 15.0724,-13.1191 16.2879,-23.9014 1.2298,-10.9085 -2.0453,-19.1374 -10.609,-26.6547 -17.6856,-15.5246 -44.6935,-5.1718 -49.8207,19.0976 -1.4379,6.8051 2.5454,18.7451 8.4751,25.4055 8.0395,9.03 23.7658,11.699 35.6667,6.053 z M 852.88243,946.64258 c -12.5818,-3.34615 -22.3088,-11.15653 -27.6615,-22.21113 -3.6031,-7.44135 -4.2808,-11.71211 -3.6448,-22.9666 0.9528,-16.85772 7.8162,-28.10282 21.6637,-35.49424 7.6151,-4.0647 11.2156,-4.69937 23.3777,-4.12075 12.0988,0.57558 15.7186,1.62921 22.8501,6.65102 4.6606,3.28189 10.6364,10.01681 13.2796,14.96647 6.8138,12.7595 5.9075,33.65641 -1.9762,45.56671 -10.1141,15.27992 -29.6434,22.46083 -47.8886,17.60852 z m 28.5489,-7.83258 c 32.3079,-17.0527 26.9965,-62.08863 -8.44,-71.56431 -33.6955,-9.01012 -60.497,31.27164 -39.8064,59.82772 11.2465,15.52175 31.6646,20.48875 48.2464,11.73659 z m -25.9439,0.64414 c -8.5077,-2.00164 -15.9713,-7.48175 -21.7491,-15.9692 -6.3824,-9.37562 -6.3584,-28.67069 0.048,-38.17436 7.5423,-11.18943 16.3098,-15.84227 29.8522,-15.84227 16.1977,0 26.4803,6.03501 33.5262,19.67701 3.1955,6.18709 3.2516,24.35988 0.094,30.46542 -8.1686,15.79492 -24.9979,23.78969 -41.771,19.8434 z m 25.3633,-9.39365 c 9.8344,-7.34082 13.3972,-14.14727 13.3972,-25.59458 0,-17.95429 -12.0307,-29.99794 -29.9658,-29.99794 -8.934,0 -11.9196,1.00561 -18.3562,6.18287 -24.0494,19.34397 -9.4317,56.89397 21.0462,54.06361 4.8014,-0.44589 11.0468,-2.54019 13.8786,-4.65396 z"
           style="fill:#000000;fill-opacity:1" />
      </g>
    </g>
  </g>
</svg>
