<?xml version="1.0" encoding="UTF-8" standalone="no"?>
<svg
   xmlns:dc="http://purl.org/dc/elements/1.1/"
   xmlns:cc="http://creativecommons.org/ns#"
   xmlns:rdf="http://www.w3.org/1999/02/22-rdf-syntax-ns#"
   xmlns:svg="http://www.w3.org/2000/svg"
   xmlns="http://www.w3.org/2000/svg"
   version="1.1"
   id="svg4946"
   viewBox="0 0 870.76852 1398.2384"
   height="394.61395mm"
   width="245.75023mm">
  <defs
     id="defs4948">
    <clipPath
       clipPathUnits="userSpaceOnUse"
       id="clipPath4970">
      <path
         d="m 5748.62,384.762 -5338.432,0 0,8870.468 5338.432,0 0,-8870.468"
         id="path4972" />
    </clipPath>
  </defs>
  <metadata
     id="metadata4951">
    <rdf:RDF>
      <cc:Work
         rdf:about="">
        <dc:format>image/svg+xml</dc:format>
        <dc:type
           rdf:resource="http://purl.org/dc/dcmitype/StillImage" />
        <dc:title></dc:title>
      </cc:Work>
    </rdf:RDF>
  </metadata>
  <g
     transform="translate(-569.20308,-292.21853)"
     id="layer1">
    <g
       transform="matrix(0.15,0,0,-0.15,542.69761,1715.9361)"
       id="g4966">
      <g
         id="g4968"
         clip-path="url(#clipPath4970)">
        <g
           id="g4974"
           transform="matrix(0,8870.48,5338.43,0,410.187,384.762)">
          <path
             id="path5265"
             d="M 0.45231642,9.4668626e-4 C 0.42229912,0.00519169 0.39747712,0.01725369 0.38083952,0.03568129 c -0.003727,0.004127 -0.006481,0.007852 -0.009894,0.0133804 -0.0163206,0.0264328 -0.0240364,0.0506262 -0.0262945,0.0824482 -7.1202e-4,0.0100343 -7.1224e-4,0.0154743 -1.398e-5,0.3317722 1.2604e-4,0.0570813 2.8124e-4,0.11289479 3.4489e-4,0.12402997 1.4675e-4,0.0256716 -1.1105e-4,0.0319873 -0.001919,0.0470079 -0.001904,0.0158191 -0.004688,0.0293719 -0.00912,0.0443987 -0.005715,0.0193763 -0.0124939,0.0350168 -0.0220925,0.050971 -0.011304,0.0187889 -0.021682,0.0303305 -0.0352957,0.0392536 -0.0243384,0.0159525 -0.0571773,0.020807 -0.0941375,0.0139161 -0.0124337,-0.002318 -0.0252468,-0.006109 -0.036076,-0.0106724 -0.0296634,-0.0125008 -0.06009678,-0.0354018 -0.0848929,-0.0638816 -0.004599,-0.005283 -0.0117579,-0.0142013 -0.0136848,-0.0170496 -0.003233,-0.004779 -0.008279,-0.009623 -0.0124337,-0.0119349 -0.005321,-0.002962 -0.0113137,-0.00303 -0.0160826,-1.8469e-4 -0.00642,0.003831 -0.0123826,0.0123909 -0.0150597,0.0216191 -0.001681,0.005794 -0.001862,0.007643 -0.001762,0.0179825 1.0494e-4,0.0108422 6.813e-5,0.0105684 0.004094,0.0304625 0.00637,0.0314804 0.0132678,0.0560796 0.0230909,0.082347 0.009453,0.0252768 0.0191968,0.045628 0.0320441,0.0669257 0.0201117,0.03334 0.04053774,0.05604 0.06506217,0.072304 0.0223609,0.014829 0.0452977,0.02345 0.0739653,0.027801 0.005358,8.132e-4 0.006619,8.557e-4 0.0254791,8.579e-4 0.0204778,2.5e-6 0.0208765,-1.92e-5 0.0314543,-0.00171 0.008395,-0.00134 0.017539,-0.00351 0.0251573,-0.00598 0.004926,-0.0016 0.0250128,-0.00861 0.0312125,-0.010896 0.0332951,-0.012284 0.0601621,-0.026819 0.0961668,-0.052028 0.0196084,-0.013729 0.0470121,-0.034785 0.0616685,-0.047384 0.0253441,-0.021787 0.0580035,-0.0489734 0.0665182,-0.0553714 0.0299743,-0.0225229 0.0599658,-0.0361919 0.0881605,-0.0401803 0.009885,-0.001398 0.0250977,-0.001663 0.0331454,-5.7731e-4 0.0150338,0.002029 0.0267942,0.00646 0.0422773,0.0159285 0.0103185,0.00631 0.0203637,0.0134557 0.0408117,0.0290293 0.0208227,0.015859 0.0330312,0.0244775 0.0463653,0.0327311 0.0350834,0.021716 0.0679309,0.033037 0.10940104,0.037705 0.0292387,0.00329 0.0566863,-0.00432 0.07783,-0.021569 0.00924,-0.00754 0.0161095,-0.015788 0.0206149,-0.024753 0.002119,-0.004216 0.003165,-0.006932 0.004227,-0.0109713 7.301e-4,-0.002778 7.449e-4,-0.002943 7.476e-4,-0.008293 3.2e-6,-0.006137 -2.255e-4,-0.007965 -0.0015,-0.0120319 -0.001597,-0.005078 -0.004593,-0.008472 -0.009316,-0.0105538 -0.003306,-0.001458 -0.005103,-0.001962 -0.0142052,-0.003991 -0.0173208,-0.003858 -0.0290969,-0.007544 -0.0401356,-0.0125629 -0.0143142,-0.006507 -0.0239679,-0.0135252 -0.0377626,-0.0274533 -0.0247388,-0.024978 -0.0424469,-0.0557448 -0.0544732,-0.0946445 -0.009383,-0.0303493 -0.0141593,-0.0598117 -0.0151246,-0.0932942 -9.2457e-4,-0.0320694 0.00315,-0.0689463 0.0106408,-0.0963004 7.3808e-4,-0.002695 0.001342,-0.005084 0.001342,-0.005309 0,-2.8284e-4 -0.002444,-4.782e-4 -0.007948,-6.3522e-4 -0.008989,-2.5639e-4 -0.0118195,-6.353e-4 -0.0146787,-0.001965 -0.007835,-0.003643 -0.014094,-0.0135677 -0.0167551,-0.0265686 -7.689e-4,-0.003757 -0.002807,-0.0222139 -0.004118,-0.0372922 -0.003699,-0.0425402 -0.004372,-0.0875541 -0.001928,-0.12888722 0.001389,-0.02348 0.004203,-0.0489815 0.006287,-0.0569735 0.002327,-0.008924 0.006671,-0.0163956 0.012008,-0.0206548 0.0032,-0.002554 0.006005,-0.003694 0.009659,-0.003925 0.001612,-1.0199e-4 0.0331643,7.5953e-4 0.070116,0.001915 0.0369516,0.001155 0.0673002,0.002026 0.0674414,0.001936 3.7462e-4,-2.3885e-4 0.0199193,-0.0452621 0.0210375,-0.0484622 0.004812,-0.0137695 0.006157,-0.0301951 0.003487,-0.0425548 -0.002419,-0.011193 -0.008137,-0.0217169 -0.0148508,-0.0273326 -0.004203,-0.003516 -0.007911,-0.004917 -0.0130706,-0.004941 -0.004287,-1.949e-5 -0.005132,2.1502e-4 -0.0120631,0.003347 -0.0255669,0.0115518 -0.0502095,0.0198884 -0.0719278,0.0243332 -0.0434325,0.008889 -0.0917929,0.0100031 -0.12987599,0.002993 -0.0120544,-0.002219 -0.0210551,-0.004616 -0.0364166,-0.009697 -0.0447775,-0.0148113 -0.0697203,-0.0273249 -0.11013382,-0.055253 -0.008817,-0.006093 -0.0162147,-0.0108018 -0.0238008,-0.0151497 -0.0247262,-0.0141714 -0.0522668,-0.0251345 -0.0758737,-0.030203 C 0.48711953,6.72816e-4 0.48673153,6.37816e-4 0.47080973,5.33816e-4 c -0.0110719,-7.216e-5 -0.0158052,3.372e-5 -0.0184893,4.1319e-4 z m 0.032469,7.1899374e-4 c 0.0211686,0.00293 0.044267,0.0102866 0.0683202,0.0217606 0.0161217,0.00769 0.0281134,0.014705 0.0446245,0.0261031 0.0275814,0.0190403 0.0451602,0.0291982 0.0678896,0.0392301 0.0199035,0.008785 0.0502868,0.0192368 0.067531,0.0232312 0.0304608,0.007056 0.0669039,0.008681 0.1054115,0.004701 0.0150302,-0.001554 0.0321952,-0.004391 0.0443067,-0.007324 0.0190587,-0.004616 0.0410993,-0.012416 0.0629104,-0.0222646 0.007337,-0.003313 0.008732,-0.003675 0.0133015,-0.003448 0.003079,1.5264e-4 0.004106,3.562e-4 0.005958,0.001181 0.007358,0.003276 0.0137428,0.0112168 0.0179903,0.0223762 0.003288,0.008638 0.00446,0.0188513 0.003373,0.0293904 -8.6038e-4,0.008341 -0.002996,0.0170754 -0.005873,0.024018 -7.5186e-4,0.001815 -0.005403,0.0125489 -0.0103366,0.0238542 l -0.00897,0.0205549 -0.003833,-5.755e-5 c -0.002108,-3.147e-5 -0.0330552,-9.5582e-4 -0.0687711,-0.002054 -0.0422172,-0.001298 -0.0655691,-0.001882 -0.0667418,-0.00167 -0.003666,6.6242e-4 -0.008211,0.003487 -0.0113967,0.007081 -0.004062,0.004583 -0.007523,0.0119925 -0.009227,0.0197511 -0.00184,0.008379 -0.004309,0.0310027 -0.005631,0.0516126 -0.001172,0.0182586 -0.001627,0.0335661 -0.001626,0.0547021 0,0.026015 8.6636e-4,0.0480879 0.002865,0.0730611 0.001223,0.0152838 0.003586,0.0373771 0.004543,0.0424751 0.002868,0.0152868 0.0110657,0.0265899 0.020694,0.0285337 0.002032,4.1026e-4 0.0119721,0.001084 0.0162985,0.001105 l 0.002314,1.124e-5 -7.6611e-4,0.002529 c -0.002157,0.007121 -0.005232,0.0217705 -0.00698,0.0332522 -0.002736,0.0179746 -0.003923,0.0328597 -0.004139,0.0518921 -1.6785e-4,0.0148217 2.6296e-4,0.0259056 0.001515,0.0389659 0.003364,0.0351033 0.0124909,0.0708913 0.0254736,0.0998856 0.007199,0.016078 0.0167045,0.0320751 0.026717,0.0449638 0.0112395,0.0144682 0.0272114,0.0300962 0.037861,0.0370457 0.0153031,0.009986 0.0310167,0.0157852 0.0604452,0.0223068 0.009999,0.002216 0.0142474,0.004425 0.0170494,0.008866 0.002964,0.004698 0.004488,0.0135813 0.003463,0.0201804 -0.001428,0.00919 -0.007174,0.0202759 -0.0149857,0.0289116 -0.0126239,0.013955 -0.0293839,0.02403 -0.0478016,0.028733 -0.009598,0.00245 -0.0164939,0.00334 -0.0262683,0.00338 -0.007507,3.2e-5 -0.0100934,-1.708e-4 -0.0213078,-0.00167 -0.0319068,-0.00427 -0.05984,-0.013369 -0.0874007,-0.028479 -0.0181036,-0.00992 -0.033622,-0.020438 -0.0610774,-0.0413766 -0.044369,-0.0338377 -0.0607558,-0.0424558 -0.0852091,-0.0448131 -0.006061,-5.8428e-4 -0.0240676,-2.3689e-4 -0.0296726,5.7245e-4 -0.0305739,0.004415 -0.0612066,0.0184946 -0.0919955,0.0422846 -0.0103376,0.007988 -0.0394361,0.0322525 -0.0615026,0.0512862 -0.0116985,0.010091 -0.0261662,0.021594 -0.0426354,0.033901 -0.0436669,0.032629 -0.075053,0.051141 -0.10950348,0.064585 -0.0109649,0.00428 -0.0355789,0.01294 -0.043074,0.015157 -0.0290302,0.00859 -0.0629627,0.00967 -0.0930027,0.00298 -0.0398056,-0.00887 -0.0739835,-0.030469 -0.10044346,-0.063474 -0.0203119,-0.025336 -0.0374373,-0.055485 -0.0515084,-0.0906777 -0.012221,-0.0305657 -0.0206606,-0.059937 -0.0280453,-0.0976021 -0.002808,-0.0143213 -0.003468,-0.0199549 -0.00325,-0.0277257 2.7417e-4,-0.009766 0.002254,-0.017175 0.006463,-0.0241897 0.003979,-0.00663 0.008896,-0.0111463 0.0138755,-0.0127424 0.001999,-6.4062e-4 0.00581,-6.4208e-4 0.008005,-3e-6 0.005091,0.001483 0.0112109,0.006423 0.0155771,0.0125757 0.006479,0.00913 0.0181185,0.0226515 0.0278277,0.0323273 0.02378657,0.0237051 0.0520629,0.0426719 0.07775595,0.052156 0.004926,0.001818 0.0158119,0.005086 0.0211166,0.006339 0.036079,0.008521 0.0699322,0.005957 0.0952649,-0.007216 0.0159499,-0.008294 0.0272777,-0.0190253 0.0395531,-0.0374704 0.0212442,-0.0319216 0.0345251,-0.0750089 0.0371394,-0.120492 3.2124e-4,-0.005589 3.3168e-4,-0.0156186 1.0706e-4,-0.10285793 -7.8751e-4,-0.30584567 -8.3396e-4,-0.37238629 -2.655e-4,-0.38047958 0.002047,-0.0291419 0.007876,-0.0500844 0.0204544,-0.0734888 0.005269,-0.009804 0.0103918,-0.0174469 0.0155257,-0.0231637 0.0182496,-0.0203218 0.0467795,-0.0330804 0.0799324,-0.0357457037 0.004085,-3.2836e-4 0.0197325,1.192537e-4 0.0237881,6.805137e-4 z m -0.0231116,-1.2604e-4 c -0.0283744,0.001845 -0.0553111,0.0123018 -0.0733935,0.0284918 -0.007117,0.006372 -0.0122992,0.0127156 -0.0177063,0.0216733 -0.005864,0.009715 -0.0110873,0.0203173 -0.0147083,0.0298562 -0.001857,0.004893 -0.00503,0.015459 -0.00611,0.0203499 -0.001976,0.008947 -0.003378,0.0185894 -0.004087,0.0281004 -8.7204e-4,0.0117078 -8.6796e-4,9.68e-4 -1.2785e-4,0.3364556 1.257e-4,0.0569783 2.7635e-4,0.11199708 3.3479e-4,0.12226403 1.1509e-4,0.0202249 -3.021e-5,0.026026 -9.0688e-4,0.0362081 -0.004056,0.0471105 -0.0192249,0.0898961 -0.0431598,0.12173857 -0.0149133,0.0198403 -0.0342302,0.0322054 -0.0588501,0.0376711 -0.015393,0.003417 -0.0335583,0.003947 -0.0514092,0.001499 -0.0363817,-0.00499 -0.067632,-0.0194366 -0.09971115,-0.0460966 -0.0163115,-0.0135564 -0.0339292,-0.0322538 -0.0448111,-0.0475579 -0.004959,-0.006974 -0.0105249,-0.0115336 -0.0160276,-0.0131291 -0.003052,-8.8488e-4 -0.007283,-5.6829e-4 -0.010025,7.5013e-4 -0.007405,0.00356 -0.0143952,0.0137869 -0.0167304,0.0244767 -9.3893e-4,0.004298 -0.00125,0.007451 -0.001266,0.0128317 -2.309e-5,0.007749 5.8454e-4,0.0125572 0.003377,0.0267247 0.003432,0.0174074 0.006178,0.0293065 0.0100443,0.0435263 0.008687,0.0319478 0.0205287,0.0628442 0.0343379,0.0895957 0.0121897,0.023614 0.0271213,0.045861 0.04182638,0.062318 0.02876762,0.032194 0.06571579,0.05193 0.10800451,0.057689 0.009733,0.00133 0.0149802,0.00166 0.0259301,0.00165 0.0191949,-1.03e-5 0.0357958,-0.00231 0.0526494,-0.00728 0.009955,-0.00294 0.038497,-0.013207 0.0499436,-0.017968 0.0340804,-0.014176 0.0663702,-0.034054 0.11183765,-0.068849 0.0155705,-0.011916 0.02238,-0.01739 0.0323563,-0.026013 0.0209754,-0.018129 0.0558697,-0.0471649 0.0643743,-0.0535658 0.0291486,-0.0219385 0.0580558,-0.0354872 0.0853439,-0.04 0.0172612,-0.002855 0.0358474,-0.002369 0.049202,0.001286 0.0182037,0.004982 0.0329493,0.0138273 0.0699638,0.0419691 0.0321488,0.0244426 0.0499083,0.0361426 0.0702368,0.0462722 0.0263303,0.01312 0.0504133,0.020144 0.0844419,0.024625 0.007075,9.318e-4 0.0233189,9.262e-4 0.0293123,-1.01e-5 0.01363,-0.00213 0.0242828,-0.00559 0.035062,-0.011378 0.0113168,-0.00608 0.0227623,-0.015887 0.029586,-0.025349 0.005545,-0.00769 0.009417,-0.016568 0.0103204,-0.0236663 4.309e-4,-0.003386 4.222e-4,-0.004174 -9.22e-5,-0.008316 -0.001181,-0.009506 -0.004032,-0.0138212 -0.0110744,-0.0167591 -0.002932,-0.001223 -0.004562,-0.001651 -0.0172403,-0.004528 -0.0253467,-0.005752 -0.044714,-0.0140341 -0.0586246,-0.0250703 -0.005968,-0.004735 -0.0153053,-0.013662 -0.0219842,-0.0210185 -0.0232091,-0.0255642 -0.0401926,-0.0580911 -0.05126,-0.0981736 -0.0104532,-0.0378582 -0.0143544,-0.0774206 -0.0116363,-0.11800393 0.00144,-0.0215012 0.004695,-0.0427204 0.009248,-0.0602882 8.4963e-4,-0.003278 0.001492,-0.006102 0.001428,-0.006276 -6.446e-5,-1.7329e-4 -0.002166,-3.1746e-4 -0.00467,-3.2035e-4 -0.004981,-5.62e-6 -0.0111961,-5.1161e-4 -0.0140228,-0.001141 -0.007498,-0.00167 -0.0147385,-0.0104296 -0.0184243,-0.0222881 -0.00149,-0.004795 -0.00205,-0.007882 -0.003084,-0.0170299 -0.005561,-0.0491532 -0.00731,-0.0961237 -0.005309,-0.14256276 0.001131,-0.0262477 0.003836,-0.0551649 0.006327,-0.0676283 0.002565,-0.0128335 0.008631,-0.0226951 0.0165474,-0.0269008 0.004256,-0.002261 5.137e-5,-0.002265 0.0751497,6.7e-5 0.0376752,0.00117 0.0685904,0.002034 0.0687005,0.001921 4.0523e-4,-4.1615e-4 0.0193216,-0.0441364 0.0204673,-0.047305 0.003528,-0.009756 0.005392,-0.022281 0.004788,-0.0321614 -5.9563e-4,-0.00973 -0.002951,-0.0178731 -0.007456,-0.0257826 -0.002511,-0.004408 -0.005195,-0.0077 -0.008438,-0.0103504 -0.005107,-0.004173 -0.0104329,-0.005649 -0.0161153,-0.004465 -0.001879,3.9154e-4 -0.003084,8.8206e-4 -0.0146142,0.005951 -0.0224554,0.009871 -0.0455353,0.0174435 -0.0656881,0.0215518 -0.0365326,0.007447 -0.0775188,0.009507 -0.11181238,0.005618 -0.0218247,-0.002475 -0.0366238,-0.006042 -0.0631342,-0.0152184 -0.0391335,-0.0135442 -0.0640296,-0.026329 -0.10055515,-0.0516359 -0.0116377,-0.008063 -0.0184787,-0.0123637 -0.0286461,-0.0180081 -0.0257805,-0.0143118 -0.0531219,-0.0246504 -0.0766629,-0.0289885 -0.0121176,-0.002233 -0.0204486,-0.002774004 -0.0315671,-0.002052 z m 0.017957,0.00109 c 0.0347732,0.003291 0.0784159,0.0210218 0.11620313,0.0472106 0.0270033,0.0187148 0.0442748,0.0288698 0.0656144,0.0385787 0.015598,0.007097 0.0363561,0.0148079 0.0569335,0.0211498 0.0392938,0.0121103 0.0913047,0.014076 0.14374295,0.005433 0.0196057,-0.003232 0.0365406,-0.007798 0.0570462,-0.0153828 0.006776,-0.002506 0.0200348,-0.007963 0.0267193,-0.0109964 0.006815,-0.003092 0.008454,-0.003571 0.0122264,-0.003571 0.007724,0 0.0140564,0.004488 0.0198014,0.0140341 0.005144,0.008547 0.007612,0.0172508 0.007929,0.0279603 2.6163e-4,0.008834 -0.00126,0.0188243 -0.004246,0.0278819 -6.1143e-4,0.001855 -0.005548,0.0135494 -0.0109706,0.0259884 l -0.009859,0.0226164 -0.003833,-5.774e-5 C 0.9548305,0.20344305 0.9239847,0.20251952 0.8883928,0.2014229 0.8493465,0.2002189 0.8230231,0.1995489 0.8220232,0.1997329 0.8128962,0.2014139 0.8049363,0.2108587 0.8011404,0.2245105 c -0.002964,0.0106593 -0.006062,0.0423256 -0.007579,0.0774762 -3.8196e-4,0.008846 -5.3024e-4,0.0451872 -2.2877e-4,0.0560738 5.9702e-4,0.0215613 0.001823,0.0418639 0.003762,0.0623226 0.001205,0.01271 0.002939,0.027565 0.003585,0.0307231 0.003127,0.0152684 0.0112353,0.0265395 0.0206329,0.0286793 0.001302,2.9648e-4 0.005815,7.1993e-4 0.0100296,9.4095e-4 0.004214,2.2106e-4 0.00769,4.4837e-4 0.007724,5.0514e-4 3.416e-5,5.672e-5 -4.0049e-4,0.001858 -9.6588e-4,0.004003 -0.005407,0.0205159 -0.009001,0.0465072 -0.0100448,0.0726527 -3.2349e-4,0.008101 -1.3835e-4,0.0272071 3.3896e-4,0.0349822 0.001508,0.0245686 0.005071,0.0468983 0.0110585,0.0693089 0.01283,0.0480228 0.0329481,0.0839705 0.0631448,0.11282928 0.0128717,0.0123014 0.0223428,0.018623 0.0373166,0.0249074 0.0110379,0.004633 0.0216935,0.007787 0.0392336,0.0116149 0.0110733,0.002417 0.0155594,0.004625 0.0182548,0.008988 0.002522,0.004082 0.003971,0.0125382 0.003137,0.0183012 -1.4e-4,9.6704e-4 -6.3411e-4,0.003107 -0.001098,0.004756 -0.004999,0.0177634 -0.0221282,0.0357351 -0.0437251,0.0458761 -0.0159813,0.0075 -0.0360008,0.010975 -0.053231,0.00923 -0.0445233,-0.00451 -0.0792603,-0.016551 -0.1167982,-0.040476 -0.0117803,-0.007508 -0.0236464,-0.0159961 -0.0436302,-0.0312091 -0.005953,-0.004532 -0.0137148,-0.0103496 -0.0172492,-0.0129291 -0.0293683,-0.0214334 -0.046086,-0.0292695 -0.0669022,-0.0313591 -0.004955,-4.9737e-4 -0.0197695,-5.0383e-4 -0.0250119,-1.09e-5 -0.0316937,0.00298 -0.0647642,0.0175802 -0.0981107,0.0433146 -0.006188,0.004775 -0.0427828,0.035251 -0.0557475,0.0464256 -0.0178289,0.015367 -0.0323394,0.026922 -0.0525031,0.04181 -0.0422221,0.031175 -0.0721016,0.048481 -0.10691071,0.061924 -0.009388,0.00362 -0.0315868,0.011422 -0.0396237,0.013917 -0.0174822,0.00543 -0.0367767,0.00796 -0.0574451,0.00755 -0.0151598,-3.033e-4 -0.0259177,-0.00165 -0.0397536,-0.00496 -0.0383236,-0.00918 -0.0712841,-0.03051 -0.09711218,-0.062833 -0.0327598,-0.040998 -0.0577219,-0.0956924 -0.0731926,-0.16037182 -0.002041,-0.008533 -0.006645,-0.0309133 -0.007646,-0.037169 -0.002847,-0.0177877 -0.001184,-0.0303425 0.005397,-0.0407483 0.00353,-0.005583 0.007307,-0.009208 0.0114916,-0.0110339 0.002726,-0.001189 0.007024,-0.001337 0.009783,-3.3718e-4 0.005369,0.001947 0.0106511,0.006504 0.0154978,0.0133712 0.00552,0.007821 0.017928,0.022152 0.0269448,0.03112 0.02023019,0.0201207 0.04212921,0.0358994 0.06493799,0.0467892 0.0112974,0.005394 0.0263251,0.0103882 0.0393461,0.0130766 0.0364558,0.007527 0.0696959,0.003811 0.0944758,-0.0105625 0.005138,-0.00298 0.008833,-0.005589 0.0136415,-0.009629 0.007339,-0.006167 0.0129001,-0.0124313 0.0198379,-0.0223477 0.023266,-0.0332546 0.0374718,-0.0782935 0.0400422,-0.12695197 1.9136e-4,-0.003623 1.9159e-4,-0.0300539 0,-0.1043462 -7.729e-4,-0.30110269 -8.4936e-4,-0.36388894 -4.538e-4,-0.37260951 0.001281,-0.0282382 0.006522,-0.0496581 0.017561,-0.0717709 0.00435,-0.008715 0.0106686,-0.0191389 0.0146718,-0.0242072 0.0173804,-0.0220045 0.0469854,-0.0364127 0.081057,-0.0394492 0.005031,-4.484e-4 0.0159673,-4.6511e-4 0.02055,-3.147e-5 z m -0.0744395,0.0399548 c -0.002728,0.002382 -0.003615,0.007673 -0.00201,0.0119873 0.001592,0.004278 0.005646,0.00491 0.007677,0.001198 0.00183,-0.003346 0.001746,-0.008835 -1.8023e-4,-0.0118208 -0.001244,-0.001928 -0.004044,-0.002624 -0.005487,-0.001364 z m 0.004508,0.001532 c 0.001725,0.001991 0.002357,0.00576 0.001494,0.008916 -0.001449,0.005301 -0.005951,0.005675 -0.007629,6.3503e-4 -9.9423e-4,-0.002985 -8.4178e-4,-0.005762 4.506e-4,-0.008208 0.001548,-0.002929 0.00384,-0.003471 0.005684,-0.001343 z m -0.003944,-3.8351e-4 c -8.0197e-4,5.0075e-4 -0.001622,0.001774 -0.002059,0.003197 -9.8198e-4,0.003198 -1.8845e-4,0.00754 0.00167,0.009137 0.001071,9.2004e-4 0.002802,8.3653e-4 0.003884,-1.8745e-4 0.001118,-0.001058 0.001604,-0.002127 0.001954,-0.004297 4.5695e-4,-0.002839 -4.6169e-4,-0.00618 -0.002082,-0.007572 -6.2063e-4,-5.3331e-4 -0.002685,-7.039e-4 -0.003367,-2.7823e-4 z m 0.003363,0.001516 c 0.002186,0.002689 0.002099,0.007164 -1.883e-4,0.009726 -0.001913,0.002142 -0.004645,-1.2829e-4 -0.00511,-0.004245 -1.0515e-4,-9.3121e-4 -2.26e-6,-0.001739 3.891e-4,-0.003049 9.4941e-4,-0.003181 0.003339,-0.004364 0.004909,-0.002431 z m 0.55300712,0.0689672 c -0.003435,0.002719 -0.003848,0.0106584 -7.3653e-4,0.0141563 0.002089,0.002348 0.004503,0.001972 0.006278,-9.7647e-4 0.002239,-0.003721 0.00194,-0.009509 -6.4886e-4,-0.0125318 -0.001258,-0.001469 -0.003483,-0.001764 -0.004893,-6.4807e-4 z m 0.004117,0.001088 c 0.001946,0.00167 0.002869,0.006178 0.001905,0.009303 -9.0634e-4,0.002938 -0.002432,0.004448 -0.004241,0.004199 -0.003681,-5.0723e-4 -0.005343,-0.00752 -0.002836,-0.0119658 0.001442,-0.002557 0.00333,-0.003118 0.005172,-0.001537 z m -0.004112,5.777e-4 c -0.002293,0.002158 -0.002611,0.008031 -5.887e-4,0.0108594 8.9021e-4,0.001245 0.002316,0.001912 0.003382,0.001584 0.003138,-9.6624e-4 0.004401,-0.007008 0.002323,-0.0111124 -0.001166,-0.002302 -0.003452,-0.002897 -0.005116,-0.001331 z m 0.003941,9.6778e-4 c 0.001482,0.001787 0.001968,0.004753 0.001212,0.007399 -0.00109,0.003818 -0.004445,0.004143 -0.005881,5.6935e-4 -8.1086e-4,-0.002017 -8.8139e-4,-0.003548 -2.5646e-4,-0.005566 9.8995e-4,-0.003197 0.003323,-0.004335 0.004925,-0.002403 z m -0.46490532,-0.001842 c -0.002647,0.00108 -0.00557,0.003706 -0.007556,0.006787 -0.00251,0.003895 -0.00414,0.008269 -0.005193,0.0139308 -1.1373e-4,6.1188e-4 -8.075e-4,6.5568e-4 -0.0103882,6.5568e-4 l -0.0102664,0 0,0.0781227 0,0.0781227 -0.0108464,-9.726e-5 -0.0108464,-9.727e-5 -6.2462e-4,-0.00281 c -0.001584,-0.007126 -0.004642,-0.0128003 -0.008667,-0.0160807 -0.002807,-0.002288 -0.004267,-0.002816 -0.007798,-0.002823 -0.003614,-6.37e-6 -0.005021,5.1578e-4 -0.008051,0.002989 -0.003819,0.003116 -0.007288,0.009639 -0.008642,0.0162511 l -5.4521e-4,0.002661 -0.0102081,0 -0.0102082,0 0,0.12776321 0,0.1277632 0.0102029,0 0.0102029,0 6.3439e-4,0.002985 c 3.4893e-4,0.001642 0.001142,0.004276 0.001762,0.005855 0.003335,0.008488 0.008647,0.0132652 0.01474,0.0132547 0.005033,-8.62e-6 0.008862,-0.002606 0.0124109,-0.008421 0.002064,-0.003381 0.003311,-0.006563 0.004187,-0.0106782 l 5.9784e-4,-0.00281 0.0102861,-9.745e-5 0.0102862,-9.745e-5 0,-0.078119 0,-0.078119 0.0108579,9.726e-5 0.0108579,9.727e-5 3.9971e-4,0.001954 c 0.001895,0.009265 0.006585,0.0165023 0.0123828,0.0191085 0.002018,9.0712e-4 0.006756,8.8681e-4 0.008781,-3.765e-5 0.003366,-0.001537 0.006076,-0.004281 0.008517,-0.008624 0.001616,-0.002876 0.003315,-0.007652 0.00391,-0.0109956 l 2.8368e-4,-0.001592 0.0102236,0 0.0102236,0 0,-0.1277632 0,-0.12776321 -0.0102149,0 -0.0102149,0 -4.9156e-4,-0.002529 c -0.001757,-0.009042 -0.006564,-0.016374 -0.0123439,-0.0188303 -0.002295,-9.7516e-4 -0.00627,-9.8183e-4 -0.008641,-1.461e-5 z m 0.009476,0.001516 c 0.002345,0.001303 0.003274,0.002123 0.00536,0.004727 0.002506,0.00313 0.005099,0.009447 0.005866,0.0142878 l 2.5222e-4,0.001592 0.0102506,0 0.0102506,0 0,0.12701386 0,0.12701387 -0.0102412,0 -0.0102412,0 -3.8435e-4,0.001967 c -8.6611e-4,0.004432 -0.002142,0.007821 -0.004267,0.0113338 -0.002328,0.003848 -0.003793,0.005411 -0.0066,0.007041 -0.002572,0.001493 -0.006574,0.001859 -0.009146,8.359e-4 -0.003542,-0.001408 -0.007084,-0.005027 -0.009335,-0.009536 -0.00124,-0.002483 -0.003059,-0.00817 -0.003336,-0.0104269 l -1.4983e-4,-0.001221 -0.0114247,9.708e-5 -0.0114247,9.707e-5 -5.691e-5,0.0780255 -5.689e-5,0.0780255 -0.0102588,0 c -0.009198,0 -0.0102588,6.118e-5 -0.0102588,5.9176e-4 0,9.3004e-4 -0.001118,0.005336 -0.001959,0.007721 -0.001663,0.004714 -0.004884,0.009314 -0.008061,0.0115118 -0.008966,0.006202 -0.0193266,-0.001565 -0.0225702,-0.0169205 l -6.1335e-4,-0.002904 -0.0102301,0 -0.0102301,0 0,-0.12701386 0,-0.12701387 0.0102412,0 0.0102412,0 3.8435e-4,-0.001967 c 8.788e-4,-0.004498 0.002136,-0.007813 0.004377,-0.0115424 0.00185,-0.003079 0.002452,-0.003823 0.004294,-0.005309 0.002724,-0.002198 0.004719,-0.003008 0.007441,-0.003022 0.006861,-3.447e-5 0.0126204,0.006071 0.0156558,0.0165952 4.4081e-4,0.001528 8.641e-4,0.003334 9.4068e-4,0.004012 l 1.3921e-4,0.001233 0.0113616,0 0.0113616,0 0,-0.0781191 0,-0.0781191 0.0103157,-8.24e-6 0.0103157,-8.24e-6 5.1874e-4,-0.002708 c 0.001295,-0.006759 0.004642,-0.0130787 0.008736,-0.0164932 0.003738,-0.003118 0.008486,-0.003644 0.0125433,-0.00139 z m -0.009423,-2.848e-5 c -0.003258,0.001461 -0.006574,0.00496 -0.008637,0.009113 -0.00134,0.002697 -0.002829,0.007447 -0.00323,0.0103052 l -2.7601e-4,0.001967 -0.010206,0 -0.0102059,0 0,0.0781191 0,0.0781191 -0.0116998,0 -0.0116998,0 -1.5838e-4,-0.001403 c -2.4595e-4,-0.002179 -0.001158,-0.00563 -0.002169,-0.008208 -0.001113,-0.002839 -0.003708,-0.006975 -0.005457,-0.008697 -0.004616,-0.004546 -0.0107397,-0.005017 -0.0156032,-0.001201 -0.004408,0.003458 -0.007324,0.008892 -0.008819,0.0164343 l -6.0979e-4,0.003076 -0.0101108,0 -0.0101108,0 0,0.12626452 0,0.12626451 0.0101001,0 0.0101001,0 6.064e-4,0.003091 c 8.3975e-4,0.004281 0.002013,0.007451 0.003996,0.0107976 0.001943,0.00328 0.004059,0.005485 0.006652,0.006934 0.002428,0.001356 0.006224,0.001676 0.008819,7.4178e-4 0.002278,-8.1989e-4 0.005478,-0.00339 0.007128,-0.005726 0.002575,-0.003646 0.004747,-0.009238 0.005393,-0.0138862 l 2.711e-4,-0.001951 0.0102206,0 0.0102206,0 0,-0.0781191 0,-0.0781191 0.0116998,0 0.0116998,0 1.5858e-4,0.001404 c 4.1337e-4,0.003662 0.002103,0.008638 0.004136,0.0121783 0.004936,0.0086 0.0127602,0.0109304 0.0193185,0.005755 0.004217,-0.003328 0.007502,-0.009749 0.00879,-0.0171834 l 3.7348e-4,-0.002154 0.0101306,0 0.0101305,0 0,-0.12626452 0,-0.12626451 -0.0101172,0 -0.0101173,0 -2.8959e-4,-0.00178 c -0.001442,-0.008864 -0.005641,-0.016195 -0.0109302,-0.0190816 -0.002484,-0.001356 -0.007078,-0.001609 -0.009497,-5.2428e-4 z m 0.007308,6.2136e-4 c 0.005883,0.002004 0.0104854,0.008845 0.0123465,0.0183519 l 6.1894e-4,0.003162 0.0101134,0 0.0101134,0 0,0.12551135 0,0.12551135 -0.0101799,9.749e-5 -0.0101799,9.749e-5 -3.7747e-4,0.002248 c -8.0744e-4,0.004808 -0.002931,0.0101699 -0.005278,0.0133289 -0.001671,0.002249 -0.00446,0.004565 -0.006468,0.005372 -0.002092,8.4054e-4 -0.005574,7.7624e-4 -0.007737,-1.4279e-4 -0.005427,-0.002306 -0.0100674,-0.009805 -0.0115496,-0.0186638 l -3.9085e-4,-0.002336 -0.0121947,9.689e-5 -0.0121947,9.685e-5 -5.691e-5,0.0780255 -5.689e-5,0.0780255 -0.0100897,0 -0.0100897,0 -6.4327e-4,0.003382 c -0.001557,0.008187 -0.005766,0.0149907 -0.0108533,0.0175448 -0.001441,7.2342e-4 -0.002332,9.1158e-4 -0.0044,9.2934e-4 -0.002631,2.248e-5 -0.003637,-2.722e-4 -0.005862,-0.001718 -0.004786,-0.00311 -0.008556,-0.0100689 -0.009795,-0.0180789 l -2.8983e-4,-0.001873 -0.0101209,-1.8733e-4 -0.0101209,-1.8734e-4 0,-0.12532784 0,-0.12532783 0.0101236,-1.8734e-4 0.0101236,-1.8734e-4 3.7175e-4,-0.002248 c 0.002049,-0.0123935 0.009831,-0.0210117 0.0174148,-0.0192864 0.006451,0.001468 0.0119288,0.009264 0.0136228,0.0193889 l 3.9032e-4,0.002333 0.0121389,0 0.0121389,0 0,-0.0781191 0,-0.0781191 0.0102057,0 0.0102057,0 4.3304e-4,-0.002529 c 0.002276,-0.0132907 0.0105243,-0.0217246 0.0185675,-0.0189846 z m 0.16836704,0.005181 c -0.002947,0.00217 -0.003753,0.009161 -0.00151,0.0130887 0.001375,0.002407 0.003755,0.003216 0.005629,0.001915 0.003725,-0.002587 0.003889,-0.0117203 2.6485e-4,-0.0147926 -0.001028,-8.719e-4 -0.003336,-9.8295e-4 -0.004384,-2.1098e-4 z m 0.003668,8.0173e-4 c 0.001679,0.001165 0.002758,0.003798 0.002758,0.006726 0,0.002928 -0.001079,0.005561 -0.002758,0.006726 -0.00167,0.00116 -0.003524,3.32e-4 -0.004842,-0.002161 -6.2214e-4,-0.001177 -0.001192,-0.003359 -0.001192,-0.004565 0,-0.001206 5.6947e-4,-0.003388 0.001192,-0.004565 0.001317,-0.002493 0.003171,-0.003321 0.004842,-0.002161 z m -0.002626,1.7122e-4 c -0.003166,0.001238 -0.004022,0.008862 -0.00135,0.0120239 7.5834e-4,8.9731e-4 0.002635,0.001374 0.003685,9.3593e-4 9.5993e-4,-4.0033e-4 0.00234,-0.002754 0.002617,-0.004462 3.005e-4,-0.001854 1.1366e-4,-0.00412 -4.69e-4,-0.005686 -7.9154e-4,-0.002128 -0.00288,-0.003438 -0.004483,-0.002811 z m 0.002647,0.001522 c 0.001106,0.001045 0.001648,0.002361 0.001781,0.004322 1.3842e-4,0.002041 -2.335e-4,0.003578 -0.00121,0.005003 -0.001006,0.001468 -0.002089,0.001779 -0.003367,9.6871e-4 -0.001819,-0.001154 -0.002698,-0.004245 -0.002032,-0.007144 7.9786e-4,-0.003471 0.002979,-0.004895 0.004827,-0.003149 z m -0.31596512,0.2064931 c -0.001352,6.2075e-4 -0.002922,0.003422 -0.00327,0.005836 -7.352e-4,0.005092 0.001223,0.009761 0.004247,0.010124 0.001617,1.9438e-4 0.002734,-3.7205e-4 0.0038,-0.001928 0.001878,-0.00274 0.002178,-0.007641 6.8521e-4,-0.0112023 -9.9657e-4,-0.002378 -0.003557,-0.003705 -0.005462,-0.00283 z m 0.003436,0.001478 c 0.001111,8.9352e-4 0.002157,0.003242 0.002399,0.005384 3.6227e-4,0.003209 -0.001226,0.007136 -0.003259,0.008058 -0.001928,8.7508e-4 -0.004033,-7.7351e-4 -0.004934,-0.003863 -0.001797,-0.006167 0.002076,-0.01257 0.005794,-0.009579 z m -0.003279,-2.922e-5 c -0.001496,7.5691e-4 -0.002769,0.003859 -0.002757,0.006719 4.96e-6,0.00128 7.2154e-4,0.003759 0.001373,0.004752 0.001799,0.002741 0.00501,0.001929 0.006235,-0.001575 0.001086,-0.003108 3.2225e-4,-0.007771 -0.001534,-0.009366 -8.6942e-4,-7.471e-4 -0.002404,-9.9259e-4 -0.003317,-5.3061e-4 z m 0.003285,0.001725 c 8.8336e-4,0.001069 0.001669,0.003785 0.001531,0.005291 -4.1368e-4,0.004509 -0.003563,0.006734 -0.005566,0.003933 -0.001926,-0.002694 -0.00174,-0.007326 3.7761e-4,-0.009396 0.001063,-0.001039 0.002721,-9.6088e-4 0.003657,1.7261e-4 z m 0.43966739,0.17074631 c -0.003484,0.001585 -0.004736,0.009104 -0.002243,0.0134698 9.7019e-4,0.001699 0.00212,0.002496 0.003587,0.002486 0.001628,-1.011e-5 0.002919,-9.4627e-4 0.003826,-0.002774 0.003119,-0.006287 -4.311e-4,-0.0153372 -0.00517,-0.0131818 z m 0.003209,0.001446 c 5.4616e-4,4.6366e-4 0.001297,0.001478 0.001668,0.002254 0.001775,0.003707 5.1351e-4,0.00983 -0.002291,0.0111242 -0.001149,5.3024e-4 -0.001725,4.8977e-4 -0.002706,-1.8984e-4 -0.003032,-0.002101 -0.003793,-0.008206 -0.001479,-0.0118562 0.001415,-0.002231 0.003174,-0.002719 0.004807,-0.001332 z m -0.002845,-1.2286e-4 c -0.002506,0.001034 -0.003736,0.005878 -0.002489,0.009805 0.001365,0.004299 0.005226,0.004551 0.006917,4.5032e-4 8.1321e-4,-0.001972 7.9664e-4,-0.005384 -3.633e-5,-0.007477 -8.9583e-4,-0.002252 -0.002779,-0.003443 -0.004391,-0.002778 z m 0.002713,0.001628 c 0.001226,0.001168 0.001766,0.002944 0.001653,0.005439 -7.384e-5,0.001635 -2.2227e-4,0.002207 -8.5301e-4,0.003288 -0.001465,0.002512 -0.003468,0.002567 -0.00493,1.3668e-4 -0.002803,-0.004658 6.8564e-4,-0.0121453 0.004131,-0.008863 z M 0.3628037,0.63714547 c -0.002987,0.001891 -0.004106,0.007984 -0.002286,0.0124438 8.403e-4,0.002058 0.002032,0.003165 0.003647,0.003388 0.001499,2.0655e-4 0.002639,-4.2177e-4 0.003726,-0.002053 0.002423,-0.003637 0.001965,-0.0105602 -8.705e-4,-0.013165 -0.001203,-0.001105 -0.003021,-0.00137 -0.004217,-6.1338e-4 z m 0.003653,0.001334 c 0.002586,0.002081 0.003258,0.007474 0.001375,0.0110385 -0.001499,0.002837 -0.003611,0.003399 -0.005494,0.001462 -0.00465,-0.004786 -8.0372e-4,-0.0164602 0.004119,-0.0125005 z m -0.003259,5.54e-6 c -0.001026,4.9249e-4 -0.002246,0.002652 -0.002547,0.004509 -6.8897e-4,0.004252 9.7121e-4,0.008179 0.003583,0.008475 0.00244,2.7658e-4 0.004307,-0.002471 0.004315,-0.006353 6.54e-6,-0.003126 -7.2309e-4,-0.005083 -0.002364,-0.006341 -9.8041e-4,-7.5188e-4 -0.001848,-8.3598e-4 -0.002986,-2.896e-4 z m 0.002858,0.001254 c 0.001736,0.001492 0.002417,0.004683 0.001598,0.007494 -0.001218,0.004181 -0.004474,0.004491 -0.006054,5.7539e-4 -6.6564e-4,-0.001649 -6.0147e-4,-0.004529 1.3941e-4,-0.006258 9.2336e-4,-0.002155 0.002935,-0.002999 0.004316,-0.001811 z m -0.34293701,0.0656447 c -9.2799e-4,7.9419e-4 -0.001409,0.001523 -0.001917,0.002904 -0.001413,0.003845 -6.8217e-4,0.009089 0.001573,0.0112848 0.001507,0.001468 0.003139,0.001625 0.004681,4.5247e-4 0.004644,-0.003533 0.003413,-0.0148968 -0.001682,-0.0155269 -0.001232,-1.524e-4 -0.001577,-3.736e-5 -0.002655,8.8524e-4 z m 0.004235,7.8239e-4 c 0.001659,0.001261 0.002771,0.005074 0.00231,0.00792 -3.3298e-4,0.002055 -0.001128,0.003834 -0.002155,0.004826 -0.001206,0.001164 -0.003291,0.001037 -0.00444,-2.7163e-4 -0.002547,-0.0029 -0.002627,-0.00917 -1.5145e-4,-0.011892 0.001482,-0.001629 0.002827,-0.001806 0.004437,-5.8174e-4 z m -0.003671,3.0626e-4 c -0.001017,8.8086e-4 -0.001487,0.00169 -0.001944,0.003344 -5.5465e-4,0.002007 -5.2893e-4,0.003805 8.327e-5,0.005819 0.001388,0.004567 0.005098,0.004942 0.006986,7.0565e-4 5.094e-4,-0.001143 7.4076e-4,-0.003502 5.282e-4,-0.005385 -1.841e-4,-0.001631 -0.001324,-0.003878 -0.002317,-0.004568 -9.731e-4,-6.7561e-4 -0.002504,-6.3704e-4 -0.003336,8.406e-5 z m 0.003082,7.7192e-4 c 6.6452e-4,2.9699e-4 0.001921,0.00296 0.002086,0.004422 2.0623e-4,0.001827 -5.7933e-4,0.004557 -0.001651,0.005736 -0.002181,0.002401 -0.005206,-3.2994e-4 -0.005208,-0.004701 -1.42e-6,-0.002708 8.2175e-4,-0.004594 0.002408,-0.005518 7.8065e-4,-4.5454e-4 0.001238,-4.4274e-4 0.002365,6.108e-5 z m 0.0233658,0.0449281 c -0.002389,9.6267e-4 -0.004208,0.002719 -0.006176,0.005965 -0.00282,0.004652 -0.003918,0.009012 -0.003923,0.0155751 -4.94e-6,0.006597 0.001107,0.0111735 0.003831,0.015759 0.0053,0.008924 0.0136405,0.008924 0.0189402,0 0.002723,-0.004585 0.003835,-0.009162 0.003831,-0.015759 -4.92e-6,-0.006563 -0.001103,-0.0109232 -0.003923,-0.0155751 -0.002003,-0.003303 -0.003792,-0.005009 -0.006278,-0.005983 -0.001736,-6.8013e-4 -0.004589,-6.7216e-4 -0.006301,1.757e-5 z m 0.006572,0.001163 c 0.002192,0.001016 0.003863,0.002697 0.00567,0.005708 0.005118,0.008525 0.005064,0.0213643 -1.254e-4,0.0298684 -0.002575,0.00422 -0.005357,0.006134 -0.008915,0.006134 -0.003558,0 -0.00634,-0.001914 -0.008915,-0.006134 -0.005189,-0.008504 -0.005243,-0.0213433 -1.254e-4,-0.0298684 0.00349,-0.005813 0.007853,-0.007819 0.0124111,-0.005708 z m -0.006527,3.473e-4 c -0.004424,0.001934 -0.008136,0.008265 -0.009027,0.0153924 -3.9198e-4,0.003138 -1.7866e-4,0.009177 4.2134e-4,0.0119291 0.001013,0.004647 0.003357,0.009106 0.0059,0.0112271 0.002113,0.001762 0.003384,0.00225 0.005862,0.00225 0.002478,0 0.003749,-4.8781e-4 0.005862,-0.00225 0.002543,-0.002121 0.004886,-0.00658 0.0059,-0.0112271 6.0001e-4,-0.002752 8.1332e-4,-0.008792 4.2134e-4,-0.0119291 -9.0092e-4,-0.007211 -0.004633,-0.0135119 -0.009131,-0.0154153 -0.001668,-7.0586e-4 -0.004568,-6.9519e-4 -0.00621,2.286e-5 z m 0.005224,6.9628e-4 c 0.005894,0.001747 0.0102258,0.0108559 0.009814,0.0206369 -4.4472e-4,0.010553 -0.005563,0.0185399 -0.0118809,0.0185399 -0.006318,0 -0.0114361,-0.007987 -0.0118809,-0.0185399 -4.081e-4,-0.009684 0.003919,-0.0188766 0.009708,-0.0206225 0.002067,-6.2327e-4 0.002184,-6.2367e-4 0.00424,-1.435e-5 z m 0.48587126,0.02104 c -0.003593,0.002589 -0.003803,0.0116573 -3.3982e-4,0.0146762 0.002484,0.002165 0.005551,6.2162e-4 0.006757,-0.003399 0.001273,-0.004244 3.4253e-4,-0.009001 -0.002182,-0.0111586 -0.001022,-8.7395e-4 -0.003106,-9.3208e-4 -0.004235,-1.1818e-4 z m 0.003721,8.5125e-4 c 0.001785,0.001348 0.003042,0.004927 0.002693,0.007669 -9.1292e-4,0.007171 -0.00643,0.008467 -0.008244,0.001936 -0.00164,-0.005903 0.002034,-0.0122596 0.005551,-0.009605 z m -0.00363,7.3773e-4 c -0.001613,0.001683 -0.002383,0.004644 -0.001934,0.007434 3.4742e-4,0.002159 8.3528e-4,0.003239 0.001929,0.004271 0.001067,0.001008 0.002869,0.001106 0.003908,2.131e-4 0.002543,-0.002186 0.00281,-0.008764 4.6748e-4,-0.0115361 -0.001025,-0.001213 -0.003377,-0.001419 -0.004371,-3.8219e-4 z m 0.003533,8.2666e-4 c 0.001671,0.001417 0.002345,0.00443 0.00161,0.007193 -6.1811e-4,0.002322 -0.001654,0.00347 -0.003133,0.00347 -0.003163,0 -0.004614,-0.006211 -0.002293,-0.009813 0.001117,-0.001733 0.00243,-0.002026 0.003816,-8.5041e-4 z M 0.23493568,0.8075577 c -9.7134e-4,7.2997e-4 -0.002279,0.003066 -0.002588,0.004623 -1.4275e-4,7.1867e-4 -2.1831e-4,0.002382 -1.6792e-4,0.003697 1.697e-4,0.004429 0.002105,0.007352 0.004868,0.007352 0.002889,0 0.00486,-0.003299 0.004867,-0.008148 4.06e-6,-0.002845 -6.9051e-4,-0.005097 -0.002068,-0.006704 -8.2972e-4,-9.6798e-4 -0.00121,-0.00115 -0.002593,-0.001239 -0.001032,-6.662e-5 -0.001874,8.555e-5 -0.002317,4.1886e-4 z m 0.004511,0.001634 c 0.001102,0.00129 0.001935,0.003825 0.001935,0.005887 0,0.002176 -8.2356e-4,0.004661 -0.001992,0.00601 -8.3242e-4,9.6125e-4 -0.001187,0.001129 -0.002384,0.001129 -0.001886,0 -0.002999,-0.001186 -0.00386,-0.004111 -7.3326e-4,-0.00249 -6.8043e-4,-0.0042 2.0753e-4,-0.006718 0.001237,-0.003509 0.004094,-0.004539 0.006094,-0.002198 z m -0.004293,-1.1059e-4 c -0.002109,0.001525 -0.002829,0.00729 -0.00129,0.0103297 8.1704e-4,0.001613 0.001798,0.002353 0.003121,0.002353 0.001325,0 0.002304,-7.3929e-4 0.003124,-0.002359 0.001583,-0.003127 0.001148,-0.007645 -9.6422e-4,-0.01001 -8.8856e-4,-9.9501e-4 -0.002837,-0.001148 -0.003991,-3.1368e-4 z m 0.003703,0.001223 c 9.443e-4,0.001171 0.00144,0.002542 0.00156,0.004316 2.6835e-4,0.003956 -0.002103,0.007123 -0.004457,0.005952 -0.001076,-5.3561e-4 -0.002165,-0.002643 -0.002361,-0.004567 -2.5114e-4,-0.00247 8.2643e-4,-0.005407 0.002371,-0.006462 6.1073e-4,-4.1704e-4 0.002295,2.731e-5 0.002887,7.6173e-4 z m 0.5827954,0.0249231 c -0.001088,6.4092e-4 -0.001876,0.001729 -0.002468,0.003407 -0.001225,0.003472 -8.8787e-4,0.00761 8.3371e-4,0.0102474 0.00306,0.004688 0.007946,0.001676 0.00824,-0.005078 1.1698e-4,-0.002687 -2.239e-4,-0.004543 -0.00116,-0.006315 -0.001274,-0.002412 -0.003572,-0.003366 -0.005446,-0.002261 z m 0.003743,0.001254 c 3.2262e-4,2.7422e-4 9.0178e-4,0.001095 0.001287,0.001824 0.002545,0.004817 2.2214e-4,0.0122855 -0.003656,0.0117512 -0.003006,-4.1421e-4 -0.004834,-0.005707 -0.003524,-0.0102029 0.00106,-0.00364 0.00376,-0.005185 0.005893,-0.003372 z m -0.003754,3.1452e-4 c -0.001487,0.001076 -0.002551,0.004543 -0.002243,0.007307 5.8149e-4,0.005214 0.004218,0.007313 0.006687,0.00386 0.002078,-0.002905 0.001644,-0.008958 -7.8083e-4,-0.0109085 -0.00111,-8.9314e-4 -0.002638,-0.001001 -0.003664,-2.5832e-4 z m 0.003659,0.001392 c 0.001022,0.001044 0.001734,0.003644 0.001535,0.005604 -1.796e-4,0.001766 -0.001146,0.003783 -0.002142,0.004468 -0.001547,0.001065 -0.003653,-2.7002e-4 -0.004366,-0.002767 -8.5508e-4,-0.002994 -1.8336e-4,-0.00608 0.001665,-0.007648 0.001151,-9.7644e-4 0.002114,-8.7661e-4 0.003308,3.4295e-4 z m -0.51221623,-0.001701 c -0.00231,0.001013 -0.004064,0.002724 -0.005888,0.005744 -0.002467,0.004086 -0.003719,0.008537 -0.003962,0.014085 -3.0047e-4,0.00688 0.001119,0.013041 0.00408,0.017714 0.002738,0.00432 0.005528,0.00615 0.009377,0.00613 0.006171,-2.01e-5 0.0113121,-0.00672 0.0128579,-0.016768 0.001803,-0.0117126 -0.002526,-0.0238678 -0.009587,-0.0269242 -0.001672,-7.2362e-4 -0.005211,-7.1606e-4 -0.006878,1.469e-5 z m 0.006114,6.9475e-4 c 0.004602,0.001621 0.00856,0.007925 0.009788,0.0155895 1.8e-4,0.00112 3.285e-4,0.00345 3.2996e-4,0.00517 5.19e-6,0.00611 -0.001128,0.010574 -0.003823,0.015056 -0.004955,0.00824 -0.0125012,0.00848 -0.0175548,5.576e-4 -0.002765,-0.00433 -0.004124,-0.0094 -0.004121,-0.015372 2.93e-6,-0.00626 0.001113,-0.0106422 0.003847,-0.0151892 0.003189,-0.005304 0.007218,-0.007336 0.011533,-0.005816 z m -0.005977,7.6231e-4 c -0.002016,9.5439e-4 -0.003922,0.002792 -0.00538,0.005185 -0.004396,0.007219 -0.004998,0.0187115 -0.001417,0.0270495 0.002396,0.00558 0.005892,0.00851 0.0101134,0.00848 0.003646,-2.57e-5 0.006371,-0.00184 0.008843,-0.00589 0.005497,-0.009 0.00469,-0.0246018 -0.001644,-0.0317776 -0.002309,-0.002616 -0.003739,-0.003343 -0.006821,-0.003467 -0.001717,-6.918e-5 -0.002966,7.19e-5 -0.003696,4.1768e-4 z m 0.007078,0.001304 c 0.00371,0.002063 0.006639,0.007154 0.007758,0.0134802 4.6913e-4,0.00265 4.6746e-4,0.0079 -3.38e-6,0.010542 -0.001468,0.00823 -0.005722,0.013933 -0.0107981,0.014484 -0.00673,7.295e-4 -0.0125734,-0.00845 -0.0125734,-0.019755 0,-0.009531 0.004192,-0.0177725 0.00998,-0.0196225 0.001209,-3.864e-4 0.00421,7.734e-5 0.005637,8.7119e-4 z m 0.64564359,-0.001896 c -0.001591,0.001201 -0.002805,0.004403 -0.002801,0.00739 2.48e-6,0.002214 4.9664e-4,0.004071 0.001546,0.005812 0.001387,0.0023 0.002932,0.002969 0.004788,0.002072 0.004341,-0.002097 0.004849,-0.0122045 7.6877e-4,-0.0152846 -0.001179,-8.899e-4 -0.003115,-8.852e-4 -0.004302,1.042e-5 z m 0.003348,4.3736e-4 c 0.001812,8.3608e-4 0.003144,0.003863 0.003129,0.007111 -9.92e-6,0.002118 -3.839e-4,0.003461 -0.001424,0.005114 -0.001785,0.002836 -0.004311,0.002627 -0.006093,-5.0472e-4 -0.002053,-0.003609 -0.001096,-0.009874 0.001768,-0.011571 0.001061,-6.2886e-4 0.001524,-6.5523e-4 0.002621,-1.4932e-4 z m -0.003106,0.001053 c -0.002019,0.002083 -0.002658,0.005431 -0.001704,0.008922 0.001361,0.004981 0.005886,0.004957 0.007251,-3.943e-5 0.001287,-0.004709 -5.7087e-4,-0.009586 -0.003651,-0.009582 -7.9689e-4,7.5e-7 -0.001455,2.4363e-4 -0.001897,6.995e-4 z m 0.003415,8.2437e-4 c 0.001218,9.8008e-4 0.001921,0.002806 0.001921,0.004991 0,0.005773 -0.004372,0.007979 -0.006287,0.003171 -4.8612e-4,-0.001221 -5.5624e-4,-0.001746 -4.6823e-4,-0.003509 8.166e-5,-0.001637 2.4202e-4,-0.002318 7.6094e-4,-0.003235 0.001267,-0.002237 0.002514,-0.002672 0.004073,-0.001418 z m -0.7930432,0.0253139 c -0.005119,0.00131 -0.009386,0.00721 -0.0109494,0.015143 -4.6553e-4,0.00236 -5.4738e-4,0.00348 -5.325e-4,0.00729 1.51e-5,0.00386 9.861e-5,0.00485 5.9139e-4,0.00702 8.3696e-4,0.00368 0.001916,0.00645 0.003457,0.00885 0.002518,0.00393 0.005711,0.00603 0.00917,0.00604 0.00236,7.5e-6 0.003784,-5.397e-4 0.00602,-0.00231 0.005429,-0.00431 0.008386,-0.014461 0.007125,-0.024469 -9.6932e-4,-0.0077 -0.004616,-0.014385 -0.009102,-0.016688 -0.001433,-7.36e-4 -0.004502,-0.0012 -0.00578,-8.718e-4 z m 0.004442,0.0013 c 0.002266,7.796e-4 0.004425,0.00282 0.006276,0.00592 0.002885,0.00484 0.003955,0.00937 0.003767,0.015962 -1.2448e-4,0.00437 -7.4137e-4,0.00749 -0.002172,0.010995 -0.003786,0.00926 -0.0112455,0.011971 -0.0170852,0.0062 -0.005095,-0.00503 -0.007485,-0.015497 -0.005625,-0.024625 0.00183,-0.00898 0.006488,-0.014727 0.012021,-0.014833 8.93e-4,-1.72e-5 0.002161,1.537e-4 0.002818,3.798e-4 z m -0.004929,3.741e-4 c -0.005795,0.00161 -0.0102327,0.010453 -0.0102202,0.020369 1.127e-5,0.00891 0.003183,0.0165 0.008227,0.019676 0.001673,0.00105 0.005045,0.00143 0.006944,7.743e-4 0.002232,-7.699e-4 0.00465,-0.00305 0.006276,-0.00593 0.001738,-0.00307 0.002542,-0.00546 0.003132,-0.00929 0.002253,-0.014639 -0.005304,-0.028111 -0.0143587,-0.025597 z m 0.005212,0.00129 c 0.004021,0.00174 0.007351,0.00719 0.008556,0.014013 2.0002e-4,0.00113 3.5854e-4,0.00338 3.5705e-4,0.00506 -5.05e-6,0.0057 -0.00105,0.00989 -0.003475,0.01392 -0.003768,0.00627 -0.008881,0.00775 -0.0135525,0.00393 -0.00651,-0.00532 -0.008721,-0.01867 -0.004743,-0.028629 0.001555,-0.00389 0.004203,-0.00706 0.006917,-0.00827 0.001611,-7.2e-4 0.0043,-7.284e-4 0.005941,-1.85e-5 z m -0.0591804,0.054831 c -0.002518,0.00137 -0.003804,0.00462 -0.003535,0.00895 3.9263e-4,0.00632 0.004846,0.00936 0.007992,0.00546 0.001801,-0.00223 0.002329,-0.00727 0.001119,-0.010694 -7.9529e-4,-0.00225 -0.002188,-0.00366 -0.003817,-0.00387 -6.5692e-4,-8.34e-5 -0.001449,-1.33e-5 -0.00176,1.558e-4 z m 0.003659,0.0019 c 0.001263,0.00144 0.001837,0.00316 0.00193,0.00578 7.267e-5,0.00204 5.88e-6,0.00249 -5.9823e-4,0.00406 -0.001565,0.00405 -0.004654,0.00463 -0.006687,0.00125 -0.002033,-0.00338 -0.001686,-0.00851 7.5118e-4,-0.011111 9.4041e-4,-0.001 0.001213,-0.00111 0.002441,-9.94e-4 9.8787e-4,9.71e-5 0.001605,3.894e-4 0.002162,0.00102 z m -0.003996,-2.23e-5 c -0.002763,0.00212 -0.003242,0.00782 -9.4033e-4,0.011175 0.001286,0.00188 0.003586,0.00214 0.004867,5.676e-4 0.002549,-0.00314 0.002324,-0.0093 -4.2466e-4,-0.011608 -0.001213,-0.00102 -0.002295,-0.00106 -0.003502,-1.348e-4 z m 0.003441,0.00116 c 0.002638,0.00267 0.001987,0.00912 -0.001059,0.010486 -0.002279,0.00102 -0.004719,-0.003 -0.004078,-0.00671 6.7997e-4,-0.00394 0.003169,-0.00577 0.005136,-0.00378 z m 0.20939576,0.00184 c -0.001591,0.0012 -0.002805,0.0044 -0.002801,0.00739 7.89e-6,0.00688 0.004981,0.010698 0.008122,0.00623 0.002761,-0.00393 0.002275,-0.010854 -9.5491e-4,-0.013615 -0.001093,-9.341e-4 -0.003132,-9.368e-4 -0.004365,-5.8e-6 z m 0.003851,7.389e-4 c 0.00158,0.00119 0.002714,0.00407 0.002639,0.00669 -8.343e-5,0.0029 -0.001069,0.00534 -0.002639,0.00652 -0.001213,9.159e-4 -0.002296,8.712e-4 -0.003492,-1.442e-4 -0.001523,-0.00129 -0.002324,-0.00321 -0.002439,-0.00584 -2.4167e-4,-0.00555 0.002969,-0.00946 0.005931,-0.00723 z m -0.003872,9.927e-4 c -0.001736,0.00173 -0.002344,0.00547 -0.001409,0.00868 0.00143,0.00491 0.005873,0.00489 0.007217,-2.94e-5 8.8464e-4,-0.00324 2.1765e-4,-0.00711 -0.001504,-0.00874 -0.001259,-0.00119 -0.003055,-0.00115 -0.004304,9.29e-5 z m 0.003666,5.206e-4 c 0.002333,0.00176 0.00263,0.00731 5.2498e-4,0.0098 -0.00158,0.00187 -0.003915,0.00106 -0.004947,-0.00172 -3.993e-4,-0.00107 -4.8059e-4,-0.00174 -4.0212e-4,-0.00332 1.1779e-4,-0.00236 6.444e-4,-0.00369 0.001872,-0.00472 0.001111,-9.336e-4 0.001762,-9.435e-4 0.002953,-4.51e-5 z"
             style="fill:#000000" />
        </g>
      </g>
    </g>
  </g>
</svg>
